<?xml version="1.0" encoding="utf-8" standalone="no"?>
<!DOCTYPE svg PUBLIC "-//W3C//DTD SVG 1.1//EN"
  "http://www.w3.org/Graphics/SVG/1.1/DTD/svg11.dtd">
<svg xmlns:xlink="http://www.w3.org/1999/xlink" width="460.8pt" height="345.6pt" viewBox="0 0 460.8 345.6" xmlns="http://www.w3.org/2000/svg" version="1.1">
 <metadata>
  <rdf:RDF xmlns:dc="http://purl.org/dc/elements/1.1/" xmlns:cc="http://creativecommons.org/ns#" xmlns:rdf="http://www.w3.org/1999/02/22-rdf-syntax-ns#">
   <cc:Work>
    <dc:type rdf:resource="http://purl.org/dc/dcmitype/StillImage"/>
    <dc:date>2023-05-18T16:33:52.990084</dc:date>
    <dc:format>image/svg+xml</dc:format>
    <dc:creator>
     <cc:Agent>
      <dc:title>Matplotlib v3.5.3, https://matplotlib.org/</dc:title>
     </cc:Agent>
    </dc:creator>
   </cc:Work>
  </rdf:RDF>
 </metadata>
 <defs>
  <style type="text/css">*{stroke-linejoin: round; stroke-linecap: butt}</style>
 </defs>
 <g id="figure_1">
  <g id="patch_1">
   <path d="M 0 345.6 
L 460.8 345.6 
L 460.8 0 
L 0 0 
z
" style="fill: #ffffff"/>
  </g>
  <g id="axes_1">
   <g id="patch_2">
    <path d="M 103.104 307.584 
L 369.216 307.584 
L 369.216 41.472 
L 103.104 41.472 
z
" style="fill: #ffffff"/>
   </g>
   <g id="Quiver_1">
    <path d="M 115.998336 295.488 
L 115.599168 294.796621 
L 114.800832 294.796621 
L 114.401664 295.488 
L 114.800832 296.179379 
L 115.599168 296.179379 
L 115.998336 295.488 
L 115.599168 294.796621 
" clip-path="url(#p42d4fb2c35)"/>
    <path d="M 141.656596 295.477383 
L 141.667213 295.053979 
L 140.809789 295.456149 
L 142.186169 291.253963 
L 143.350211 295.519851 
L 142.514021 295.075213 
L 142.503404 295.498617 
L 141.656596 295.477383 
" clip-path="url(#p42d4fb2c35)"/>
    <path d="M 168.161915 295.467986 
L 168.190882 294.312871 
L 166.574698 295.070928 
L 169.169093 287.150119 
L 171.363209 295.191012 
L 169.787052 294.352899 
L 169.758085 295.508014 
L 168.161915 295.467986 
" clip-path="url(#p42d4fb2c35)"/>
    <path d="M 195.041915 295.467983 
L 195.167389 290.465268 
L 193.551202 291.223319 
L 196.145627 283.30252 
L 198.339712 291.343421 
L 196.763559 290.505302 
L 196.638085 295.508017 
L 195.041915 295.467983 
" clip-path="url(#p42d4fb2c35)"/>
    <path d="M 221.921915 295.467979 
L 222.134551 286.991818 
L 220.51836 287.749861 
L 223.112825 279.829075 
L 225.306869 287.869987 
L 223.730721 287.03186 
L 223.518085 295.508021 
L 221.921915 295.467979 
" clip-path="url(#p42d4fb2c35)"/>
    <path d="M 248.801915 295.467974 
L 249.089712 283.998588 
L 247.473516 284.756621 
L 250.068031 276.835851 
L 252.262025 284.876777 
L 250.685882 284.03864 
L 250.398085 295.508026 
L 248.801915 295.467974 
" clip-path="url(#p42d4fb2c35)"/>
    <path d="M 275.681915 295.467968 
L 276.030589 281.576516 
L 274.414388 282.334537 
L 277.00896 274.413786 
L 279.202896 282.454728 
L 277.626758 281.61658 
L 277.278085 295.508032 
L 275.681915 295.467968 
" clip-path="url(#p42d4fb2c35)"/>
    <path d="M 302.561916 295.467962 
L 302.955339 279.798651 
L 301.339132 280.556659 
L 303.933768 272.635928 
L 306.127639 280.676888 
L 304.551508 279.838727 
L 304.158084 295.508038 
L 302.561916 295.467962 
" clip-path="url(#p42d4fb2c35)"/>
    <path d="M 329.441916 295.467955 
L 329.862616 278.717998 
L 328.246402 279.475992 
L 330.841106 271.555284 
L 333.034908 279.596262 
L 331.458784 278.758088 
L 331.038084 295.508045 
L 329.441916 295.467955 
" clip-path="url(#p42d4fb2c35)"/>
    <path d="M 356.321916 295.467948 
L 356.751607 278.366036 
L 355.135386 279.124016 
L 357.73016 271.203331 
L 359.923891 279.244329 
L 358.347775 278.406141 
L 357.918084 295.508052 
L 356.321916 295.467948 
" clip-path="url(#p42d4fb2c35)"/>
    <path d="M 115.952568 268.874425 
L 115.807015 268.08947 
L 115.054447 267.823045 
L 114.447432 268.341575 
L 114.592985 269.12653 
L 115.345553 269.392955 
L 115.952568 268.874425 
L 115.807015 268.08947 
" clip-path="url(#p42d4fb2c35)"/>
    <path d="M 141.672123 268.554003 
L 141.72612 268.146126 
L 140.856369 268.446008 
L 142.619972 264.529229 
L 143.303631 268.769992 
L 142.541874 268.25412 
L 142.487877 268.661997 
L 141.672123 268.554003 
" clip-path="url(#p42d4fb2c35)"/>
    <path d="M 168.164119 268.545439 
L 168.243888 267.530638 
L 166.589565 268.201398 
L 169.602815 260.43027 
L 171.364851 268.576761 
L 169.83565 267.655759 
L 169.755881 268.670561 
L 168.164119 268.545439 
" clip-path="url(#p42d4fb2c35)"/>
    <path d="M 195.04317 268.558985 
L 195.341254 263.713055 
L 193.69858 264.411855 
L 196.579217 256.590601 
L 198.479559 264.705944 
L 196.934914 263.811085 
L 196.63683 268.657015 
L 195.04317 268.558985 
" clip-path="url(#p42d4fb2c35)"/>
    <path d="M 221.922799 268.56545 
L 222.366087 260.260143 
L 220.729135 260.972244 
L 223.546237 253.127881 
L 225.512342 261.227544 
L 223.96049 260.345243 
L 223.517201 268.65055 
L 221.922799 268.56545 
" clip-path="url(#p42d4fb2c35)"/>
    <path d="M 248.802614 268.569072 
L 249.353483 257.285388 
L 247.719782 258.004918 
L 250.501225 250.14784 
L 252.5041 258.238488 
L 250.948255 257.363245 
L 250.397386 268.646928 
L 248.802614 268.569072 
" clip-path="url(#p42d4fb2c35)"/>
    <path d="M 275.682511 268.571238 
L 276.313556 254.881641 
L 274.681817 255.605607 
L 277.4419 247.741 
L 279.466751 255.826177 
L 277.908535 254.955164 
L 277.277489 268.644762 
L 275.682511 268.571238 
" clip-path="url(#p42d4fb2c35)"/>
    <path d="M 302.562452 268.572527 
L 303.249628 253.12239 
L 301.61906 253.848993 
L 304.366428 245.979935 
L 306.404346 254.061828 
L 304.844723 253.193335 
L 304.157548 268.643473 
L 302.562452 268.572527 
" clip-path="url(#p42d4fb2c35)"/>
    <path d="M 329.442423 268.573207 
L 330.162756 252.060534 
L 328.532808 252.788526 
L 331.273468 244.917129 
L 333.318273 252.997282 
L 331.757911 252.130119 
L 331.037577 268.642793 
L 329.442423 268.573207 
" clip-path="url(#p42d4fb2c35)"/>
    <path d="M 356.322414 268.5734 
L 357.053226 251.727186 
L 355.423454 252.455571 
L 358.162215 244.583514 
L 360.208969 252.663173 
L 358.648398 251.796387 
L 357.917586 268.6426 
L 356.322414 268.5734 
" clip-path="url(#p42d4fb2c35)"/>
    <path d="M 115.952566 241.994428 
L 115.807017 241.209472 
L 115.05445 240.943044 
L 114.447434 241.461572 
L 114.592983 242.246528 
L 115.34555 242.512956 
L 115.952566 241.994428 
L 115.807017 241.209472 
" clip-path="url(#p42d4fb2c35)"/>
    <path d="M 141.687661 241.630623 
L 141.785038 241.238283 
L 140.902982 241.435868 
L 143.053773 237.804607 
L 143.257018 242.020132 
L 142.569717 241.433038 
L 142.472339 241.825377 
L 141.687661 241.630623 
" clip-path="url(#p42d4fb2c35)"/>
    <path d="M 168.168765 241.621757 
L 168.289109 240.725506 
L 166.600396 241.304254 
L 170.036534 233.710634 
L 171.347806 241.941714 
L 169.871579 240.937992 
L 169.751235 241.834243 
L 168.168765 241.621757 
" clip-path="url(#p42d4fb2c35)"/>
    <path d="M 195.045546 241.649366 
L 195.510641 236.950443 
L 193.843099 237.587629 
L 197.012804 229.878993 
L 198.609822 238.059435 
L 197.099549 237.107712 
L 196.634454 241.806634 
L 195.045546 241.649366 
" clip-path="url(#p42d4fb2c35)"/>
    <path d="M 221.924356 241.662499 
L 222.594489 233.522384 
L 220.937699 234.187026 
L 223.979645 226.427086 
L 225.711565 234.580033 
L 224.185778 233.653386 
L 223.515644 241.793501 
L 221.924356 241.662499 
" clip-path="url(#p42d4fb2c35)"/>
    <path d="M 248.803785 241.669838 
L 249.614743 230.568071 
L 247.964153 231.247962 
L 250.934412 223.460301 
L 252.74144 231.596932 
L 251.207172 230.684394 
L 250.396215 241.786162 
L 248.803785 241.669838 
" clip-path="url(#p42d4fb2c35)"/>
    <path d="M 275.683477 241.674222 
L 276.594308 228.183672 
L 274.947484 228.872638 
L 277.874834 221.068746 
L 279.72662 229.195307 
L 278.187353 228.291228 
L 277.276523 241.781778 
L 275.683477 241.674222 
" clip-path="url(#p42d4fb2c35)"/>
    <path d="M 302.563306 241.676825 
L 303.541808 226.443587 
L 301.897245 227.137931 
L 304.799081 219.324516 
L 306.677409 227.444983 
L 305.135197 226.545938 
L 304.156694 241.779175 
L 302.563306 241.676825 
" clip-path="url(#p42d4fb2c35)"/>
    <path d="M 329.443219 241.678191 
L 330.460762 225.400792 
L 328.817392 226.097955 
L 331.705823 218.279575 
L 333.598076 226.396808 
L 332.054324 225.50041 
L 331.036781 241.777809 
L 329.443219 241.678191 
" clip-path="url(#p42d4fb2c35)"/>
    <path d="M 356.323196 241.678568 
L 357.352566 225.086108 
L 355.709526 225.784047 
L 358.594263 217.964303 
L 360.49035 226.080642 
L 358.946175 225.184973 
L 357.916804 241.777432 
L 356.323196 241.678568 
" clip-path="url(#p42d4fb2c35)"/>
    <path d="M 115.952565 215.114433 
L 115.80702 214.329477 
L 115.054456 214.063043 
L 114.447435 214.581567 
L 114.59298 215.366523 
L 115.345544 215.632957 
L 115.952565 215.114433 
L 115.80702 214.329477 
" clip-path="url(#p42d4fb2c35)"/>
    <path d="M 141.70321 214.707243 
L 141.843967 214.330453 
L 140.94963 214.425728 
L 143.487573 211.0801 
L 143.21037 215.270272 
L 142.597547 214.611967 
L 142.45679 214.988757 
L 141.70321 214.707243 
" clip-path="url(#p42d4fb2c35)"/>
    <path d="M 168.176017 214.697301 
L 168.329974 213.896369 
L 166.611307 214.378954 
L 170.470251 206.991217 
L 171.315208 215.28315 
L 169.897941 214.197768 
L 169.743983 214.998699 
L 168.176017 214.697301 
" clip-path="url(#p42d4fb2c35)"/>
    <path d="M 195.049109 214.739229 
L 195.676557 210.176951 
L 193.986003 210.750301 
L 197.446387 203.167699 
L 198.731351 211.402926 
L 197.25834 210.394493 
L 196.630891 214.956771 
L 195.049109 214.739229 
" clip-path="url(#p42d4fb2c35)"/>
    <path d="M 221.926621 214.75917 
L 222.820198 206.778269 
L 221.144611 207.393987 
L 224.413048 199.726692 
L 225.904882 207.926968 
L 224.406955 206.955929 
L 223.513379 214.93683 
L 221.926621 214.75917 
" clip-path="url(#p42d4fb2c35)"/>
    <path d="M 248.805454 214.770299 
L 249.873736 203.846448 
L 248.206943 204.485591 
L 251.367594 196.773238 
L 252.974217 204.951799 
L 251.462827 204.00185 
L 250.394546 214.925701 
L 248.805454 214.770299 
" clip-path="url(#p42d4fb2c35)"/>
    <path d="M 275.684833 214.776934 
L 276.872998 201.482459 
L 275.211598 202.135494 
L 278.30776 194.397026 
L 279.982598 202.561891 
L 278.463331 201.624592 
L 277.275167 214.919066 
L 275.684833 214.776934 
" clip-path="url(#p42d4fb2c35)"/>
    <path d="M 302.564492 214.780864 
L 303.831991 199.76211 
L 302.173838 200.423345 
L 305.231727 192.669673 
L 306.946887 200.826163 
L 305.423007 199.896382 
L 304.155508 214.915136 
L 302.564492 214.780864 
" clip-path="url(#p42d4fb2c35)"/>
    <path d="M 329.444322 214.782915 
L 330.756722 198.738642 
L 329.10028 199.40415 
L 332.13817 191.642621 
L 333.87435 199.794662 
L 332.348079 198.868813 
L 331.035678 214.913085 
L 329.444322 214.782915 
" clip-path="url(#p42d4fb2c35)"/>
    <path d="M 356.324277 214.783458 
L 357.649701 198.442662 
L 355.993713 199.109301 
L 359.026303 191.3457 
L 360.76805 199.496554 
L 359.241147 198.571747 
L 357.915723 214.912542 
L 356.324277 214.783458 
" clip-path="url(#p42d4fb2c35)"/>
    <path d="M 115.261438 187.794468 
L 115.43497 187.855906 
L 115.384314 187.447404 
L 116.935321 188.582381 
L 115.015686 188.488596 
L 115.312094 188.20297 
L 115.138562 188.141532 
L 115.261438 187.794468 
" clip-path="url(#p42d4fb2c35)"/>
    <path d="M 141.718771 187.783863 
L 141.902908 187.422634 
L 140.996313 187.415589 
L 143.921372 184.355711 
L 143.163687 188.520411 
L 142.625366 187.790908 
L 142.441229 188.152137 
L 141.718771 187.783863 
" clip-path="url(#p42d4fb2c35)"/>
    <path d="M 168.190402 187.773604 
L 168.384799 187.004006 
L 166.651207 187.384811 
L 170.903965 180.272022 
L 171.268793 188.551189 
L 169.923994 187.392799 
L 169.729598 188.162396 
L 168.190402 187.773604 
" clip-path="url(#p42d4fb2c35)"/>
    <path d="M 195.053912 187.828694 
L 195.840122 183.392208 
L 194.12864 183.899684 
L 197.879965 176.456724 
L 198.845167 184.735521 
L 197.412298 183.670821 
L 196.626088 188.107306 
L 195.053912 187.828694 
" clip-path="url(#p42d4fb2c35)"/>
    <path d="M 221.929628 187.855514 
L 223.043703 180.02756 
L 221.350474 180.592961 
L 224.846445 173.026701 
L 226.092703 181.267875 
L 224.624446 180.252532 
L 223.510372 188.080486 
L 221.929628 187.855514 
" clip-path="url(#p42d4fb2c35)"/>
    <path d="M 248.807643 187.87048 
L 250.130729 177.120347 
L 248.448494 177.717664 
L 251.800769 170.086651 
L 253.202638 178.302786 
L 251.715443 177.315388 
L 250.392357 188.06552 
L 248.807643 187.87048 
" clip-path="url(#p42d4fb2c35)"/>
    <path d="M 275.686597 187.879391 
L 277.149799 174.777863 
L 275.474383 175.394049 
L 278.740681 167.725842 
L 280.234803 175.925701 
L 278.736606 174.95508 
L 277.273403 188.056609 
L 275.686597 187.879391 
" clip-path="url(#p42d4fb2c35)"/>
    <path d="M 302.566026 187.884657 
L 304.1203 173.077828 
L 302.449009 173.705115 
L 305.664365 166.015408 
L 307.212851 174.205176 
L 305.708248 173.244515 
L 304.153974 188.051343 
L 302.566026 187.884657 
" clip-path="url(#p42d4fb2c35)"/>
    <path d="M 329.445744 187.887387 
L 331.050734 172.073956 
L 329.38161 172.706985 
L 332.570509 165.006269 
L 334.147143 173.190664 
L 332.639245 172.235182 
L 331.034256 188.048613 
L 329.445744 187.887387 
" clip-path="url(#p42d4fb2c35)"/>
    <path d="M 356.325675 187.888079 
L 357.944716 171.796711 
L 356.276144 172.431194 
L 359.458335 164.727704 
L 361.042097 172.910723 
L 359.533367 171.956554 
L 357.914325 188.047921 
L 356.325675 187.888079 
" clip-path="url(#p42d4fb2c35)"/>
    <path d="M 115.276801 160.871085 
L 115.493716 160.947886 
L 115.430402 160.437255 
L 117.369151 161.856006 
L 114.969598 161.738745 
L 115.340114 161.381716 
L 115.123199 161.304915 
L 115.276801 160.871085 
" clip-path="url(#p42d4fb2c35)"/>
    <path d="M 141.734345 160.860483 
L 141.961861 160.514828 
L 141.043034 160.405449 
L 144.355169 157.631445 
L 143.116966 161.770551 
L 142.653172 160.969861 
L 142.425655 161.315517 
L 141.734345 160.860483 
" clip-path="url(#p42d4fb2c35)"/>
    <path d="M 168.206505 160.850232 
L 168.444273 160.096738 
L 166.699516 160.374697 
L 171.337676 153.553053 
L 171.220484 161.801303 
L 169.951262 160.572273 
L 169.713495 161.325768 
L 168.206505 160.850232 
" clip-path="url(#p42d4fb2c35)"/>
    <path d="M 195.059998 160.917891 
L 196.002556 156.595979 
L 194.272442 157.035762 
L 198.31354 149.746069 
L 198.952455 158.056418 
L 197.56256 156.936197 
L 196.620002 161.258109 
L 195.059998 160.917891 
" clip-path="url(#p42d4fb2c35)"/>
    <path d="M 221.933405 160.951588 
L 223.265537 153.270064 
L 221.555935 153.783836 
L 225.279838 146.327118 
L 226.275507 154.602306 
L 224.838728 153.542887 
L 223.506595 161.224412 
L 221.933405 160.951588 
" clip-path="url(#p42d4fb2c35)"/>
    <path d="M 248.810371 160.970412 
L 250.386018 150.389615 
L 248.689172 150.944067 
L 252.233939 143.400545 
L 253.426944 151.649595 
L 251.965275 150.624791 
L 250.389629 161.205588 
L 248.810371 160.970412 
" clip-path="url(#p42d4fb2c35)"/>
    <path d="M 275.688784 160.981614 
L 277.424902 148.06975 
L 275.736085 148.648194 
L 279.173594 141.055195 
L 280.483379 149.286511 
L 279.007334 148.282523 
L 277.271216 161.194386 
L 275.688784 160.981614 
" clip-path="url(#p42d4fb2c35)"/>
    <path d="M 302.567924 160.988217 
L 304.406876 146.39062 
L 302.722942 146.98313 
L 306.096996 139.361722 
L 307.475396 147.581826 
L 305.991027 146.590185 
L 304.152076 161.187783 
L 302.567924 160.988217 
" clip-path="url(#p42d4fb2c35)"/>
    <path d="M 329.447503 160.991619 
L 331.342912 145.406607 
L 329.661537 146.006341 
L 333.002841 138.370519 
L 334.416517 146.58463 
L 332.927905 145.59937 
L 331.032497 161.184381 
L 329.447503 160.991619 
" clip-path="url(#p42d4fb2c35)"/>
    <path d="M 356.327404 160.992439 
L 358.237713 145.148117 
L 356.55696 145.74959 
L 359.89036 138.110314 
L 361.312536 146.322958 
L 359.822905 145.339239 
L 357.912596 161.183561 
L 356.327404 160.992439 
" clip-path="url(#p42d4fb2c35)"/>
    <path d="M 115.292165 133.947702 
L 115.552463 134.039867 
L 115.476495 133.427106 
L 117.802981 135.129651 
L 114.923505 134.988894 
L 115.368133 134.560463 
L 115.107835 134.468298 
L 115.292165 133.947702 
" clip-path="url(#p42d4fb2c35)"/>
    <path d="M 141.749931 133.937104 
L 142.020827 133.607034 
L 141.089792 133.395311 
L 144.788964 130.907306 
L 143.070208 135.020689 
L 142.680966 134.148827 
L 142.410069 134.478896 
L 141.749931 133.937104 
" clip-path="url(#p42d4fb2c35)"/>
    <path d="M 168.222631 133.926862 
L 168.50377 133.189493 
L 166.747894 133.364585 
L 171.771384 126.834312 
L 171.172106 135.051415 
L 169.978507 133.75177 
L 169.697369 134.489138 
L 168.222631 133.926862 
" clip-path="url(#p42d4fb2c35)"/>
    <path d="M 195.067392 134.006961 
L 196.165153 129.788176 
L 194.418897 130.158707 
L 198.747111 123.03574 
L 199.054548 131.36494 
L 197.71037 130.190254 
L 196.612608 134.409039 
L 195.067392 134.006961 
" clip-path="url(#p42d4fb2c35)"/>
    <path d="M 221.937974 134.047453 
L 223.486278 126.505634 
L 221.761679 126.966567 
L 225.713225 119.627944 
L 226.453836 127.929847 
L 225.050331 126.826727 
L 223.502026 134.368547 
L 221.937974 134.047453 
" clip-path="url(#p42d4fb2c35)"/>
    <path d="M 248.813659 134.070129 
L 250.639923 123.654117 
L 248.92937 124.164716 
L 252.667103 116.71492 
L 253.647416 124.991942 
L 252.212605 123.929859 
L 250.386341 134.345871 
L 248.813659 134.070129 
" clip-path="url(#p42d4fb2c35)"/>
    <path d="M 275.691412 134.083623 
L 277.698517 121.358 
L 275.996964 121.897833 
L 279.606501 114.385087 
L 280.728491 122.644097 
L 279.275693 121.606754 
L 277.268588 134.332377 
L 275.691412 134.083623 
" clip-path="url(#p42d4fb2c35)"/>
    <path d="M 302.570201 134.091561 
L 304.691872 119.700367 
L 302.995835 120.257288 
L 306.52962 112.708615 
L 307.734629 120.955921 
L 306.27147 119.933245 
L 304.149799 134.324439 
L 302.570201 134.091561 
" clip-path="url(#p42d4fb2c35)"/>
    <path d="M 329.449613 134.095623 
L 331.633381 118.736477 
L 329.94023 119.302109 
L 333.435165 111.735371 
L 334.682552 119.976374 
L 333.214155 118.961232 
L 331.030387 134.320377 
L 329.449613 134.095623 
" clip-path="url(#p42d4fb2c35)"/>
    <path d="M 356.329482 134.09655 
L 358.528805 118.496745 
L 356.836318 119.064363 
L 360.322377 111.493531 
L 361.579428 119.733065 
L 360.109841 118.719646 
L 357.910518 134.31945 
L 356.329482 134.09655 
" clip-path="url(#p42d4fb2c35)"/>
    <path d="M 115.307532 107.024319 
L 115.611213 107.131851 
L 115.522596 106.416957 
L 118.23681 108.40332 
L 114.877404 108.239043 
L 115.396149 107.739213 
L 115.092468 107.631681 
L 115.307532 107.024319 
" clip-path="url(#p42d4fb2c35)"/>
    <path d="M 141.76553 107.013724 
L 142.079806 106.699254 
L 141.136589 106.385173 
L 145.222758 104.183297 
L 143.023411 108.270827 
L 142.708746 107.327806 
L 142.39447 107.642276 
L 141.76553 107.013724 
" clip-path="url(#p42d4fb2c35)"/>
    <path d="M 168.238781 107.003491 
L 168.563289 106.282272 
L 166.796342 106.354473 
L 172.205089 100.115805 
L 171.123658 108.301527 
L 170.005728 106.931289 
L 169.681219 107.652509 
L 168.238781 107.003491 
" clip-path="url(#p42d4fb2c35)"/>
    <path d="M 195.076101 107.096053 
L 196.329258 102.968879 
L 194.569514 103.268884 
L 199.180678 96.325738 
L 199.152906 104.660564 
L 197.857056 103.432772 
L 196.603899 107.559947 
L 195.076101 107.096053 
" clip-path="url(#p42d4fb2c35)"/>
    <path d="M 221.943353 107.143175 
L 223.706535 99.734178 
L 221.968416 100.141174 
L 226.146608 92.929183 
L 226.628296 101.250125 
L 225.259828 100.103828 
L 223.496647 107.512825 
L 221.943353 107.143175 
" clip-path="url(#p42d4fb2c35)"/>
    <path d="M 248.817522 107.169667 
L 250.892788 96.913745 
L 249.1695 97.379557 
L 253.100261 90.02978 
L 253.864366 98.329554 
L 252.457743 97.230411 
L 250.382478 107.486333 
L 248.817522 107.169667 
" clip-path="url(#p42d4fb2c35)"/>
    <path d="M 275.694495 107.185442 
L 277.970869 94.642503 
L 276.257302 95.142891 
L 280.0394 87.715521 
L 280.970329 95.998242 
L 279.541879 94.92762 
L 277.265505 107.470558 
L 275.694495 107.185442 
" clip-path="url(#p42d4fb2c35)"/>
    <path d="M 302.57287 107.194706 
L 304.975458 93.006962 
L 303.267904 93.527502 
L 306.962237 86.05609 
L 307.990681 94.327269 
L 306.549717 93.27355 
L 304.14713 107.461294 
L 302.57287 107.194706 
" clip-path="url(#p42d4fb2c35)"/>
    <path d="M 329.452088 107.199412 
L 331.922282 92.063448 
L 330.21787 92.594185 
L 333.867482 85.100826 
L 334.945344 93.36571 
L 333.498107 92.320623 
L 331.027912 107.456588 
L 329.452088 107.199412 
" clip-path="url(#p42d4fb2c35)"/>
    <path d="M 356.331923 107.200424 
L 358.818122 91.842467 
L 357.114392 92.37539 
L 360.754387 84.877355 
L 361.842851 93.140849 
L 360.394275 92.09762 
L 357.908077 107.455576 
L 356.331923 107.200424 
" clip-path="url(#p42d4fb2c35)"/>
    <path d="M 115.322902 80.100936 
L 115.669966 80.223838 
L 115.568705 79.406808 
L 118.67064 81.677017 
L 114.831295 81.489192 
L 115.424162 80.917966 
L 115.077098 80.795064 
L 115.322902 80.100936 
" clip-path="url(#p42d4fb2c35)"/>
    <path d="M 141.781142 80.090345 
L 142.138797 79.791487 
L 141.183427 79.375035 
L 145.656551 77.459423 
L 142.976573 81.520965 
L 142.736513 80.506797 
L 142.378858 80.805655 
L 141.781142 80.090345 
" clip-path="url(#p42d4fb2c35)"/>
    <path d="M 168.254953 80.080121 
L 168.622833 79.375074 
L 166.84486 79.344362 
L 172.638792 73.397534 
L 171.07514 81.551638 
L 170.032926 80.110833 
L 169.665047 80.815879 
L 168.254953 80.080121 
" clip-path="url(#p42d4fb2c35)"/>
    <path d="M 195.086117 80.18532 
L 196.496235 76.138334 
L 194.725789 76.366856 
L 199.614241 69.616068 
L 199.249086 77.942938 
L 198.004001 76.663694 
L 196.593883 80.71068 
L 195.086117 80.18532 
" clip-path="url(#p42d4fb2c35)"/>
    <path d="M 221.949555 80.238823 
L 223.926946 72.955665 
L 222.176879 73.307755 
L 226.579985 66.230838 
L 226.799548 74.562818 
L 225.467835 73.374019 
L 223.490445 80.657177 
L 221.949555 80.238823 
" clip-path="url(#p42d4fb2c35)"/>
    <path d="M 248.821975 80.269066 
L 251.144978 70.168417 
L 249.409993 70.588573 
L 253.533413 63.345127 
L 254.078143 71.66218 
L 252.701028 70.526286 
L 250.378025 80.626934 
L 248.821975 80.269066 
" clip-path="url(#p42d4fb2c35)"/>
    <path d="M 275.698047 80.287096 
L 278.242202 67.923168 
L 276.517392 68.383312 
L 280.472294 61.046497 
L 281.209109 69.348738 
L 279.806108 68.244977 
L 277.261953 80.608904 
L 275.698047 80.287096 
" clip-path="url(#p42d4fb2c35)"/>
    <path d="M 302.575946 80.297669 
L 305.257815 66.310304 
L 303.539376 66.793696 
L 307.394846 59.404146 
L 308.243702 67.695681 
L 306.825924 66.610965 
L 304.144054 80.598331 
L 302.575946 80.297669 
" clip-path="url(#p42d4fb2c35)"/>
    <path d="M 329.454942 80.303004 
L 332.20977 65.387413 
L 330.494657 65.88248 
L 334.299792 58.466884 
L 335.205007 66.752455 
L 333.779886 65.677405 
L 331.025058 80.592996 
L 329.454942 80.303004 
" clip-path="url(#p42d4fb2c35)"/>
    <path d="M 356.334745 80.304075 
L 359.105807 65.185157 
L 357.391371 65.682563 
L 361.186388 58.261785 
L 362.102903 66.546113 
L 360.676318 65.473008 
L 357.905255 80.591925 
L 356.334745 80.304075 
" clip-path="url(#p42d4fb2c35)"/>
    <path d="M 115.338275 53.177553 
L 115.728721 53.315828 
L 115.614824 52.396659 
L 119.104469 54.950746 
L 114.785176 54.739341 
L 115.452172 54.096721 
L 115.061725 53.958447 
L 115.338275 53.177553 
" clip-path="url(#p42d4fb2c35)"/>
    <path d="M 141.796769 53.166966 
L 142.197803 52.883734 
L 141.230306 52.364898 
L 146.090341 50.735686 
L 142.929694 54.771102 
L 142.764266 53.685803 
L 142.363231 53.969034 
L 141.796769 53.166966 
" clip-path="url(#p42d4fb2c35)"/>
    <path d="M 168.27453 53.158768 
L 168.703935 52.439506 
L 166.923763 52.306513 
L 173.072492 46.679504 
L 171.036585 54.761903 
L 170.074876 53.257969 
L 169.64547 53.977232 
L 168.27453 53.158768 
" clip-path="url(#p42d4fb2c35)"/>
    <path d="M 195.097409 53.274914 
L 196.667432 49.296961 
L 194.889164 49.453379 
L 200.0478 42.906732 
L 199.344708 51.211897 
L 198.152613 49.883134 
L 196.582591 53.861086 
L 195.097409 53.274914 
" clip-path="url(#p42d4fb2c35)"/>
    <path d="M 221.956584 53.33447 
L 224.148169 46.170125 
L 222.387807 46.46648 
L 227.013357 39.532911 
L 226.968303 47.867662 
L 225.675001 46.637185 
L 223.483416 53.80153 
L 221.956584 53.33447 
" clip-path="url(#p42d4fb2c35)"/>
    <path d="M 248.827028 53.368365 
L 251.396875 43.41808 
L 249.651295 43.791784 
L 253.966558 36.660963 
L 254.28913 44.989591 
L 252.94282 43.817349 
L 250.372972 53.767635 
L 248.827028 53.368365 
" clip-path="url(#p42d4fb2c35)"/>
    <path d="M 275.702079 53.388613 
L 278.512774 41.199917 
L 276.777545 41.619063 
L 280.90518 34.378018 
L 281.445069 42.695387 
L 280.068615 41.558691 
L 277.257921 53.747387 
L 275.702079 53.388613 
" clip-path="url(#p42d4fb2c35)"/>
    <path d="M 302.579439 53.400473 
L 305.539143 39.610305 
L 303.810494 40.055811 
L 307.827449 32.752786 
L 308.493859 41.060975 
L 307.100264 39.945359 
L 304.140561 53.735527 
L 302.579439 53.400473 
" clip-path="url(#p42d4fb2c35)"/>
    <path d="M 329.458188 53.406414 
L 332.496011 38.708272 
L 330.770801 39.166913 
L 334.732093 31.833547 
L 335.461675 40.136426 
L 334.059636 39.031443 
L 331.021812 53.729586 
L 329.458188 53.406414 
" clip-path="url(#p42d4fb2c35)"/>
    <path d="M 356.33796 53.40752 
L 359.392021 38.5247 
L 357.667461 38.985779 
L 361.618382 31.64682 
L 362.359701 39.94866 
L 360.956101 38.84566 
L 357.90204 53.72848 
L 356.33796 53.40752 
" clip-path="url(#p42d4fb2c35)"/>
   </g>
   <g id="matplotlib.axis_1">
    <g id="xtick_1">
     <g id="line2d_1">
      <defs>
       <path id="mdc5d266da4" d="M 0 0 
L 0 3.5 
" style="stroke: #000000; stroke-width: 0.8"/>
      </defs>
      <g>
       <use xlink:href="#mdc5d266da4" x="115.2" y="307.584" style="stroke: #000000; stroke-width: 0.8"/>
      </g>
     </g>
     <g id="text_1">
      <!-- 0.00 -->
      <g transform="translate(104.067188 322.182437)scale(0.1 -0.1)">
       <defs>
        <path id="DejaVuSans-30" d="M 2034 4250 
Q 1547 4250 1301 3770 
Q 1056 3291 1056 2328 
Q 1056 1369 1301 889 
Q 1547 409 2034 409 
Q 2525 409 2770 889 
Q 3016 1369 3016 2328 
Q 3016 3291 2770 3770 
Q 2525 4250 2034 4250 
z
M 2034 4750 
Q 2819 4750 3233 4129 
Q 3647 3509 3647 2328 
Q 3647 1150 3233 529 
Q 2819 -91 2034 -91 
Q 1250 -91 836 529 
Q 422 1150 422 2328 
Q 422 3509 836 4129 
Q 1250 4750 2034 4750 
z
" transform="scale(0.015625)"/>
        <path id="DejaVuSans-2e" d="M 684 794 
L 1344 794 
L 1344 0 
L 684 0 
L 684 794 
z
" transform="scale(0.015625)"/>
       </defs>
       <use xlink:href="#DejaVuSans-30"/>
       <use xlink:href="#DejaVuSans-2e" x="63.623047"/>
       <use xlink:href="#DejaVuSans-30" x="95.410156"/>
       <use xlink:href="#DejaVuSans-30" x="159.033203"/>
      </g>
     </g>
    </g>
    <g id="xtick_2">
     <g id="line2d_2">
      <g>
       <use xlink:href="#mdc5d266da4" x="153.702764" y="307.584" style="stroke: #000000; stroke-width: 0.8"/>
      </g>
     </g>
     <g id="text_2">
      <!-- 0.25 -->
      <g transform="translate(142.569951 322.182437)scale(0.1 -0.1)">
       <defs>
        <path id="DejaVuSans-32" d="M 1228 531 
L 3431 531 
L 3431 0 
L 469 0 
L 469 531 
Q 828 903 1448 1529 
Q 2069 2156 2228 2338 
Q 2531 2678 2651 2914 
Q 2772 3150 2772 3378 
Q 2772 3750 2511 3984 
Q 2250 4219 1831 4219 
Q 1534 4219 1204 4116 
Q 875 4013 500 3803 
L 500 4441 
Q 881 4594 1212 4672 
Q 1544 4750 1819 4750 
Q 2544 4750 2975 4387 
Q 3406 4025 3406 3419 
Q 3406 3131 3298 2873 
Q 3191 2616 2906 2266 
Q 2828 2175 2409 1742 
Q 1991 1309 1228 531 
z
" transform="scale(0.015625)"/>
        <path id="DejaVuSans-35" d="M 691 4666 
L 3169 4666 
L 3169 4134 
L 1269 4134 
L 1269 2991 
Q 1406 3038 1543 3061 
Q 1681 3084 1819 3084 
Q 2600 3084 3056 2656 
Q 3513 2228 3513 1497 
Q 3513 744 3044 326 
Q 2575 -91 1722 -91 
Q 1428 -91 1123 -41 
Q 819 9 494 109 
L 494 744 
Q 775 591 1075 516 
Q 1375 441 1709 441 
Q 2250 441 2565 725 
Q 2881 1009 2881 1497 
Q 2881 1984 2565 2268 
Q 2250 2553 1709 2553 
Q 1456 2553 1204 2497 
Q 953 2441 691 2322 
L 691 4666 
z
" transform="scale(0.015625)"/>
       </defs>
       <use xlink:href="#DejaVuSans-30"/>
       <use xlink:href="#DejaVuSans-2e" x="63.623047"/>
       <use xlink:href="#DejaVuSans-32" x="95.410156"/>
       <use xlink:href="#DejaVuSans-35" x="159.033203"/>
      </g>
     </g>
    </g>
    <g id="xtick_3">
     <g id="line2d_3">
      <g>
       <use xlink:href="#mdc5d266da4" x="192.205528" y="307.584" style="stroke: #000000; stroke-width: 0.8"/>
      </g>
     </g>
     <g id="text_3">
      <!-- 0.50 -->
      <g transform="translate(181.072715 322.182437)scale(0.1 -0.1)">
       <use xlink:href="#DejaVuSans-30"/>
       <use xlink:href="#DejaVuSans-2e" x="63.623047"/>
       <use xlink:href="#DejaVuSans-35" x="95.410156"/>
       <use xlink:href="#DejaVuSans-30" x="159.033203"/>
      </g>
     </g>
    </g>
    <g id="xtick_4">
     <g id="line2d_4">
      <g>
       <use xlink:href="#mdc5d266da4" x="230.708291" y="307.584" style="stroke: #000000; stroke-width: 0.8"/>
      </g>
     </g>
     <g id="text_4">
      <!-- 0.75 -->
      <g transform="translate(219.575479 322.182437)scale(0.1 -0.1)">
       <defs>
        <path id="DejaVuSans-37" d="M 525 4666 
L 3525 4666 
L 3525 4397 
L 1831 0 
L 1172 0 
L 2766 4134 
L 525 4134 
L 525 4666 
z
" transform="scale(0.015625)"/>
       </defs>
       <use xlink:href="#DejaVuSans-30"/>
       <use xlink:href="#DejaVuSans-2e" x="63.623047"/>
       <use xlink:href="#DejaVuSans-37" x="95.410156"/>
       <use xlink:href="#DejaVuSans-35" x="159.033203"/>
      </g>
     </g>
    </g>
    <g id="xtick_5">
     <g id="line2d_5">
      <g>
       <use xlink:href="#mdc5d266da4" x="269.211055" y="307.584" style="stroke: #000000; stroke-width: 0.8"/>
      </g>
     </g>
     <g id="text_5">
      <!-- 1.00 -->
      <g transform="translate(258.078243 322.182437)scale(0.1 -0.1)">
       <defs>
        <path id="DejaVuSans-31" d="M 794 531 
L 1825 531 
L 1825 4091 
L 703 3866 
L 703 4441 
L 1819 4666 
L 2450 4666 
L 2450 531 
L 3481 531 
L 3481 0 
L 794 0 
L 794 531 
z
" transform="scale(0.015625)"/>
       </defs>
       <use xlink:href="#DejaVuSans-31"/>
       <use xlink:href="#DejaVuSans-2e" x="63.623047"/>
       <use xlink:href="#DejaVuSans-30" x="95.410156"/>
       <use xlink:href="#DejaVuSans-30" x="159.033203"/>
      </g>
     </g>
    </g>
    <g id="xtick_6">
     <g id="line2d_6">
      <g>
       <use xlink:href="#mdc5d266da4" x="307.713819" y="307.584" style="stroke: #000000; stroke-width: 0.8"/>
      </g>
     </g>
     <g id="text_6">
      <!-- 1.25 -->
      <g transform="translate(296.581007 322.182437)scale(0.1 -0.1)">
       <use xlink:href="#DejaVuSans-31"/>
       <use xlink:href="#DejaVuSans-2e" x="63.623047"/>
       <use xlink:href="#DejaVuSans-32" x="95.410156"/>
       <use xlink:href="#DejaVuSans-35" x="159.033203"/>
      </g>
     </g>
    </g>
    <g id="xtick_7">
     <g id="line2d_7">
      <g>
       <use xlink:href="#mdc5d266da4" x="346.216583" y="307.584" style="stroke: #000000; stroke-width: 0.8"/>
      </g>
     </g>
     <g id="text_7">
      <!-- 1.50 -->
      <g transform="translate(335.08377 322.182437)scale(0.1 -0.1)">
       <use xlink:href="#DejaVuSans-31"/>
       <use xlink:href="#DejaVuSans-2e" x="63.623047"/>
       <use xlink:href="#DejaVuSans-35" x="95.410156"/>
       <use xlink:href="#DejaVuSans-30" x="159.033203"/>
      </g>
     </g>
    </g>
    <g id="text_8">
     <!-- $\theta$ (rad) -->
     <g transform="translate(210.885 339.659781)scale(0.15 -0.15)">
      <defs>
       <path id="DejaVuSans-Oblique-3b8" d="M 2913 2219 
L 925 2219 
Q 791 1284 928 888 
Q 1100 400 1566 400 
Q 2034 400 2391 891 
Q 2703 1322 2913 2219 
z
M 3009 2750 
Q 3094 3638 2984 3950 
Q 2813 4444 2353 4444 
Q 1875 4444 1525 3956 
Q 1250 3563 1034 2750 
L 3009 2750 
z
M 2444 4913 
Q 3194 4913 3494 4250 
Q 3794 3591 3566 2422 
Q 3341 1256 2781 594 
Q 2225 -72 1475 -72 
Q 722 -72 425 594 
Q 128 1256 353 2422 
Q 581 3591 1134 4250 
Q 1691 4913 2444 4913 
z
" transform="scale(0.015625)"/>
       <path id="DejaVuSans-20" transform="scale(0.015625)"/>
       <path id="DejaVuSans-28" d="M 1984 4856 
Q 1566 4138 1362 3434 
Q 1159 2731 1159 2009 
Q 1159 1288 1364 580 
Q 1569 -128 1984 -844 
L 1484 -844 
Q 1016 -109 783 600 
Q 550 1309 550 2009 
Q 550 2706 781 3412 
Q 1013 4119 1484 4856 
L 1984 4856 
z
" transform="scale(0.015625)"/>
       <path id="DejaVuSans-72" d="M 2631 2963 
Q 2534 3019 2420 3045 
Q 2306 3072 2169 3072 
Q 1681 3072 1420 2755 
Q 1159 2438 1159 1844 
L 1159 0 
L 581 0 
L 581 3500 
L 1159 3500 
L 1159 2956 
Q 1341 3275 1631 3429 
Q 1922 3584 2338 3584 
Q 2397 3584 2469 3576 
Q 2541 3569 2628 3553 
L 2631 2963 
z
" transform="scale(0.015625)"/>
       <path id="DejaVuSans-61" d="M 2194 1759 
Q 1497 1759 1228 1600 
Q 959 1441 959 1056 
Q 959 750 1161 570 
Q 1363 391 1709 391 
Q 2188 391 2477 730 
Q 2766 1069 2766 1631 
L 2766 1759 
L 2194 1759 
z
M 3341 1997 
L 3341 0 
L 2766 0 
L 2766 531 
Q 2569 213 2275 61 
Q 1981 -91 1556 -91 
Q 1019 -91 701 211 
Q 384 513 384 1019 
Q 384 1609 779 1909 
Q 1175 2209 1959 2209 
L 2766 2209 
L 2766 2266 
Q 2766 2663 2505 2880 
Q 2244 3097 1772 3097 
Q 1472 3097 1187 3025 
Q 903 2953 641 2809 
L 641 3341 
Q 956 3463 1253 3523 
Q 1550 3584 1831 3584 
Q 2591 3584 2966 3190 
Q 3341 2797 3341 1997 
z
" transform="scale(0.015625)"/>
       <path id="DejaVuSans-64" d="M 2906 2969 
L 2906 4863 
L 3481 4863 
L 3481 0 
L 2906 0 
L 2906 525 
Q 2725 213 2448 61 
Q 2172 -91 1784 -91 
Q 1150 -91 751 415 
Q 353 922 353 1747 
Q 353 2572 751 3078 
Q 1150 3584 1784 3584 
Q 2172 3584 2448 3432 
Q 2725 3281 2906 2969 
z
M 947 1747 
Q 947 1113 1208 752 
Q 1469 391 1925 391 
Q 2381 391 2643 752 
Q 2906 1113 2906 1747 
Q 2906 2381 2643 2742 
Q 2381 3103 1925 3103 
Q 1469 3103 1208 2742 
Q 947 2381 947 1747 
z
" transform="scale(0.015625)"/>
       <path id="DejaVuSans-29" d="M 513 4856 
L 1013 4856 
Q 1481 4119 1714 3412 
Q 1947 2706 1947 2009 
Q 1947 1309 1714 600 
Q 1481 -109 1013 -844 
L 513 -844 
Q 928 -128 1133 580 
Q 1338 1288 1338 2009 
Q 1338 2731 1133 3434 
Q 928 4138 513 4856 
z
" transform="scale(0.015625)"/>
      </defs>
      <use xlink:href="#DejaVuSans-Oblique-3b8" transform="translate(0 0.234375)"/>
      <use xlink:href="#DejaVuSans-20" transform="translate(61.181641 0.234375)"/>
      <use xlink:href="#DejaVuSans-28" transform="translate(92.96875 0.234375)"/>
      <use xlink:href="#DejaVuSans-72" transform="translate(131.982422 0.234375)"/>
      <use xlink:href="#DejaVuSans-61" transform="translate(173.095703 0.234375)"/>
      <use xlink:href="#DejaVuSans-64" transform="translate(234.375 0.234375)"/>
      <use xlink:href="#DejaVuSans-29" transform="translate(297.851562 0.234375)"/>
     </g>
    </g>
   </g>
   <g id="matplotlib.axis_2">
    <g id="ytick_1">
     <g id="line2d_8">
      <defs>
       <path id="mc027c1f733" d="M 0 0 
L -3.5 0 
" style="stroke: #000000; stroke-width: 0.8"/>
      </defs>
      <g>
       <use xlink:href="#mc027c1f733" x="103.104" y="295.488" style="stroke: #000000; stroke-width: 0.8"/>
      </g>
     </g>
     <g id="text_9">
      <!-- 0.0 -->
      <g transform="translate(80.200875 299.287219)scale(0.1 -0.1)">
       <use xlink:href="#DejaVuSans-30"/>
       <use xlink:href="#DejaVuSans-2e" x="63.623047"/>
       <use xlink:href="#DejaVuSans-30" x="95.410156"/>
      </g>
     </g>
    </g>
    <g id="ytick_2">
     <g id="line2d_9">
      <g>
       <use xlink:href="#mc027c1f733" x="103.104" y="264.685789" style="stroke: #000000; stroke-width: 0.8"/>
      </g>
     </g>
     <g id="text_10">
      <!-- 0.2 -->
      <g transform="translate(80.200875 268.485008)scale(0.1 -0.1)">
       <use xlink:href="#DejaVuSans-30"/>
       <use xlink:href="#DejaVuSans-2e" x="63.623047"/>
       <use xlink:href="#DejaVuSans-32" x="95.410156"/>
      </g>
     </g>
    </g>
    <g id="ytick_3">
     <g id="line2d_10">
      <g>
       <use xlink:href="#mc027c1f733" x="103.104" y="233.883578" style="stroke: #000000; stroke-width: 0.8"/>
      </g>
     </g>
     <g id="text_11">
      <!-- 0.4 -->
      <g transform="translate(80.200875 237.682797)scale(0.1 -0.1)">
       <defs>
        <path id="DejaVuSans-34" d="M 2419 4116 
L 825 1625 
L 2419 1625 
L 2419 4116 
z
M 2253 4666 
L 3047 4666 
L 3047 1625 
L 3713 1625 
L 3713 1100 
L 3047 1100 
L 3047 0 
L 2419 0 
L 2419 1100 
L 313 1100 
L 313 1709 
L 2253 4666 
z
" transform="scale(0.015625)"/>
       </defs>
       <use xlink:href="#DejaVuSans-30"/>
       <use xlink:href="#DejaVuSans-2e" x="63.623047"/>
       <use xlink:href="#DejaVuSans-34" x="95.410156"/>
      </g>
     </g>
    </g>
    <g id="ytick_4">
     <g id="line2d_11">
      <g>
       <use xlink:href="#mc027c1f733" x="103.104" y="203.081367" style="stroke: #000000; stroke-width: 0.8"/>
      </g>
     </g>
     <g id="text_12">
      <!-- 0.6 -->
      <g transform="translate(80.200875 206.880586)scale(0.1 -0.1)">
       <defs>
        <path id="DejaVuSans-36" d="M 2113 2584 
Q 1688 2584 1439 2293 
Q 1191 2003 1191 1497 
Q 1191 994 1439 701 
Q 1688 409 2113 409 
Q 2538 409 2786 701 
Q 3034 994 3034 1497 
Q 3034 2003 2786 2293 
Q 2538 2584 2113 2584 
z
M 3366 4563 
L 3366 3988 
Q 3128 4100 2886 4159 
Q 2644 4219 2406 4219 
Q 1781 4219 1451 3797 
Q 1122 3375 1075 2522 
Q 1259 2794 1537 2939 
Q 1816 3084 2150 3084 
Q 2853 3084 3261 2657 
Q 3669 2231 3669 1497 
Q 3669 778 3244 343 
Q 2819 -91 2113 -91 
Q 1303 -91 875 529 
Q 447 1150 447 2328 
Q 447 3434 972 4092 
Q 1497 4750 2381 4750 
Q 2619 4750 2861 4703 
Q 3103 4656 3366 4563 
z
" transform="scale(0.015625)"/>
       </defs>
       <use xlink:href="#DejaVuSans-30"/>
       <use xlink:href="#DejaVuSans-2e" x="63.623047"/>
       <use xlink:href="#DejaVuSans-36" x="95.410156"/>
      </g>
     </g>
    </g>
    <g id="ytick_5">
     <g id="line2d_12">
      <g>
       <use xlink:href="#mc027c1f733" x="103.104" y="172.279156" style="stroke: #000000; stroke-width: 0.8"/>
      </g>
     </g>
     <g id="text_13">
      <!-- 0.8 -->
      <g transform="translate(80.200875 176.078374)scale(0.1 -0.1)">
       <defs>
        <path id="DejaVuSans-38" d="M 2034 2216 
Q 1584 2216 1326 1975 
Q 1069 1734 1069 1313 
Q 1069 891 1326 650 
Q 1584 409 2034 409 
Q 2484 409 2743 651 
Q 3003 894 3003 1313 
Q 3003 1734 2745 1975 
Q 2488 2216 2034 2216 
z
M 1403 2484 
Q 997 2584 770 2862 
Q 544 3141 544 3541 
Q 544 4100 942 4425 
Q 1341 4750 2034 4750 
Q 2731 4750 3128 4425 
Q 3525 4100 3525 3541 
Q 3525 3141 3298 2862 
Q 3072 2584 2669 2484 
Q 3125 2378 3379 2068 
Q 3634 1759 3634 1313 
Q 3634 634 3220 271 
Q 2806 -91 2034 -91 
Q 1263 -91 848 271 
Q 434 634 434 1313 
Q 434 1759 690 2068 
Q 947 2378 1403 2484 
z
M 1172 3481 
Q 1172 3119 1398 2916 
Q 1625 2713 2034 2713 
Q 2441 2713 2670 2916 
Q 2900 3119 2900 3481 
Q 2900 3844 2670 4047 
Q 2441 4250 2034 4250 
Q 1625 4250 1398 4047 
Q 1172 3844 1172 3481 
z
" transform="scale(0.015625)"/>
       </defs>
       <use xlink:href="#DejaVuSans-30"/>
       <use xlink:href="#DejaVuSans-2e" x="63.623047"/>
       <use xlink:href="#DejaVuSans-38" x="95.410156"/>
      </g>
     </g>
    </g>
    <g id="ytick_6">
     <g id="line2d_13">
      <g>
       <use xlink:href="#mc027c1f733" x="103.104" y="141.476945" style="stroke: #000000; stroke-width: 0.8"/>
      </g>
     </g>
     <g id="text_14">
      <!-- 1.0 -->
      <g transform="translate(80.200875 145.276163)scale(0.1 -0.1)">
       <use xlink:href="#DejaVuSans-31"/>
       <use xlink:href="#DejaVuSans-2e" x="63.623047"/>
       <use xlink:href="#DejaVuSans-30" x="95.410156"/>
      </g>
     </g>
    </g>
    <g id="ytick_7">
     <g id="line2d_14">
      <g>
       <use xlink:href="#mc027c1f733" x="103.104" y="110.674734" style="stroke: #000000; stroke-width: 0.8"/>
      </g>
     </g>
     <g id="text_15">
      <!-- 1.2 -->
      <g transform="translate(80.200875 114.473952)scale(0.1 -0.1)">
       <use xlink:href="#DejaVuSans-31"/>
       <use xlink:href="#DejaVuSans-2e" x="63.623047"/>
       <use xlink:href="#DejaVuSans-32" x="95.410156"/>
      </g>
     </g>
    </g>
    <g id="ytick_8">
     <g id="line2d_15">
      <g>
       <use xlink:href="#mc027c1f733" x="103.104" y="79.872523" style="stroke: #000000; stroke-width: 0.8"/>
      </g>
     </g>
     <g id="text_16">
      <!-- 1.4 -->
      <g transform="translate(80.200875 83.671741)scale(0.1 -0.1)">
       <use xlink:href="#DejaVuSans-31"/>
       <use xlink:href="#DejaVuSans-2e" x="63.623047"/>
       <use xlink:href="#DejaVuSans-34" x="95.410156"/>
      </g>
     </g>
    </g>
    <g id="ytick_9">
     <g id="line2d_16">
      <g>
       <use xlink:href="#mc027c1f733" x="103.104" y="49.070311" style="stroke: #000000; stroke-width: 0.8"/>
      </g>
     </g>
     <g id="text_17">
      <!-- 1.6 -->
      <g transform="translate(80.200875 52.86953)scale(0.1 -0.1)">
       <use xlink:href="#DejaVuSans-31"/>
       <use xlink:href="#DejaVuSans-2e" x="63.623047"/>
       <use xlink:href="#DejaVuSans-36" x="95.410156"/>
      </g>
     </g>
    </g>
    <g id="text_18">
     <!-- $\dot{\theta}$ (rad/s) -->
     <g transform="translate(73.081344 206.253)rotate(-90)scale(0.15 -0.15)">
      <defs>
       <path id="DejaVuSans-307" d="M -1894 4863 
L -1319 4863 
L -1319 4134 
L -1894 4134 
L -1894 4863 
z
M -1600 3584 
L -1600 3584 
z
" transform="scale(0.015625)"/>
       <path id="DejaVuSans-2f" d="M 1625 4666 
L 2156 4666 
L 531 -594 
L 0 -594 
L 1625 4666 
z
" transform="scale(0.015625)"/>
       <path id="DejaVuSans-73" d="M 2834 3397 
L 2834 2853 
Q 2591 2978 2328 3040 
Q 2066 3103 1784 3103 
Q 1356 3103 1142 2972 
Q 928 2841 928 2578 
Q 928 2378 1081 2264 
Q 1234 2150 1697 2047 
L 1894 2003 
Q 2506 1872 2764 1633 
Q 3022 1394 3022 966 
Q 3022 478 2636 193 
Q 2250 -91 1575 -91 
Q 1294 -91 989 -36 
Q 684 19 347 128 
L 347 722 
Q 666 556 975 473 
Q 1284 391 1588 391 
Q 1994 391 2212 530 
Q 2431 669 2431 922 
Q 2431 1156 2273 1281 
Q 2116 1406 1581 1522 
L 1381 1569 
Q 847 1681 609 1914 
Q 372 2147 372 2553 
Q 372 3047 722 3315 
Q 1072 3584 1716 3584 
Q 2034 3584 2315 3537 
Q 2597 3491 2834 3397 
z
" transform="scale(0.015625)"/>
      </defs>
      <use xlink:href="#DejaVuSans-307" transform="translate(62.88916 34.015625)"/>
      <use xlink:href="#DejaVuSans-Oblique-3b8" transform="translate(0 0.75)"/>
      <use xlink:href="#DejaVuSans-20" transform="translate(61.181641 0.75)"/>
      <use xlink:href="#DejaVuSans-28" transform="translate(92.96875 0.75)"/>
      <use xlink:href="#DejaVuSans-72" transform="translate(131.982422 0.75)"/>
      <use xlink:href="#DejaVuSans-61" transform="translate(173.095703 0.75)"/>
      <use xlink:href="#DejaVuSans-64" transform="translate(234.375 0.75)"/>
      <use xlink:href="#DejaVuSans-2f" transform="translate(297.851562 0.75)"/>
      <use xlink:href="#DejaVuSans-73" transform="translate(331.542969 0.75)"/>
      <use xlink:href="#DejaVuSans-29" transform="translate(383.642578 0.75)"/>
     </g>
    </g>
   </g>
   <g id="patch_3">
    <path d="M 103.104 307.584 
L 103.104 41.472 
" style="fill: none; stroke: #000000; stroke-width: 0.8; stroke-linejoin: miter; stroke-linecap: square"/>
   </g>
   <g id="patch_4">
    <path d="M 369.216 307.584 
L 369.216 41.472 
" style="fill: none; stroke: #000000; stroke-width: 0.8; stroke-linejoin: miter; stroke-linecap: square"/>
   </g>
   <g id="patch_5">
    <path d="M 103.104 307.584 
L 369.216 307.584 
" style="fill: none; stroke: #000000; stroke-width: 0.8; stroke-linejoin: miter; stroke-linecap: square"/>
   </g>
   <g id="patch_6">
    <path d="M 103.104 41.472 
L 369.216 41.472 
" style="fill: none; stroke: #000000; stroke-width: 0.8; stroke-linejoin: miter; stroke-linecap: square"/>
   </g>
  </g>
 </g>
 <defs>
  <clipPath id="p42d4fb2c35">
   <rect x="103.104" y="41.472" width="266.112" height="266.112"/>
  </clipPath>
 </defs>
</svg>
