<?xml version="1.0" encoding="utf-8" standalone="no"?>
<!DOCTYPE svg PUBLIC "-//W3C//DTD SVG 1.1//EN"
  "http://www.w3.org/Graphics/SVG/1.1/DTD/svg11.dtd">
<svg xmlns:xlink="http://www.w3.org/1999/xlink" width="460.8pt" height="345.6pt" viewBox="0 0 460.8 345.6" xmlns="http://www.w3.org/2000/svg" version="1.1">
 <metadata>
  <rdf:RDF xmlns:dc="http://purl.org/dc/elements/1.1/" xmlns:cc="http://creativecommons.org/ns#" xmlns:rdf="http://www.w3.org/1999/02/22-rdf-syntax-ns#">
   <cc:Work>
    <dc:type rdf:resource="http://purl.org/dc/dcmitype/StillImage"/>
    <dc:date>2023-05-18T16:48:59.270408</dc:date>
    <dc:format>image/svg+xml</dc:format>
    <dc:creator>
     <cc:Agent>
      <dc:title>Matplotlib v3.5.3, https://matplotlib.org/</dc:title>
     </cc:Agent>
    </dc:creator>
   </cc:Work>
  </rdf:RDF>
 </metadata>
 <defs>
  <style type="text/css">*{stroke-linejoin: round; stroke-linecap: butt}</style>
 </defs>
 <g id="figure_1">
  <g id="patch_1">
   <path d="M 0 345.6 
L 460.8 345.6 
L 460.8 0 
L 0 0 
z
" style="fill: #ffffff"/>
  </g>
  <g id="axes_1">
   <g id="patch_2">
    <path d="M 103.104 307.584 
L 369.216 307.584 
L 369.216 41.472 
L 103.104 41.472 
z
" style="fill: #ffffff"/>
   </g>
   <g id="Quiver_1">
    <path d="M 115.188553 294.955899 
L 191.529245 293.313556 
L 190.97425 292.260802 
L 196.3296 293.742632 
L 191.042933 295.453407 
L 191.55214 294.377758 
L 115.211447 296.020101 
L 115.188553 294.955899 
" clip-path="url(#pc6813270ef)"/>
    <path d="M 132.588143 295.712162 
L 132.363981 295.820305 
L 132.804428 296.160486 
L 130.23838 296.569426 
L 132.155572 294.815514 
L 132.147695 295.371981 
L 132.371857 295.263838 
L 132.588143 295.712162 
" clip-path="url(#pc6813270ef)"/>
    <path d="M 150.091815 295.725032 
L 149.854783 296.056847 
L 150.755446 296.199096 
L 147.389679 298.806152 
L 148.764554 294.776904 
L 149.191153 295.582783 
L 149.428185 295.250968 
L 150.091815 295.725032 
" clip-path="url(#pc6813270ef)"/>
    <path d="M 167.432103 295.847885 
L 166.602325 296.751947 
L 167.746417 297.079614 
L 162.971253 299.920989 
L 165.393798 294.920302 
L 165.818119 296.032176 
L 166.647897 295.128115 
L 167.432103 295.847885 
" clip-path="url(#pc6813270ef)"/>
    <path d="M 184.653011 295.90317 
L 182.226735 297.849309 
L 183.307928 298.346637 
L 178.157198 300.431243 
L 181.309859 295.855619 
L 181.560712 297.01897 
L 183.986989 295.07283 
L 184.653011 295.90317 
" clip-path="url(#pc6813270ef)"/>
    <path d="M 201.875949 295.943099 
L 198.0003 298.293096 
L 199.007296 298.927345 
L 193.628465 300.321537 
L 197.351603 296.196754 
L 197.448403 297.382899 
L 201.324051 295.032901 
L 201.875949 295.943099 
" clip-path="url(#pc6813270ef)"/>
    <path d="M 219.189989 295.920631 
L 217.707065 296.983176 
L 218.759673 297.538449 
L 213.503399 299.340444 
L 216.89974 294.942665 
L 217.087087 296.117915 
L 218.570011 295.055369 
L 219.189989 295.920631 
" clip-path="url(#pc6813270ef)"/>
    <path d="M 236.261107 294.965468 
L 239.688696 295.628686 
L 239.368378 294.482515 
L 244.290378 297.06118 
L 238.761736 297.617708 
L 239.486482 296.67375 
L 236.058893 296.010532 
L 236.261107 294.965468 
" clip-path="url(#pc6813270ef)"/>
    <path d="M 253.427168 294.955931 
L 257.737208 294.851987 
L 257.179475 293.80068 
L 262.538663 295.268571 
L 257.256465 296.993096 
L 257.762871 295.916126 
L 253.452832 296.020069 
L 253.427168 294.955931 
" clip-path="url(#pc6813270ef)"/>
    <path d="M 270.558742 294.980794 
L 272.325753 294.419002 
L 271.496031 293.565847 
L 277.051868 293.474889 
L 272.463578 296.609086 
L 272.648268 295.433415 
L 270.881258 295.995206 
L 270.558742 294.980794 
" clip-path="url(#pc6813270ef)"/>
    <path d="M 287.618433 295.156804 
L 287.949629 294.775237 
L 286.855299 294.494413 
L 291.311957 291.67233 
L 289.144701 296.481587 
L 288.712763 295.437629 
L 288.381567 295.819196 
L 287.618433 295.156804 
" clip-path="url(#pc6813270ef)"/>
    <path d="M 304.757189 295.388343 
L 304.886486 294.710041 
L 303.741208 295.033537 
L 306.306208 290.104402 
L 306.878071 295.631478 
L 305.932107 294.909354 
L 305.802811 295.587657 
L 304.757189 295.388343 
" clip-path="url(#pc6813270ef)"/>
    <path d="M 322.039845 295.600701 
L 321.805256 294.51799 
L 320.877648 295.263547 
L 321.311099 289.723897 
L 323.998575 294.587339 
L 322.845565 294.292587 
L 323.080155 295.375299 
L 322.039845 295.600701 
" clip-path="url(#pc6813270ef)"/>
    <path d="M 339.395688 295.695437 
L 339.188251 295.251125 
L 338.507064 296.110311 
L 337.76563 291.044881 
L 341.172936 294.865689 
L 340.076875 294.836251 
L 340.284312 295.280563 
L 339.395688 295.695437 
" clip-path="url(#pc6813270ef)"/>
    <path d="M 356.945463 295.691275 
L 356.742188 295.516738 
L 356.596389 296.097826 
L 355.087247 293.742632 
L 357.643611 294.878174 
L 357.091262 295.110188 
L 357.294537 295.284725 
L 356.945463 295.691275 
" clip-path="url(#pc6813270ef)"/>
    <path d="M 115.19017 277.675867 
L 191.920151 276.258398 
L 191.368357 275.203962 
L 196.71918 276.702058 
L 191.427339 278.396761 
L 191.939812 277.322664 
L 115.20983 278.740133 
L 115.19017 277.675867 
" clip-path="url(#pc6813270ef)"/>
    <path d="M 132.609088 278.408701 
L 132.408387 278.537789 
L 132.867264 278.810103 
L 130.472989 279.49888 
L 132.092736 277.605897 
L 132.150211 278.136387 
L 132.350912 278.007299 
L 132.609088 278.408701 
" clip-path="url(#pc6813270ef)"/>
    <path d="M 150.126296 278.399409 
L 149.934888 278.765705 
L 150.858888 278.782226 
L 147.845914 281.870961 
L 148.661112 277.633774 
L 149.202295 278.382888 
L 149.393704 278.016591 
L 150.126296 278.399409 
" clip-path="url(#pc6813270ef)"/>
    <path d="M 167.502436 278.471468 
L 167.082151 279.209147 
L 168.270491 279.273648 
L 164.248501 283.107601 
L 165.495876 277.692838 
L 166.157279 278.68221 
L 166.577564 277.944532 
L 167.502436 278.471468 
" clip-path="url(#pc6813270ef)"/>
    <path d="M 184.706146 278.57427 
L 183.016093 280.356035 
L 184.154654 280.702429 
L 179.333517 283.465078 
L 181.837779 278.504809 
L 182.243801 279.623495 
L 183.933854 277.84173 
L 184.706146 278.57427 
" clip-path="url(#pc6813270ef)"/>
    <path d="M 201.917935 278.634825 
L 199.067138 280.758341 
L 200.129834 281.294055 
L 194.907779 283.192935 
L 198.222221 278.733106 
L 198.431267 279.904691 
L 201.282065 277.781175 
L 201.917935 278.634825 
" clip-path="url(#pc6813270ef)"/>
    <path d="M 219.24756 278.592918 
L 218.564946 279.244749 
L 219.684984 279.647025 
L 214.733121 282.16787 
L 217.479625 277.337516 
L 217.829826 278.474912 
L 218.51244 277.823082 
L 219.24756 278.592918 
" clip-path="url(#pc6813270ef)"/>
    <path d="M 236.307833 277.69672 
L 238.431988 278.310905 
L 238.216375 277.140511 
L 242.885679 280.152687 
L 237.329374 280.208194 
L 238.136322 279.333466 
L 236.012167 278.71928 
L 236.307833 277.69672 
" clip-path="url(#pc6813270ef)"/>
    <path d="M 253.453094 277.675937 
L 256.984707 277.762851 
L 256.478832 276.685631 
L 261.760179 278.412761 
L 256.400267 279.878008 
L 256.958518 278.826977 
L 253.426906 278.740063 
L 253.453094 277.675937 
" clip-path="url(#pc6813270ef)"/>
    <path d="M 270.574241 277.696124 
L 271.76122 277.358126 
L 270.957826 276.480134 
L 276.51386 276.558169 
L 271.832382 279.551388 
L 272.052739 278.381877 
L 270.865759 278.719876 
L 270.574241 277.696124 
" clip-path="url(#pc6813270ef)"/>
    <path d="M 287.616216 277.8567 
L 287.967516 277.472916 
L 286.848648 277.154099 
L 291.513004 274.370161 
L 289.151352 279.261901 
L 288.735084 278.175516 
L 288.383784 278.5593 
L 287.616216 277.8567 
" clip-path="url(#pc6813270ef)"/>
    <path d="M 304.763098 278.081213 
L 304.965345 277.256665 
L 303.804755 277.519992 
L 306.62333 272.731335 
L 306.906166 278.280714 
L 305.999149 277.510238 
L 305.796902 278.334787 
L 304.763098 278.081213 
" clip-path="url(#pc6813270ef)"/>
    <path d="M 322.034728 278.293742 
L 321.876013 277.321429 
L 320.911212 278.018186 
L 321.629603 272.508239 
L 324.062843 277.503731 
L 322.926557 277.149944 
L 323.085272 278.122258 
L 322.034728 278.293742 
" clip-path="url(#pc6813270ef)"/>
    <path d="M 339.42104 278.387907 
L 339.241133 277.968947 
L 338.583121 278.747721 
L 338.04093 274.018404 
L 341.096879 277.668279 
L 340.079053 277.609133 
L 340.25896 278.028093 
L 339.42104 278.387907 
" clip-path="url(#pc6813270ef)"/>
    <path d="M 356.969406 278.372317 
L 356.805088 278.221723 
L 356.668217 278.700952 
L 355.476827 276.702058 
L 357.571783 277.715048 
L 357.106277 277.893088 
L 357.270594 278.043683 
L 356.969406 278.372317 
" clip-path="url(#pc6813270ef)"/>
    <path d="M 115.191288 260.395847 
L 192.168709 259.135647 
L 191.619133 258.080053 
L 196.966795 259.589393 
L 191.671404 261.27297 
L 192.186133 260.199952 
L 115.208712 261.460153 
L 115.191288 260.395847 
" clip-path="url(#pc6813270ef)"/>
    <path d="M 132.642163 261.106641 
L 132.463522 261.268804 
L 132.966489 261.463924 
L 130.693588 262.549629 
L 131.993511 260.392076 
L 132.139196 260.911522 
L 132.317837 260.749359 
L 132.642163 261.106641 
" clip-path="url(#pc6813270ef)"/>
    <path d="M 150.154407 261.103659 
L 149.978747 261.498066 
L 150.94322 261.454978 
L 148.003406 264.872066 
L 148.57678 260.401022 
L 149.189934 261.146747 
L 149.365593 260.752341 
L 150.154407 261.103659 
" clip-path="url(#pc6813270ef)"/>
    <path d="M 167.541983 261.104848 
L 167.271669 261.872133 
L 168.452484 261.723847 
L 165.178049 266.213132 
L 165.440585 260.662756 
L 166.267703 261.518436 
L 166.538017 260.751152 
L 167.541983 261.104848 
" clip-path="url(#pc6813270ef)"/>
    <path d="M 184.764991 261.219969 
L 183.664943 262.896555 
L 184.846892 263.035502 
L 180.592232 266.6095 
L 182.176949 261.283689 
L 182.774962 262.312617 
L 183.875009 260.636031 
L 184.764991 261.219969 
" clip-path="url(#pc6813270ef)"/>
    <path d="M 201.964858 261.31548 
L 199.850292 263.306592 
L 200.967489 263.716694 
L 195.998112 266.202835 
L 198.77834 261.391813 
L 199.120576 262.531632 
L 201.235142 260.54052 
L 201.964858 261.31548 
" clip-path="url(#pc6813270ef)"/>
    <path d="M 219.267738 261.292585 
L 218.650874 261.948622 
L 219.790934 262.290054 
L 214.981874 265.073675 
L 217.464508 260.102546 
L 217.875399 261.219453 
L 218.492262 260.563415 
L 219.267738 261.292585 
" clip-path="url(#pc6813270ef)"/>
    <path d="M 236.348594 260.430311 
L 237.828878 260.991248 
L 237.708377 259.807275 
L 242.119489 263.186283 
L 236.576813 262.793412 
L 237.45169 261.986627 
L 235.971406 261.425689 
L 236.348594 260.430311 
" clip-path="url(#pc6813270ef)"/>
    <path d="M 253.476104 260.397002 
L 256.235163 260.584596 
L 255.776373 259.486497 
L 260.978042 261.440528 
L 255.559751 262.672485 
L 256.162956 261.646592 
L 253.403896 261.458998 
L 253.476104 260.397002 
" clip-path="url(#pc6813270ef)"/>
    <path d="M 270.564994 260.418848 
L 271.574229 260.111597 
L 270.755065 259.2483 
L 276.311601 259.225696 
L 271.685101 262.30321 
L 271.884241 261.129901 
L 270.875006 261.437152 
L 270.564994 260.418848 
" clip-path="url(#pc6813270ef)"/>
    <path d="M 287.616458 260.559004 
L 288.192805 259.959937 
L 287.056725 259.605488 
L 291.897308 256.877053 
L 289.357978 261.819462 
L 288.959889 260.697928 
L 288.383542 261.296996 
L 287.616458 260.559004 
" clip-path="url(#pc6813270ef)"/>
    <path d="M 304.767615 260.784042 
L 305.080613 259.669998 
L 303.911885 259.894467 
L 306.888619 255.20249 
L 306.986195 260.758215 
L 306.105383 259.957914 
L 305.792385 261.071958 
L 304.767615 260.784042 
" clip-path="url(#pc6813270ef)"/>
    <path d="M 322.032004 260.994951 
L 321.896337 259.925044 
L 320.907296 260.586943 
L 321.82177 255.106128 
L 324.075272 260.185235 
L 322.952329 259.791141 
L 323.087996 260.861049 
L 322.032004 260.994951 
" clip-path="url(#pc6813270ef)"/>
    <path d="M 339.436133 261.086089 
L 339.278044 260.682222 
L 338.628399 261.402268 
L 338.259108 256.88933 
L 341.051601 260.453732 
L 340.085778 260.366044 
L 340.243867 260.769911 
L 339.436133 261.086089 
" clip-path="url(#pc6813270ef)"/>
    <path d="M 356.986139 261.067556 
L 356.846583 260.933695 
L 356.718418 261.346667 
L 355.724442 259.589393 
L 357.521582 260.509333 
L 357.114305 260.654583 
L 357.253861 260.788444 
L 356.986139 261.067556 
" clip-path="url(#pc6813270ef)"/>
    <path d="M 115.194009 243.11581 
L 192.420832 242.246406 
L 191.876659 241.188017 
L 197.216536 242.724675 
L 191.912607 244.381159 
L 192.432815 243.310787 
L 115.205991 244.18019 
L 115.194009 243.11581 
" clip-path="url(#pc6813270ef)"/>
    <path d="M 132.680316 243.783812 
L 132.544504 243.984128 
L 133.080948 244.055436 
L 131.121879 245.651159 
L 131.879052 243.240564 
L 132.143872 243.712504 
L 132.279684 243.512188 
L 132.680316 243.783812 
" clip-path="url(#pc6813270ef)"/>
    <path d="M 150.172829 243.800329 
L 150.0205 244.213158 
L 150.998486 244.104987 
L 148.236711 247.776287 
L 148.521514 243.191013 
L 149.194842 243.9085 
L 149.347171 243.495671 
L 150.172829 243.800329 
" clip-path="url(#pc6813270ef)"/>
    <path d="M 167.552311 243.792223 
L 167.320123 244.617001 
L 168.488967 244.393137 
L 165.509805 249.083573 
L 165.415104 243.527798 
L 166.295502 244.328555 
L 166.527689 243.503777 
L 167.552311 243.792223 
" clip-path="url(#pc6813270ef)"/>
    <path d="M 184.806728 243.863309 
L 184.121637 245.412025 
L 185.310403 245.355916 
L 181.697126 249.57727 
L 182.390034 244.06406 
L 183.148181 244.981407 
L 183.833272 243.432691 
L 184.806728 243.863309 
" clip-path="url(#pc6813270ef)"/>
    <path d="M 201.986081 244.014338 
L 199.863664 246.25114 
L 201.002165 246.597735 
L 196.18054 249.359535 
L 198.685676 244.399707 
L 199.091501 245.518464 
L 201.213919 243.281662 
L 201.986081 244.014338 
" clip-path="url(#pc6813270ef)"/>
    <path d="M 219.267203 244.013152 
L 218.189287 245.156161 
L 219.328845 245.499263 
L 214.515712 248.275835 
L 217.005628 243.308348 
L 217.414881 244.425856 
L 218.492797 243.282848 
L 219.267203 244.013152 
" clip-path="url(#pc6813270ef)"/>
    <path d="M 236.440784 243.195869 
L 236.934814 243.502673 
L 237.044251 242.317626 
L 240.72321 246.481861 
L 235.359546 245.030413 
L 236.373245 244.406935 
L 235.879216 244.100131 
L 236.440784 243.195869 
" clip-path="url(#pc6813270ef)"/>
    <path d="M 253.477524 243.1171 
L 255.69371 243.273738 
L 255.237857 242.174416 
L 260.434283 244.14235 
L 255.012716 245.359813 
L 255.618663 244.335538 
L 253.402476 244.1789 
L 253.477524 243.1171 
" clip-path="url(#pc6813270ef)"/>
    <path d="M 270.53194 243.150109 
L 271.284896 242.865707 
L 270.410885 242.057985 
L 275.953979 241.671059 
L 271.539245 245.045333 
L 271.661016 243.86149 
L 270.90806 244.145891 
L 270.53194 243.150109 
" clip-path="url(#pc6813270ef)"/>
    <path d="M 287.590299 243.308283 
L 288.371643 242.365978 
L 287.212524 242.096245 
L 291.838796 239.018387 
L 289.670729 244.134546 
L 289.191044 243.045412 
L 288.409701 243.987717 
L 287.590299 243.308283 
" clip-path="url(#pc6813270ef)"/>
    <path d="M 304.761025 243.529988 
L 305.062914 242.202391 
L 303.90695 242.485341 
L 306.644001 237.649625 
L 307.020803 243.193416 
L 306.100864 242.438415 
L 305.798975 243.766012 
L 304.761025 243.529988 
" clip-path="url(#pc6813270ef)"/>
    <path d="M 322.031818 243.713473 
L 321.907661 242.711869 
L 320.916771 243.370996 
L 321.846588 237.892763 
L 324.08586 242.978159 
L 322.964024 242.580923 
L 323.088182 243.582527 
L 322.031818 243.713473 
" clip-path="url(#pc6813270ef)"/>
    <path d="M 339.450814 243.795591 
L 339.303223 243.406406 
L 338.672443 244.090774 
L 338.364085 239.756144 
L 341.007557 243.205226 
L 340.081594 243.111223 
L 340.229186 243.500409 
L 339.450814 243.795591 
" clip-path="url(#pc6813270ef)"/>
    <path d="M 357.027667 243.762582 
L 356.913086 243.670249 
L 356.843002 243.991745 
L 355.974183 242.724675 
L 357.396998 243.304255 
L 357.097751 243.441086 
L 357.212333 243.533418 
L 357.027667 243.762582 
" clip-path="url(#pc6813270ef)"/>
    <path d="M 115.19564 225.835794 
L 192.704454 225.200857 
L 192.163528 224.140805 
L 197.498669 225.693826 
L 192.189686 227.334041 
L 192.713173 226.265269 
L 115.20436 226.900206 
L 115.19564 225.835794 
" clip-path="url(#pc6813270ef)"/>
    <path d="M 132.68387 226.463917 
L 132.587953 226.667787 
L 133.09161 226.655751 
L 131.520829 228.4067 
L 131.86839 226.080249 
L 132.180213 226.475953 
L 132.27613 226.272083 
L 132.68387 226.463917 
" clip-path="url(#pc6813270ef)"/>
    <path d="M 150.18004 226.456371 
L 150.091669 226.876411 
L 151.02012 226.633113 
L 148.87629 230.568402 
L 148.49988 226.102887 
L 149.251589 226.699669 
L 149.33996 226.279629 
L 150.18004 226.456371 
" clip-path="url(#pc6813270ef)"/>
    <path d="M 167.56321 226.465538 
L 167.405426 227.311913 
L 168.549385 226.98378 
L 166.004372 231.923265 
L 165.410125 226.39855 
L 166.359007 227.116837 
L 166.51679 226.270462 
L 167.56321 226.465538 
" clip-path="url(#pc6813270ef)"/>
    <path d="M 184.822053 226.54465 
L 184.194712 228.3276 
L 185.375468 228.178848 
L 182.102808 232.669426 
L 182.36315 227.118947 
L 183.190606 227.9743 
L 183.817947 226.19135 
L 184.822053 226.54465 
" clip-path="url(#pc6813270ef)"/>
    <path d="M 202.017119 226.698567 
L 200.197615 228.994472 
L 201.362419 229.238486 
L 196.805398 232.417976 
L 198.859706 227.255087 
L 199.363377 228.333339 
L 201.182881 226.037433 
L 202.017119 226.698567 
" clip-path="url(#pc6813270ef)"/>
    <path d="M 219.300852 226.693801 
L 218.579969 227.624999 
L 219.747474 227.855748 
L 215.226913 231.086867 
L 217.222362 225.900945 
L 217.738265 226.973398 
L 218.459148 226.042199 
L 219.300852 226.693801 
" clip-path="url(#pc6813270ef)"/>
    <path d="M 236.485748 226.137379 
L 236.716368 226.463127 
L 237.137243 225.676138 
L 238.466206 229.625476 
L 235.182757 227.059862 
L 236.064873 226.924368 
L 235.834252 226.598621 
L 236.485748 226.137379 
" clip-path="url(#pc6813270ef)"/>
    <path d="M 253.539709 225.845199 
L 254.109516 225.953874 
L 253.786134 224.808563 
L 258.715012 227.37406 
L 253.187878 227.945367 
L 253.910097 226.999475 
L 253.340291 226.890801 
L 253.539709 225.845199 
" clip-path="url(#pc6813270ef)"/>
    <path d="M 270.49079 225.939674 
L 270.919116 225.710464 
L 270.032371 225.083022 
L 275.003259 224.075902 
L 271.407629 227.652978 
L 271.377536 226.567116 
L 270.94921 226.796326 
L 270.49079 225.939674 
" clip-path="url(#pc6813270ef)"/>
    <path d="M 287.551903 226.080822 
L 288.182182 225.097369 
L 286.998809 224.97111 
L 291.214883 221.351673 
L 289.687392 226.694179 
L 289.078376 225.671726 
L 288.448097 226.655178 
L 287.551903 226.080822 
" clip-path="url(#pc6813270ef)"/>
    <path d="M 304.751647 226.30393 
L 304.923229 224.888984 
L 303.802452 225.289197 
L 306.028216 220.197874 
L 306.972572 225.673619 
L 305.979936 225.017125 
L 305.808353 226.43207 
L 304.751647 226.30393 
" clip-path="url(#pc6813270ef)"/>
    <path d="M 322.032934 226.441919 
L 321.899311 225.489139 
L 320.919098 226.164043 
L 321.761107 220.671628 
L 324.081493 225.72053 
L 322.953442 225.341302 
L 323.087066 226.294081 
L 322.032934 226.441919 
" clip-path="url(#pc6813270ef)"/>
    <path d="M 339.494579 226.453044 
L 339.409535 226.107622 
L 338.803736 226.623132 
L 338.989561 222.913786 
L 340.876264 226.112868 
L 340.100378 225.937535 
L 340.185421 226.282956 
L 339.494579 226.453044 
" clip-path="url(#pc6813270ef)"/>
    <path d="M 357.052583 226.454368 
L 356.966214 226.386951 
L 356.917748 226.627105 
L 356.256316 225.693826 
L 357.322252 226.108895 
L 357.101049 226.214214 
L 357.187417 226.281632 
L 357.052583 226.454368 
" clip-path="url(#pc6813270ef)"/>
    <path d="M 115.197178 208.555783 
L 193.081888 208.142786 
L 192.544028 207.081175 
L 197.874659 208.649603 
L 192.560961 210.274474 
L 193.087533 209.207219 
L 115.202822 209.620217 
L 115.197178 208.555783 
" clip-path="url(#pc6813270ef)"/>
    <path d="M 132.673887 209.178844 
L 132.583043 209.372731 
L 133.061661 209.360533 
L 131.571556 211.026869 
L 131.898339 208.815467 
L 132.195269 209.191043 
L 132.286113 208.997156 
L 132.673887 209.178844 
" clip-path="url(#pc6813270ef)"/>
    <path d="M 150.19298 209.153345 
L 150.127636 209.586325 
L 151.058941 209.284035 
L 149.106551 213.417804 
L 148.461059 208.891965 
L 149.261675 209.455636 
L 149.32702 209.022655 
L 150.19298 209.153345 
" clip-path="url(#pc6813270ef)"/>
    <path d="M 167.567666 209.157502 
L 167.419304 210.283877 
L 168.544139 209.895216 
L 166.266117 214.963372 
L 165.378141 209.478202 
L 166.363972 210.144873 
L 166.512334 209.018498 
L 167.567666 209.157502 
" clip-path="url(#pc6813270ef)"/>
    <path d="M 184.845312 209.173494 
L 184.5603 210.92473 
L 185.696419 210.570406 
L 183.265539 215.567047 
L 182.544545 210.05744 
L 183.509675 210.753741 
L 183.794688 209.002506 
L 184.845312 209.173494 
" clip-path="url(#pc6813270ef)"/>
    <path d="M 202.062167 209.351939 
L 200.916954 211.35725 
L 202.105227 211.422961 
L 198.079334 215.252815 
L 199.332224 209.839326 
L 199.992619 210.829371 
L 201.137833 208.824061 
L 202.062167 209.351939 
" clip-path="url(#pc6813270ef)"/>
    <path d="M 219.343586 209.34944 
L 218.866795 210.194886 
L 220.055406 210.25418 
L 216.05025 214.105716 
L 217.273893 208.685541 
L 217.939624 209.672006 
L 218.416414 208.82656 
L 219.343586 209.34944 
" clip-path="url(#pc6813270ef)"/>
    <path d="M 236.493984 209.009533 
L 236.572452 209.343517 
L 237.161953 208.852598 
L 236.944674 212.427844 
L 235.158047 209.323402 
L 235.904483 209.500452 
L 235.826016 209.166467 
L 236.493984 209.009533 
" clip-path="url(#pc6813270ef)"/>
    <path d="M 253.510715 208.790123 
L 253.808591 208.860838 
L 253.652144 208.194369 
L 256.41877 209.795145 
L 253.227856 209.981631 
L 253.667162 209.456591 
L 253.369285 209.385877 
L 253.510715 208.790123 
" clip-path="url(#pc6813270ef)"/>
    <path d="M 270.447181 208.753661 
L 270.78152 208.480843 
L 269.901544 208.084984 
L 274.063385 206.359815 
L 271.538456 210.091016 
L 271.327157 209.14952 
L 270.992819 209.422339 
L 270.447181 208.753661 
" clip-path="url(#pc6813270ef)"/>
    <path d="M 287.509169 208.882216 
L 287.759201 208.285843 
L 286.571755 208.365107 
L 290.102086 204.074144 
L 289.516743 209.599809 
L 288.740864 208.697411 
L 288.490831 209.293784 
L 287.509169 208.882216 
" clip-path="url(#pc6813270ef)"/>
    <path d="M 304.751154 209.02813 
L 304.896334 207.745721 
L 303.778772 208.154827 
L 305.964009 203.045978 
L 306.951848 208.514047 
L 305.954026 207.865461 
L 305.808846 209.14787 
L 304.751154 209.02813 
" clip-path="url(#pc6813270ef)"/>
    <path d="M 322.029403 209.129583 
L 321.981879 208.523173 
L 320.962267 209.136936 
L 322.138229 203.706216 
L 324.14585 208.887438 
L 323.043073 208.440007 
L 323.090597 209.046417 
L 322.029403 209.129583 
" clip-path="url(#pc6813270ef)"/>
    <path d="M 339.516209 209.143384 
L 339.460825 208.819593 
L 338.868626 209.254152 
L 339.286161 205.850086 
L 340.811374 208.921848 
L 340.108407 208.708825 
L 340.163791 209.032616 
L 339.516209 209.143384 
" clip-path="url(#pc6813270ef)"/>
    <path d="M 356.724188 208.732198 
L 356.61396 209.252882 
L 357.009772 209.608684 
L 357.515812 209.443802 
L 357.62604 208.923118 
L 357.230228 208.567316 
L 356.724188 208.732198 
L 356.61396 209.252882 
" clip-path="url(#pc6813270ef)"/>
    <path d="M 115.197497 191.275782 
L 193.076176 190.909539 
L 192.538953 189.847605 
L 197.868642 191.419231 
L 192.55397 193.040914 
L 193.081182 191.973975 
L 115.202503 192.340218 
L 115.197497 191.275782 
" clip-path="url(#pc6813270ef)"/>
    <path d="M 132.744968 191.863198 
L 132.689769 192.128166 
L 133.274903 191.973595 
L 131.928015 194.457676 
L 131.685097 191.642405 
L 132.159834 192.017769 
L 132.215032 191.752802 
L 132.744968 191.863198 
" clip-path="url(#pc6813270ef)"/>
    <path d="M 150.246001 191.828541 
L 150.22546 192.314542 
L 151.218002 191.869623 
L 149.55459 196.668007 
L 148.301998 191.746377 
L 149.253458 192.27346 
L 149.273999 191.787459 
L 150.246001 191.828541 
" clip-path="url(#pc6813270ef)"/>
    <path d="M 167.570031 191.856266 
L 167.460074 193.063755 
L 168.568402 192.630255 
L 166.49565 197.785767 
L 165.388216 192.34066 
L 166.400012 192.967223 
L 166.509969 191.759734 
L 167.570031 191.856266 
" clip-path="url(#pc6813270ef)"/>
    <path d="M 184.851329 191.777147 
L 184.943995 193.372976 
L 185.9758 192.779941 
L 184.690344 198.18579 
L 182.787826 192.96506 
L 183.881337 193.434682 
L 183.788671 191.838853 
L 184.851329 191.777147 
" clip-path="url(#pc6813270ef)"/>
    <path d="M 202.129258 191.864107 
L 201.984481 193.22979 
L 203.099105 192.812746 
L 200.950258 197.937008 
L 199.923555 192.476104 
L 200.925964 193.117576 
L 201.070742 191.751893 
L 202.129258 191.864107 
" clip-path="url(#pc6813270ef)"/>
    <path d="M 219.309844 191.932424 
L 219.18542 192.362268 
L 220.169531 192.181272 
L 217.635761 196.106438 
L 217.590469 191.434728 
L 218.325732 192.11342 
L 218.450156 191.683576 
L 219.309844 191.932424 
" clip-path="url(#pc6813270ef)"/>
    <path d="M 236.3805 191.748413 
L 236.440087 191.968913 
L 236.8215 191.629239 
L 236.755869 194.012998 
L 235.4985 191.986761 
L 235.999087 192.088087 
L 235.9395 191.867587 
L 236.3805 191.748413 
" clip-path="url(#pc6813270ef)"/>
    <path d="M 253.370269 191.710552 
L 253.467717 191.640821 
L 253.230807 191.515656 
L 254.41448 191.110689 
L 253.649193 192.100344 
L 253.607179 191.835717 
L 253.509731 191.905448 
L 253.370269 191.710552 
" clip-path="url(#pc6813270ef)"/>
    <path d="M 270.350173 191.668783 
L 270.48939 191.298956 
L 269.61052 191.390349 
L 272.112171 188.109733 
L 271.82948 192.225651 
L 271.229044 191.57739 
L 271.089827 191.947217 
L 270.350173 191.668783 
" clip-path="url(#pc6813270ef)"/>
    <path d="M 287.47414 191.72594 
L 287.683242 190.385976 
L 286.549462 190.747715 
L 288.947646 185.735299 
L 289.70462 191.240077 
L 288.734961 190.550097 
L 288.52586 191.89006 
L 287.47414 191.72594 
" clip-path="url(#pc6813270ef)"/>
    <path d="M 304.748733 191.776091 
L 304.851944 190.057679 
L 303.757502 190.525128 
L 305.670388 185.308188 
L 306.945102 190.71658 
L 305.914477 190.121496 
L 305.811267 191.839909 
L 304.748733 191.776091 
" clip-path="url(#pc6813270ef)"/>
    <path d="M 322.035217 191.827017 
L 322.016199 191.302234 
L 320.985651 191.865052 
L 322.369826 186.560168 
L 324.134349 191.750948 
L 323.065766 191.264199 
L 323.084783 191.788983 
L 322.035217 191.827017 
" clip-path="url(#pc6813270ef)"/>
    <path d="M 339.52727 191.840844 
L 339.494426 191.528114 
L 338.90181 191.906532 
L 339.51156 188.6807 
L 340.77819 191.709468 
L 340.119886 191.462426 
L 340.15273 191.775156 
L 339.52727 191.840844 
" clip-path="url(#pc6813270ef)"/>
    <path d="M 356.701854 191.478734 
L 356.625774 192.005492 
L 357.04392 192.334758 
L 357.538146 192.137266 
L 357.614226 191.610508 
L 357.19608 191.281242 
L 356.701854 191.478734 
L 356.625774 192.005492 
" clip-path="url(#pc6813270ef)"/>
    <path d="M 115.199485 173.995776 
L 193.285284 173.920266 
L 192.752031 172.856334 
L 198.075813 174.447858 
L 192.755119 176.049676 
L 193.286313 174.984714 
L 115.200515 175.060224 
L 115.199485 173.995776 
" clip-path="url(#pc6813270ef)"/>
    <path d="M 132.730095 174.536426 
L 132.72167 174.786521 
L 133.230286 174.553277 
L 132.395744 177.028952 
L 131.729714 174.502723 
L 132.221479 174.76967 
L 132.229905 174.519574 
L 132.730095 174.536426 
" clip-path="url(#pc6813270ef)"/>
    <path d="M 150.292182 174.521276 
L 150.300427 175.173879 
L 151.358066 174.628249 
L 149.828762 179.970236 
L 148.164977 174.668593 
L 149.236064 175.187327 
L 149.227818 174.534724 
L 150.292182 174.521276 
" clip-path="url(#pc6813270ef)"/>
    <path d="M 167.572096 174.539674 
L 167.537967 176.095266 
L 168.613833 175.586518 
L 166.900807 180.872456 
L 165.421257 175.516475 
L 166.473775 176.071919 
L 166.507904 174.516326 
L 167.572096 174.539674 
" clip-path="url(#pc6813270ef)"/>
    <path d="M 184.851028 174.563656 
L 184.766139 175.827921 
L 185.863852 175.368204 
L 183.914207 180.571519 
L 182.677682 175.154268 
L 183.704082 175.756609 
L 183.788972 174.492344 
L 184.851028 174.563656 
" clip-path="url(#pc6813270ef)"/>
    <path d="M 202.12031 174.434286 
L 202.214024 174.954597 
L 203.160931 174.246859 
L 202.537137 179.731104 
L 200.039069 174.809141 
L 201.173403 175.142024 
L 201.07969 174.621714 
L 202.12031 174.434286 
" clip-path="url(#pc6813270ef)"/>
    <path d="M 219.149507 174.49519 
L 219.182317 174.764696 
L 219.68852 174.429569 
L 219.208105 177.223067 
L 218.07148 174.626431 
L 218.643304 174.830317 
L 218.610493 174.56081 
L 219.149507 174.49519 
" clip-path="url(#pc6813270ef)"/>
    <path d="M 236.226904 175.056002 
L 236.650715 174.734061 
L 236.583811 174.206058 
L 236.093096 173.999998 
L 235.669285 174.321939 
L 235.736189 174.849942 
L 236.226904 175.056002 
L 236.650715 174.734061 
" clip-path="url(#pc6813270ef)"/>
    <path d="M 253.221584 174.522228 
L 253.227357 174.303812 
L 252.784753 174.510683 
L 253.497723 172.343843 
L 254.095247 174.545317 
L 253.664188 174.315357 
L 253.658416 174.533772 
L 253.221584 174.522228 
" clip-path="url(#pc6813270ef)"/>
    <path d="M 270.247552 174.547873 
L 270.227679 174.075425 
L 269.302655 174.587618 
L 270.521273 169.803518 
L 272.137345 174.468382 
L 271.172575 174.035679 
L 271.192448 174.508127 
L 270.247552 174.547873 
" clip-path="url(#pc6813270ef)"/>
    <path d="M 287.468563 174.499073 
L 287.551545 172.974539 
L 286.459744 173.448123 
L 288.343323 168.22053 
L 289.648367 173.621684 
L 288.61442 173.032393 
L 288.531437 174.556927 
L 287.468563 174.499073 
" clip-path="url(#pc6813270ef)"/>
    <path d="M 304.748324 174.503852 
L 304.815706 173.020249 
L 303.728207 173.50363 
L 305.56471 168.259313 
L 306.918262 173.648515 
L 305.879058 173.068544 
L 305.811676 174.552148 
L 304.748324 174.503852 
" clip-path="url(#pc6813270ef)"/>
    <path d="M 322.063892 174.526729 
L 322.065162 174.030621 
L 321.071675 174.524188 
L 322.572708 169.566915 
L 324.048325 174.531812 
L 323.057379 174.033162 
L 323.056108 174.529271 
L 322.063892 174.526729 
" clip-path="url(#pc6813270ef)"/>
    <path d="M 339.572513 174.520932 
L 339.579581 174.253445 
L 339.037539 174.506795 
L 339.910683 171.853131 
L 340.642461 174.549205 
L 340.114555 174.267581 
L 340.107487 174.535068 
L 339.572513 174.520932 
" clip-path="url(#pc6813270ef)"/>
    <path d="M 356.607446 174.384645 
L 356.739574 174.900207 
L 357.252128 175.043562 
L 357.632554 174.671355 
L 357.500426 174.155793 
L 356.987872 174.012438 
L 356.607446 174.384645 
L 356.739574 174.900207 
" clip-path="url(#pc6813270ef)"/>
    <path d="M 115.517518 157.675136 
L 115.728669 157.18659 
L 115.411152 156.759454 
L 114.882482 156.820864 
L 114.671331 157.30941 
L 114.988848 157.736546 
L 115.517518 157.675136 
L 115.728669 157.18659 
" clip-path="url(#pc6813270ef)"/>
    <path d="M 132.786334 157.2309 
L 132.803434 157.537234 
L 133.399003 157.1967 
L 132.651001 160.311343 
L 131.560997 157.2993 
L 132.190766 157.571434 
L 132.173666 157.2651 
L 132.786334 157.2309 
" clip-path="url(#pc6813270ef)"/>
    <path d="M 150.261874 157.225688 
L 150.284185 157.727562 
L 151.265621 157.181065 
L 149.983115 162.266738 
L 148.254379 157.314935 
L 149.280438 157.772185 
L 149.258126 157.270312 
L 150.261874 157.225688 
" clip-path="url(#pc6813270ef)"/>
    <path d="M 167.571968 157.264511 
L 167.513741 159.140468 
L 168.594188 158.641523 
L 166.83317 163.911667 
L 165.402381 158.542454 
L 166.449805 159.107445 
L 166.508032 157.231489 
L 167.571968 157.264511 
" clip-path="url(#pc6813270ef)"/>
    <path d="M 184.850279 157.202537 
L 184.983961 158.761816 
L 185.999056 158.140612 
L 184.862846 163.579788 
L 182.817384 158.413388 
L 183.923404 158.852742 
L 183.789721 157.293463 
L 184.850279 157.202537 
" clip-path="url(#pc6813270ef)"/>
    <path d="M 202.08305 157.02456 
L 202.333504 157.56601 
L 203.076162 156.63608 
L 203.861416 162.136896 
L 200.177865 157.976721 
L 201.367405 158.01289 
L 201.11695 157.47144 
L 202.08305 157.02456 
" clip-path="url(#pc6813270ef)"/>
    <path d="M 219.079799 157.053784 
L 219.274015 157.253584 
L 219.479398 156.665352 
L 220.822159 159.245995 
L 218.280602 157.830648 
L 218.874416 157.642015 
L 218.680201 157.442216 
L 219.079799 157.053784 
" clip-path="url(#pc6813270ef)"/>
    <path d="M 236.501726 156.839973 
L 235.977502 156.748043 
L 235.635776 157.15607 
L 235.818274 157.656027 
L 236.342498 157.747957 
L 236.684224 157.33993 
L 236.501726 156.839973 
L 235.977502 156.748043 
" clip-path="url(#pc6813270ef)"/>
    <path d="M 253.155889 157.18595 
L 253.217939 156.901839 
L 252.587666 157.06185 
L 254.060499 154.406887 
L 254.292334 157.43415 
L 253.786161 157.025939 
L 253.724111 157.31005 
L 253.155889 157.18595 
" clip-path="url(#pc6813270ef)"/>
    <path d="M 270.199923 157.226687 
L 270.221236 156.70661 
L 269.159769 157.184062 
L 270.933128 152.04723 
L 272.280231 157.311938 
L 271.26139 156.749236 
L 271.240077 157.269313 
L 270.199923 157.226687 
" clip-path="url(#pc6813270ef)"/>
    <path d="M 287.468746 157.215875 
L 287.55737 155.750274 
L 286.462739 156.217279 
L 288.377745 151.001117 
L 289.65026 156.410026 
L 288.619878 155.814524 
L 288.531254 157.280125 
L 287.468746 157.215875 
" clip-path="url(#pc6813270ef)"/>
    <path d="M 304.749488 157.205343 
L 304.841885 156.056221 
L 303.738205 156.50142 
L 305.756307 151.324272 
L 306.921276 156.75736 
L 305.902909 156.141535 
L 305.810512 157.290657 
L 304.749488 157.205343 
" clip-path="url(#pc6813270ef)"/>
    <path d="M 322.07511 157.200356 
L 322.122755 156.715466 
L 321.105331 157.105067 
L 323.036443 152.399105 
L 324.014669 157.390933 
L 323.092534 156.810755 
L 323.04489 157.295644 
L 322.07511 157.200356 
" clip-path="url(#pc6813270ef)"/>
    <path d="M 339.586842 157.198169 
L 339.636673 156.94501 
L 339.080525 157.098506 
L 340.338312 154.716415 
L 340.599475 157.397494 
L 340.14299 157.044673 
L 340.093158 157.297831 
L 339.586842 157.198169 
" clip-path="url(#pc6813270ef)"/>
    <path d="M 357.121728 157.780221 
L 278.949642 158.034084 
L 279.48532 159.096798 
L 274.157923 157.517418 
L 279.47495 155.903471 
L 278.946185 156.969641 
L 357.118272 156.715779 
L 357.121728 157.780221 
" clip-path="url(#pc6813270ef)"/>
    <path d="M 115.611315 140.305761 
L 115.698167 139.780671 
L 115.286852 139.44291 
L 114.788685 139.630239 
L 114.701833 140.155329 
L 115.113148 140.49309 
L 115.611315 140.305761 
L 115.698167 139.780671 
" clip-path="url(#pc6813270ef)"/>
    <path d="M 132.80875 139.920635 
L 132.856115 140.249385 
L 133.466249 139.825905 
L 132.95365 143.255498 
L 131.493751 140.110095 
L 132.198615 140.344115 
L 132.15125 140.015365 
L 132.80875 139.920635 
" clip-path="url(#pc6813270ef)"/>
    <path d="M 150.29024 139.92209 
L 150.346141 140.567721 
L 151.360712 139.945661 
L 150.229091 145.385793 
L 148.17927 140.221121 
L 149.285661 140.659542 
L 149.22976 140.01391 
L 150.29024 139.92209 
" clip-path="url(#pc6813270ef)"/>
    <path d="M 167.570571 139.926081 
L 167.713255 141.732046 
L 168.732477 141.117637 
L 167.559956 146.549101 
L 165.549054 141.369151 
L 166.652114 141.815884 
L 166.509429 140.009919 
L 167.570571 139.926081 
" clip-path="url(#pc6813270ef)"/>
    <path d="M 184.848606 139.906045 
L 185.015019 141.325906 
L 186.010276 140.673391 
L 185.044007 146.145313 
L 182.838642 141.04512 
L 183.957808 141.449816 
L 183.791394 140.029955 
L 184.848606 139.906045 
" clip-path="url(#pc6813270ef)"/>
    <path d="M 202.067154 139.729822 
L 202.305332 140.196976 
L 203.001461 139.253466 
L 203.98178 144.639537 
L 200.198539 140.682534 
L 201.371024 140.673332 
L 201.132846 140.206178 
L 202.067154 139.729822 
" clip-path="url(#pc6813270ef)"/>
    <path d="M 219.049721 139.639223 
L 219.378498 139.808945 
L 219.389164 138.981669 
L 222.167769 141.665215 
L 218.370836 140.954331 
L 219.039055 140.466498 
L 218.710279 140.296777 
L 219.049721 139.639223 
" clip-path="url(#pc6813270ef)"/>
    <path d="M 236.090302 139.777518 
L 236.280784 139.707819 
L 235.950905 139.396554 
L 238.064821 139.271016 
L 236.369095 140.539446 
L 236.420181 140.088784 
L 236.229698 140.158482 
L 236.090302 139.777518 
" clip-path="url(#pc6813270ef)"/>
    <path d="M 253.161181 139.911472 
L 253.217708 139.632653 
L 252.603542 139.798417 
L 254.005277 137.179807 
L 254.276458 140.137583 
L 253.775347 139.745708 
L 253.718819 140.024528 
L 253.161181 139.911472 
" clip-path="url(#pc6813270ef)"/>
    <path d="M 270.282684 139.923331 
L 270.327354 139.486015 
L 269.408053 139.833992 
L 271.166694 135.594843 
L 272.031947 140.102008 
L 271.201985 139.575354 
L 271.157316 140.012669 
L 270.282684 139.923331 
" clip-path="url(#pc6813270ef)"/>
    <path d="M 287.472083 139.900428 
L 287.605803 138.855719 
L 286.482397 139.248492 
L 288.741866 134.172037 
L 289.649899 139.653923 
L 288.661637 138.990862 
L 288.527917 140.035572 
L 287.472083 139.900428 
" clip-path="url(#pc6813270ef)"/>
    <path d="M 304.747904 139.956328 
L 304.777452 138.609303 
L 303.701588 139.118056 
L 305.414593 133.832111 
L 306.894164 139.188086 
L 305.841644 138.632646 
L 305.812096 139.979672 
L 304.747904 139.956328 
" clip-path="url(#pc6813270ef)"/>
    <path d="M 322.082195 139.917938 
L 322.132257 139.440133 
L 321.126586 139.817814 
L 323.060621 135.189954 
L 323.993414 140.118186 
L 323.087867 139.540257 
L 323.037805 140.018062 
L 322.082195 139.917938 
" clip-path="url(#pc6813270ef)"/>
    <path d="M 339.609769 139.914178 
L 339.66359 139.683947 
L 339.149306 139.806535 
L 340.378218 137.665685 
L 340.530694 140.129465 
L 340.124053 139.79159 
L 340.070231 140.021822 
L 339.609769 139.914178 
" clip-path="url(#pc6813270ef)"/>
    <path d="M 357.12339 140.500213 
L 279.39113 140.995394 
L 279.930124 142.05643 
L 274.597821 140.493694 
L 279.909782 138.863151 
L 279.384349 139.930967 
L 357.11661 139.435787 
L 357.12339 140.500213 
" clip-path="url(#pc6813270ef)"/>
    <path d="M 115.280869 122.614604 
L 115.354265 122.695473 
L 115.442607 122.467813 
L 115.933957 123.496689 
L 114.957393 122.908187 
L 115.192527 122.842265 
L 115.119131 122.761396 
L 115.280869 122.614604 
" clip-path="url(#pc6813270ef)"/>
    <path d="M 132.836906 122.601287 
L 132.92362 122.958193 
L 133.550719 122.42786 
L 133.347133 126.257064 
L 131.409281 122.94814 
L 132.209807 123.13162 
L 132.123094 122.774713 
L 132.836906 122.601287 
" clip-path="url(#pc6813270ef)"/>
    <path d="M 150.283833 122.593866 
L 150.409397 123.292592 
L 151.362928 122.58049 
L 150.732774 128.101225 
L 148.21993 123.145297 
L 149.36173 123.480861 
L 149.236167 122.782134 
L 150.283833 122.593866 
" clip-path="url(#pc6813270ef)"/>
    <path d="M 167.569061 122.630065 
L 167.791472 124.661117 
L 168.79166 124.016185 
L 167.783825 129.480604 
L 165.617292 124.363795 
L 166.733349 124.776986 
L 166.510939 122.745935 
L 167.569061 122.630065 
" clip-path="url(#pc6813270ef)"/>
    <path d="M 184.852192 122.682184 
L 184.874433 124.717212 
L 185.933001 124.173387 
L 184.394586 129.512758 
L 182.739848 124.208284 
L 183.810048 124.728844 
L 183.787808 122.693816 
L 184.852192 122.682184 
" clip-path="url(#pc6813270ef)"/>
    <path d="M 202.082029 122.577005 
L 202.193023 123.059034 
L 203.046086 122.355016 
L 202.709946 127.508288 
L 200.153914 123.020984 
L 201.228966 123.281023 
L 201.117971 122.798995 
L 202.082029 122.577005 
" clip-path="url(#pc6813270ef)"/>
    <path d="M 219.083257 122.420292 
L 219.350965 122.623549 
L 219.489772 121.884875 
L 221.557082 124.720573 
L 218.270228 123.491125 
L 218.944451 123.158965 
L 218.676743 122.955708 
L 219.083257 122.420292 
" clip-path="url(#pc6813270ef)"/>
    <path d="M 236.157541 122.485987 
L 236.359554 122.483528 
L 236.152623 122.081962 
L 238.180128 122.66341 
L 236.167377 123.294038 
L 236.364472 122.887554 
L 236.162459 122.890013 
L 236.157541 122.485987 
" clip-path="url(#pc6813270ef)"/>
    <path d="M 253.227164 122.566363 
L 253.348801 122.353527 
L 252.801493 122.32309 
L 254.656368 120.559642 
L 254.078507 123.05291 
L 253.774473 122.596801 
L 253.652836 122.809637 
L 253.227164 122.566363 
" clip-path="url(#pc6813270ef)"/>
    <path d="M 270.300905 122.567193 
L 270.421712 122.148097 
L 269.462714 122.325578 
L 271.928073 118.497046 
L 271.977286 123.050422 
L 271.259903 122.389712 
L 271.139095 122.808807 
L 270.300905 122.567193 
" clip-path="url(#pc6813270ef)"/>
    <path d="M 287.475487 122.597732 
L 287.618285 121.767987 
L 286.478991 122.111964 
L 288.955214 117.137638 
L 289.626069 122.653574 
L 288.667312 121.948524 
L 288.524513 122.778268 
L 287.475487 122.597732 
" clip-path="url(#pc6813270ef)"/>
    <path d="M 304.751308 122.626788 
L 304.861462 121.675382 
L 303.742865 122.081649 
L 305.941064 116.978364 
L 306.915019 122.448923 
L 305.918846 121.797806 
L 305.808692 122.749212 
L 304.751308 122.626788 
" clip-path="url(#pc6813270ef)"/>
    <path d="M 322.130917 122.600386 
L 322.218531 122.171303 
L 321.272752 122.425157 
L 323.436142 118.397173 
L 323.847248 122.950843 
L 323.076697 122.346531 
L 322.989083 122.775614 
L 322.130917 122.600386 
" clip-path="url(#pc6813270ef)"/>
    <path d="M 339.63716 122.573686 
L 339.751474 122.370846 
L 339.231481 122.345058 
L 340.98314 120.659604 
L 340.448519 123.030942 
L 340.157154 122.599474 
L 340.04284 122.802314 
L 339.63716 122.573686 
" clip-path="url(#pc6813270ef)"/>
    <path d="M 357.125221 123.220198 
L 279.486611 123.981896 
L 280.029252 125.041071 
L 274.691604 123.496689 
L 279.997924 121.847881 
L 279.476168 122.917499 
L 357.114779 122.155802 
L 357.125221 123.220198 
" clip-path="url(#pc6813270ef)"/>
    <path d="M 115.299036 105.314831 
L 115.392204 105.413867 
L 115.497107 105.128494 
L 116.131688 106.398357 
L 114.902893 105.687506 
L 115.194133 105.600204 
L 115.100964 105.501169 
L 115.299036 105.314831 
" clip-path="url(#pc6813270ef)"/>
    <path d="M 132.839898 105.29513 
L 132.952768 105.655028 
L 133.559693 105.06939 
L 133.608701 109.006978 
L 131.400307 105.74661 
L 132.232972 105.880768 
L 132.120102 105.52087 
L 132.839898 105.29513 
" clip-path="url(#pc6813270ef)"/>
    <path d="M 150.281773 105.303047 
L 150.465656 106.217223 
L 151.40425 105.485544 
L 150.888458 111.018134 
L 148.273611 106.115261 
L 149.42211 106.427128 
L 149.238227 105.512953 
L 150.281773 105.303047 
" clip-path="url(#pc6813270ef)"/>
    <path d="M 167.566841 105.332498 
L 167.915353 107.764353 
L 168.893534 107.086507 
L 168.068032 112.581427 
L 165.732486 107.53952 
L 166.861671 107.915357 
L 166.513159 105.483502 
L 167.566841 105.332498 
" clip-path="url(#pc6813270ef)"/>
    <path d="M 184.852224 105.408032 
L 184.852091 107.613958 
L 185.916571 107.081798 
L 184.31958 112.403942 
L 182.723227 107.081606 
L 183.787643 107.613894 
L 183.787776 105.407968 
L 184.852224 105.408032 
" clip-path="url(#pc6813270ef)"/>
    <path d="M 202.094969 105.44811 
L 202.054858 105.943079 
L 203.084906 105.528331 
L 201.198896 110.357685 
L 200.115094 105.287669 
L 201.064921 105.862858 
L 201.105031 105.36789 
L 202.094969 105.44811 
" clip-path="url(#pc6813270ef)"/>
    <path d="M 219.159601 105.304633 
L 219.262969 105.584234 
L 219.718804 105.097898 
L 219.913673 108.204013 
L 218.041196 105.718102 
L 218.703766 105.790969 
L 218.600399 105.511367 
L 219.159601 105.304633 
" clip-path="url(#pc6813270ef)"/>
    <path d="M 236.193075 105.251812 
L 236.349263 105.284887 
L 236.259225 104.939437 
L 237.721877 105.738751 
L 236.060775 105.876563 
L 236.283113 105.597263 
L 236.126925 105.564188 
L 236.193075 105.251812 
" clip-path="url(#pc6813270ef)"/>
    <path d="M 253.216255 105.231706 
L 253.392548 105.007961 
L 252.768764 104.879119 
L 255.202935 103.170547 
L 254.111236 105.936881 
L 253.840039 105.360548 
L 253.663745 105.584294 
L 253.216255 105.231706 
" clip-path="url(#pc6813270ef)"/>
    <path d="M 270.271713 105.270321 
L 270.409392 104.822033 
L 269.375138 104.994962 
L 272.096792 100.925126 
L 272.064862 105.821038 
L 271.305967 105.097392 
L 271.168287 105.545679 
L 270.271713 105.270321 
" clip-path="url(#pc6813270ef)"/>
    <path d="M 287.487527 105.264357 
L 287.792378 104.176743 
L 286.623788 104.401931 
L 289.597638 99.708125 
L 289.698629 105.263789 
L 288.817325 104.464029 
L 288.512473 105.551643 
L 287.487527 105.264357 
" clip-path="url(#pc6813270ef)"/>
    <path d="M 304.758824 105.300119 
L 304.938846 104.430433 
L 303.788613 104.735846 
L 306.430951 99.847733 
L 306.915667 105.383133 
L 305.981197 104.646195 
L 305.801176 105.515881 
L 304.758824 105.300119 
" clip-path="url(#pc6813270ef)"/>
    <path d="M 322.157258 105.296517 
L 322.268741 104.893776 
L 321.351775 105.073552 
L 323.674826 101.380582 
L 323.768225 105.742448 
L 323.074224 105.116741 
L 322.962742 105.519483 
L 322.157258 105.296517 
" clip-path="url(#pc6813270ef)"/>
    <path d="M 339.667077 105.293692 
L 339.781385 105.12077 
L 339.321232 105.065077 
L 340.983075 103.678773 
L 340.358768 105.750923 
L 340.12723 105.349385 
L 340.012923 105.522308 
L 339.667077 105.293692 
" clip-path="url(#pc6813270ef)"/>
    <path d="M 357.126409 105.940185 
L 279.685413 106.872857 
L 280.230417 107.930818 
L 274.889335 106.398357 
L 280.191961 104.737706 
L 279.672594 105.808486 
L 357.113591 104.875815 
L 357.126409 105.940185 
" clip-path="url(#pc6813270ef)"/>
    <path d="M 115.314717 87.982153 
L 115.460563 88.09687 
L 115.54415 87.69046 
L 116.658466 89.275166 
L 114.85585 88.56554 
L 115.23113 88.388563 
L 115.085283 88.273847 
L 115.314717 87.982153 
" clip-path="url(#pc6813270ef)"/>
    <path d="M 132.866953 88.003741 
L 132.991211 88.390694 
L 133.640858 87.755224 
L 133.722587 91.997526 
L 131.319142 88.500776 
L 132.217306 88.639211 
L 132.093047 88.252259 
L 132.866953 88.003741 
" clip-path="url(#pc6813270ef)"/>
    <path d="M 150.278916 88.009727 
L 150.584471 89.350337 
L 151.504031 88.594875 
L 151.130008 94.138855 
L 148.390534 89.304511 
L 149.546639 89.586882 
L 149.241084 88.246273 
L 150.278916 88.009727 
" clip-path="url(#pc6813270ef)"/>
    <path d="M 167.56456 88.038006 
L 168.052437 90.881774 
L 169.011564 90.177226 
L 168.337818 95.69281 
L 165.864202 90.717187 
L 167.003316 91.061761 
L 166.51544 88.217994 
L 167.56456 88.038006 
" clip-path="url(#pc6813270ef)"/>
    <path d="M 184.851426 88.098863 
L 184.977249 90.39375 
L 186.010964 89.80405 
L 184.708055 95.205719 
L 182.822409 89.978871 
L 183.914398 90.452024 
L 183.788574 88.157137 
L 184.851426 88.098863 
" clip-path="url(#pc6813270ef)"/>
    <path d="M 202.110551 88.09246 
L 202.146091 88.603011 
L 203.131653 88.021379 
L 201.955402 93.233508 
L 200.068347 88.234621 
L 201.124989 88.674091 
L 201.089449 88.16354 
L 202.110551 88.09246 
" clip-path="url(#pc6813270ef)"/>
    <path d="M 219.186825 88.035952 
L 219.278873 88.342777 
L 219.800474 87.851856 
L 219.80048 91.196247 
L 217.959526 88.404144 
L 218.665223 88.526873 
L 218.573175 88.220048 
L 219.186825 88.035952 
" clip-path="url(#pc6813270ef)"/>
    <path d="M 236.211914 88.028812 
L 236.311102 88.080727 
L 236.315743 87.830437 
L 237.151875 88.647145 
L 236.004257 88.425563 
L 236.207273 88.279102 
L 236.108086 88.227188 
L 236.211914 88.028812 
" clip-path="url(#pc6813270ef)"/>
    <path d="M 253.22825 87.957415 
L 253.398835 87.745665 
L 252.80475 87.616245 
L 255.145851 86.010501 
L 254.07525 88.639755 
L 253.822335 88.086835 
L 253.65175 88.298585 
L 253.22825 87.957415 
" clip-path="url(#pc6813270ef)"/>
    <path d="M 270.282998 87.989916 
L 270.421083 87.552914 
L 269.408995 87.713747 
L 272.100843 83.757983 
L 272.031005 88.542253 
L 271.295086 87.829083 
L 271.157002 88.266084 
L 270.282998 87.989916 
" clip-path="url(#pc6813270ef)"/>
    <path d="M 287.491961 87.969385 
L 287.79058 87.012919 
L 286.615887 87.203728 
L 289.726155 82.599184 
L 289.66412 88.155419 
L 288.806658 87.33015 
L 288.508039 88.286615 
L 287.491961 87.969385 
" clip-path="url(#pc6813270ef)"/>
    <path d="M 304.768867 87.979656 
L 304.996534 87.19521 
L 303.825925 87.409655 
L 306.84276 82.74336 
L 306.89272 88.299717 
L 306.018799 87.491897 
L 305.791133 88.276344 
L 304.768867 87.979656 
" clip-path="url(#pc6813270ef)"/>
    <path d="M 322.185758 87.983105 
L 322.330653 87.608863 
L 321.437274 87.693316 
L 324.008946 84.385581 
L 323.682726 88.562684 
L 323.079137 87.898653 
L 322.934242 88.272895 
L 322.185758 87.983105 
" clip-path="url(#pc6813270ef)"/>
    <path d="M 339.687632 87.982009 
L 339.833623 87.829641 
L 339.382895 87.690027 
L 341.299911 86.604316 
L 340.297105 88.565973 
L 340.138359 88.121623 
L 339.992368 88.273991 
L 339.687632 87.982009 
" clip-path="url(#pc6813270ef)"/>
    <path d="M 357.127472 88.660172 
L 280.213129 89.74009 
L 280.760245 90.796961 
L 275.416113 89.275166 
L 280.715413 87.603932 
L 280.198185 88.675747 
L 357.112528 87.595828 
L 357.127472 88.660172 
" clip-path="url(#pc6813270ef)"/>
    <path d="M 115.360952 70.685106 
L 115.523847 70.846058 
L 115.682857 70.359317 
L 116.828944 72.457525 
L 114.717143 71.336683 
L 115.201942 71.171847 
L 115.039048 71.010894 
L 115.360952 70.685106 
" clip-path="url(#pc6813270ef)"/>
    <path d="M 132.896428 70.700561 
L 133.043867 71.116989 
L 133.729284 70.405683 
L 133.954389 75.012281 
L 131.230716 71.290317 
L 132.211011 71.411867 
L 132.063572 70.995439 
L 132.896428 70.700561 
" clip-path="url(#pc6813270ef)"/>
    <path d="M 150.278793 70.729188 
L 150.697355 72.556845 
L 151.616129 71.800429 
L 151.247868 77.344794 
L 148.503372 72.513299 
L 149.659769 72.794469 
L 149.241207 70.966812 
L 150.278793 70.729188 
" clip-path="url(#pc6813270ef)"/>
    <path d="M 167.559195 70.730958 
L 168.182505 73.495949 
L 169.103854 72.742671 
L 168.716686 78.285748 
L 165.988683 73.444921 
L 167.144115 73.730033 
L 166.520805 70.965042 
L 167.559195 70.730958 
" clip-path="url(#pc6813270ef)"/>
    <path d="M 184.850368 70.803585 
L 185.039734 73.064862 
L 186.056054 72.445666 
L 184.909098 77.882585 
L 182.873849 72.712153 
L 183.978999 73.153692 
L 183.789632 70.892415 
L 184.850368 70.803585 
" clip-path="url(#pc6813270ef)"/>
    <path d="M 202.125368 70.762848 
L 202.219702 71.344862 
L 203.185285 70.64919 
L 202.460705 76.158326 
L 200.033078 71.160104 
L 201.168966 71.515167 
L 201.074632 70.933152 
L 202.125368 70.762848 
" clip-path="url(#pc6813270ef)"/>
    <path d="M 219.217041 70.799035 
L 219.266006 71.136076 
L 219.891124 70.701106 
L 219.369648 74.218412 
L 217.868876 70.994894 
L 218.591924 71.234006 
L 218.542959 70.896965 
L 219.217041 70.799035 
" clip-path="url(#pc6813270ef)"/>
    <path d="M 236.38237 71.331543 
L 236.689946 70.897194 
L 236.467576 70.413651 
L 235.93763 70.364457 
L 235.630054 70.798806 
L 235.852424 71.282349 
L 236.38237 71.331543 
L 236.689946 70.897194 
" clip-path="url(#pc6813270ef)"/>
    <path d="M 253.25872 70.716804 
L 253.389916 70.535525 
L 252.896161 70.454413 
L 254.751957 69.035202 
L 253.983839 71.241587 
L 253.752475 70.797916 
L 253.62128 70.979196 
L 253.25872 70.716804 
" clip-path="url(#pc6813270ef)"/>
    <path d="M 270.309046 70.665123 
L 270.491923 70.254169 
L 269.487139 70.299369 
L 272.54877 66.738462 
L 271.952861 71.396631 
L 271.313831 70.619923 
L 271.130954 71.030877 
L 270.309046 70.665123 
" clip-path="url(#pc6813270ef)"/>
    <path d="M 287.495875 70.677354 
L 287.761393 69.892953 
L 286.582497 70.055787 
L 289.80133 65.52647 
L 289.607249 71.079661 
L 288.769644 70.234244 
L 288.504125 71.018646 
L 287.495875 70.677354 
" clip-path="url(#pc6813270ef)"/>
    <path d="M 304.783014 70.65756 
L 305.056409 69.94409 
L 303.871997 70.060195 
L 307.267359 65.661659 
L 306.853912 71.202838 
L 306.050381 70.324971 
L 305.776986 71.03844 
L 304.783014 70.65756 
" clip-path="url(#pc6813270ef)"/>
    <path d="M 322.192255 70.662557 
L 322.377698 70.294812 
L 321.456764 70.291671 
L 324.41443 67.170545 
L 323.663236 71.404329 
L 323.113188 70.665698 
L 322.927745 71.033443 
L 322.192255 70.662557 
" clip-path="url(#pc6813270ef)"/>
    <path d="M 339.72523 70.662661 
L 339.910569 70.54789 
L 339.495689 70.291982 
L 341.693393 69.700298 
L 340.184311 71.404018 
L 340.14011 70.918569 
L 339.95477 71.033339 
L 339.72523 70.662661 
" clip-path="url(#pc6813270ef)"/>
    <path d="M 357.130504 71.38012 
L 280.386179 72.895105 
L 280.939308 73.948842 
L 275.586591 72.457525 
L 280.876281 70.75612 
L 280.36517 71.830865 
L 357.109496 70.31588 
L 357.130504 71.38012 
" clip-path="url(#pc6813270ef)"/>
    <path d="M 115.40705 53.381937 
L 115.593113 53.588987 
L 115.82115 53.009812 
L 117.060627 55.638499 
L 114.57885 54.126188 
L 115.179013 53.961113 
L 114.99295 53.754063 
L 115.40705 53.381937 
" clip-path="url(#pc6813270ef)"/>
    <path d="M 132.944308 53.394066 
L 133.118242 53.858374 
L 133.872924 53.046198 
L 134.21934 58.21108 
L 131.087076 54.089802 
L 132.189626 54.206242 
L 132.015692 53.741934 
L 132.944308 53.394066 
" clip-path="url(#pc6813270ef)"/>
    <path d="M 150.272067 53.422915 
L 150.831979 55.399081 
L 151.711028 54.596844 
L 151.625679 60.15277 
L 148.638626 55.467355 
L 149.807845 55.689252 
L 149.247933 53.713085 
L 150.272067 53.422915 
" clip-path="url(#pc6813270ef)"/>
    <path d="M 167.551924 53.422411 
L 168.323051 56.133873 
L 169.201311 55.330771 
L 169.121427 60.886779 
L 166.129766 56.204304 
L 167.299203 56.425051 
L 166.528076 53.713589 
L 167.551924 53.422411 
" clip-path="url(#pc6813270ef)"/>
    <path d="M 184.849009 53.509592 
L 185.098791 55.771894 
L 186.098402 55.126068 
L 185.095455 60.591386 
L 182.924346 55.476517 
L 184.040772 55.88871 
L 183.790991 53.626408 
L 184.849009 53.509592 
" clip-path="url(#pc6813270ef)"/>
    <path d="M 202.131383 53.538093 
L 202.176725 54.343724 
L 203.209584 53.752528 
L 201.914501 59.156079 
L 200.021286 53.931968 
L 201.113958 54.403538 
L 201.068617 53.597907 
L 202.131383 53.538093 
" clip-path="url(#pc6813270ef)"/>
    <path d="M 219.253429 53.592991 
L 219.228437 53.96642 
L 220.000286 53.642974 
L 218.630086 57.302286 
L 217.759714 53.493026 
L 218.48158 53.916437 
L 218.506571 53.543009 
L 219.253429 53.592991 
" clip-path="url(#pc6813270ef)"/>
    <path d="M 236.279372 53.599835 
L 236.247537 53.719207 
L 236.518115 53.663505 
L 235.841649 54.761716 
L 235.801885 53.472495 
L 236.008793 53.655537 
L 236.040628 53.536165 
L 236.279372 53.599835 
" clip-path="url(#pc6813270ef)"/>
    <path d="M 253.291642 53.509687 
L 253.349955 53.361329 
L 252.994926 53.39306 
L 254.023133 52.084419 
L 253.885074 53.74294 
L 253.646671 53.477955 
L 253.588358 53.626313 
L 253.291642 53.509687 
" clip-path="url(#pc6813270ef)"/>
    <path d="M 270.340507 53.321552 
L 270.586955 52.942059 
L 269.581521 52.828655 
L 273.184484 49.773069 
L 271.858479 54.307345 
L 271.345941 53.434955 
L 271.099493 53.814448 
L 270.340507 53.321552 
" clip-path="url(#pc6813270ef)"/>
    <path d="M 287.505932 53.370112 
L 287.761491 52.732057 
L 286.575468 52.830349 
L 290.03655 48.483337 
L 289.539874 54.017676 
L 288.749626 53.127833 
L 288.494068 53.765888 
L 287.505932 53.370112 
" clip-path="url(#pc6813270ef)"/>
    <path d="M 304.794814 53.349239 
L 305.053913 52.774587 
L 303.864779 52.822251 
L 307.507951 48.62667 
L 306.775897 54.134819 
L 306.024286 53.21211 
L 305.765186 53.786761 
L 304.794814 53.349239 
" clip-path="url(#pc6813270ef)"/>
    <path d="M 322.207295 53.369774 
L 322.405521 53.017069 
L 321.501885 52.973322 
L 324.542262 50.040951 
L 323.618115 54.162678 
L 323.110931 53.413521 
L 322.912705 53.766226 
L 322.207295 53.369774 
" clip-path="url(#pc6813270ef)"/>
    <path d="M 339.742983 53.342697 
L 339.968285 53.24568 
L 339.548948 52.892092 
L 342.093026 52.597826 
L 340.131052 54.243908 
L 340.16232 53.696285 
L 339.937017 53.793303 
L 339.742983 53.342697 
" clip-path="url(#pc6813270ef)"/>
    <path d="M 357.13355 54.100051 
L 280.620287 56.048603 
L 281.179438 57.099157 
L 275.818274 55.638499 
L 281.09814 53.906848 
L 280.593187 54.9845 
L 357.10645 53.035949 
L 357.13355 54.100051 
" clip-path="url(#pc6813270ef)"/>
   </g>
   <g id="matplotlib.axis_1">
    <g id="xtick_1">
     <g id="line2d_1">
      <defs>
       <path id="m73123aa789" d="M 0 0 
L 0 3.5 
" style="stroke: #000000; stroke-width: 0.8"/>
      </defs>
      <g>
       <use xlink:href="#m73123aa789" x="120.651709" y="307.584" style="stroke: #000000; stroke-width: 0.8"/>
      </g>
     </g>
     <g id="text_1">
      <!-- 3 -->
      <g transform="translate(113.280615 322.182437)scale(0.1 -0.1)">
       <defs>
        <path id="DejaVuSans-2212" d="M 678 2272 
L 4684 2272 
L 4684 1741 
L 678 1741 
L 678 2272 
z
" transform="scale(0.015625)"/>
        <path id="DejaVuSans-33" d="M 2597 2516 
Q 3050 2419 3304 2112 
Q 3559 1806 3559 1356 
Q 3559 666 3084 287 
Q 2609 -91 1734 -91 
Q 1441 -91 1130 -33 
Q 819 25 488 141 
L 488 750 
Q 750 597 1062 519 
Q 1375 441 1716 441 
Q 2309 441 2620 675 
Q 2931 909 2931 1356 
Q 2931 1769 2642 2001 
Q 2353 2234 1838 2234 
L 1294 2234 
L 1294 2753 
L 1863 2753 
Q 2328 2753 2575 2939 
Q 2822 3125 2822 3475 
Q 2822 3834 2567 4026 
Q 2313 4219 1838 4219 
Q 1578 4219 1281 4162 
Q 984 4106 628 3988 
L 628 4550 
Q 988 4650 1302 4700 
Q 1616 4750 1894 4750 
Q 2613 4750 3031 4423 
Q 3450 4097 3450 3541 
Q 3450 3153 3228 2886 
Q 3006 2619 2597 2516 
z
" transform="scale(0.015625)"/>
       </defs>
       <use xlink:href="#DejaVuSans-2212"/>
       <use xlink:href="#DejaVuSans-33" x="83.789062"/>
      </g>
     </g>
    </g>
    <g id="xtick_2">
     <g id="line2d_2">
      <g>
       <use xlink:href="#m73123aa789" x="159.154472" y="307.584" style="stroke: #000000; stroke-width: 0.8"/>
      </g>
     </g>
     <g id="text_2">
      <!-- 2 -->
      <g transform="translate(151.783379 322.182437)scale(0.1 -0.1)">
       <defs>
        <path id="DejaVuSans-32" d="M 1228 531 
L 3431 531 
L 3431 0 
L 469 0 
L 469 531 
Q 828 903 1448 1529 
Q 2069 2156 2228 2338 
Q 2531 2678 2651 2914 
Q 2772 3150 2772 3378 
Q 2772 3750 2511 3984 
Q 2250 4219 1831 4219 
Q 1534 4219 1204 4116 
Q 875 4013 500 3803 
L 500 4441 
Q 881 4594 1212 4672 
Q 1544 4750 1819 4750 
Q 2544 4750 2975 4387 
Q 3406 4025 3406 3419 
Q 3406 3131 3298 2873 
Q 3191 2616 2906 2266 
Q 2828 2175 2409 1742 
Q 1991 1309 1228 531 
z
" transform="scale(0.015625)"/>
       </defs>
       <use xlink:href="#DejaVuSans-2212"/>
       <use xlink:href="#DejaVuSans-32" x="83.789062"/>
      </g>
     </g>
    </g>
    <g id="xtick_3">
     <g id="line2d_3">
      <g>
       <use xlink:href="#m73123aa789" x="197.657236" y="307.584" style="stroke: #000000; stroke-width: 0.8"/>
      </g>
     </g>
     <g id="text_3">
      <!-- 1 -->
      <g transform="translate(190.286142 322.182437)scale(0.1 -0.1)">
       <defs>
        <path id="DejaVuSans-31" d="M 794 531 
L 1825 531 
L 1825 4091 
L 703 3866 
L 703 4441 
L 1819 4666 
L 2450 4666 
L 2450 531 
L 3481 531 
L 3481 0 
L 794 0 
L 794 531 
z
" transform="scale(0.015625)"/>
       </defs>
       <use xlink:href="#DejaVuSans-2212"/>
       <use xlink:href="#DejaVuSans-31" x="83.789062"/>
      </g>
     </g>
    </g>
    <g id="xtick_4">
     <g id="line2d_4">
      <g>
       <use xlink:href="#m73123aa789" x="236.16" y="307.584" style="stroke: #000000; stroke-width: 0.8"/>
      </g>
     </g>
     <g id="text_4">
      <!-- 0 -->
      <g transform="translate(232.97875 322.182437)scale(0.1 -0.1)">
       <defs>
        <path id="DejaVuSans-30" d="M 2034 4250 
Q 1547 4250 1301 3770 
Q 1056 3291 1056 2328 
Q 1056 1369 1301 889 
Q 1547 409 2034 409 
Q 2525 409 2770 889 
Q 3016 1369 3016 2328 
Q 3016 3291 2770 3770 
Q 2525 4250 2034 4250 
z
M 2034 4750 
Q 2819 4750 3233 4129 
Q 3647 3509 3647 2328 
Q 3647 1150 3233 529 
Q 2819 -91 2034 -91 
Q 1250 -91 836 529 
Q 422 1150 422 2328 
Q 422 3509 836 4129 
Q 1250 4750 2034 4750 
z
" transform="scale(0.015625)"/>
       </defs>
       <use xlink:href="#DejaVuSans-30"/>
      </g>
     </g>
    </g>
    <g id="xtick_5">
     <g id="line2d_5">
      <g>
       <use xlink:href="#m73123aa789" x="274.662764" y="307.584" style="stroke: #000000; stroke-width: 0.8"/>
      </g>
     </g>
     <g id="text_5">
      <!-- 1 -->
      <g transform="translate(271.481514 322.182437)scale(0.1 -0.1)">
       <use xlink:href="#DejaVuSans-31"/>
      </g>
     </g>
    </g>
    <g id="xtick_6">
     <g id="line2d_6">
      <g>
       <use xlink:href="#m73123aa789" x="313.165528" y="307.584" style="stroke: #000000; stroke-width: 0.8"/>
      </g>
     </g>
     <g id="text_6">
      <!-- 2 -->
      <g transform="translate(309.984278 322.182437)scale(0.1 -0.1)">
       <use xlink:href="#DejaVuSans-32"/>
      </g>
     </g>
    </g>
    <g id="xtick_7">
     <g id="line2d_7">
      <g>
       <use xlink:href="#m73123aa789" x="351.668291" y="307.584" style="stroke: #000000; stroke-width: 0.8"/>
      </g>
     </g>
     <g id="text_7">
      <!-- 3 -->
      <g transform="translate(348.487041 322.182437)scale(0.1 -0.1)">
       <use xlink:href="#DejaVuSans-33"/>
      </g>
     </g>
    </g>
    <g id="text_8">
     <!-- $\theta$ (rad) -->
     <g transform="translate(210.885 339.659781)scale(0.15 -0.15)">
      <defs>
       <path id="DejaVuSans-Oblique-3b8" d="M 2913 2219 
L 925 2219 
Q 791 1284 928 888 
Q 1100 400 1566 400 
Q 2034 400 2391 891 
Q 2703 1322 2913 2219 
z
M 3009 2750 
Q 3094 3638 2984 3950 
Q 2813 4444 2353 4444 
Q 1875 4444 1525 3956 
Q 1250 3563 1034 2750 
L 3009 2750 
z
M 2444 4913 
Q 3194 4913 3494 4250 
Q 3794 3591 3566 2422 
Q 3341 1256 2781 594 
Q 2225 -72 1475 -72 
Q 722 -72 425 594 
Q 128 1256 353 2422 
Q 581 3591 1134 4250 
Q 1691 4913 2444 4913 
z
" transform="scale(0.015625)"/>
       <path id="DejaVuSans-20" transform="scale(0.015625)"/>
       <path id="DejaVuSans-28" d="M 1984 4856 
Q 1566 4138 1362 3434 
Q 1159 2731 1159 2009 
Q 1159 1288 1364 580 
Q 1569 -128 1984 -844 
L 1484 -844 
Q 1016 -109 783 600 
Q 550 1309 550 2009 
Q 550 2706 781 3412 
Q 1013 4119 1484 4856 
L 1984 4856 
z
" transform="scale(0.015625)"/>
       <path id="DejaVuSans-72" d="M 2631 2963 
Q 2534 3019 2420 3045 
Q 2306 3072 2169 3072 
Q 1681 3072 1420 2755 
Q 1159 2438 1159 1844 
L 1159 0 
L 581 0 
L 581 3500 
L 1159 3500 
L 1159 2956 
Q 1341 3275 1631 3429 
Q 1922 3584 2338 3584 
Q 2397 3584 2469 3576 
Q 2541 3569 2628 3553 
L 2631 2963 
z
" transform="scale(0.015625)"/>
       <path id="DejaVuSans-61" d="M 2194 1759 
Q 1497 1759 1228 1600 
Q 959 1441 959 1056 
Q 959 750 1161 570 
Q 1363 391 1709 391 
Q 2188 391 2477 730 
Q 2766 1069 2766 1631 
L 2766 1759 
L 2194 1759 
z
M 3341 1997 
L 3341 0 
L 2766 0 
L 2766 531 
Q 2569 213 2275 61 
Q 1981 -91 1556 -91 
Q 1019 -91 701 211 
Q 384 513 384 1019 
Q 384 1609 779 1909 
Q 1175 2209 1959 2209 
L 2766 2209 
L 2766 2266 
Q 2766 2663 2505 2880 
Q 2244 3097 1772 3097 
Q 1472 3097 1187 3025 
Q 903 2953 641 2809 
L 641 3341 
Q 956 3463 1253 3523 
Q 1550 3584 1831 3584 
Q 2591 3584 2966 3190 
Q 3341 2797 3341 1997 
z
" transform="scale(0.015625)"/>
       <path id="DejaVuSans-64" d="M 2906 2969 
L 2906 4863 
L 3481 4863 
L 3481 0 
L 2906 0 
L 2906 525 
Q 2725 213 2448 61 
Q 2172 -91 1784 -91 
Q 1150 -91 751 415 
Q 353 922 353 1747 
Q 353 2572 751 3078 
Q 1150 3584 1784 3584 
Q 2172 3584 2448 3432 
Q 2725 3281 2906 2969 
z
M 947 1747 
Q 947 1113 1208 752 
Q 1469 391 1925 391 
Q 2381 391 2643 752 
Q 2906 1113 2906 1747 
Q 2906 2381 2643 2742 
Q 2381 3103 1925 3103 
Q 1469 3103 1208 2742 
Q 947 2381 947 1747 
z
" transform="scale(0.015625)"/>
       <path id="DejaVuSans-29" d="M 513 4856 
L 1013 4856 
Q 1481 4119 1714 3412 
Q 1947 2706 1947 2009 
Q 1947 1309 1714 600 
Q 1481 -109 1013 -844 
L 513 -844 
Q 928 -128 1133 580 
Q 1338 1288 1338 2009 
Q 1338 2731 1133 3434 
Q 928 4138 513 4856 
z
" transform="scale(0.015625)"/>
      </defs>
      <use xlink:href="#DejaVuSans-Oblique-3b8" transform="translate(0 0.234375)"/>
      <use xlink:href="#DejaVuSans-20" transform="translate(61.181641 0.234375)"/>
      <use xlink:href="#DejaVuSans-28" transform="translate(92.96875 0.234375)"/>
      <use xlink:href="#DejaVuSans-72" transform="translate(131.982422 0.234375)"/>
      <use xlink:href="#DejaVuSans-61" transform="translate(173.095703 0.234375)"/>
      <use xlink:href="#DejaVuSans-64" transform="translate(234.375 0.234375)"/>
      <use xlink:href="#DejaVuSans-29" transform="translate(297.851562 0.234375)"/>
     </g>
    </g>
   </g>
   <g id="matplotlib.axis_2">
    <g id="ytick_1">
     <g id="line2d_8">
      <defs>
       <path id="m5571903799" d="M 0 0 
L -3.5 0 
" style="stroke: #000000; stroke-width: 0.8"/>
      </defs>
      <g>
       <use xlink:href="#m5571903799" x="103.104" y="290.036291" style="stroke: #000000; stroke-width: 0.8"/>
      </g>
     </g>
     <g id="text_9">
      <!-- 3 -->
      <g transform="translate(81.361813 293.83551)scale(0.1 -0.1)">
       <use xlink:href="#DejaVuSans-2212"/>
       <use xlink:href="#DejaVuSans-33" x="83.789062"/>
      </g>
     </g>
    </g>
    <g id="ytick_2">
     <g id="line2d_9">
      <g>
       <use xlink:href="#m5571903799" x="103.104" y="251.533528" style="stroke: #000000; stroke-width: 0.8"/>
      </g>
     </g>
     <g id="text_10">
      <!-- 2 -->
      <g transform="translate(81.361813 255.332746)scale(0.1 -0.1)">
       <use xlink:href="#DejaVuSans-2212"/>
       <use xlink:href="#DejaVuSans-32" x="83.789062"/>
      </g>
     </g>
    </g>
    <g id="ytick_3">
     <g id="line2d_10">
      <g>
       <use xlink:href="#m5571903799" x="103.104" y="213.030764" style="stroke: #000000; stroke-width: 0.8"/>
      </g>
     </g>
     <g id="text_11">
      <!-- 1 -->
      <g transform="translate(81.361813 216.829983)scale(0.1 -0.1)">
       <use xlink:href="#DejaVuSans-2212"/>
       <use xlink:href="#DejaVuSans-31" x="83.789062"/>
      </g>
     </g>
    </g>
    <g id="ytick_4">
     <g id="line2d_11">
      <g>
       <use xlink:href="#m5571903799" x="103.104" y="174.528" style="stroke: #000000; stroke-width: 0.8"/>
      </g>
     </g>
     <g id="text_12">
      <!-- 0 -->
      <g transform="translate(89.7415 178.327219)scale(0.1 -0.1)">
       <use xlink:href="#DejaVuSans-30"/>
      </g>
     </g>
    </g>
    <g id="ytick_5">
     <g id="line2d_12">
      <g>
       <use xlink:href="#m5571903799" x="103.104" y="136.025236" style="stroke: #000000; stroke-width: 0.8"/>
      </g>
     </g>
     <g id="text_13">
      <!-- 1 -->
      <g transform="translate(89.7415 139.824455)scale(0.1 -0.1)">
       <use xlink:href="#DejaVuSans-31"/>
      </g>
     </g>
    </g>
    <g id="ytick_6">
     <g id="line2d_13">
      <g>
       <use xlink:href="#m5571903799" x="103.104" y="97.522472" style="stroke: #000000; stroke-width: 0.8"/>
      </g>
     </g>
     <g id="text_14">
      <!-- 2 -->
      <g transform="translate(89.7415 101.321691)scale(0.1 -0.1)">
       <use xlink:href="#DejaVuSans-32"/>
      </g>
     </g>
    </g>
    <g id="ytick_7">
     <g id="line2d_14">
      <g>
       <use xlink:href="#m5571903799" x="103.104" y="59.019709" style="stroke: #000000; stroke-width: 0.8"/>
      </g>
     </g>
     <g id="text_15">
      <!-- 3 -->
      <g transform="translate(89.7415 62.818927)scale(0.1 -0.1)">
       <use xlink:href="#DejaVuSans-33"/>
      </g>
     </g>
    </g>
    <g id="text_16">
     <!-- $\dot{\theta}$ (rad/s) -->
     <g transform="translate(74.242281 206.253)rotate(-90)scale(0.15 -0.15)">
      <defs>
       <path id="DejaVuSans-307" d="M -1894 4863 
L -1319 4863 
L -1319 4134 
L -1894 4134 
L -1894 4863 
z
M -1600 3584 
L -1600 3584 
z
" transform="scale(0.015625)"/>
       <path id="DejaVuSans-2f" d="M 1625 4666 
L 2156 4666 
L 531 -594 
L 0 -594 
L 1625 4666 
z
" transform="scale(0.015625)"/>
       <path id="DejaVuSans-73" d="M 2834 3397 
L 2834 2853 
Q 2591 2978 2328 3040 
Q 2066 3103 1784 3103 
Q 1356 3103 1142 2972 
Q 928 2841 928 2578 
Q 928 2378 1081 2264 
Q 1234 2150 1697 2047 
L 1894 2003 
Q 2506 1872 2764 1633 
Q 3022 1394 3022 966 
Q 3022 478 2636 193 
Q 2250 -91 1575 -91 
Q 1294 -91 989 -36 
Q 684 19 347 128 
L 347 722 
Q 666 556 975 473 
Q 1284 391 1588 391 
Q 1994 391 2212 530 
Q 2431 669 2431 922 
Q 2431 1156 2273 1281 
Q 2116 1406 1581 1522 
L 1381 1569 
Q 847 1681 609 1914 
Q 372 2147 372 2553 
Q 372 3047 722 3315 
Q 1072 3584 1716 3584 
Q 2034 3584 2315 3537 
Q 2597 3491 2834 3397 
z
" transform="scale(0.015625)"/>
      </defs>
      <use xlink:href="#DejaVuSans-307" transform="translate(62.88916 34.015625)"/>
      <use xlink:href="#DejaVuSans-Oblique-3b8" transform="translate(0 0.75)"/>
      <use xlink:href="#DejaVuSans-20" transform="translate(61.181641 0.75)"/>
      <use xlink:href="#DejaVuSans-28" transform="translate(92.96875 0.75)"/>
      <use xlink:href="#DejaVuSans-72" transform="translate(131.982422 0.75)"/>
      <use xlink:href="#DejaVuSans-61" transform="translate(173.095703 0.75)"/>
      <use xlink:href="#DejaVuSans-64" transform="translate(234.375 0.75)"/>
      <use xlink:href="#DejaVuSans-2f" transform="translate(297.851562 0.75)"/>
      <use xlink:href="#DejaVuSans-73" transform="translate(331.542969 0.75)"/>
      <use xlink:href="#DejaVuSans-29" transform="translate(383.642578 0.75)"/>
     </g>
    </g>
   </g>
   <g id="patch_3">
    <path d="M 103.104 307.584 
L 103.104 41.472 
" style="fill: none; stroke: #000000; stroke-width: 0.8; stroke-linejoin: miter; stroke-linecap: square"/>
   </g>
   <g id="patch_4">
    <path d="M 369.216 307.584 
L 369.216 41.472 
" style="fill: none; stroke: #000000; stroke-width: 0.8; stroke-linejoin: miter; stroke-linecap: square"/>
   </g>
   <g id="patch_5">
    <path d="M 103.104 307.584 
L 369.216 307.584 
" style="fill: none; stroke: #000000; stroke-width: 0.8; stroke-linejoin: miter; stroke-linecap: square"/>
   </g>
   <g id="patch_6">
    <path d="M 103.104 41.472 
L 369.216 41.472 
" style="fill: none; stroke: #000000; stroke-width: 0.8; stroke-linejoin: miter; stroke-linecap: square"/>
   </g>
  </g>
 </g>
 <defs>
  <clipPath id="pc6813270ef">
   <rect x="103.104" y="41.472" width="266.112" height="266.112"/>
  </clipPath>
 </defs>
</svg>
