<?xml version="1.0" encoding="utf-8" standalone="no"?>
<!DOCTYPE svg PUBLIC "-//W3C//DTD SVG 1.1//EN"
  "http://www.w3.org/Graphics/SVG/1.1/DTD/svg11.dtd">
<svg xmlns:xlink="http://www.w3.org/1999/xlink" width="460.8pt" height="345.6pt" viewBox="0 0 460.8 345.6" xmlns="http://www.w3.org/2000/svg" version="1.1">
 <metadata>
  <rdf:RDF xmlns:dc="http://purl.org/dc/elements/1.1/" xmlns:cc="http://creativecommons.org/ns#" xmlns:rdf="http://www.w3.org/1999/02/22-rdf-syntax-ns#">
   <cc:Work>
    <dc:type rdf:resource="http://purl.org/dc/dcmitype/StillImage"/>
    <dc:date>2023-06-02T11:03:31.878326</dc:date>
    <dc:format>image/svg+xml</dc:format>
    <dc:creator>
     <cc:Agent>
      <dc:title>Matplotlib v3.5.3, https://matplotlib.org/</dc:title>
     </cc:Agent>
    </dc:creator>
   </cc:Work>
  </rdf:RDF>
 </metadata>
 <defs>
  <style type="text/css">*{stroke-linejoin: round; stroke-linecap: butt}</style>
 </defs>
 <g id="figure_1">
  <g id="patch_1">
   <path d="M 0 345.6 
L 460.8 345.6 
L 460.8 0 
L 0 0 
z
" style="fill: #ffffff"/>
  </g>
  <g id="axes_1">
   <g id="patch_2">
    <path d="M 169.632 307.584 
L 302.688 307.584 
L 302.688 41.472 
L 169.632 41.472 
z
" style="fill: #ffffff"/>
   </g>
   <g id="Quiver_1">
    <path d="M 175.941828 295.535556 
L 175.864189 295.963015 
L 176.435401 295.796298 
L 175.17436 298.271914 
L 174.864432 295.510965 
L 175.340533 295.867904 
L 175.418172 295.440444 
L 175.941828 295.535556 
" clip-path="url(#pb13811084b)"/>
    <path d="M 184.581671 295.536414 
L 184.502739 295.963031 
L 185.074495 295.798188 
L 183.805343 298.269656 
L 183.504469 295.507705 
L 183.979397 295.866204 
L 184.058329 295.439586 
L 184.581671 295.536414 
" clip-path="url(#pb13811084b)"/>
    <path d="M 193.221484 295.537414 
L 193.145885 295.937457 
L 193.718267 295.774802 
L 192.439675 298.241399 
L 192.149364 295.478317 
L 192.622918 295.838629 
L 192.698516 295.438586 
L 193.221484 295.537414 
" clip-path="url(#pb13811084b)"/>
    <path d="M 201.861479 295.537441 
L 201.797488 295.875865 
L 202.369887 295.713269 
L 201.091037 298.179732 
L 200.801015 295.416621 
L 201.274531 295.776982 
L 201.338521 295.438559 
L 201.861479 295.537441 
" clip-path="url(#pb13811084b)"/>
    <path d="M 210.499237 295.539903 
L 210.447334 295.79914 
L 211.017711 295.643709 
L 209.720969 298.08037 
L 209.462289 295.332291 
L 209.92886 295.695334 
L 209.980763 295.436097 
L 210.499237 295.539903 
" clip-path="url(#pb13811084b)"/>
    <path d="M 219.12813 295.543757 
L 219.072373 295.791888 
L 219.624391 295.655272 
L 218.322426 297.969303 
L 218.135609 295.320728 
L 218.576112 295.680373 
L 218.63187 295.432243 
L 219.12813 295.543757 
" clip-path="url(#pb13811084b)"/>
    <path d="M 227.751652 295.550095 
L 227.689556 295.781747 
L 228.214955 295.674285 
L 226.899048 297.804515 
L 226.825045 295.301715 
L 227.226253 295.657556 
L 227.288348 295.425905 
L 227.751652 295.550095 
" clip-path="url(#pb13811084b)"/>
    <path d="M 236.372005 295.554459 
L 236.305546 295.766464 
L 236.796014 295.687378 
L 235.495408 297.608047 
L 235.523986 295.288622 
L 235.881536 295.633546 
L 235.947995 295.421541 
L 236.372005 295.554459 
" clip-path="url(#pb13811084b)"/>
    <path d="M 244.989468 295.55113 
L 244.926338 295.740598 
L 245.368404 295.677389 
L 244.168704 297.382679 
L 244.231596 295.298611 
L 244.547402 295.614338 
L 244.610532 295.42487 
L 244.989468 295.55113 
" clip-path="url(#pb13811084b)"/>
    <path d="M 253.602823 295.532279 
L 253.558545 295.695102 
L 253.92847 295.620836 
L 252.997214 297.116235 
L 252.95153 295.355164 
L 253.232898 295.606545 
L 253.277177 295.443721 
L 253.602823 295.532279 
" clip-path="url(#pb13811084b)"/>
    <path d="M 262.214426 295.505401 
L 262.197025 295.639827 
L 262.483278 295.540202 
L 261.905994 296.83226 
L 261.676722 295.435798 
L 261.928173 295.605025 
L 261.945574 295.470599 
L 262.214426 295.505401 
" clip-path="url(#pb13811084b)"/>
    <path d="M 270.824918 295.473122 
L 270.839796 295.57804 
L 271.034753 295.443367 
L 270.868778 296.537178 
L 270.405247 295.532633 
L 270.62996 295.607796 
L 270.615082 295.502878 
L 270.824918 295.473122 
" clip-path="url(#pb13811084b)"/>
    <path d="M 279.433104 295.436942 
L 279.484162 295.510046 
L 279.579312 295.334825 
L 279.870584 296.219041 
L 279.140688 295.641175 
L 279.337954 295.612162 
L 279.286896 295.539058 
L 279.433104 295.436942 
" clip-path="url(#pb13811084b)"/>
    <path d="M 288.002619 295.754099 
L 249.602155 296.132001 
L 249.873491 296.661581 
L 247.204644 295.88947 
L 249.857779 295.064986 
L 249.596917 295.599803 
L 287.997381 295.221901 
L 288.002619 295.754099 
" clip-path="url(#pb13811084b)"/>
    <path d="M 296.640468 295.754112 
L 258.450992 295.821295 
L 258.718039 296.35305 
L 256.055519 295.559396 
L 258.715231 294.75638 
L 258.450055 295.289072 
L 296.639532 295.221888 
L 296.640468 295.754112 
" clip-path="url(#pb13811084b)"/>
    <path d="M 175.943997 278.241486 
L 175.877689 278.764248 
L 176.439168 278.567223 
L 175.312319 281.106733 
L 174.855187 278.366307 
L 175.349695 278.697276 
L 175.416003 278.174514 
L 175.943997 278.241486 
" clip-path="url(#pb13811084b)"/>
    <path d="M 184.583344 278.246283 
L 184.510455 278.747671 
L 185.075426 278.560894 
L 183.90256 281.079482 
L 183.495363 278.331194 
L 183.983767 278.671104 
L 184.056656 278.169717 
L 184.583344 278.246283 
" clip-path="url(#pb13811084b)"/>
    <path d="M 193.222054 278.254294 
L 193.142309 278.705711 
L 193.712711 278.536243 
L 192.463612 281.017907 
L 192.140385 278.258482 
L 192.6182 278.613124 
L 192.697946 278.161706 
L 193.222054 278.254294 
" clip-path="url(#pb13811084b)"/>
    <path d="M 201.860765 278.261079 
L 201.782857 278.643822 
L 202.357465 278.489215 
L 201.044384 280.937626 
L 200.792877 278.170743 
L 201.261328 278.537665 
L 201.339235 278.154921 
L 201.860765 278.261079 
" clip-path="url(#pb13811084b)"/>
    <path d="M 210.500651 278.257585 
L 210.451066 278.518237 
L 211.021954 278.356756 
L 209.744147 280.814514 
L 209.458046 278.059244 
L 209.929763 278.419066 
L 209.979349 278.158415 
L 210.500651 278.257585 
" clip-path="url(#pb13811084b)"/>
    <path d="M 219.126843 278.256686 
L 219.078156 278.503529 
L 219.620528 278.354059 
L 218.393137 280.676425 
L 218.139472 278.061941 
L 218.584471 278.406156 
L 218.633157 278.159314 
L 219.126843 278.256686 
" clip-path="url(#pb13811084b)"/>
    <path d="M 227.752372 278.263439 
L 227.696933 278.495811 
L 228.217116 278.374317 
L 226.965608 280.531719 
L 226.822884 278.041683 
L 227.232189 278.384933 
L 227.287628 278.152561 
L 227.752372 278.263439 
" clip-path="url(#pb13811084b)"/>
    <path d="M 236.372542 278.273685 
L 236.306857 278.486227 
L 236.797625 278.405056 
L 235.503147 280.333418 
L 235.522375 278.010944 
L 235.881773 278.354857 
L 235.947458 278.142315 
L 236.372542 278.273685 
" clip-path="url(#pb13811084b)"/>
    <path d="M 244.988427 278.269709 
L 244.926718 278.458136 
L 245.365281 278.393127 
L 244.18291 280.092271 
L 244.234719 278.022873 
L 244.549864 278.334718 
L 244.611573 278.146291 
L 244.988427 278.269709 
" clip-path="url(#pb13811084b)"/>
    <path d="M 253.603197 278.259847 
L 253.55135 278.423044 
L 253.92959 278.363541 
L 252.92153 279.839966 
L 252.95041 278.052459 
L 253.224956 278.31935 
L 253.276803 278.156153 
L 253.603197 278.259847 
" clip-path="url(#pb13811084b)"/>
    <path d="M 262.214525 278.241432 
L 262.181093 278.375957 
L 262.483575 278.308297 
L 261.745677 279.553251 
L 261.676425 278.107703 
L 261.912043 278.309093 
L 261.945475 278.174568 
L 262.214525 278.241432 
" clip-path="url(#pb13811084b)"/>
    <path d="M 270.823232 278.213997 
L 270.817235 278.317229 
L 271.029695 278.225991 
L 270.660029 279.240318 
L 270.410305 278.190009 
L 270.610771 278.305235 
L 270.616768 278.202003 
L 270.823232 278.213997 
" clip-path="url(#pb13811084b)"/>
    <path d="M 279.42968 278.181599 
L 279.45608 278.251279 
L 279.569039 278.128798 
L 279.624006 278.904798 
L 279.150961 278.287202 
L 279.316721 278.30408 
L 279.29032 278.234401 
L 279.42968 278.181599 
" clip-path="url(#pb13811084b)"/>
    <path d="M 288.035981 278.149235 
L 288.094746 278.185216 
L 288.107943 278.031705 
L 288.587649 278.56781 
L 287.892057 278.384295 
L 288.022784 278.302746 
L 287.964019 278.266765 
L 288.035981 278.149235 
" clip-path="url(#pb13811084b)"/>
    <path d="M 296.640246 278.474112 
L 258.116856 278.509735 
L 258.38346 279.041712 
L 255.721603 278.245838 
L 258.381984 277.445041 
L 258.116364 277.977511 
L 296.639754 277.941888 
L 296.640246 278.474112 
" clip-path="url(#pb13811084b)"/>
    <path d="M 175.943542 260.964893 
L 175.863982 261.533219 
L 176.42796 261.343463 
L 175.268401 263.868205 
L 174.846707 261.122104 
L 175.336898 261.459432 
L 175.416458 260.891107 
L 175.943542 260.964893 
" clip-path="url(#pb13811084b)"/>
    <path d="M 184.583923 260.962062 
L 184.513772 261.50561 
L 185.07568 261.309811 
L 183.943288 263.846854 
L 183.492142 261.105437 
L 183.985926 261.437485 
L 184.056077 260.893938 
L 184.583923 260.962062 
" clip-path="url(#pb13811084b)"/>
    <path d="M 193.223706 260.963701 
L 193.15669 261.458724 
L 193.719803 261.266419 
L 192.571679 263.796381 
L 192.137565 261.052216 
L 192.629277 261.387323 
L 192.696294 260.892299 
L 193.223706 260.963701 
" clip-path="url(#pb13811084b)"/>
    <path d="M 201.863549 260.964844 
L 201.807799 261.363628 
L 202.371741 261.173768 
L 201.212649 263.698725 
L 200.790447 260.952701 
L 201.280701 261.289939 
L 201.336451 260.891156 
L 201.863549 260.964844 
" clip-path="url(#pb13811084b)"/>
    <path d="M 210.501701 260.965963 
L 210.463738 261.227665 
L 211.025103 261.04189 
L 209.860366 263.545011 
L 209.454897 260.81411 
L 209.940335 261.151738 
L 209.978299 260.890037 
L 210.501701 260.965963 
" clip-path="url(#pb13811084b)"/>
    <path d="M 219.125661 260.967237 
L 219.086424 261.212898 
L 219.616984 261.045712 
L 218.487628 263.384612 
L 218.143016 260.810288 
L 218.595102 261.134424 
L 218.634339 260.888763 
L 219.125661 260.967237 
" clip-path="url(#pb13811084b)"/>
    <path d="M 227.749787 260.977553 
L 227.700234 261.20734 
L 228.209361 261.076659 
L 227.02447 263.225871 
L 226.830639 260.779341 
L 227.24066 261.108234 
L 227.290213 260.878447 
L 227.749787 260.977553 
" clip-path="url(#pb13811084b)"/>
    <path d="M 236.368672 260.983261 
L 236.313411 261.191934 
L 236.786017 261.093784 
L 235.607386 263.014724 
L 235.533983 260.762216 
L 235.896066 261.081411 
L 235.951328 260.872739 
L 236.368672 260.983261 
" clip-path="url(#pb13811084b)"/>
    <path d="M 244.984348 260.9865 
L 244.925848 261.170848 
L 245.353044 261.1035 
L 244.214999 262.77148 
L 244.246956 260.7525 
L 244.557152 261.053848 
L 244.615652 260.8695 
L 244.984348 260.9865 
" clip-path="url(#pb13811084b)"/>
    <path d="M 253.59758 260.983341 
L 253.542239 261.140921 
L 253.912739 261.094023 
L 252.886592 262.503797 
L 252.967261 260.761977 
L 253.227079 261.030239 
L 253.28242 260.872659 
L 253.59758 260.983341 
" clip-path="url(#pb13811084b)"/>
    <path d="M 262.208794 260.966179 
L 262.170615 261.094972 
L 262.466381 261.042536 
L 261.698212 262.215936 
L 261.693619 260.813464 
L 261.913028 261.018615 
L 261.951206 260.889821 
L 262.208794 260.966179 
" clip-path="url(#pb13811084b)"/>
    <path d="M 270.818215 260.944794 
L 270.801421 261.043009 
L 271.014645 260.978383 
L 270.552056 261.910149 
L 270.425355 260.877617 
L 270.604991 261.009421 
L 270.621785 260.911206 
L 270.818215 260.944794 
" clip-path="url(#pb13811084b)"/>
    <path d="M 279.430455 260.923464 
L 279.434991 260.993919 
L 279.571364 260.914392 
L 279.405361 261.632548 
L 279.148636 260.941608 
L 279.294081 261.002991 
L 279.289545 260.932536 
L 279.430455 260.923464 
" clip-path="url(#pb13811084b)"/>
    <path d="M 288.136035 261.156714 
L 288.26609 260.924547 
L 288.130054 260.695833 
L 287.863965 260.699286 
L 287.73391 260.931453 
L 287.869946 261.160167 
L 288.136035 261.156714 
L 288.26609 260.924547 
" clip-path="url(#pb13811084b)"/>
    <path d="M 296.640805 261.194111 
L 257.738599 261.311858 
L 258.006321 261.843274 
L 255.342797 261.052996 
L 258.001488 260.246609 
L 257.736988 260.779636 
L 296.639195 260.661889 
L 296.640805 261.194111 
" clip-path="url(#pb13811084b)"/>
    <path d="M 175.945287 243.668941 
L 175.903662 244.196268 
L 176.455176 243.972863 
L 175.449908 246.562908 
L 174.863455 243.847218 
L 175.373088 244.154387 
L 175.414713 243.627059 
L 175.945287 243.668941 
" clip-path="url(#pb13811084b)"/>
    <path d="M 184.585295 243.668837 
L 184.547496 244.15009 
L 185.098923 243.926469 
L 184.094669 246.516908 
L 183.507153 243.801448 
L 184.016906 244.108416 
L 184.054705 243.627163 
L 184.585295 243.668837 
" clip-path="url(#pb13811084b)"/>
    <path d="M 193.225407 243.667353 
L 193.195327 244.079891 
L 193.745494 243.853188 
L 192.755746 246.449204 
L 192.15305 243.737073 
L 192.664512 244.041185 
L 192.694593 243.628647 
L 193.225407 243.667353 
" clip-path="url(#pb13811084b)"/>
    <path d="M 201.864805 243.674347 
L 201.831827 244.005789 
L 202.387783 243.793679 
L 201.329898 246.362683 
L 200.798956 243.635596 
L 201.302218 243.953095 
L 201.335195 243.621653 
L 201.864805 243.674347 
" clip-path="url(#pb13811084b)"/>
    <path d="M 210.500687 243.681692 
L 210.466995 243.942379 
L 211.022061 243.749076 
L 209.90308 246.254869 
L 209.457939 243.546924 
L 209.945621 243.874995 
L 209.979313 243.614308 
L 210.500687 243.681692 
" clip-path="url(#pb13811084b)"/>
    <path d="M 219.127323 243.688962 
L 219.086361 243.936285 
L 219.621968 243.770886 
L 218.470379 246.121227 
L 218.138032 243.525114 
L 218.591715 243.854361 
L 218.632677 243.607038 
L 219.127323 243.688962 
" clip-path="url(#pb13811084b)"/>
    <path d="M 227.746001 243.681107 
L 227.712894 243.907108 
L 228.198004 243.747321 
L 227.188931 245.908014 
L 226.841996 243.548679 
L 227.260892 243.840894 
L 227.293999 243.614893 
L 227.746001 243.681107 
" clip-path="url(#pb13811084b)"/>
    <path d="M 236.363552 243.684489 
L 236.327062 243.888041 
L 236.770655 243.757467 
L 235.795108 245.683516 
L 235.549345 243.538533 
L 235.919959 243.815062 
L 235.956448 243.611511 
L 236.363552 243.684489 
" clip-path="url(#pb13811084b)"/>
    <path d="M 244.980234 243.693137 
L 244.935097 243.873371 
L 245.340703 243.78341 
L 244.348632 245.450343 
L 244.259297 243.51259 
L 244.574629 243.783097 
L 244.619766 243.602863 
L 244.980234 243.693137 
" clip-path="url(#pb13811084b)"/>
    <path d="M 253.595625 243.689351 
L 253.554274 243.844975 
L 253.906875 243.772052 
L 253.026494 245.204249 
L 252.973125 243.523948 
L 253.243025 243.762274 
L 253.284375 243.606649 
L 253.595625 243.689351 
" clip-path="url(#pb13811084b)"/>
    <path d="M 262.209668 243.683001 
L 262.174667 243.812669 
L 262.469003 243.753003 
L 261.729992 244.944678 
L 261.690997 243.542997 
L 261.915331 243.742667 
L 261.950332 243.612999 
L 262.209668 243.683001 
" clip-path="url(#pb13811084b)"/>
    <path d="M 270.822391 243.670701 
L 270.799689 243.773092 
L 271.027172 243.716104 
L 270.492988 244.671907 
L 270.412828 243.579896 
L 270.594908 243.727689 
L 270.617609 243.625299 
L 270.822391 243.670701 
" clip-path="url(#pb13811084b)"/>
    <path d="M 279.434284 243.653743 
L 279.428541 243.728026 
L 279.582851 243.665228 
L 279.302574 244.390837 
L 279.137149 243.630772 
L 279.279974 243.716541 
L 279.285716 243.642257 
L 279.434284 243.653743 
" clip-path="url(#pb13811084b)"/>
    <path d="M 288.036484 243.911599 
L 288.246526 243.748203 
L 288.210042 243.484604 
L 287.963516 243.384401 
L 287.753474 243.547797 
L 287.789958 243.811396 
L 288.036484 243.911599 
L 288.246526 243.748203 
" clip-path="url(#pb13811084b)"/>
    <path d="M 296.640942 243.91411 
L 257.653055 244.052118 
L 257.921049 244.583397 
L 255.25712 243.794486 
L 257.915398 242.986735 
L 257.651171 243.519898 
L 296.639058 243.38189 
L 296.640942 243.91411 
" clip-path="url(#pb13811084b)"/>
    <path d="M 175.94537 226.387864 
L 175.908201 226.884412 
L 176.458804 226.65877 
L 175.464058 229.252875 
L 174.866587 226.539588 
L 175.377462 226.844685 
L 175.41463 226.348136 
L 175.94537 226.387864 
" clip-path="url(#pb13811084b)"/>
    <path d="M 184.585532 226.385566 
L 184.556914 226.818166 
L 185.105543 226.587766 
L 184.133289 229.190385 
L 183.512353 226.482371 
L 184.02585 226.783034 
L 184.054468 226.350434 
L 184.585532 226.385566 
" clip-path="url(#pb13811084b)"/>
    <path d="M 193.225401 226.387443 
L 193.200138 226.732285 
L 193.750382 226.505771 
L 192.759748 229.101449 
L 192.157978 226.389112 
L 192.669336 226.693399 
L 192.694599 226.348557 
L 193.225401 226.387443 
" clip-path="url(#pb13811084b)"/>
    <path d="M 201.863504 226.393495 
L 201.838009 226.657 
L 202.390513 226.444486 
L 201.345046 229.003045 
L 200.809487 226.291514 
L 201.311 226.606009 
L 201.336496 226.342505 
L 201.863504 226.393495 
" clip-path="url(#pb13811084b)"/>
    <path d="M 210.490724 226.394194 
L 210.46453 226.644918 
L 210.992172 226.446581 
L 209.978064 228.87524 
L 209.487828 226.289419 
L 209.963082 226.59253 
L 209.989276 226.341806 
L 210.490724 226.394194 
" clip-path="url(#pb13811084b)"/>
    <path d="M 219.113939 226.390168 
L 219.091771 226.624107 
L 219.581817 226.434504 
L 218.658319 228.70739 
L 218.178183 226.301496 
L 218.623893 226.579771 
L 218.646061 226.345832 
L 219.113939 226.390168 
" clip-path="url(#pb13811084b)"/>
    <path d="M 227.742208 226.398698 
L 227.711509 226.620906 
L 228.186623 226.460095 
L 227.213016 228.590076 
L 226.853377 226.275905 
L 227.267094 226.559509 
L 227.297792 226.337302 
L 227.742208 226.398698 
" clip-path="url(#pb13811084b)"/>
    <path d="M 236.366276 226.39327 
L 236.341006 226.599545 
L 236.778827 226.443809 
L 235.907304 228.430755 
L 235.541173 226.292191 
L 235.928455 226.549006 
L 235.953724 226.34273 
L 236.366276 226.39327 
" clip-path="url(#pb13811084b)"/>
    <path d="M 244.982914 226.387989 
L 244.962926 226.570903 
L 245.348743 226.427966 
L 244.600114 228.197142 
L 244.251257 226.308034 
L 244.597097 226.530926 
L 244.617086 226.348011 
L 244.982914 226.387989 
" clip-path="url(#pb13811084b)"/>
    <path d="M 253.597304 226.388818 
L 253.576486 226.546122 
L 253.911913 226.430454 
L 253.23182 227.941042 
L 252.968087 226.305546 
L 253.261878 226.504486 
L 253.282696 226.347182 
L 253.597304 226.388818 
" clip-path="url(#pb13811084b)"/>
    <path d="M 262.209747 226.389873 
L 262.187874 226.51962 
L 262.469241 226.433619 
L 261.861271 227.66547 
L 261.690759 226.302381 
L 261.92838 226.475874 
L 261.950253 226.346127 
L 262.209747 226.389873 
" clip-path="url(#pb13811084b)"/>
    <path d="M 270.822183 226.39149 
L 270.798693 226.493674 
L 271.02655 226.438471 
L 270.485097 227.389833 
L 270.41345 226.297529 
L 270.594326 226.446693 
L 270.617817 226.34451 
L 270.822183 226.39149 
" clip-path="url(#pb13811084b)"/>
    <path d="M 279.432441 226.387368 
L 279.413072 226.459809 
L 279.577323 226.426105 
L 279.166315 227.092409 
L 279.142677 226.309895 
L 279.268191 226.421072 
L 279.287559 226.348632 
L 279.432441 226.387368 
" clip-path="url(#pb13811084b)"/>
    <path d="M 287.972091 226.632644 
L 288.215234 226.524492 
L 288.243143 226.259848 
L 288.027909 226.103356 
L 287.784766 226.211508 
L 287.756857 226.476152 
L 287.972091 226.632644 
L 288.215234 226.524492 
" clip-path="url(#pb13811084b)"/>
    <path d="M 296.640223 226.634112 
L 257.597911 226.666778 
L 257.864468 227.198779 
L 255.202681 226.40267 
L 257.863132 225.602107 
L 257.597465 226.134554 
L 296.639777 226.101888 
L 296.640223 226.634112 
" clip-path="url(#pb13811084b)"/>
    <path d="M 175.944421 209.117949 
L 175.885851 209.635063 
L 176.444643 209.430541 
L 175.351884 211.984905 
L 174.858115 209.250844 
L 175.357008 209.575164 
L 175.415579 209.058051 
L 175.944421 209.117949 
" clip-path="url(#pb13811084b)"/>
    <path d="M 184.584841 209.113982 
L 184.538019 209.591238 
L 185.093682 209.378362 
L 184.039336 211.94882 
L 183.504639 209.222467 
L 184.008338 209.539273 
L 184.055159 209.062018 
L 184.584841 209.113982 
" clip-path="url(#pb13811084b)"/>
    <path d="M 193.224881 209.113564 
L 193.186359 209.512709 
L 193.741685 209.298957 
L 192.691398 211.871076 
L 192.152398 209.145571 
L 192.656596 209.461581 
L 192.695119 209.062436 
L 193.224881 209.113564 
" clip-path="url(#pb13811084b)"/>
    <path d="M 201.865659 209.103528 
L 201.848233 209.401663 
L 202.395077 209.16706 
L 201.442825 211.777063 
L 200.801126 209.073894 
L 201.316915 209.370608 
L 201.334341 209.072472 
L 201.865659 209.103528 
" clip-path="url(#pb13811084b)"/>
    <path d="M 210.496587 209.090734 
L 210.493853 209.347321 
L 211.009761 209.096202 
L 210.21266 211.653871 
L 209.470239 209.079798 
L 209.980679 209.341853 
L 209.983413 209.085266 
L 210.496587 209.090734 
" clip-path="url(#pb13811084b)"/>
    <path d="M 219.123944 209.095963 
L 219.115981 209.339906 
L 219.611831 209.111888 
L 218.800374 211.527435 
L 218.148169 209.064112 
L 218.628094 209.323981 
L 218.636056 209.080037 
L 219.123944 209.095963 
" clip-path="url(#pb13811084b)"/>
    <path d="M 227.746637 209.10448 
L 227.730157 209.331117 
L 228.199911 209.137441 
L 227.355196 211.354371 
L 226.840089 209.038559 
L 227.276883 209.298157 
L 227.293363 209.07152 
L 227.746637 209.10448 
" clip-path="url(#pb13811084b)"/>
    <path d="M 236.366603 209.113817 
L 236.340785 209.32042 
L 236.779808 209.165452 
L 235.901826 211.154028 
L 235.540192 209.010548 
L 235.92758 209.268785 
L 235.953397 209.062183 
L 236.366603 209.113817 
" clip-path="url(#pb13811084b)"/>
    <path d="M 244.984898 209.117599 
L 244.955299 209.302497 
L 245.354695 209.176798 
L 244.504008 210.936983 
L 244.245305 208.999202 
L 244.585503 209.243299 
L 244.615102 209.058401 
L 244.984898 209.117599 
" clip-path="url(#pb13811084b)"/>
    <path d="M 253.600235 209.125367 
L 253.562868 209.285602 
L 253.920705 209.200101 
L 253.066331 210.69035 
L 252.959295 208.975899 
L 253.242398 209.210868 
L 253.279765 209.050633 
L 253.600235 209.125367 
" clip-path="url(#pb13811084b)"/>
    <path d="M 262.211902 209.127994 
L 262.171908 209.259896 
L 262.475706 209.207982 
L 261.680061 210.407021 
L 261.684294 208.968018 
L 261.908104 209.179908 
L 261.948098 209.048006 
L 262.211902 209.127994 
" clip-path="url(#pb13811084b)"/>
    <path d="M 270.820746 209.124295 
L 270.784451 209.225041 
L 271.022238 209.196885 
L 270.357051 210.095459 
L 270.417762 208.979115 
L 270.582959 209.152451 
L 270.619254 209.051705 
L 270.820746 209.124295 
" clip-path="url(#pb13811084b)"/>
    <path d="M 279.428244 209.111701 
L 279.404542 209.179945 
L 279.564731 209.159104 
L 279.122987 209.770435 
L 279.155269 209.016896 
L 279.268055 209.132542 
L 279.291756 209.064299 
L 279.428244 209.111701 
" clip-path="url(#pb13811084b)"/>
    <path d="M 287.894016 209.332096 
L 288.158401 209.301833 
L 288.264386 209.057737 
L 288.105984 208.843904 
L 287.841599 208.874167 
L 287.735614 209.118263 
L 287.894016 209.332096 
L 288.158401 209.301833 
" clip-path="url(#pb13811084b)"/>
    <path d="M 296.639468 209.354111 
L 257.45471 209.275829 
L 257.719758 209.808583 
L 255.060238 209.004933 
L 257.722948 208.211915 
L 257.455773 208.743606 
L 296.640532 208.821889 
L 296.639468 209.354111 
" clip-path="url(#pb13811084b)"/>
    <path d="M 175.943574 191.844663 
L 175.857257 192.465199 
L 176.421069 192.274952 
L 175.263712 194.800704 
L 174.839624 192.054972 
L 175.330109 192.391873 
L 175.416426 191.771337 
L 175.943574 191.844663 
" clip-path="url(#pb13811084b)"/>
    <path d="M 184.583644 191.844159 
L 184.499873 192.45496 
L 185.06332 192.263633 
L 183.910803 194.791597 
L 183.481456 192.046682 
L 183.972585 192.382643 
L 184.056356 191.771841 
L 184.583644 191.844159 
" clip-path="url(#pb13811084b)"/>
    <path d="M 193.224582 191.836498 
L 193.165245 192.387394 
L 193.722906 192.179809 
L 192.644182 194.740132 
L 192.135416 192.008821 
L 192.636082 192.330399 
L 192.695418 191.779502 
L 193.224582 191.836498 
" clip-path="url(#pb13811084b)"/>
    <path d="M 201.865312 191.828615 
L 201.828886 192.297407 
L 202.380126 192.073325 
L 201.378038 194.664602 
L 200.788252 191.949634 
L 201.298262 192.256176 
L 201.334688 191.787385 
L 201.865312 191.828615 
" clip-path="url(#pb13811084b)"/>
    <path d="M 210.50583 191.820258 
L 210.490414 192.154553 
L 211.034331 191.91324 
L 210.114258 194.53476 
L 209.439354 191.839689 
L 209.958755 192.130036 
L 209.97417 191.795742 
L 210.50583 191.820258 
" clip-path="url(#pb13811084b)"/>
    <path d="M 219.13725 191.810878 
L 219.134372 192.068128 
L 219.651749 191.816635 
L 218.851218 194.380498 
L 218.108251 191.799365 
L 218.619872 192.062372 
L 218.62275 191.805122 
L 219.13725 191.810878 
" clip-path="url(#pb13811084b)"/>
    <path d="M 227.761515 191.816249 
L 227.753265 192.057764 
L 228.244544 191.832748 
L 227.437506 194.223147 
L 226.795456 191.783252 
L 227.270236 192.041265 
L 227.278485 191.799751 
L 227.761515 191.816249 
" clip-path="url(#pb13811084b)"/>
    <path d="M 236.38479 191.82268 
L 236.37011 192.047469 
L 236.834369 191.852039 
L 236.013204 194.055898 
L 235.485631 191.763961 
L 235.920531 192.01811 
L 235.93521 191.79332 
L 236.38479 191.82268 
" clip-path="url(#pb13811084b)"/>
    <path d="M 245.001294 191.829072 
L 244.980222 192.030366 
L 245.403881 191.871215 
L 244.589282 193.820938 
L 244.196119 191.744785 
L 244.577634 191.988222 
L 244.598706 191.786928 
L 245.001294 191.829072 
" clip-path="url(#pb13811084b)"/>
    <path d="M 253.615101 191.839282 
L 253.583819 192.014384 
L 253.965304 191.901846 
L 253.127178 193.559014 
L 252.914696 191.714154 
L 253.233616 191.951819 
L 253.264899 191.776718 
L 253.615101 191.839282 
" clip-path="url(#pb13811084b)"/>
    <path d="M 262.22734 191.842784 
L 262.192556 191.990124 
L 262.52202 191.912352 
L 261.732162 193.2814 
L 261.63798 191.703648 
L 261.897876 191.920556 
L 261.93266 191.773216 
L 262.22734 191.842784 
" clip-path="url(#pb13811084b)"/>
    <path d="M 270.831782 191.833743 
L 270.806039 191.945526 
L 271.055347 191.88523 
L 270.462566 192.925824 
L 270.384653 191.73077 
L 270.582474 191.894039 
L 270.608218 191.782257 
L 270.831782 191.833743 
" clip-path="url(#pb13811084b)"/>
    <path d="M 279.432083 191.82787 
L 279.412214 191.899953 
L 279.57625 191.867609 
L 279.161305 192.528834 
L 279.14375 191.748391 
L 279.268047 191.860214 
L 279.287917 191.78813 
L 279.432083 191.82787 
" clip-path="url(#pb13811084b)"/>
    <path d="M 287.923654 192.062925 
L 288.182599 192.00158 
L 288.258945 191.746655 
L 288.076346 191.553075 
L 287.817401 191.61442 
L 287.741055 191.869345 
L 287.923654 192.062925 
L 288.182599 192.00158 
" clip-path="url(#pb13811084b)"/>
    <path d="M 296.639309 192.074111 
L 257.489864 191.972446 
L 257.754593 192.50536 
L 255.095555 191.700116 
L 257.758739 190.908693 
L 257.491246 191.440224 
L 296.640691 191.541889 
L 296.639309 192.074111 
" clip-path="url(#pb13811084b)"/>
    <path d="M 175.942952 174.568891 
L 175.80261 175.471367 
L 176.369404 175.290197 
L 175.171642 177.79704 
L 174.791695 175.044852 
L 175.276707 175.389585 
L 175.417048 174.487109 
L 175.942952 174.568891 
" clip-path="url(#pb13811084b)"/>
    <path d="M 184.583371 174.566096 
L 184.4599 175.4197 
L 185.024738 175.232521 
L 183.853667 177.751944 
L 183.444512 175.003946 
L 183.933158 175.343509 
L 184.056629 174.489904 
L 184.583371 174.566096 
" clip-path="url(#pb13811084b)"/>
    <path d="M 193.224783 174.554564 
L 193.148622 175.31372 
L 193.704752 175.102065 
L 192.644767 177.670202 
L 192.116055 174.942683 
L 192.619057 175.260593 
L 192.695217 174.501436 
L 193.224783 174.554564 
" clip-path="url(#pb13811084b)"/>
    <path d="M 201.86588 174.539098 
L 201.838754 175.188943 
L 202.381614 174.94526 
L 201.472988 177.570769 
L 200.786331 174.878669 
L 201.306993 175.166746 
L 201.33412 174.516902 
L 201.86588 174.539098 
" clip-path="url(#pb13811084b)"/>
    <path d="M 210.506103 174.53017 
L 210.501564 175.08675 
L 211.035941 174.824987 
L 210.21593 177.479508 
L 209.439322 174.811967 
L 209.969358 175.08241 
L 209.973897 174.52583 
L 210.506103 174.53017 
" clip-path="url(#pb13811084b)"/>
    <path d="M 219.146075 174.523551 
L 219.152848 174.928653 
L 219.680549 174.65368 
L 218.926811 177.327775 
L 218.0841 174.680373 
L 218.620698 174.93755 
L 218.613925 174.532449 
L 219.146075 174.523551 
" clip-path="url(#pb13811084b)"/>
    <path d="M 227.781649 174.513591 
L 227.796058 174.775241 
L 228.304947 174.484774 
L 227.664086 177.144491 
L 226.735053 174.571226 
L 227.272759 174.804058 
L 227.258351 174.542409 
L 227.781649 174.513591 
" clip-path="url(#pb13811084b)"/>
    <path d="M 236.401865 174.519238 
L 236.410627 174.761102 
L 236.885594 174.501714 
L 236.247622 176.946646 
L 235.434406 174.554286 
L 235.926898 174.778627 
L 235.918135 174.536762 
L 236.401865 174.519238 
" clip-path="url(#pb13811084b)"/>
    <path d="M 245.017073 174.521742 
L 245.02333 174.738815 
L 245.451218 174.509227 
L 244.862577 176.698725 
L 244.148782 174.546773 
L 244.589185 174.75133 
L 244.582927 174.534258 
L 245.017073 174.521742 
" clip-path="url(#pb13811084b)"/>
    <path d="M 253.626453 174.526652 
L 253.627801 174.713105 
L 253.999359 174.523957 
L 253.453477 176.392529 
L 252.880641 174.532043 
L 253.254895 174.715801 
L 253.253547 174.529348 
L 253.626453 174.526652 
" clip-path="url(#pb13811084b)"/>
    <path d="M 262.230906 174.527119 
L 262.231787 174.678025 
L 262.532718 174.525356 
L 262.088812 176.037061 
L 261.627282 174.530644 
L 261.929975 174.679787 
L 261.929094 174.528881 
L 262.230906 174.527119 
" clip-path="url(#pb13811084b)"/>
    <path d="M 270.834396 174.525259 
L 270.837137 174.639654 
L 271.063187 174.519777 
L 270.747411 175.671956 
L 270.376813 174.536223 
L 270.608346 174.645137 
L 270.605604 174.530741 
L 270.834396 174.525259 
" clip-path="url(#pb13811084b)"/>
    <path d="M 279.435008 174.528493 
L 279.434515 174.6035 
L 279.585023 174.529478 
L 279.355073 175.278078 
L 279.134977 174.526522 
L 279.2845 174.602515 
L 279.284992 174.527507 
L 279.435008 174.528493 
" clip-path="url(#pb13811084b)"/>
    <path d="M 287.984129 174.793638 
L 288.222114 174.674564 
L 288.237985 174.408926 
L 288.015871 174.262362 
L 287.777886 174.381436 
L 287.762015 174.647074 
L 287.984129 174.793638 
L 288.222114 174.674564 
" clip-path="url(#pb13811084b)"/>
    <path d="M 296.638972 174.79411 
L 257.527251 174.642994 
L 257.791305 175.176242 
L 255.133289 174.36763 
L 257.797474 173.579582 
L 257.529307 174.110774 
L 296.641028 174.26189 
L 296.638972 174.79411 
" clip-path="url(#pb13811084b)"/>
    <path d="M 175.945602 157.264463 
L 175.881972 158.291049 
L 176.429639 158.058372 
L 175.468205 160.665007 
L 174.836025 157.959596 
L 175.350767 158.258123 
L 175.414398 157.231537 
L 175.945602 157.264463 
" clip-path="url(#pb13811084b)"/>
    <path d="M 184.585757 157.261746 
L 184.53547 158.233923 
L 185.08073 157.995659 
L 184.145995 160.611987 
L 183.48619 157.91318 
L 184.003957 158.20643 
L 184.054243 157.234254 
L 184.585757 157.261746 
" clip-path="url(#pb13811084b)"/>
    <path d="M 193.22586 157.259586 
L 193.187195 158.146782 
L 193.730501 157.904095 
L 192.817059 160.527932 
L 192.135343 157.834577 
L 192.655476 158.123609 
L 192.69414 157.236414 
L 193.22586 157.259586 
" clip-path="url(#pb13811084b)"/>
    <path d="M 201.865993 157.255949 
L 201.842353 158.047019 
L 202.382288 157.796924 
L 201.504818 160.433009 
L 200.786329 157.74923 
L 201.310366 158.031121 
L 201.334007 157.240051 
L 201.865993 157.255949 
" clip-path="url(#pb13811084b)"/>
    <path d="M 210.506103 157.250206 
L 210.500682 157.904142 
L 211.035093 157.642451 
L 210.214724 160.296862 
L 209.438476 157.629215 
L 209.968476 157.89973 
L 209.973897 157.245794 
L 210.506103 157.250206 
" clip-path="url(#pb13811084b)"/>
    <path d="M 219.146058 157.242645 
L 219.155669 157.720137 
L 219.68243 157.443368 
L 218.937809 160.120015 
L 218.086081 157.4755 
L 218.623553 157.730848 
L 218.613942 157.253355 
L 219.146058 157.242645 
" clip-path="url(#pb13811084b)"/>
    <path d="M 227.785601 157.231522 
L 227.802502 157.503933 
L 228.317226 157.205375 
L 227.685207 159.910823 
L 226.723619 157.304245 
L 227.2713 157.53689 
L 227.254399 157.264478 
L 227.785601 157.231522 
" clip-path="url(#pb13811084b)"/>
    <path d="M 236.401021 157.221487 
L 236.427534 157.462508 
L 236.883064 157.168461 
L 236.425129 159.658214 
L 235.436936 157.327539 
L 235.945492 157.515534 
L 235.918979 157.274513 
L 236.401021 157.221487 
" clip-path="url(#pb13811084b)"/>
    <path d="M 245.01344 157.22916 
L 245.03228 157.4426 
L 245.440319 157.191479 
L 244.988402 159.382398 
L 244.159681 157.304521 
L 244.6054 157.48028 
L 244.58656 157.26684 
L 245.01344 157.22916 
" clip-path="url(#pb13811084b)"/>
    <path d="M 253.622187 157.234127 
L 253.63606 157.416315 
L 253.986562 157.206382 
L 253.578726 159.069872 
L 252.893438 157.289618 
L 253.271685 157.44406 
L 253.257813 157.261873 
L 253.622187 157.234127 
" clip-path="url(#pb13811084b)"/>
    <path d="M 262.224888 157.232655 
L 262.240233 157.377543 
L 262.514664 157.201965 
L 262.233449 158.69688 
L 261.645336 157.294035 
L 261.950457 157.408233 
L 261.935112 157.263345 
L 262.224888 157.232655 
" clip-path="url(#pb13811084b)"/>
    <path d="M 270.82445 157.235375 
L 270.837075 157.339824 
L 271.033349 157.210124 
L 270.846254 158.292497 
L 270.406651 157.285876 
L 270.628176 157.365075 
L 270.61555 157.260625 
L 270.82445 157.235375 
" clip-path="url(#pb13811084b)"/>
    <path d="M 279.421617 157.235214 
L 279.434403 157.296831 
L 279.54485 157.209642 
L 279.487861 157.864167 
L 279.17515 157.286358 
L 279.311169 157.322403 
L 279.298383 157.260786 
L 279.421617 157.235214 
" clip-path="url(#pb13811084b)"/>
    <path d="M 288.186126 157.438191 
L 288.257773 157.181906 
L 288.071647 156.991714 
L 287.813874 157.057809 
L 287.742227 157.314094 
L 287.928353 157.504286 
L 288.186126 157.438191 
L 288.257773 157.181906 
" clip-path="url(#pb13811084b)"/>
    <path d="M 296.638073 157.514105 
L 257.548436 157.230976 
L 257.810686 157.765113 
L 255.155418 156.947524 
L 257.822251 156.168483 
L 257.552291 156.698766 
L 296.641927 156.981895 
L 296.638073 157.514105 
" clip-path="url(#pb13811084b)"/>
    <path d="M 175.946106 139.969856 
L 175.938747 141.025125 
L 176.472814 140.762731 
L 175.655941 143.418219 
L 174.87618 140.751597 
L 175.406536 141.021414 
L 175.413894 139.966144 
L 175.946106 139.969856 
" clip-path="url(#pb13811084b)"/>
    <path d="M 184.5861 139.97048 
L 184.576783 140.970108 
L 185.111464 140.708968 
L 184.28836 143.362531 
L 183.514861 140.694086 
L 184.044582 140.965147 
L 184.0539 139.96552 
L 184.5861 139.97048 
" clip-path="url(#pb13811084b)"/>
    <path d="M 193.226052 139.973632 
L 193.206795 140.883316 
L 193.744532 140.628528 
L 192.890054 143.272156 
L 192.148218 140.594735 
L 192.67469 140.872052 
L 192.693948 139.962368 
L 193.226052 139.973632 
" clip-path="url(#pb13811084b)"/>
    <path d="M 201.866053 139.973588 
L 201.850122 140.732185 
L 202.387816 140.477307 
L 201.533781 143.121078 
L 200.791496 140.443782 
L 201.318015 140.72101 
L 201.333947 139.962412 
L 201.866053 139.973588 
" clip-path="url(#pb13811084b)"/>
    <path d="M 210.506112 139.967658 
L 210.506849 140.540397 
L 211.03873 140.273601 
L 210.243819 142.935746 
L 209.442059 140.275656 
L 209.974625 140.541082 
L 209.973888 139.968342 
L 210.506112 139.967658 
" clip-path="url(#pb13811084b)"/>
    <path d="M 219.146048 139.962169 
L 219.153736 140.312952 
L 219.680001 140.035243 
L 218.940162 142.713215 
L 218.083713 140.070226 
L 218.621639 140.324613 
L 218.613952 139.973831 
L 219.146048 139.962169 
" clip-path="url(#pb13811084b)"/>
    <path d="M 227.767666 139.957081 
L 227.778585 140.204746 
L 228.262997 139.935242 
L 227.629192 142.444656 
L 226.777003 140.000758 
L 227.283254 140.226585 
L 227.272334 139.978919 
L 227.767666 139.957081 
" clip-path="url(#pb13811084b)"/>
    <path d="M 236.380365 139.951522 
L 236.396843 140.171887 
L 236.821096 139.918565 
L 236.324782 142.171652 
L 235.498904 140.017435 
L 235.956113 140.204843 
L 235.939635 139.984478 
L 236.380365 139.951522 
" clip-path="url(#pb13811084b)"/>
    <path d="M 244.990536 139.940352 
L 245.018184 140.130888 
L 245.371608 139.885055 
L 245.076483 141.873361 
L 244.228392 140.050945 
L 244.637112 140.186184 
L 244.609464 139.995648 
L 244.990536 139.940352 
" clip-path="url(#pb13811084b)"/>
    <path d="M 253.598742 139.937224 
L 253.629518 140.095966 
L 253.916226 139.875672 
L 253.747758 141.555421 
L 252.963774 140.060328 
L 253.312034 140.157518 
L 253.281258 139.998776 
L 253.598742 139.937224 
" clip-path="url(#pb13811084b)"/>
    <path d="M 262.200334 139.93815 
L 262.230184 140.058483 
L 262.441001 139.878449 
L 262.378505 141.171338 
L 261.718999 140.057551 
L 261.989517 140.118184 
L 261.959666 139.99785 
L 262.200334 139.93815 
" clip-path="url(#pb13811084b)"/>
    <path d="M 270.798914 139.948658 
L 270.818256 140.027572 
L 270.956742 139.909974 
L 270.91342 140.75714 
L 270.483258 140.026026 
L 270.660428 140.066256 
L 270.641086 139.987342 
L 270.798914 139.948658 
" clip-path="url(#pb13811084b)"/>
    <path d="M 279.420002 140.227259 
L 279.614526 140.045666 
L 279.554524 139.786407 
L 279.299998 139.708741 
L 279.105474 139.890334 
L 279.165476 140.149593 
L 279.420002 140.227259 
L 279.614526 140.045666 
" clip-path="url(#pb13811084b)"/>
    <path d="M 287.94544 139.707541 
L 287.747156 139.885021 
L 287.801716 140.14548 
L 288.05456 140.228459 
L 288.252844 140.050979 
L 288.198284 139.79052 
L 287.94544 139.707541 
L 287.747156 139.885021 
" clip-path="url(#pb13811084b)"/>
    <path d="M 296.636505 140.234089 
L 257.467127 139.719575 
L 257.726225 140.255248 
L 255.075821 139.422029 
L 257.747197 138.658714 
L 257.474117 139.187397 
L 296.643495 139.701911 
L 296.636505 140.234089 
" clip-path="url(#pb13811084b)"/>
    <path d="M 175.945992 122.680024 
L 175.973175 123.586562 
L 176.497184 123.304619 
L 175.778964 125.98847 
L 174.901229 123.352473 
L 175.44119 123.602514 
L 175.414008 122.695976 
L 175.945992 122.680024 
" clip-path="url(#pb13811084b)"/>
    <path d="M 184.585957 122.678905 
L 184.615354 123.538533 
L 185.138172 123.254386 
L 184.431255 125.941237 
L 183.542433 123.308957 
L 184.083441 123.556723 
L 184.054043 122.697095 
L 184.585957 122.678905 
" clip-path="url(#pb13811084b)"/>
    <path d="M 193.22597 122.679297 
L 193.251247 123.451816 
L 193.774484 123.168441 
L 193.063603 125.854246 
L 192.178666 123.220658 
L 192.719308 123.469222 
L 192.69403 122.696703 
L 193.22597 122.679297 
" clip-path="url(#pb13811084b)"/>
    <path d="M 201.865963 122.679087 
L 201.887057 123.308551 
L 202.41007 123.024762 
L 201.701311 125.711128 
L 200.814294 123.07824 
L 201.355132 123.326377 
L 201.334037 122.696913 
L 201.865963 122.679087 
" clip-path="url(#pb13811084b)"/>
    <path d="M 210.506004 122.680406 
L 210.518413 123.115059 
L 211.042826 122.833866 
L 210.320759 125.516685 
L 209.446804 122.879433 
L 209.986406 123.130247 
L 209.973996 122.695594 
L 210.506004 122.680406 
" clip-path="url(#pb13811084b)"/>
    <path d="M 219.141596 122.677701 
L 219.151896 122.939297 
L 219.664788 122.657102 
L 218.982994 125.303962 
L 218.095212 122.718898 
L 218.628703 122.959896 
L 218.618404 122.698299 
L 219.141596 122.677701 
" clip-path="url(#pb13811084b)"/>
    <path d="M 227.757067 122.673224 
L 227.771843 122.910291 
L 228.231201 122.643673 
L 227.667758 125.058671 
L 226.808799 122.732327 
L 227.297709 122.939843 
L 227.282933 122.702776 
L 227.757067 122.673224 
" clip-path="url(#pb13811084b)"/>
    <path d="M 236.368054 122.666077 
L 236.389976 122.874131 
L 236.784161 122.622231 
L 236.379229 124.768535 
L 235.535839 122.753769 
L 235.973869 122.917976 
L 235.951946 122.709923 
L 236.368054 122.666077 
" clip-path="url(#pb13811084b)"/>
    <path d="M 244.973657 122.650212 
L 245.011446 122.823869 
L 245.320972 122.574635 
L 245.177883 124.424573 
L 244.279028 122.801365 
L 244.664131 122.899446 
L 244.626343 122.725788 
L 244.973657 122.650212 
" clip-path="url(#pb13811084b)"/>
    <path d="M 253.577029 122.6365 
L 253.628529 122.773529 
L 253.851087 122.5335 
L 253.955001 124.058289 
L 253.028913 122.8425 
L 253.354471 122.876529 
L 253.302971 122.7395 
L 253.577029 122.6365 
" clip-path="url(#pb13811084b)"/>
    <path d="M 262.181737 122.646969 
L 262.222768 122.748706 
L 262.385211 122.564906 
L 262.490312 123.70537 
L 261.774789 122.811094 
L 262.019294 122.830768 
L 261.978263 122.729031 
L 262.181737 122.646969 
" clip-path="url(#pb13811084b)"/>
    <path d="M 270.77831 122.66457 
L 270.80174 122.722879 
L 270.894929 122.61771 
L 270.954301 123.271096 
L 270.545071 122.75829 
L 270.685121 122.76974 
L 270.66169 122.71143 
L 270.77831 122.66457 
" clip-path="url(#pb13811084b)"/>
    <path d="M 279.413345 122.94871 
L 279.612454 122.772157 
L 279.559109 122.511446 
L 279.306655 122.42729 
L 279.107546 122.603843 
L 279.160891 122.864554 
L 279.413345 122.94871 
L 279.612454 122.772157 
" clip-path="url(#pb13811084b)"/>
    <path d="M 287.991246 122.422032 
L 287.765288 122.562597 
L 287.774042 122.828565 
L 288.008754 122.953968 
L 288.234712 122.813403 
L 288.225958 122.547435 
L 287.991246 122.422032 
L 287.765288 122.562597 
" clip-path="url(#pb13811084b)"/>
    <path d="M 296.584474 122.693864 
L 296.578611 122.638338 
L 296.473423 122.705591 
L 296.581363 122.132743 
L 296.806577 122.670409 
L 296.689662 122.626611 
L 296.695526 122.682136 
L 296.584474 122.693864 
" clip-path="url(#pb13811084b)"/>
    <path d="M 175.945023 105.383947 
L 176.015086 106.155928 
L 176.521079 105.8428 
L 175.966538 108.565186 
L 174.930942 105.987117 
L 175.48504 106.204034 
L 175.414977 105.432053 
L 175.945023 105.383947 
" clip-path="url(#pb13811084b)"/>
    <path d="M 184.585519 105.390237 
L 184.634167 106.117443 
L 185.147442 105.816399 
L 184.528513 108.524873 
L 183.55433 105.922975 
L 184.10313 106.152969 
L 184.054481 105.425763 
L 184.585519 105.390237 
" clip-path="url(#pb13811084b)"/>
    <path d="M 193.225912 105.397677 
L 193.250088 106.02041 
L 193.771588 105.733852 
L 193.077088 108.423939 
L 192.176118 105.795793 
L 192.718265 106.041057 
L 192.694088 105.418323 
L 193.225912 105.397677 
" clip-path="url(#pb13811084b)"/>
    <path d="M 201.866041 105.40186 
L 201.876872 105.871148 
L 202.402814 105.592827 
L 201.66609 108.271658 
L 200.806567 105.629666 
L 201.344789 105.883428 
L 201.333959 105.41414 
L 201.866041 105.40186 
" clip-path="url(#pb13811084b)"/>
    <path d="M 210.506091 105.404635 
L 210.509882 105.704435 
L 211.038698 105.431614 
L 210.274078 108.102617 
L 209.442154 105.451805 
L 209.977701 105.711166 
L 209.973909 105.411365 
L 210.506091 105.404635 
" clip-path="url(#pb13811084b)"/>
    <path d="M 219.129557 105.400186 
L 219.137371 105.649743 
L 219.62867 105.384557 
L 218.958142 107.903567 
L 218.13133 105.431443 
L 218.638257 105.665371 
L 218.630443 105.415814 
L 219.129557 105.400186 
" clip-path="url(#pb13811084b)"/>
    <path d="M 227.746735 105.38469 
L 227.770044 105.611425 
L 228.200204 105.338071 
L 227.753098 107.675347 
L 226.839796 105.477929 
L 227.316575 105.658044 
L 227.293265 105.43131 
L 227.746735 105.38469 
" clip-path="url(#pb13811084b)"/>
    <path d="M 236.357844 105.356159 
L 236.409685 105.554003 
L 236.753532 105.252477 
L 236.678411 107.386441 
L 235.566468 105.563523 
L 236.013997 105.657685 
L 235.962156 105.459841 
L 236.357844 105.356159 
" clip-path="url(#pb13811084b)"/>
    <path d="M 244.967056 105.335838 
L 245.039217 105.502894 
L 245.301167 105.191515 
L 245.521618 107.078556 
L 244.298833 105.624485 
L 244.705106 105.647217 
L 244.632944 105.480162 
L 244.967056 105.335838 
" clip-path="url(#pb13811084b)"/>
    <path d="M 253.570844 105.325664 
L 253.65318 105.456508 
L 253.832531 105.160992 
L 254.263361 106.716438 
L 253.047469 105.655008 
L 253.391492 105.62118 
L 253.309156 105.490336 
L 253.570844 105.325664 
" clip-path="url(#pb13811084b)"/>
    <path d="M 262.172757 105.327246 
L 262.253511 105.420003 
L 262.358271 105.165738 
L 262.88754 106.335569 
L 261.801729 105.650262 
L 262.067997 105.581511 
L 261.987243 105.488754 
L 262.172757 105.327246 
" clip-path="url(#pb13811084b)"/>
    <path d="M 270.775109 105.342736 
L 270.840373 105.397846 
L 270.885327 105.212209 
L 271.372635 105.959091 
L 270.554673 105.603791 
L 270.730154 105.528373 
L 270.664891 105.473264 
L 270.775109 105.342736 
" clip-path="url(#pb13811084b)"/>
    <path d="M 279.601692 105.519357 
L 279.577285 105.254367 
L 279.335592 105.14301 
L 279.118308 105.296643 
L 279.142715 105.561633 
L 279.384408 105.67299 
L 279.601692 105.519357 
L 279.577285 105.254367 
" clip-path="url(#pb13811084b)"/>
    <path d="M 288.217718 105.254983 
L 287.976342 105.142942 
L 287.758624 105.295959 
L 287.782282 105.561017 
L 288.023658 105.673058 
L 288.241376 105.520041 
L 288.217718 105.254983 
L 287.976342 105.142942 
" clip-path="url(#pb13811084b)"/>
    <path d="M 296.636565 105.67409 
L 257.604548 105.170277 
L 257.863768 105.705891 
L 255.213174 104.873276 
L 257.884376 104.109352 
L 257.611417 104.638097 
L 296.643435 105.14191 
L 296.636565 105.67409 
" clip-path="url(#pb13811084b)"/>
    <path d="M 175.944534 88.099058 
L 176.035051 88.926405 
L 176.535176 88.603988 
L 176.030993 91.336148 
L 174.947975 88.777638 
L 175.505984 88.984288 
L 175.415466 88.156942 
L 175.944534 88.099058 
" clip-path="url(#pb13811084b)"/>
    <path d="M 184.584608 88.099747 
L 184.66905 88.890593 
L 185.170012 88.569479 
L 184.658721 91.300318 
L 183.582365 88.738998 
L 184.139834 88.9471 
L 184.055392 88.156253 
L 184.584608 88.099747 
" clip-path="url(#pb13811084b)"/>
    <path d="M 193.224684 88.100469 
L 193.299519 88.819939 
L 193.801356 88.500192 
L 193.282615 91.229626 
L 192.213252 88.665379 
L 192.770151 88.875001 
L 192.695316 88.155531 
L 193.224684 88.100469 
" clip-path="url(#pb13811084b)"/>
    <path d="M 201.863996 88.094507 
L 201.940857 88.70034 
L 202.435356 88.369359 
L 201.978295 91.109796 
L 200.851381 88.570315 
L 201.412865 88.767325 
L 201.336004 88.161493 
L 201.863996 88.094507 
" clip-path="url(#pb13811084b)"/>
    <path d="M 210.502548 88.084591 
L 210.578132 88.541746 
L 211.059819 88.192381 
L 210.706265 90.948084 
L 209.484533 88.452834 
L 210.053037 88.628564 
L 209.977452 88.171409 
L 210.502548 88.084591 
" clip-path="url(#pb13811084b)"/>
    <path d="M 219.139519 88.069131 
L 219.202061 88.344839 
L 219.662229 87.967582 
L 219.472366 90.739378 
L 218.105116 88.320798 
L 218.683023 88.462578 
L 218.620481 88.186869 
L 219.139519 88.069131 
" clip-path="url(#pb13811084b)"/>
    <path d="M 227.753453 88.039485 
L 227.841969 88.272938 
L 228.22036 87.862455 
L 228.405151 90.462534 
L 226.81964 88.393545 
L 227.375062 88.449969 
L 227.286547 88.216515 
L 227.753453 88.039485 
" clip-path="url(#pb13811084b)"/>
    <path d="M 236.365185 88.021926 
L 236.471259 88.227111 
L 236.775554 87.809778 
L 237.22074 90.179846 
L 235.544446 88.446222 
L 236.060889 88.439259 
L 235.954815 88.234074 
L 236.365185 88.021926 
" clip-path="url(#pb13811084b)"/>
    <path d="M 244.97392 88.003591 
L 245.098329 88.177511 
L 245.321761 87.754773 
L 246.04409 89.867202 
L 244.278239 88.501227 
L 244.750489 88.426329 
L 244.62608 88.252409 
L 244.97392 88.003591 
" clip-path="url(#pb13811084b)"/>
    <path d="M 253.581646 87.994664 
L 253.714982 88.13631 
L 253.864938 87.727991 
L 254.773362 89.54446 
L 253.015062 88.528009 
L 253.43169 88.402982 
L 253.298354 88.261336 
L 253.581646 87.994664 
" clip-path="url(#pb13811084b)"/>
    <path d="M 262.189482 88.007727 
L 262.309755 88.11721 
L 262.408447 87.767182 
L 263.282726 89.222823 
L 261.751553 88.488818 
L 262.09079 88.357755 
L 261.970518 88.248273 
L 262.189482 88.007727 
" clip-path="url(#pb13811084b)"/>
    <path d="M 270.787606 88.023374 
L 270.892233 88.09098 
L 270.922819 87.814121 
L 271.766262 88.804064 
L 270.517181 88.441879 
L 270.75702 88.300233 
L 270.652394 88.232626 
L 270.787606 88.023374 
" clip-path="url(#pb13811084b)"/>
    <path d="M 279.385576 88.048379 
L 279.465196 88.073955 
L 279.436727 87.889138 
L 280.156208 88.383757 
L 279.283273 88.366862 
L 279.414045 88.233196 
L 279.334424 88.207621 
L 279.385576 88.048379 
" clip-path="url(#pb13811084b)"/>
    <path d="M 287.990709 88.074473 
L 288.044236 88.065182 
L 287.972127 87.96742 
L 288.535267 88.035089 
L 288.027873 88.28858 
L 288.062818 88.172236 
L 288.009291 88.181527 
L 287.990709 88.074473 
" clip-path="url(#pb13811084b)"/>
    <path d="M 296.637547 88.394101 
L 257.787382 88.03592 
L 258.048576 88.570574 
L 255.394929 87.747739 
L 258.063296 86.97397 
L 257.792289 87.503718 
L 296.642453 87.861899 
L 296.637547 88.394101 
" clip-path="url(#pb13811084b)"/>
    <path d="M 175.943681 70.81211 
L 176.082078 71.82889 
L 176.573548 71.493428 
L 176.14141 74.237906 
L 174.991465 71.70877 
L 175.554716 71.90067 
L 175.416319 70.88389 
L 175.943681 70.81211 
" clip-path="url(#pb13811084b)"/>
    <path d="M 184.582851 70.80647 
L 184.738349 71.790635 
L 185.222521 71.444723 
L 184.849272 74.197827 
L 183.645414 71.693905 
L 184.212647 71.873696 
L 184.057149 70.88953 
L 184.582851 70.80647 
" clip-path="url(#pb13811084b)"/>
    <path d="M 193.221541 70.798888 
L 193.395349 71.724482 
L 193.869318 71.364716 
L 193.575818 74.127461 
L 192.300074 71.659389 
L 192.872267 71.822706 
L 192.698459 70.897112 
L 193.221541 70.798888 
" clip-path="url(#pb13811084b)"/>
    <path d="M 201.859312 70.788227 
L 202.052894 71.628034 
L 202.511745 71.249175 
L 202.331542 74.021616 
L 200.955872 71.607815 
L 201.53427 71.74758 
L 201.340688 70.907773 
L 201.859312 70.788227 
" clip-path="url(#pb13811084b)"/>
    <path d="M 210.495439 70.773391 
L 210.710898 71.511061 
L 211.147167 71.106404 
L 211.126938 73.884621 
L 209.614533 71.554057 
L 210.20002 71.660278 
L 209.984561 70.922609 
L 210.495439 70.773391 
" clip-path="url(#pb13811084b)"/>
    <path d="M 219.128332 70.75236 
L 219.345942 71.317391 
L 219.746965 70.87778 
L 219.958368 73.648016 
L 218.256975 71.451619 
L 218.849278 71.508671 
L 218.631668 70.94364 
L 219.128332 70.75236 
" clip-path="url(#pb13811084b)"/>
    <path d="M 227.760327 70.733726 
L 227.936098 71.103387 
L 228.302479 70.634513 
L 228.724234 73.380605 
L 226.860516 71.320155 
L 227.455444 71.331935 
L 227.279673 70.962274 
L 227.760327 70.733726 
" clip-path="url(#pb13811084b)"/>
    <path d="M 236.382748 70.708027 
L 236.52272 70.930775 
L 236.828243 70.428082 
L 237.559725 73.075475 
L 235.491757 71.267918 
L 236.077225 71.21072 
L 235.937252 70.987973 
L 236.382748 70.708027 
" clip-path="url(#pb13811084b)"/>
    <path d="M 244.988954 70.694066 
L 245.142888 70.883021 
L 245.366863 70.386199 
L 246.339336 72.737545 
L 244.233137 71.309801 
L 244.764979 71.190888 
L 244.611046 71.001934 
L 244.988954 70.694066 
" clip-path="url(#pb13811084b)"/>
    <path d="M 253.595124 70.706775 
L 253.736349 70.861899 
L 253.905372 70.424325 
L 254.852248 72.399239 
L 252.974628 71.271675 
L 253.426101 71.144349 
L 253.284876 70.989225 
L 253.595124 70.706775 
" clip-path="url(#pb13811084b)"/>
    <path d="M 262.200746 70.724682 
L 262.324064 70.845428 
L 262.442237 70.478046 
L 263.313179 72.055456 
L 261.717763 71.217954 
L 262.082572 71.092064 
L 261.959254 70.971318 
L 262.200746 70.724682 
" clip-path="url(#pb13811084b)"/>
    <path d="M 270.80328 70.740748 
L 270.910533 70.824028 
L 270.969841 70.526244 
L 271.792521 71.680804 
L 270.470159 71.169756 
L 270.743972 71.038533 
L 270.63672 70.955252 
L 270.80328 70.740748 
" clip-path="url(#pb13811084b)"/>
    <path d="M 279.406686 70.75887 
L 279.495816 70.805555 
L 279.500057 70.580609 
L 280.251304 71.314857 
L 279.219943 71.115391 
L 279.402445 70.983816 
L 279.313314 70.93713 
L 279.406686 70.75887 
" clip-path="url(#pb13811084b)"/>
    <path d="M 288.014988 70.778335 
L 288.084653 70.793323 
L 288.044964 70.639005 
L 288.696649 70.99788 
L 287.955036 71.056995 
L 288.054677 70.932653 
L 287.985012 70.917665 
L 288.014988 70.778335 
" clip-path="url(#pb13811084b)"/>
    <path d="M 296.639186 71.114111 
L 258.044703 70.996115 
L 258.309186 71.52915 
L 255.65052 70.722682 
L 258.314068 69.932486 
L 258.04633 70.463894 
L 296.640814 70.581889 
L 296.639186 71.114111 
" clip-path="url(#pb13811084b)"/>
    <path d="M 175.935979 53.495267 
L 176.283443 54.718141 
L 176.722669 54.316695 
L 176.682064 57.094689 
L 175.186792 54.753094 
L 175.771485 54.863607 
L 175.424021 53.640733 
L 175.935979 53.495267 
" clip-path="url(#pb13811084b)"/>
    <path d="M 184.576051 53.495518 
L 184.928749 54.741454 
L 185.368367 54.340439 
L 185.32504 57.118392 
L 183.832064 54.775334 
L 184.416648 54.886419 
L 184.063949 53.640482 
L 184.576051 53.495518 
" clip-path="url(#pb13811084b)"/>
    <path d="M 193.213284 53.486375 
L 193.598628 54.682106 
L 194.023572 54.265572 
L 194.079967 57.043291 
L 192.503865 54.755322 
L 193.092059 54.845356 
L 192.706716 53.649625 
L 193.213284 53.486375 
" clip-path="url(#pb13811084b)"/>
    <path d="M 201.848933 53.473937 
L 202.272783 54.59564 
L 202.676587 54.158581 
L 202.870413 56.930103 
L 201.182987 54.722957 
L 201.774916 54.783765 
L 201.351067 53.662063 
L 201.848933 53.473937 
" clip-path="url(#pb13811084b)"/>
    <path d="M 210.482561 53.458548 
L 210.937214 54.466121 
L 211.312884 54.004656 
L 211.679723 56.758622 
L 209.857518 54.661369 
L 210.452092 54.685026 
L 209.997439 53.677452 
L 210.482561 53.458548 
" clip-path="url(#pb13811084b)"/>
    <path d="M 219.115793 53.444642 
L 219.559535 54.292836 
L 219.907764 53.810328 
L 220.433963 56.538333 
L 218.493005 54.550474 
L 219.087949 54.539552 
L 218.644207 53.691358 
L 219.115793 53.444642 
" clip-path="url(#pb13811084b)"/>
    <path d="M 227.747726 53.430317 
L 228.148977 54.093982 
L 228.466746 53.590891 
L 229.160397 56.281197 
L 227.100391 54.416988 
L 227.693526 54.369348 
L 227.292274 53.705683 
L 227.747726 53.430317 
" clip-path="url(#pb13811084b)"/>
    <path d="M 236.378003 53.415388 
L 236.702363 53.878729 
L 236.985756 53.355502 
L 237.857869 55.993364 
L 235.67774 54.271174 
L 236.266358 54.183953 
L 235.941997 53.720612 
L 236.378003 53.415388 
" clip-path="url(#pb13811084b)"/>
    <path d="M 245.010548 53.408718 
L 245.169831 53.619266 
L 245.431645 53.090153 
L 246.392823 55.673483 
L 244.168355 54.045847 
L 244.748734 53.937831 
L 244.589452 53.727282 
L 245.010548 53.408718 
" clip-path="url(#pb13811084b)"/>
    <path d="M 253.617826 53.426184 
L 253.759642 53.60401 
L 253.973478 53.142551 
L 254.858163 55.346259 
L 252.906522 53.993449 
L 253.40399 53.887642 
L 253.262174 53.709816 
L 253.617826 53.426184 
" clip-path="url(#pb13811084b)"/>
    <path d="M 262.226327 53.446427 
L 262.3479 53.592753 
L 262.51898 53.20328 
L 263.295733 55.031265 
L 261.64102 53.93272 
L 262.055247 53.8359 
L 261.933673 53.689573 
L 262.226327 53.446427 
" clip-path="url(#pb13811084b)"/>
    <path d="M 270.833718 53.465932 
L 270.935786 53.579649 
L 271.061153 53.261795 
L 271.740684 54.705177 
L 270.378847 53.874205 
L 270.708351 53.783786 
L 270.606282 53.670068 
L 270.833718 53.465932 
" clip-path="url(#pb13811084b)"/>
    <path d="M 279.438118 53.482017 
L 279.524102 53.560135 
L 279.594355 53.31005 
L 280.219835 54.349183 
L 279.125645 53.82595 
L 279.367865 53.732102 
L 279.281882 53.653983 
L 279.438118 53.482017 
" clip-path="url(#pb13811084b)"/>
    <path d="M 288.003133 53.834094 
L 249.575734 54.286487 
L 249.848093 54.815542 
L 247.177759 54.048587 
L 249.829297 53.21898 
L 249.569469 53.7543 
L 287.996867 53.301906 
L 288.003133 53.834094 
" clip-path="url(#pb13811084b)"/>
    <path d="M 296.641353 53.834109 
L 258.049744 54.030271 
L 258.318558 54.561135 
L 255.653414 53.776336 
L 258.310442 52.964484 
L 258.047039 53.498054 
L 296.638647 53.301891 
L 296.641353 53.834109 
" clip-path="url(#pb13811084b)"/>
   </g>
   <g id="matplotlib.axis_1">
    <g id="xtick_1">
     <g id="line2d_1">
      <defs>
       <path id="m12dce31f41" d="M 0 0 
L 0 3.5 
" style="stroke: #000000; stroke-width: 0.8"/>
      </defs>
      <g>
       <use xlink:href="#m12dce31f41" x="170.228291" y="307.584" style="stroke: #000000; stroke-width: 0.8"/>
      </g>
     </g>
     <g id="text_1">
      <!-- 1.5 -->
      <g transform="translate(162.276729 322.182437)scale(0.1 -0.1)">
       <defs>
        <path id="DejaVuSans-31" d="M 794 531 
L 1825 531 
L 1825 4091 
L 703 3866 
L 703 4441 
L 1819 4666 
L 2450 4666 
L 2450 531 
L 3481 531 
L 3481 0 
L 794 0 
L 794 531 
z
" transform="scale(0.015625)"/>
        <path id="DejaVuSans-2e" d="M 684 794 
L 1344 794 
L 1344 0 
L 684 0 
L 684 794 
z
" transform="scale(0.015625)"/>
        <path id="DejaVuSans-35" d="M 691 4666 
L 3169 4666 
L 3169 4134 
L 1269 4134 
L 1269 2991 
Q 1406 3038 1543 3061 
Q 1681 3084 1819 3084 
Q 2600 3084 3056 2656 
Q 3513 2228 3513 1497 
Q 3513 744 3044 326 
Q 2575 -91 1722 -91 
Q 1428 -91 1123 -41 
Q 819 9 494 109 
L 494 744 
Q 775 591 1075 516 
Q 1375 441 1709 441 
Q 2250 441 2565 725 
Q 2881 1009 2881 1497 
Q 2881 1984 2565 2268 
Q 2250 2553 1709 2553 
Q 1456 2553 1204 2497 
Q 953 2441 691 2322 
L 691 4666 
z
" transform="scale(0.015625)"/>
       </defs>
       <use xlink:href="#DejaVuSans-31"/>
       <use xlink:href="#DejaVuSans-2e" x="63.623047"/>
       <use xlink:href="#DejaVuSans-35" x="95.410156"/>
      </g>
     </g>
    </g>
    <g id="xtick_2">
     <g id="line2d_2">
      <g>
       <use xlink:href="#m12dce31f41" x="208.731055" y="307.584" style="stroke: #000000; stroke-width: 0.8"/>
      </g>
     </g>
     <g id="text_2">
      <!-- 2.0 -->
      <g transform="translate(200.779493 322.182437)scale(0.1 -0.1)">
       <defs>
        <path id="DejaVuSans-32" d="M 1228 531 
L 3431 531 
L 3431 0 
L 469 0 
L 469 531 
Q 828 903 1448 1529 
Q 2069 2156 2228 2338 
Q 2531 2678 2651 2914 
Q 2772 3150 2772 3378 
Q 2772 3750 2511 3984 
Q 2250 4219 1831 4219 
Q 1534 4219 1204 4116 
Q 875 4013 500 3803 
L 500 4441 
Q 881 4594 1212 4672 
Q 1544 4750 1819 4750 
Q 2544 4750 2975 4387 
Q 3406 4025 3406 3419 
Q 3406 3131 3298 2873 
Q 3191 2616 2906 2266 
Q 2828 2175 2409 1742 
Q 1991 1309 1228 531 
z
" transform="scale(0.015625)"/>
        <path id="DejaVuSans-30" d="M 2034 4250 
Q 1547 4250 1301 3770 
Q 1056 3291 1056 2328 
Q 1056 1369 1301 889 
Q 1547 409 2034 409 
Q 2525 409 2770 889 
Q 3016 1369 3016 2328 
Q 3016 3291 2770 3770 
Q 2525 4250 2034 4250 
z
M 2034 4750 
Q 2819 4750 3233 4129 
Q 3647 3509 3647 2328 
Q 3647 1150 3233 529 
Q 2819 -91 2034 -91 
Q 1250 -91 836 529 
Q 422 1150 422 2328 
Q 422 3509 836 4129 
Q 1250 4750 2034 4750 
z
" transform="scale(0.015625)"/>
       </defs>
       <use xlink:href="#DejaVuSans-32"/>
       <use xlink:href="#DejaVuSans-2e" x="63.623047"/>
       <use xlink:href="#DejaVuSans-30" x="95.410156"/>
      </g>
     </g>
    </g>
    <g id="xtick_3">
     <g id="line2d_3">
      <g>
       <use xlink:href="#m12dce31f41" x="247.233819" y="307.584" style="stroke: #000000; stroke-width: 0.8"/>
      </g>
     </g>
     <g id="text_3">
      <!-- 2.5 -->
      <g transform="translate(239.282257 322.182437)scale(0.1 -0.1)">
       <use xlink:href="#DejaVuSans-32"/>
       <use xlink:href="#DejaVuSans-2e" x="63.623047"/>
       <use xlink:href="#DejaVuSans-35" x="95.410156"/>
      </g>
     </g>
    </g>
    <g id="xtick_4">
     <g id="line2d_4">
      <g>
       <use xlink:href="#m12dce31f41" x="285.736583" y="307.584" style="stroke: #000000; stroke-width: 0.8"/>
      </g>
     </g>
     <g id="text_4">
      <!-- 3.0 -->
      <g transform="translate(277.78502 322.182437)scale(0.1 -0.1)">
       <defs>
        <path id="DejaVuSans-33" d="M 2597 2516 
Q 3050 2419 3304 2112 
Q 3559 1806 3559 1356 
Q 3559 666 3084 287 
Q 2609 -91 1734 -91 
Q 1441 -91 1130 -33 
Q 819 25 488 141 
L 488 750 
Q 750 597 1062 519 
Q 1375 441 1716 441 
Q 2309 441 2620 675 
Q 2931 909 2931 1356 
Q 2931 1769 2642 2001 
Q 2353 2234 1838 2234 
L 1294 2234 
L 1294 2753 
L 1863 2753 
Q 2328 2753 2575 2939 
Q 2822 3125 2822 3475 
Q 2822 3834 2567 4026 
Q 2313 4219 1838 4219 
Q 1578 4219 1281 4162 
Q 984 4106 628 3988 
L 628 4550 
Q 988 4650 1302 4700 
Q 1616 4750 1894 4750 
Q 2613 4750 3031 4423 
Q 3450 4097 3450 3541 
Q 3450 3153 3228 2886 
Q 3006 2619 2597 2516 
z
" transform="scale(0.015625)"/>
       </defs>
       <use xlink:href="#DejaVuSans-33"/>
       <use xlink:href="#DejaVuSans-2e" x="63.623047"/>
       <use xlink:href="#DejaVuSans-30" x="95.410156"/>
      </g>
     </g>
    </g>
    <g id="text_5">
     <!-- $\theta$ (rad) -->
     <g transform="translate(210.885 339.659781)scale(0.15 -0.15)">
      <defs>
       <path id="DejaVuSans-Oblique-3b8" d="M 2913 2219 
L 925 2219 
Q 791 1284 928 888 
Q 1100 400 1566 400 
Q 2034 400 2391 891 
Q 2703 1322 2913 2219 
z
M 3009 2750 
Q 3094 3638 2984 3950 
Q 2813 4444 2353 4444 
Q 1875 4444 1525 3956 
Q 1250 3563 1034 2750 
L 3009 2750 
z
M 2444 4913 
Q 3194 4913 3494 4250 
Q 3794 3591 3566 2422 
Q 3341 1256 2781 594 
Q 2225 -72 1475 -72 
Q 722 -72 425 594 
Q 128 1256 353 2422 
Q 581 3591 1134 4250 
Q 1691 4913 2444 4913 
z
" transform="scale(0.015625)"/>
       <path id="DejaVuSans-20" transform="scale(0.015625)"/>
       <path id="DejaVuSans-28" d="M 1984 4856 
Q 1566 4138 1362 3434 
Q 1159 2731 1159 2009 
Q 1159 1288 1364 580 
Q 1569 -128 1984 -844 
L 1484 -844 
Q 1016 -109 783 600 
Q 550 1309 550 2009 
Q 550 2706 781 3412 
Q 1013 4119 1484 4856 
L 1984 4856 
z
" transform="scale(0.015625)"/>
       <path id="DejaVuSans-72" d="M 2631 2963 
Q 2534 3019 2420 3045 
Q 2306 3072 2169 3072 
Q 1681 3072 1420 2755 
Q 1159 2438 1159 1844 
L 1159 0 
L 581 0 
L 581 3500 
L 1159 3500 
L 1159 2956 
Q 1341 3275 1631 3429 
Q 1922 3584 2338 3584 
Q 2397 3584 2469 3576 
Q 2541 3569 2628 3553 
L 2631 2963 
z
" transform="scale(0.015625)"/>
       <path id="DejaVuSans-61" d="M 2194 1759 
Q 1497 1759 1228 1600 
Q 959 1441 959 1056 
Q 959 750 1161 570 
Q 1363 391 1709 391 
Q 2188 391 2477 730 
Q 2766 1069 2766 1631 
L 2766 1759 
L 2194 1759 
z
M 3341 1997 
L 3341 0 
L 2766 0 
L 2766 531 
Q 2569 213 2275 61 
Q 1981 -91 1556 -91 
Q 1019 -91 701 211 
Q 384 513 384 1019 
Q 384 1609 779 1909 
Q 1175 2209 1959 2209 
L 2766 2209 
L 2766 2266 
Q 2766 2663 2505 2880 
Q 2244 3097 1772 3097 
Q 1472 3097 1187 3025 
Q 903 2953 641 2809 
L 641 3341 
Q 956 3463 1253 3523 
Q 1550 3584 1831 3584 
Q 2591 3584 2966 3190 
Q 3341 2797 3341 1997 
z
" transform="scale(0.015625)"/>
       <path id="DejaVuSans-64" d="M 2906 2969 
L 2906 4863 
L 3481 4863 
L 3481 0 
L 2906 0 
L 2906 525 
Q 2725 213 2448 61 
Q 2172 -91 1784 -91 
Q 1150 -91 751 415 
Q 353 922 353 1747 
Q 353 2572 751 3078 
Q 1150 3584 1784 3584 
Q 2172 3584 2448 3432 
Q 2725 3281 2906 2969 
z
M 947 1747 
Q 947 1113 1208 752 
Q 1469 391 1925 391 
Q 2381 391 2643 752 
Q 2906 1113 2906 1747 
Q 2906 2381 2643 2742 
Q 2381 3103 1925 3103 
Q 1469 3103 1208 2742 
Q 947 2381 947 1747 
z
" transform="scale(0.015625)"/>
       <path id="DejaVuSans-29" d="M 513 4856 
L 1013 4856 
Q 1481 4119 1714 3412 
Q 1947 2706 1947 2009 
Q 1947 1309 1714 600 
Q 1481 -109 1013 -844 
L 513 -844 
Q 928 -128 1133 580 
Q 1338 1288 1338 2009 
Q 1338 2731 1133 3434 
Q 928 4138 513 4856 
z
" transform="scale(0.015625)"/>
      </defs>
      <use xlink:href="#DejaVuSans-Oblique-3b8" transform="translate(0 0.234375)"/>
      <use xlink:href="#DejaVuSans-20" transform="translate(61.181641 0.234375)"/>
      <use xlink:href="#DejaVuSans-28" transform="translate(92.96875 0.234375)"/>
      <use xlink:href="#DejaVuSans-72" transform="translate(131.982422 0.234375)"/>
      <use xlink:href="#DejaVuSans-61" transform="translate(173.095703 0.234375)"/>
      <use xlink:href="#DejaVuSans-64" transform="translate(234.375 0.234375)"/>
      <use xlink:href="#DejaVuSans-29" transform="translate(297.851562 0.234375)"/>
     </g>
    </g>
   </g>
   <g id="matplotlib.axis_2">
    <g id="ytick_1">
     <g id="line2d_5">
      <defs>
       <path id="m86c41ba7df" d="M 0 0 
L -3.5 0 
" style="stroke: #000000; stroke-width: 0.8"/>
      </defs>
      <g>
       <use xlink:href="#m86c41ba7df" x="169.632" y="290.036291" style="stroke: #000000; stroke-width: 0.8"/>
      </g>
     </g>
     <g id="text_6">
      <!-- 1.5 -->
      <g transform="translate(138.349188 293.83551)scale(0.1 -0.1)">
       <defs>
        <path id="DejaVuSans-2212" d="M 678 2272 
L 4684 2272 
L 4684 1741 
L 678 1741 
L 678 2272 
z
" transform="scale(0.015625)"/>
       </defs>
       <use xlink:href="#DejaVuSans-2212"/>
       <use xlink:href="#DejaVuSans-31" x="83.789062"/>
       <use xlink:href="#DejaVuSans-2e" x="147.412109"/>
       <use xlink:href="#DejaVuSans-35" x="179.199219"/>
      </g>
     </g>
    </g>
    <g id="ytick_2">
     <g id="line2d_6">
      <g>
       <use xlink:href="#m86c41ba7df" x="169.632" y="251.533528" style="stroke: #000000; stroke-width: 0.8"/>
      </g>
     </g>
     <g id="text_7">
      <!-- 1.0 -->
      <g transform="translate(138.349188 255.332746)scale(0.1 -0.1)">
       <use xlink:href="#DejaVuSans-2212"/>
       <use xlink:href="#DejaVuSans-31" x="83.789062"/>
       <use xlink:href="#DejaVuSans-2e" x="147.412109"/>
       <use xlink:href="#DejaVuSans-30" x="179.199219"/>
      </g>
     </g>
    </g>
    <g id="ytick_3">
     <g id="line2d_7">
      <g>
       <use xlink:href="#m86c41ba7df" x="169.632" y="213.030764" style="stroke: #000000; stroke-width: 0.8"/>
      </g>
     </g>
     <g id="text_8">
      <!-- 0.5 -->
      <g transform="translate(138.349188 216.829983)scale(0.1 -0.1)">
       <use xlink:href="#DejaVuSans-2212"/>
       <use xlink:href="#DejaVuSans-30" x="83.789062"/>
       <use xlink:href="#DejaVuSans-2e" x="147.412109"/>
       <use xlink:href="#DejaVuSans-35" x="179.199219"/>
      </g>
     </g>
    </g>
    <g id="ytick_4">
     <g id="line2d_8">
      <g>
       <use xlink:href="#m86c41ba7df" x="169.632" y="174.528" style="stroke: #000000; stroke-width: 0.8"/>
      </g>
     </g>
     <g id="text_9">
      <!-- 0.0 -->
      <g transform="translate(146.728875 178.327219)scale(0.1 -0.1)">
       <use xlink:href="#DejaVuSans-30"/>
       <use xlink:href="#DejaVuSans-2e" x="63.623047"/>
       <use xlink:href="#DejaVuSans-30" x="95.410156"/>
      </g>
     </g>
    </g>
    <g id="ytick_5">
     <g id="line2d_9">
      <g>
       <use xlink:href="#m86c41ba7df" x="169.632" y="136.025236" style="stroke: #000000; stroke-width: 0.8"/>
      </g>
     </g>
     <g id="text_10">
      <!-- 0.5 -->
      <g transform="translate(146.728875 139.824455)scale(0.1 -0.1)">
       <use xlink:href="#DejaVuSans-30"/>
       <use xlink:href="#DejaVuSans-2e" x="63.623047"/>
       <use xlink:href="#DejaVuSans-35" x="95.410156"/>
      </g>
     </g>
    </g>
    <g id="ytick_6">
     <g id="line2d_10">
      <g>
       <use xlink:href="#m86c41ba7df" x="169.632" y="97.522472" style="stroke: #000000; stroke-width: 0.8"/>
      </g>
     </g>
     <g id="text_11">
      <!-- 1.0 -->
      <g transform="translate(146.728875 101.321691)scale(0.1 -0.1)">
       <use xlink:href="#DejaVuSans-31"/>
       <use xlink:href="#DejaVuSans-2e" x="63.623047"/>
       <use xlink:href="#DejaVuSans-30" x="95.410156"/>
      </g>
     </g>
    </g>
    <g id="ytick_7">
     <g id="line2d_11">
      <g>
       <use xlink:href="#m86c41ba7df" x="169.632" y="59.019709" style="stroke: #000000; stroke-width: 0.8"/>
      </g>
     </g>
     <g id="text_12">
      <!-- 1.5 -->
      <g transform="translate(146.728875 62.818927)scale(0.1 -0.1)">
       <use xlink:href="#DejaVuSans-31"/>
       <use xlink:href="#DejaVuSans-2e" x="63.623047"/>
       <use xlink:href="#DejaVuSans-35" x="95.410156"/>
      </g>
     </g>
    </g>
    <g id="text_13">
     <!-- $\dot{\theta}$ (rad/s) -->
     <g transform="translate(131.229656 206.253)rotate(-90)scale(0.15 -0.15)">
      <defs>
       <path id="DejaVuSans-307" d="M -1894 4863 
L -1319 4863 
L -1319 4134 
L -1894 4134 
L -1894 4863 
z
M -1600 3584 
L -1600 3584 
z
" transform="scale(0.015625)"/>
       <path id="DejaVuSans-2f" d="M 1625 4666 
L 2156 4666 
L 531 -594 
L 0 -594 
L 1625 4666 
z
" transform="scale(0.015625)"/>
       <path id="DejaVuSans-73" d="M 2834 3397 
L 2834 2853 
Q 2591 2978 2328 3040 
Q 2066 3103 1784 3103 
Q 1356 3103 1142 2972 
Q 928 2841 928 2578 
Q 928 2378 1081 2264 
Q 1234 2150 1697 2047 
L 1894 2003 
Q 2506 1872 2764 1633 
Q 3022 1394 3022 966 
Q 3022 478 2636 193 
Q 2250 -91 1575 -91 
Q 1294 -91 989 -36 
Q 684 19 347 128 
L 347 722 
Q 666 556 975 473 
Q 1284 391 1588 391 
Q 1994 391 2212 530 
Q 2431 669 2431 922 
Q 2431 1156 2273 1281 
Q 2116 1406 1581 1522 
L 1381 1569 
Q 847 1681 609 1914 
Q 372 2147 372 2553 
Q 372 3047 722 3315 
Q 1072 3584 1716 3584 
Q 2034 3584 2315 3537 
Q 2597 3491 2834 3397 
z
" transform="scale(0.015625)"/>
      </defs>
      <use xlink:href="#DejaVuSans-307" transform="translate(62.88916 34.015625)"/>
      <use xlink:href="#DejaVuSans-Oblique-3b8" transform="translate(0 0.75)"/>
      <use xlink:href="#DejaVuSans-20" transform="translate(61.181641 0.75)"/>
      <use xlink:href="#DejaVuSans-28" transform="translate(92.96875 0.75)"/>
      <use xlink:href="#DejaVuSans-72" transform="translate(131.982422 0.75)"/>
      <use xlink:href="#DejaVuSans-61" transform="translate(173.095703 0.75)"/>
      <use xlink:href="#DejaVuSans-64" transform="translate(234.375 0.75)"/>
      <use xlink:href="#DejaVuSans-2f" transform="translate(297.851562 0.75)"/>
      <use xlink:href="#DejaVuSans-73" transform="translate(331.542969 0.75)"/>
      <use xlink:href="#DejaVuSans-29" transform="translate(383.642578 0.75)"/>
     </g>
    </g>
   </g>
   <g id="patch_3">
    <path d="M 169.632 307.584 
L 169.632 41.472 
" style="fill: none; stroke: #000000; stroke-width: 0.8; stroke-linejoin: miter; stroke-linecap: square"/>
   </g>
   <g id="patch_4">
    <path d="M 302.688 307.584 
L 302.688 41.472 
" style="fill: none; stroke: #000000; stroke-width: 0.8; stroke-linejoin: miter; stroke-linecap: square"/>
   </g>
   <g id="patch_5">
    <path d="M 169.632 307.584 
L 302.688 307.584 
" style="fill: none; stroke: #000000; stroke-width: 0.8; stroke-linejoin: miter; stroke-linecap: square"/>
   </g>
   <g id="patch_6">
    <path d="M 169.632 41.472 
L 302.688 41.472 
" style="fill: none; stroke: #000000; stroke-width: 0.8; stroke-linejoin: miter; stroke-linecap: square"/>
   </g>
  </g>
 </g>
 <defs>
  <clipPath id="pb13811084b">
   <rect x="169.632" y="41.472" width="133.056" height="266.112"/>
  </clipPath>
 </defs>
</svg>
