<?xml version="1.0" encoding="utf-8" standalone="no"?>
<!DOCTYPE svg PUBLIC "-//W3C//DTD SVG 1.1//EN"
  "http://www.w3.org/Graphics/SVG/1.1/DTD/svg11.dtd">
<svg xmlns:xlink="http://www.w3.org/1999/xlink" width="460.8pt" height="345.6pt" viewBox="0 0 460.8 345.6" xmlns="http://www.w3.org/2000/svg" version="1.1">
 <metadata>
  <rdf:RDF xmlns:dc="http://purl.org/dc/elements/1.1/" xmlns:cc="http://creativecommons.org/ns#" xmlns:rdf="http://www.w3.org/1999/02/22-rdf-syntax-ns#">
   <cc:Work>
    <dc:type rdf:resource="http://purl.org/dc/dcmitype/StillImage"/>
    <dc:date>2023-05-18T16:48:42.819446</dc:date>
    <dc:format>image/svg+xml</dc:format>
    <dc:creator>
     <cc:Agent>
      <dc:title>Matplotlib v3.5.3, https://matplotlib.org/</dc:title>
     </cc:Agent>
    </dc:creator>
   </cc:Work>
  </rdf:RDF>
 </metadata>
 <defs>
  <style type="text/css">*{stroke-linejoin: round; stroke-linecap: butt}</style>
 </defs>
 <g id="figure_1">
  <g id="patch_1">
   <path d="M 0 345.6 
L 460.8 345.6 
L 460.8 0 
L 0 0 
z
" style="fill: #ffffff"/>
  </g>
  <g id="axes_1">
   <g id="patch_2">
    <path d="M 103.104 307.584 
L 369.216 307.584 
L 369.216 41.472 
L 103.104 41.472 
z
" style="fill: #ffffff"/>
   </g>
   <g id="Quiver_1">
    <path d="M 114.856135 295.894226 
L 113.678313 294.897214 
L 113.396809 296.05353 
L 110.366148 291.396203 
L 115.459999 293.616176 
L 114.366043 294.084763 
L 115.543865 295.081774 
L 114.856135 295.894226 
" clip-path="url(#p96d648d38d)"/>
    <path d="M 132.721713 295.96217 
L 131.988859 296.33575 
L 132.946455 297.042377 
L 127.479616 298.036999 
L 131.496176 294.197357 
L 131.505432 295.38741 
L 132.238287 295.01383 
L 132.721713 295.96217 
" clip-path="url(#p96d648d38d)"/>
    <path d="M 150.209736 295.772604 
L 147.633167 299.844138 
L 148.817244 299.963611 
L 144.621991 303.60716 
L 146.118826 298.255984 
L 146.733694 299.274929 
L 149.310264 295.203396 
L 150.209736 295.772604 
" clip-path="url(#p96d648d38d)"/>
    <path d="M 167.524793 295.707633 
L 164.281961 302.865492 
L 165.471179 302.819965 
L 161.820473 307.008992 
L 162.562423 301.502168 
L 163.312376 302.426226 
L 166.555207 295.268367 
L 167.524793 295.707633 
" clip-path="url(#p96d648d38d)"/>
    <path d="M 184.808392 295.699509 
L 181.483284 303.37747 
L 182.671576 303.312095 
L 179.091314 307.561486 
L 179.741225 302.043043 
L 180.5065 302.954452 
L 183.831608 295.276491 
L 184.808392 295.699509 
" clip-path="url(#p96d648d38d)"/>
    <path d="M 202.069297 295.739043 
L 199.165202 301.167924 
L 200.354839 301.200713 
L 196.436516 305.140554 
L 197.539057 299.694454 
L 198.226608 300.665837 
L 201.130703 295.236957 
L 202.069297 295.739043 
" clip-path="url(#p96d648d38d)"/>
    <path d="M 219.244203 295.876096 
L 217.700363 297.324889 
L 218.816865 297.736879 
L 213.843296 300.21462 
L 216.631647 295.408302 
L 216.971957 296.548697 
L 218.515797 295.099904 
L 219.244203 295.876096 
" clip-path="url(#p96d648d38d)"/>
    <path d="M 235.987227 295.975348 
L 235.499878 295.802575 
L 235.641681 296.950045 
L 231.286515 293.760269 
L 236.678319 294.025955 
L 235.845425 294.827878 
L 236.332773 295.000652 
L 235.987227 295.975348 
" clip-path="url(#p96d648d38d)"/>
    <path d="M 252.975425 295.747677 
L 250.606202 291.509023 
L 249.936729 292.492953 
L 248.733682 287.068169 
L 252.72418 290.934889 
L 251.535353 290.989669 
L 253.904575 295.228323 
L 252.975425 295.747677 
" clip-path="url(#p96d648d38d)"/>
    <path d="M 270.213999 295.653002 
L 267.130528 286.197124 
L 266.283528 287.033129 
L 266.151511 281.478116 
L 269.319533 286.043117 
L 268.142529 285.86712 
L 271.226001 295.322998 
L 270.213999 295.653002 
" clip-path="url(#p96d648d38d)"/>
    <path d="M 287.484666 295.621015 
L 284.194443 282.873806 
L 283.296788 283.65517 
L 283.512645 278.102783 
L 286.388795 282.857082 
L 285.225111 282.607777 
L 288.515334 295.354985 
L 287.484666 295.621015 
" clip-path="url(#p96d648d38d)"/>
    <path d="M 304.763719 295.617292 
L 301.448471 282.379044 
L 300.545201 283.153909 
L 300.801124 277.603224 
L 303.642887 282.378157 
L 302.481033 282.12046 
L 305.796281 295.358708 
L 304.763719 295.617292 
" clip-path="url(#p96d648d38d)"/>
    <path d="M 322.049474 295.638419 
L 318.858698 284.808818 
L 317.988065 285.620182 
L 318.015457 280.063667 
L 321.05122 284.71767 
L 319.87975 284.507981 
L 323.070526 295.337581 
L 322.049474 295.638419 
" clip-path="url(#p96d648d38d)"/>
    <path d="M 339.35371 295.704297 
L 336.629163 289.578841 
L 335.872881 290.497726 
L 335.168777 284.985935 
L 338.79062 289.199942 
L 337.601743 289.146247 
L 340.32629 295.271703 
L 339.35371 295.704297 
" clip-path="url(#p96d648d38d)"/>
    <path d="M 356.776135 295.894226 
L 355.598313 294.897214 
L 355.316809 296.05353 
L 352.286148 291.396203 
L 357.379999 293.616176 
L 356.286043 294.084763 
L 357.463865 295.081774 
L 356.776135 295.894226 
" clip-path="url(#p96d648d38d)"/>
    <path d="M 114.856104 278.6142 
L 114.368604 278.201473 
L 114.087012 279.357768 
L 111.056703 274.700212 
L 116.150386 276.92057 
L 115.056395 277.389074 
L 115.543896 277.8018 
L 114.856104 278.6142 
" clip-path="url(#p96d648d38d)"/>
    <path d="M 132.792337 278.638939 
L 132.361146 278.951458 
L 133.416758 279.500999 
L 128.170361 281.331549 
L 131.542738 276.915366 
L 131.736473 278.08958 
L 132.167663 277.777061 
L 132.792337 278.638939 
" clip-path="url(#p96d648d38d)"/>
    <path d="M 150.233382 278.451253 
L 147.976103 282.844023 
L 149.16612 282.857148 
L 145.313444 286.861207 
L 146.325829 281.397629 
L 147.02934 282.357517 
L 149.286618 277.964747 
L 150.233382 278.451253 
" clip-path="url(#p96d648d38d)"/>
    <path d="M 167.537922 278.395978 
L 164.702743 285.905891 
L 165.886565 285.783925 
L 162.513017 290.199214 
L 162.899031 284.656056 
L 163.706898 285.529935 
L 166.542078 278.020022 
L 167.537922 278.395978 
" clip-path="url(#p96d648d38d)"/>
    <path d="M 184.820171 278.38991 
L 181.922476 286.357279 
L 183.104728 286.220928 
L 179.785116 290.67691 
L 180.103701 285.129469 
L 180.922134 285.993459 
L 183.819829 278.02609 
L 184.820171 278.38991 
" clip-path="url(#p96d648d38d)"/>
    <path d="M 202.085731 278.42555 
L 199.575177 284.030932 
L 200.764189 283.980302 
L 197.131494 288.184957 
L 197.849805 282.675 
L 198.603716 283.595831 
L 201.114269 277.99045 
L 202.085731 278.42555 
" clip-path="url(#p96d648d38d)"/>
    <path d="M 219.281829 278.556993 
L 218.081894 279.938594 
L 219.234545 280.23475 
L 214.539133 283.206063 
L 216.823571 278.140795 
L 217.278236 279.240609 
L 218.478171 277.859007 
L 219.281829 278.556993 
" clip-path="url(#p96d648d38d)"/>
    <path d="M 236.011964 278.625728 
L 235.594236 278.477691 
L 235.715891 279.461183 
L 231.982723 276.727636 
L 236.604109 276.954817 
L 235.890309 277.642236 
L 236.308036 277.790272 
L 236.011964 278.625728 
" clip-path="url(#p96d648d38d)"/>
    <path d="M 252.962313 278.442686 
L 251.064185 274.57918 
L 250.343497 275.526239 
L 249.429697 270.045311 
L 253.209619 274.118122 
L 252.019559 274.109808 
L 253.917687 277.973314 
L 252.962313 278.442686 
" clip-path="url(#p96d648d38d)"/>
    <path d="M 270.207819 278.352683 
L 267.636778 269.251169 
L 266.7571 270.052716 
L 266.846809 264.496859 
L 269.830185 269.184616 
L 268.66114 268.961802 
L 271.232181 278.063317 
L 270.207819 278.352683 
" clip-path="url(#p96d648d38d)"/>
    <path d="M 287.480518 278.323763 
L 284.729234 265.977503 
L 283.806033 266.728511 
L 284.206847 261.186404 
L 286.922924 266.033932 
L 285.768197 265.745976 
L 288.519482 278.092237 
L 287.480518 278.323763 
" clip-path="url(#p96d648d38d)"/>
    <path d="M 304.759882 278.320869 
L 301.989773 265.555792 
L 301.062406 266.301648 
L 301.494068 260.761859 
L 304.183115 265.624433 
L 303.030009 265.330053 
L 305.800118 278.095131 
L 304.759882 278.320869 
" clip-path="url(#p96d648d38d)"/>
    <path d="M 322.04469 278.341108 
L 319.389895 268.063438 
L 318.492383 268.844965 
L 318.70723 263.292538 
L 321.584244 268.046315 
L 320.420515 267.797221 
L 323.07531 278.074892 
L 322.04469 278.341108 
" clip-path="url(#p96d648d38d)"/>
    <path d="M 339.345906 278.405823 
L 337.146011 272.911237 
L 336.355646 273.800977 
L 335.859699 268.266572 
L 339.320208 272.61404 
L 338.134198 272.515592 
L 340.334094 278.010177 
L 339.345906 278.405823 
" clip-path="url(#p96d648d38d)"/>
    <path d="M 356.776104 278.6142 
L 356.288604 278.201473 
L 356.007012 279.357768 
L 352.976703 274.700212 
L 358.070386 276.92057 
L 356.976395 277.389074 
L 357.463896 277.8018 
L 356.776104 278.6142 
" clip-path="url(#p96d648d38d)"/>
    <path d="M 114.907647 261.273274 
L 114.562372 260.980921 
L 114.32294 261.963823 
L 111.747255 258.004467 
L 116.07706 259.892177 
L 115.147079 260.290372 
L 115.492353 260.582726 
L 114.907647 261.273274 
" clip-path="url(#p96d648d38d)"/>
    <path d="M 132.849725 261.289888 
L 132.487837 261.659614 
L 133.589176 262.013665 
L 128.861117 264.625254 
L 131.370824 259.842335 
L 131.748386 260.935837 
L 132.110275 260.566112 
L 132.849725 261.289888 
" clip-path="url(#p96d648d38d)"/>
    <path d="M 150.252647 261.129397 
L 148.310144 265.88105 
L 149.496836 265.791197 
L 146.004922 270.11348 
L 146.540951 264.582813 
L 147.324849 265.478255 
L 149.267353 260.726603 
L 150.252647 261.129397 
" clip-path="url(#p96d648d38d)"/>
    <path d="M 167.548679 261.084551 
L 165.123231 268.965514 
L 166.29714 268.769938 
L 163.205592 273.387073 
L 163.245067 267.830631 
L 164.105873 268.652412 
L 166.531321 260.771449 
L 167.548679 261.084551 
" clip-path="url(#p96d648d38d)"/>
    <path d="M 184.829969 261.080297 
L 182.359588 269.352421 
L 183.531822 269.147046 
L 180.478949 273.789843 
L 180.47201 268.233265 
L 181.33965 269.047828 
L 183.810031 260.775703 
L 184.829969 261.080297 
" clip-path="url(#p96d648d38d)"/>
    <path d="M 202.099738 261.111097 
L 199.97411 266.912696 
L 201.156683 266.779152 
L 197.826497 271.227238 
L 198.158256 265.680569 
L 198.974634 266.546501 
L 201.100262 260.744903 
L 202.099738 261.111097 
" clip-path="url(#p96d648d38d)"/>
    <path d="M 219.317676 261.230824 
L 218.398079 262.559928 
L 219.576254 262.727901 
L 215.234985 266.196183 
L 216.950201 260.910955 
L 217.522728 261.954279 
L 218.442324 260.625176 
L 219.317676 261.230824 
" clip-path="url(#p96d648d38d)"/>
    <path d="M 236.036675 261.276107 
L 235.688568 261.152782 
L 235.790025 261.97232 
L 232.678932 259.69475 
L 236.529975 259.88368 
L 235.935218 260.456568 
L 236.283325 260.579893 
L 236.036675 261.276107 
" clip-path="url(#p96d648d38d)"/>
    <path d="M 252.949173 261.133795 
L 251.487032 257.646556 
L 250.711175 258.548973 
L 250.125701 253.023322 
L 253.656134 257.314201 
L 252.468685 257.234965 
L 253.930827 260.722205 
L 252.949173 261.133795 
" clip-path="url(#p96d648d38d)"/>
    <path d="M 270.202118 261.050723 
L 268.128708 252.301072 
L 267.215667 253.0644 
L 267.542084 247.517414 
L 270.322958 252.328063 
L 269.164471 252.055627 
L 271.237882 260.805277 
L 270.202118 261.050723 
" clip-path="url(#p96d648d38d)"/>
    <path d="M 287.476756 261.025356 
L 285.25398 249.078962 
L 284.304848 249.796918 
L 284.901019 244.272411 
L 287.444311 249.212782 
L 286.300467 248.88425 
L 288.523244 260.830644 
L 287.476756 261.025356 
" clip-path="url(#p96d648d38d)"/>
    <path d="M 304.756367 261.023243 
L 302.520533 248.730911 
L 301.56851 249.445029 
L 302.186981 243.922974 
L 304.710307 248.873573 
L 303.567798 248.540426 
L 305.803633 260.832757 
L 304.756367 261.023243 
" clip-path="url(#p96d648d38d)"/>
    <path d="M 322.040146 261.04208 
L 319.905847 251.316261 
L 318.980219 252.064275 
L 319.398978 246.523495 
L 322.099342 251.379794 
L 320.945554 251.0881 
L 323.079854 260.81392 
L 322.040146 261.04208 
" clip-path="url(#p96d648d38d)"/>
    <path d="M 339.337766 261.104134 
L 337.633575 256.244741 
L 336.80524 257.099242 
L 336.550605 251.548498 
L 339.818646 256.04244 
L 338.638043 255.892473 
L 340.342234 260.751866 
L 339.337766 261.104134 
" clip-path="url(#p96d648d38d)"/>
    <path d="M 356.827647 261.273274 
L 356.482372 260.980921 
L 356.24294 261.963823 
L 353.667255 258.004467 
L 357.99706 259.892177 
L 357.067079 260.290372 
L 357.412353 260.582726 
L 356.827647 261.273274 
" clip-path="url(#p96d648d38d)"/>
    <path d="M 114.966093 243.924219 
L 114.689873 243.690312 
L 114.498278 244.476658 
L 112.437806 241.308927 
L 115.901722 242.819342 
L 115.157688 243.137873 
L 115.433907 243.371781 
L 114.966093 243.924219 
" clip-path="url(#p96d648d38d)"/>
    <path d="M 132.907008 243.940811 
L 132.614196 244.367819 
L 133.761023 244.526434 
L 129.551885 247.918077 
L 131.198977 242.769566 
L 131.760181 243.782196 
L 132.052992 243.355189 
L 132.907008 243.940811 
" clip-path="url(#p96d648d38d)"/>
    <path d="M 150.267589 243.80805 
L 148.644461 248.955701 
L 149.819688 248.768212 
L 146.696422 253.36395 
L 146.774156 247.807912 
L 147.629283 248.635601 
L 149.252411 243.48795 
L 150.267589 243.80805 
" clip-path="url(#p96d648d38d)"/>
    <path d="M 167.557163 243.773716 
L 165.546805 252.043802 
L 166.706848 251.778071 
L 163.898197 256.572555 
L 163.603868 251.023774 
L 164.512479 251.792369 
L 166.522837 243.522284 
L 167.557163 243.773716 
" clip-path="url(#p96d648d38d)"/>
    <path d="M 184.837822 243.770974 
L 182.797399 252.362864 
L 183.956017 252.090989 
L 181.172813 256.90029 
L 180.849084 251.353147 
L 181.761754 252.116917 
L 183.802178 243.525026 
L 184.837822 243.770974 
" clip-path="url(#p96d648d38d)"/>
    <path d="M 202.111178 243.796186 
L 200.366379 249.815001 
L 201.536921 249.600195 
L 198.521527 254.26742 
L 198.469851 248.711079 
L 199.344022 249.518629 
L 201.088822 243.499814 
L 202.111178 243.796186 
" clip-path="url(#p96d648d38d)"/>
    <path d="M 219.349748 243.898199 
L 218.65239 245.207485 
L 219.842085 245.238135 
L 215.930853 249.185016 
L 217.023598 243.736942 
L 217.712895 244.707088 
L 218.410252 243.397801 
L 219.349748 243.898199 
" clip-path="url(#p96d648d38d)"/>
    <path d="M 236.061365 243.926486 
L 235.78288 243.827851 
L 235.864096 244.483457 
L 233.375144 242.661653 
L 236.455904 242.812543 
L 235.980149 243.27088 
L 236.258635 243.369514 
L 236.061365 243.926486 
" clip-path="url(#p96d648d38d)"/>
    <path d="M 252.936482 243.820431 
L 251.870052 240.706332 
L 251.035447 241.554711 
L 250.821692 236.002243 
L 254.056553 240.520126 
L 252.877087 240.36147 
L 253.943518 243.475569 
L 252.936482 243.820431 
" clip-path="url(#p96d648d38d)"/>
    <path d="M 270.197072 243.747041 
L 268.605781 235.3452 
L 267.658967 236.06621 
L 268.237336 230.539811 
L 270.796533 235.471962 
L 269.651636 235.147117 
L 271.242928 243.548959 
L 270.197072 243.747041 
" clip-path="url(#p96d648d38d)"/>
    <path d="M 287.473484 243.725741 
L 285.768316 232.177198 
L 284.793026 232.859196 
L 285.59516 227.360817 
L 287.952119 232.392749 
L 286.821347 232.021716 
L 288.526516 243.570259 
L 287.473484 243.725741 
" clip-path="url(#p96d648d38d)"/>
    <path d="M 304.753279 243.724334 
L 303.040149 231.903392 
L 302.06304 232.582781 
L 302.879862 227.086564 
L 305.223369 232.124776 
L 304.093591 231.750723 
L 305.806721 243.571666 
L 304.753279 243.724334 
" clip-path="url(#p96d648d38d)"/>
    <path d="M 322.03599 243.741146 
L 320.405005 234.56575 
L 319.450132 235.276052 
L 320.0907 229.756517 
L 322.59419 234.717176 
L 321.453025 234.379458 
L 323.08401 243.554854 
L 322.03599 243.741146 
" clip-path="url(#p96d648d38d)"/>
    <path d="M 339.329488 243.798467 
L 338.085189 239.57675 
L 337.214633 240.388195 
L 337.241496 234.831679 
L 340.277702 239.485393 
L 339.106212 239.275816 
L 340.350512 243.497533 
L 339.329488 243.798467 
" clip-path="url(#p96d648d38d)"/>
    <path d="M 356.886093 243.924219 
L 356.609873 243.690312 
L 356.418278 244.476658 
L 354.357806 241.308927 
L 357.821722 242.819342 
L 357.077688 243.137873 
L 357.353907 243.371781 
L 356.886093 243.924219 
" clip-path="url(#p96d648d38d)"/>
    <path d="M 115.024555 226.575164 
L 114.817391 226.39972 
L 114.673665 226.989493 
L 113.128356 224.613552 
L 115.726335 225.746507 
L 115.16828 225.985391 
L 115.375445 226.160836 
L 115.024555 226.575164 
" clip-path="url(#p96d648d38d)"/>
    <path d="M 132.96314 226.591245 
L 132.735007 227.084964 
L 133.924532 227.048313 
L 130.242666 231.209979 
L 131.025692 225.708845 
L 131.768727 226.638475 
L 131.99686 226.144755 
L 132.96314 226.591245 
" clip-path="url(#p96d648d38d)"/>
    <path d="M 150.278506 226.488056 
L 148.986957 232.066087 
L 150.144026 231.787692 
L 147.387946 236.612589 
L 147.032988 231.067356 
L 147.949945 231.825975 
L 149.241494 226.247944 
L 150.278506 226.488056 
" clip-path="url(#p96d648d38d)"/>
    <path d="M 167.563535 226.463777 
L 165.976359 235.139607 
L 167.119206 234.807625 
L 164.590832 239.755648 
L 163.977994 234.232964 
L 164.929288 234.948053 
L 166.516465 226.272223 
L 167.563535 226.463777 
" clip-path="url(#p96d648d38d)"/>
    <path d="M 184.843819 226.462212 
L 183.238439 235.388098 
L 184.380289 235.052704 
L 181.866709 240.008258 
L 181.237375 234.48743 
L 182.190801 235.199674 
L 183.796181 226.273788 
L 184.843819 226.462212 
" clip-path="url(#p96d648d38d)"/>
    <path d="M 202.12002 226.481319 
L 200.75647 232.738661 
L 201.90983 232.445278 
L 199.216582 237.305526 
L 198.789707 231.765366 
L 199.716429 232.512023 
L 201.07998 226.254681 
L 202.12002 226.481319 
" clip-path="url(#p96d648d38d)"/>
    <path d="M 219.376153 226.5606 
L 218.856286 227.899821 
L 220.041191 227.788867 
L 216.626736 232.172597 
L 217.064274 226.633269 
L 217.86398 227.514621 
L 218.383847 226.1754 
L 219.376153 226.5606 
" clip-path="url(#p96d648d38d)"/>
    <path d="M 236.086039 226.576864 
L 235.877174 226.502903 
L 235.938116 226.994593 
L 234.071357 225.628388 
L 236.381884 225.741407 
L 236.025097 226.085174 
L 236.233961 226.159136 
L 236.086039 226.576864 
" clip-path="url(#p96d648d38d)"/>
    <path d="M 252.924936 226.502056 
L 252.209111 223.751747 
L 251.313039 224.534924 
L 251.517671 218.982111 
L 254.403425 223.730587 
L 253.23924 223.483635 
L 253.955064 226.233944 
L 252.924936 226.502056 
" clip-path="url(#p96d648d38d)"/>
    <path d="M 270.192887 226.441585 
L 269.067719 218.381675 
L 268.087079 219.055958 
L 268.932564 213.564078 
L 271.249754 218.614447 
L 270.121944 218.234505 
L 271.247113 226.294415 
L 270.192887 226.441585 
" clip-path="url(#p96d648d38d)"/>
    <path d="M 287.470824 226.424877 
L 286.271989 215.271096 
L 285.270514 215.914026 
L 286.289271 210.451633 
L 288.44557 215.572763 
L 287.330341 215.157341 
L 288.529176 226.311123 
L 287.470824 226.424877 
" clip-path="url(#p96d648d38d)"/>
    <path d="M 304.750738 226.424071 
L 303.548088 215.072053 
L 302.545634 215.713457 
L 303.572713 210.252623 
L 305.721207 215.377032 
L 304.606612 214.959912 
L 305.809262 226.311929 
L 304.750738 226.424071 
" clip-path="url(#p96d648d38d)"/>
    <path d="M 322.032414 226.438111 
L 320.885813 217.809962 
L 319.900752 218.477771 
L 320.782397 212.991579 
L 323.066267 218.057103 
L 321.940984 217.66974 
L 323.087586 226.297889 
L 322.032414 226.438111 
" clip-path="url(#p96d648d38d)"/>
    <path d="M 339.321452 226.487875 
L 338.492697 222.902888 
L 337.575475 223.661186 
L 337.932373 218.116078 
L 340.686765 222.941937 
L 339.529794 222.663138 
L 340.358548 226.248125 
L 339.321452 226.487875 
" clip-path="url(#p96d648d38d)"/>
    <path d="M 356.944555 226.575164 
L 356.737391 226.39972 
L 356.593665 226.989493 
L 355.048356 224.613552 
L 357.646335 225.746507 
L 357.08828 225.985391 
L 357.295445 226.160836 
L 356.944555 226.575164 
" clip-path="url(#p96d648d38d)"/>
    <path d="M 115.08303 209.22611 
L 114.94492 209.109139 
L 114.84909 209.502329 
L 113.818905 207.918299 
L 115.55091 208.673671 
L 115.178861 208.83292 
L 115.31697 208.94989 
L 115.08303 209.22611 
" clip-path="url(#p96d648d38d)"/>
    <path d="M 132.991746 209.234212 
L 132.761118 210.041417 
L 133.930823 209.822095 
L 130.933459 214.500921 
L 130.860345 208.944821 
L 131.737625 209.748992 
L 131.968254 208.941788 
L 132.991746 209.234212 
" clip-path="url(#p96d648d38d)"/>
    <path d="M 150.285862 209.170043 
L 149.343744 215.208648 
L 150.477512 214.846872 
L 148.079495 219.859367 
L 147.322337 214.354614 
L 148.292019 215.044562 
L 149.234138 209.005957 
L 150.285862 209.170043 
" clip-path="url(#p96d648d38d)"/>
    <path d="M 167.567994 209.15497 
L 166.414221 218.251364 
L 167.537179 217.85731 
L 165.283498 222.936338 
L 164.369216 217.455491 
L 165.358234 218.117424 
L 166.512006 209.02103 
L 167.567994 209.15497 
" clip-path="url(#p96d648d38d)"/>
    <path d="M 184.848086 209.154242 
L 183.6849 218.427223 
L 184.807313 218.031621 
L 182.560635 223.113751 
L 181.638799 217.634169 
L 182.628728 218.294739 
L 183.791914 209.021758 
L 184.848086 209.154242 
" clip-path="url(#p96d648d38d)"/>
    <path d="M 202.126334 209.166964 
L 201.148673 215.683541 
L 202.280304 215.315136 
L 199.911662 220.341579 
L 199.122302 214.841351 
L 200.096005 215.525613 
L 201.073666 209.009036 
L 202.126334 209.166964 
" clip-path="url(#p96d648d38d)"/>
    <path d="M 219.395532 209.220248 
L 219.028395 210.651427 
L 220.191706 210.400391 
L 217.322633 215.158964 
L 217.098517 209.606904 
L 217.997332 210.386932 
L 218.364468 208.955752 
L 219.395532 209.220248 
" clip-path="url(#p96d648d38d)"/>
    <path d="M 236.1107 209.227243 
L 235.971457 209.177942 
L 236.012099 209.505729 
L 234.76757 208.594995 
L 236.307901 208.670271 
L 236.070058 208.899457 
L 236.2093 208.948757 
L 236.1107 209.227243 
" clip-path="url(#p96d648d38d)"/>
    <path d="M 252.915489 209.178279 
L 252.501637 206.773848 
L 251.542894 207.478918 
L 252.213637 201.962968 
L 254.689961 206.937243 
L 253.55066 206.59329 
L 253.964511 208.997721 
L 252.915489 209.178279 
" clip-path="url(#p96d648d38d)"/>
    <path d="M 270.189797 209.134337 
L 269.514595 201.408407 
L 268.500526 202.031284 
L 269.627768 196.590243 
L 271.681744 201.753263 
L 270.575001 201.315734 
L 271.250203 209.041663 
L 270.189797 209.134337 
" clip-path="url(#p96d648d38d)"/>
    <path d="M 287.468911 209.122738 
L 286.7649 198.359412 
L 285.73746 198.959977 
L 286.983351 193.544872 
L 288.923995 198.751551 
L 287.827079 198.289937 
L 288.531089 209.053262 
L 287.468911 209.122738 
" clip-path="url(#p96d648d38d)"/>
    <path d="M 304.748888 209.122391 
L 304.043938 198.235539 
L 303.016105 198.835432 
L 304.265532 193.421143 
L 306.202775 198.629088 
L 305.106161 198.166757 
L 305.811112 209.053609 
L 304.748888 209.122391 
" clip-path="url(#p96d648d38d)"/>
    <path d="M 322.029664 209.132785 
L 321.346799 201.046469 
L 320.330912 201.666376 
L 321.474068 196.228657 
L 323.51293 201.397665 
L 322.407472 200.956899 
L 323.090336 209.043215 
L 322.029664 209.132785 
" clip-path="url(#p96d648d38d)"/>
    <path d="M 339.314322 209.171216 
L 338.846501 206.215978 
L 337.878361 206.908089 
L 338.623234 201.401659 
L 341.032429 206.408792 
L 339.897857 206.049546 
L 340.365678 209.004784 
L 339.314322 209.171216 
" clip-path="url(#p96d648d38d)"/>
    <path d="M 357.00303 209.22611 
L 356.86492 209.109139 
L 356.76909 209.502329 
L 355.738905 207.918299 
L 357.47091 208.673671 
L 357.098861 208.83292 
L 357.23697 208.94989 
L 357.00303 209.22611 
" clip-path="url(#p96d648d38d)"/>
    <path d="M 114.79387 191.464022 
L 114.699041 191.987729 
L 115.105171 192.331708 
L 115.60613 192.151978 
L 115.700959 191.628271 
L 115.294829 191.284292 
L 114.79387 191.464022 
L 114.699041 191.987729 
" clip-path="url(#p96d648d38d)"/>
    <path d="M 133.006862 191.883358 
L 132.829345 193.124465 
L 133.958427 192.748318 
L 131.624265 197.790866 
L 130.797255 192.296173 
L 131.775621 192.97375 
L 131.953138 191.732642 
L 133.006862 191.883358 
" clip-path="url(#p96d648d38d)"/>
    <path d="M 150.290196 191.854416 
L 149.719008 198.37891 
L 150.825817 197.941546 
L 148.771067 203.104259 
L 147.64464 197.663049 
L 148.658616 198.286078 
L 149.229804 191.761584 
L 150.290196 191.854416 
" clip-path="url(#p96d648d38d)"/>
    <path d="M 167.570759 191.847466 
L 166.862147 201.377252 
L 167.96313 200.925426 
L 165.976194 206.114615 
L 164.778578 200.68863 
L 165.800629 201.298321 
L 166.509241 191.768534 
L 167.570759 191.847466 
" clip-path="url(#p96d648d38d)"/>
    <path d="M 184.850775 191.847246 
L 184.138584 201.479048 
L 185.239381 201.026765 
L 183.254592 206.216776 
L 182.054731 200.791287 
L 183.077034 201.400555 
L 183.789225 191.768754 
L 184.850775 191.847246 
" clip-path="url(#p96d648d38d)"/>
    <path d="M 202.130273 191.853531 
L 201.546819 198.648679 
L 202.652896 198.209468 
L 200.606767 203.375604 
L 199.471258 197.936282 
L 200.486273 198.557617 
L 201.069727 191.762469 
L 202.130273 191.853531 
" clip-path="url(#p96d648d38d)"/>
    <path d="M 219.407372 191.879701 
L 219.191224 193.469506 
L 220.317669 193.085535 
L 218.018545 198.144154 
L 217.153437 192.65533 
L 218.13648 193.326104 
L 218.352628 191.736299 
L 219.407372 191.879701 
" clip-path="url(#p96d648d38d)"/>
    <path d="M 235.65829 191.630379 
L 235.755321 192.153684 
L 236.257031 192.331304 
L 236.66171 191.985621 
L 236.564679 191.462316 
L 236.062969 191.284696 
L 235.65829 191.630379 
L 235.755321 192.153684 
" clip-path="url(#p96d648d38d)"/>
    <path d="M 252.909358 191.84901 
L 252.748038 189.761635 
L 251.727765 190.374296 
L 252.90959 184.94485 
L 254.911615 190.128237 
L 253.809321 189.679615 
L 253.970642 191.76699 
L 252.909358 191.84901 
" clip-path="url(#p96d648d38d)"/>
    <path d="M 270.188058 191.825327 
L 269.946947 184.423137 
L 268.900391 184.989733 
L 270.322947 179.618333 
L 272.092042 184.885771 
L 271.010831 184.388483 
L 271.251942 191.790673 
L 270.188058 191.825327 
" clip-path="url(#p96d648d38d)"/>
    <path d="M 287.467896 191.819317 
L 287.247154 181.440794 
L 286.194264 181.995533 
L 287.677401 176.640544 
L 289.386886 181.927628 
L 288.311361 181.418159 
L 288.532104 191.796683 
L 287.467896 191.819317 
" clip-path="url(#p96d648d38d)"/>
    <path d="M 304.747895 191.819249 
L 304.527459 181.392311 
L 303.474498 181.946914 
L 304.958321 176.592116 
L 306.667128 181.879419 
L 305.591669 181.369812 
L 305.812105 191.796751 
L 304.747895 191.819249 
" clip-path="url(#p96d648d38d)"/>
    <path d="M 322.028047 191.824996 
L 321.78673 184.272296 
L 320.739822 184.838242 
L 322.165715 179.467727 
L 323.931537 184.736263 
L 322.850635 184.238303 
L 323.091953 191.791004 
L 322.028047 191.824996 
" clip-path="url(#p96d648d38d)"/>
    <path d="M 339.309222 191.847208 
L 339.136176 189.504596 
L 338.113828 190.11379 
L 339.314082 184.688387 
L 341.298495 189.878541 
L 340.197731 189.42618 
L 340.370778 191.768792 
L 339.309222 191.847208 
" clip-path="url(#p96d648d38d)"/>
    <path d="M 356.71387 191.464022 
L 356.619041 191.987729 
L 357.025171 192.331708 
L 357.52613 192.151978 
L 357.620959 191.628271 
L 357.214829 191.284292 
L 356.71387 191.464022 
L 356.619041 191.987729 
" clip-path="url(#p96d648d38d)"/>
    <path d="M 115.2 175.060224 
L 115.66092 174.794112 
L 115.66092 174.261888 
L 115.2 173.995776 
L 114.73908 174.261888 
L 114.73908 174.794112 
L 115.2 175.060224 
L 115.66092 174.794112 
" clip-path="url(#p96d648d38d)"/>
    <path d="M 133.012055 174.541392 
L 132.967672 176.304669 
L 134.045175 175.799398 
L 132.315085 181.079776 
L 130.852842 175.719044 
L 131.903561 176.277884 
L 131.947945 174.514608 
L 133.012055 174.541392 
" clip-path="url(#p96d648d38d)"/>
    <path d="M 150.292056 174.541385 
L 150.115184 181.57212 
L 151.19268 181.066834 
L 149.462664 186.347236 
L 148.000346 180.986525 
L 149.051072 181.54535 
L 149.227944 174.514615 
L 150.292056 174.541385 
" clip-path="url(#p96d648d38d)"/>
    <path d="M 167.572056 174.541374 
L 167.321344 184.515338 
L 168.39883 184.01003 
L 166.668921 189.290467 
L 165.206495 183.929786 
L 166.257232 184.48859 
L 166.507944 174.514626 
L 167.572056 174.541374 
" clip-path="url(#p96d648d38d)"/>
    <path d="M 184.852056 174.541362 
L 184.600895 184.542198 
L 185.67837 184.036866 
L 183.94858 189.317342 
L 182.486032 183.956694 
L 183.536783 184.515474 
L 183.787944 174.514638 
L 184.852056 174.541362 
" clip-path="url(#p96d648d38d)"/>
    <path d="M 202.132057 174.541351 
L 201.954115 181.632467 
L 203.031579 181.127113 
L 201.301898 186.407624 
L 199.83924 181.047006 
L 200.890002 181.605764 
L 201.067943 174.514649 
L 202.132057 174.541351 
" clip-path="url(#p96d648d38d)"/>
    <path d="M 219.412057 174.541344 
L 219.36662 176.353037 
L 220.444078 175.847667 
L 218.714471 181.128203 
L 217.251737 175.767605 
L 218.302507 176.326349 
L 218.347943 174.514656 
L 219.412057 174.541344 
" clip-path="url(#p96d648d38d)"/>
    <path d="M 236.692224 174.528 
L 236.426112 174.06708 
L 235.893888 174.06708 
L 235.627776 174.528 
L 235.893888 174.98892 
L 236.426112 174.98892 
L 236.692224 174.528 
L 236.426112 174.06708 
" clip-path="url(#p96d648d38d)"/>
    <path d="M 252.907943 174.514656 
L 252.95338 172.702963 
L 251.875922 173.208333 
L 253.605529 167.927797 
L 255.068263 173.288395 
L 254.017493 172.729651 
L 253.972057 174.541344 
L 252.907943 174.514656 
" clip-path="url(#p96d648d38d)"/>
    <path d="M 270.187943 174.514649 
L 270.365885 167.423533 
L 269.288421 167.928887 
L 271.018102 162.648376 
L 272.48076 168.008994 
L 271.429998 167.450236 
L 271.252057 174.541351 
L 270.187943 174.514649 
" clip-path="url(#p96d648d38d)"/>
    <path d="M 287.467944 174.514638 
L 287.719105 164.513802 
L 286.64163 165.019134 
L 288.37142 159.738658 
L 289.833968 165.099306 
L 288.783217 164.540526 
L 288.532056 174.541362 
L 287.467944 174.514638 
" clip-path="url(#p96d648d38d)"/>
    <path d="M 304.747944 174.514626 
L 304.998656 164.540662 
L 303.92117 165.04597 
L 305.651079 159.765533 
L 307.113505 165.126214 
L 306.062768 164.56741 
L 305.812056 174.541374 
L 304.747944 174.514626 
" clip-path="url(#p96d648d38d)"/>
    <path d="M 322.027944 174.514615 
L 322.204816 167.48388 
L 321.12732 167.989166 
L 322.857336 162.708764 
L 324.319654 168.069475 
L 323.268928 167.51065 
L 323.092056 174.541385 
L 322.027944 174.514615 
" clip-path="url(#p96d648d38d)"/>
    <path d="M 339.307945 174.514608 
L 339.352328 172.751331 
L 338.274825 173.256602 
L 340.004915 167.976224 
L 341.467158 173.336956 
L 340.416439 172.778116 
L 340.372055 174.541392 
L 339.307945 174.514608 
" clip-path="url(#p96d648d38d)"/>
    <path d="M 357.12 173.995776 
L 356.65908 174.261888 
L 356.65908 174.794112 
L 357.12 175.060224 
L 357.58092 174.794112 
L 357.58092 174.261888 
L 357.12 173.995776 
L 356.65908 174.261888 
" clip-path="url(#p96d648d38d)"/>
    <path d="M 115.60613 157.591978 
L 115.700959 157.068271 
L 115.294829 156.724292 
L 114.79387 156.904022 
L 114.699041 157.427729 
L 115.105171 157.771708 
L 115.60613 157.591978 
L 115.700959 157.068271 
" clip-path="url(#p96d648d38d)"/>
    <path d="M 133.010778 157.208792 
L 133.183824 159.551404 
L 134.206172 158.94221 
L 133.005918 164.367613 
L 131.021505 159.177459 
L 132.122269 159.62982 
L 131.949222 157.287208 
L 133.010778 157.208792 
" clip-path="url(#p96d648d38d)"/>
    <path d="M 150.291953 157.231004 
L 150.53327 164.783704 
L 151.580178 164.217758 
L 150.154285 169.588273 
L 148.388463 164.319737 
L 149.469365 164.817697 
L 149.228047 157.264996 
L 150.291953 157.231004 
" clip-path="url(#p96d648d38d)"/>
    <path d="M 167.572105 157.236751 
L 167.792541 167.663689 
L 168.845502 167.109086 
L 167.361679 172.463884 
L 165.652872 167.176581 
L 166.728331 167.686188 
L 166.507895 157.259249 
L 167.572105 157.236751 
" clip-path="url(#p96d648d38d)"/>
    <path d="M 184.852104 157.236683 
L 185.072846 167.615206 
L 186.125736 167.060467 
L 184.642599 172.415456 
L 182.933114 167.128372 
L 184.008639 167.637841 
L 183.787896 157.259317 
L 184.852104 157.236683 
" clip-path="url(#p96d648d38d)"/>
    <path d="M 202.131942 157.230673 
L 202.373053 164.632863 
L 203.419609 164.066267 
L 201.997053 169.437667 
L 200.227958 164.170229 
L 201.309169 164.667517 
L 201.068058 157.265327 
L 202.131942 157.230673 
" clip-path="url(#p96d648d38d)"/>
    <path d="M 219.410642 157.20699 
L 219.571962 159.294365 
L 220.592235 158.681704 
L 219.41041 164.11115 
L 217.408385 158.927763 
L 218.510679 159.376385 
L 218.349358 157.28901 
L 219.410642 157.20699 
" clip-path="url(#p96d648d38d)"/>
    <path d="M 236.66171 157.425621 
L 236.564679 156.902316 
L 236.062969 156.724696 
L 235.65829 157.070379 
L 235.755321 157.593684 
L 236.257031 157.771304 
L 236.66171 157.425621 
L 236.564679 156.902316 
" clip-path="url(#p96d648d38d)"/>
    <path d="M 252.912628 157.176299 
L 253.128776 155.586494 
L 252.002331 155.970465 
L 254.301455 150.911846 
L 255.166563 156.40067 
L 254.18352 155.729896 
L 253.967372 157.319701 
L 252.912628 157.176299 
" clip-path="url(#p96d648d38d)"/>
    <path d="M 270.189727 157.202469 
L 270.773181 150.407321 
L 269.667104 150.846532 
L 271.713233 145.680396 
L 272.848742 151.119718 
L 271.833727 150.498383 
L 271.250273 157.293531 
L 270.189727 157.202469 
" clip-path="url(#p96d648d38d)"/>
    <path d="M 287.469225 157.208754 
L 288.181416 147.576952 
L 287.080619 148.029235 
L 289.065408 142.839224 
L 290.265269 148.264713 
L 289.242966 147.655445 
L 288.530775 157.287246 
L 287.469225 157.208754 
" clip-path="url(#p96d648d38d)"/>
    <path d="M 304.749241 157.208534 
L 305.457853 147.678748 
L 304.35687 148.130574 
L 306.343806 142.941385 
L 307.541422 148.36737 
L 306.519371 147.757679 
L 305.810759 157.287466 
L 304.749241 157.208534 
" clip-path="url(#p96d648d38d)"/>
    <path d="M 322.029804 157.201584 
L 322.600992 150.67709 
L 321.494183 151.114454 
L 323.548933 145.951741 
L 324.67536 151.392951 
L 323.661384 150.769922 
L 323.090196 157.294416 
L 322.029804 157.201584 
" clip-path="url(#p96d648d38d)"/>
    <path d="M 339.313138 157.172642 
L 339.490655 155.931535 
L 338.361573 156.307682 
L 340.695735 151.265134 
L 341.522745 156.759827 
L 340.544379 156.08225 
L 340.366862 157.323358 
L 339.313138 157.172642 
" clip-path="url(#p96d648d38d)"/>
    <path d="M 357.52613 157.591978 
L 357.620959 157.068271 
L 357.214829 156.724292 
L 356.71387 156.904022 
L 356.619041 157.427729 
L 357.025171 157.771708 
L 357.52613 157.591978 
L 357.620959 157.068271 
" clip-path="url(#p96d648d38d)"/>
    <path d="M 115.31697 139.82989 
L 115.45508 139.946861 
L 115.55091 139.553671 
L 116.581095 141.137701 
L 114.84909 140.382329 
L 115.221139 140.22308 
L 115.08303 140.10611 
L 115.31697 139.82989 
" clip-path="url(#p96d648d38d)"/>
    <path d="M 133.005678 139.884784 
L 133.473499 142.840022 
L 134.441639 142.147911 
L 133.696766 147.654341 
L 131.287571 142.647208 
L 132.422143 143.006454 
L 131.954322 140.051216 
L 133.005678 139.884784 
" clip-path="url(#p96d648d38d)"/>
    <path d="M 150.290336 139.923215 
L 150.973201 148.009531 
L 151.989088 147.389624 
L 150.845932 152.827343 
L 148.80707 147.658335 
L 149.912528 148.099101 
L 149.229664 140.012785 
L 150.290336 139.923215 
" clip-path="url(#p96d648d38d)"/>
    <path d="M 167.571112 139.933609 
L 168.276062 150.820461 
L 169.303895 150.220568 
L 168.054468 155.634857 
L 166.117225 150.426912 
L 167.213839 150.889243 
L 166.508888 140.002391 
L 167.571112 139.933609 
" clip-path="url(#p96d648d38d)"/>
    <path d="M 184.851089 139.933262 
L 185.5551 150.696588 
L 186.58254 150.096023 
L 185.336649 155.511128 
L 183.396005 150.304449 
L 184.492921 150.766063 
L 183.788911 140.002738 
L 184.851089 139.933262 
" clip-path="url(#p96d648d38d)"/>
    <path d="M 202.130203 139.921663 
L 202.805405 147.647593 
L 203.819474 147.024716 
L 202.692232 152.465757 
L 200.638256 147.302737 
L 201.744999 147.740266 
L 201.069797 140.014337 
L 202.130203 139.921663 
" clip-path="url(#p96d648d38d)"/>
    <path d="M 219.404511 139.877721 
L 219.818363 142.282152 
L 220.777106 141.577082 
L 220.106363 147.093032 
L 217.630039 142.118757 
L 218.76934 142.46271 
L 218.355489 140.058279 
L 219.404511 139.877721 
" clip-path="url(#p96d648d38d)"/>
    <path d="M 236.2093 139.828757 
L 236.348543 139.878058 
L 236.307901 139.550271 
L 237.55243 140.461005 
L 236.012099 140.385729 
L 236.249942 140.156543 
L 236.1107 140.107243 
L 236.2093 139.828757 
" clip-path="url(#p96d648d38d)"/>
    <path d="M 252.924468 139.835752 
L 253.291605 138.404573 
L 252.128294 138.655609 
L 254.997367 133.897036 
L 255.221483 139.449096 
L 254.322668 138.669068 
L 253.955532 140.100248 
L 252.924468 139.835752 
" clip-path="url(#p96d648d38d)"/>
    <path d="M 270.193666 139.889036 
L 271.171327 133.372459 
L 270.039696 133.740864 
L 272.408338 128.714421 
L 273.197698 134.214649 
L 272.223995 133.530387 
L 271.246334 140.046964 
L 270.193666 139.889036 
" clip-path="url(#p96d648d38d)"/>
    <path d="M 287.471914 139.901758 
L 288.6351 130.628777 
L 287.512687 131.024379 
L 289.759365 125.942249 
L 290.681201 131.421831 
L 289.691272 130.761261 
L 288.528086 140.034242 
L 287.471914 139.901758 
" clip-path="url(#p96d648d38d)"/>
    <path d="M 304.752006 139.90103 
L 305.905779 130.804636 
L 304.782821 131.19869 
L 307.036502 126.119662 
L 307.950784 131.600509 
L 306.961766 130.938576 
L 305.807994 140.03497 
L 304.752006 139.90103 
" clip-path="url(#p96d648d38d)"/>
    <path d="M 322.034138 139.885957 
L 322.976256 133.847352 
L 321.842488 134.209128 
L 324.240505 129.196633 
L 324.997663 134.701386 
L 324.027981 134.011438 
L 323.085862 140.050043 
L 322.034138 139.885957 
" clip-path="url(#p96d648d38d)"/>
    <path d="M 339.328254 139.821788 
L 339.558882 139.014583 
L 338.389177 139.233905 
L 341.386541 134.555079 
L 341.459655 140.111179 
L 340.582375 139.307008 
L 340.351746 140.114212 
L 339.328254 139.821788 
" clip-path="url(#p96d648d38d)"/>
    <path d="M 357.23697 139.82989 
L 357.37508 139.946861 
L 357.47091 139.553671 
L 358.501095 141.137701 
L 356.76909 140.382329 
L 357.141139 140.22308 
L 357.00303 140.10611 
L 357.23697 139.82989 
" clip-path="url(#p96d648d38d)"/>
    <path d="M 115.375445 122.480836 
L 115.582609 122.65628 
L 115.726335 122.066507 
L 117.271644 124.442448 
L 114.673665 123.309493 
L 115.23172 123.070609 
L 115.024555 122.895164 
L 115.375445 122.480836 
" clip-path="url(#p96d648d38d)"/>
    <path d="M 132.998548 122.568125 
L 133.827303 126.153112 
L 134.744525 125.394814 
L 134.387627 130.939922 
L 131.633235 126.114063 
L 132.790206 126.392862 
L 131.961452 122.807875 
L 132.998548 122.568125 
" clip-path="url(#p96d648d38d)"/>
    <path d="M 150.287586 122.617889 
L 151.434187 131.246038 
L 152.419248 130.578229 
L 151.537603 136.064421 
L 149.253733 130.998897 
L 150.379016 131.38626 
L 149.232414 122.758111 
L 150.287586 122.617889 
" clip-path="url(#p96d648d38d)"/>
    <path d="M 167.569262 122.631929 
L 168.771912 133.983947 
L 169.774366 133.342543 
L 168.747287 138.803377 
L 166.598793 133.678968 
L 167.713388 134.096088 
L 166.510738 122.744071 
L 167.569262 122.631929 
" clip-path="url(#p96d648d38d)"/>
    <path d="M 184.849176 122.631123 
L 186.048011 133.784904 
L 187.049486 133.141974 
L 186.030729 138.604367 
L 183.87443 133.483237 
L 184.989659 133.898659 
L 183.790824 122.744877 
L 184.849176 122.631123 
" clip-path="url(#p96d648d38d)"/>
    <path d="M 202.127113 122.614415 
L 203.252281 130.674325 
L 204.232921 130.000042 
L 203.387436 135.491922 
L 201.070246 130.441553 
L 202.198056 130.821495 
L 201.072887 122.761585 
L 202.127113 122.614415 
" clip-path="url(#p96d648d38d)"/>
    <path d="M 219.395064 122.553944 
L 220.110889 125.304253 
L 221.006961 124.521076 
L 220.802329 130.073889 
L 217.916575 125.325413 
L 219.08076 125.572365 
L 218.364936 122.822056 
L 219.395064 122.553944 
" clip-path="url(#p96d648d38d)"/>
    <path d="M 236.233961 122.479136 
L 236.442826 122.553097 
L 236.381884 122.061407 
L 238.248643 123.427612 
L 235.938116 123.314593 
L 236.294903 122.970826 
L 236.086039 122.896864 
L 236.233961 122.479136 
" clip-path="url(#p96d648d38d)"/>
    <path d="M 252.943847 122.4954 
L 253.463714 121.156179 
L 252.278809 121.267133 
L 255.693264 116.883403 
L 255.255726 122.422731 
L 254.45602 121.541379 
L 253.936153 122.8806 
L 252.943847 122.4954 
" clip-path="url(#p96d648d38d)"/>
    <path d="M 270.19998 122.574681 
L 271.56353 116.317339 
L 270.41017 116.610722 
L 273.103418 111.750474 
L 273.530293 117.290634 
L 272.603571 116.543977 
L 271.24002 122.801319 
L 270.19998 122.574681 
" clip-path="url(#p96d648d38d)"/>
    <path d="M 287.476181 122.593788 
L 289.081561 113.667902 
L 287.939711 114.003296 
L 290.453291 109.047742 
L 291.082625 114.56857 
L 290.129199 113.856326 
L 288.523819 122.782212 
L 287.476181 122.593788 
" clip-path="url(#p96d648d38d)"/>
    <path d="M 304.756465 122.592223 
L 306.343641 113.916393 
L 305.200794 114.248375 
L 307.729168 109.300352 
L 308.342006 114.823036 
L 307.390712 114.107947 
L 305.803535 122.783777 
L 304.756465 122.592223 
" clip-path="url(#p96d648d38d)"/>
    <path d="M 322.041494 122.567944 
L 323.333043 116.989913 
L 322.175974 117.268308 
L 324.932054 112.443411 
L 325.287012 117.988644 
L 324.370055 117.230025 
L 323.078506 122.808056 
L 322.041494 122.567944 
" clip-path="url(#p96d648d38d)"/>
    <path d="M 339.35686 122.464755 
L 339.584993 121.971036 
L 338.395468 122.007687 
L 342.077334 117.846021 
L 341.294308 123.347155 
L 340.551273 122.417525 
L 340.32314 122.911245 
L 339.35686 122.464755 
" clip-path="url(#p96d648d38d)"/>
    <path d="M 357.295445 122.480836 
L 357.502609 122.65628 
L 357.646335 122.066507 
L 359.191644 124.442448 
L 356.593665 123.309493 
L 357.15172 123.070609 
L 356.944555 122.895164 
L 357.295445 122.480836 
" clip-path="url(#p96d648d38d)"/>
    <path d="M 115.433907 105.131781 
L 115.710127 105.365688 
L 115.901722 104.579342 
L 117.962194 107.747073 
L 114.498278 106.236658 
L 115.242312 105.918127 
L 114.966093 105.684219 
L 115.433907 105.131781 
" clip-path="url(#p96d648d38d)"/>
    <path d="M 132.990512 105.257533 
L 134.234811 109.47925 
L 135.105367 108.667805 
L 135.078504 114.224321 
L 132.042298 109.570607 
L 133.213788 109.780184 
L 131.969488 105.558467 
L 132.990512 105.257533 
" clip-path="url(#p96d648d38d)"/>
    <path d="M 150.28401 105.314854 
L 151.914995 114.49025 
L 152.869868 113.779948 
L 152.2293 119.299483 
L 149.72581 114.338824 
L 150.866975 114.676542 
L 149.23599 105.501146 
L 150.28401 105.314854 
" clip-path="url(#p96d648d38d)"/>
    <path d="M 167.566721 105.331666 
L 169.279851 117.152608 
L 170.25696 116.473219 
L 169.440138 121.969436 
L 167.096631 116.931224 
L 168.226409 117.305277 
L 166.513279 105.484334 
L 167.566721 105.331666 
" clip-path="url(#p96d648d38d)"/>
    <path d="M 184.846516 105.330259 
L 186.551684 116.878802 
L 187.526974 116.196804 
L 186.72484 121.695183 
L 184.367881 116.663251 
L 185.498653 117.034284 
L 183.793484 105.485741 
L 184.846516 105.330259 
" clip-path="url(#p96d648d38d)"/>
    <path d="M 202.122928 105.308959 
L 203.714219 113.7108 
L 204.661033 112.98979 
L 204.082664 118.516189 
L 201.523467 113.584038 
L 202.668364 113.908883 
L 201.077072 105.507041 
L 202.122928 105.308959 
" clip-path="url(#p96d648d38d)"/>
    <path d="M 219.383518 105.235569 
L 220.449948 108.349668 
L 221.284553 107.501289 
L 221.498308 113.053757 
L 218.263447 108.535874 
L 219.442913 108.69453 
L 218.376482 105.580431 
L 219.383518 105.235569 
" clip-path="url(#p96d648d38d)"/>
    <path d="M 236.258635 105.129514 
L 236.53712 105.228149 
L 236.455904 104.572543 
L 238.944856 106.394347 
L 235.864096 106.243457 
L 236.339851 105.78512 
L 236.061365 105.686486 
L 236.258635 105.129514 
" clip-path="url(#p96d648d38d)"/>
    <path d="M 252.970252 105.157801 
L 253.66761 103.848515 
L 252.477915 103.817865 
L 256.389147 99.870984 
L 255.296402 105.319058 
L 254.607105 104.348912 
L 253.909748 105.658199 
L 252.970252 105.157801 
" clip-path="url(#p96d648d38d)"/>
    <path d="M 270.208822 105.259814 
L 271.953621 99.240999 
L 270.783079 99.455805 
L 273.798473 94.78858 
L 273.850149 100.344921 
L 272.975978 99.537371 
L 271.231178 105.556186 
L 270.208822 105.259814 
" clip-path="url(#p96d648d38d)"/>
    <path d="M 287.482178 105.285026 
L 289.522601 96.693136 
L 288.363983 96.965011 
L 291.147187 92.15571 
L 291.470916 97.702853 
L 290.558246 96.939083 
L 288.517822 105.530974 
L 287.482178 105.285026 
" clip-path="url(#p96d648d38d)"/>
    <path d="M 304.762837 105.282284 
L 306.773195 97.012198 
L 305.613152 97.277929 
L 308.421803 92.483445 
L 308.716132 98.032226 
L 307.807521 97.263631 
L 305.797163 105.533716 
L 304.762837 105.282284 
" clip-path="url(#p96d648d38d)"/>
    <path d="M 322.052411 105.24795 
L 323.675539 100.100299 
L 322.500312 100.287788 
L 325.623578 95.69205 
L 325.545844 101.248088 
L 324.690717 100.420399 
L 323.067589 105.56805 
L 322.052411 105.24795 
" clip-path="url(#p96d648d38d)"/>
    <path d="M 339.412992 105.115189 
L 339.705804 104.688181 
L 338.558977 104.529566 
L 342.768115 101.137923 
L 341.121023 106.286434 
L 340.559819 105.273804 
L 340.267008 105.700811 
L 339.412992 105.115189 
" clip-path="url(#p96d648d38d)"/>
    <path d="M 357.353907 105.131781 
L 357.630127 105.365688 
L 357.821722 104.579342 
L 359.882194 107.747073 
L 356.418278 106.236658 
L 357.162312 105.918127 
L 356.886093 105.684219 
L 357.353907 105.131781 
" clip-path="url(#p96d648d38d)"/>
    <path d="M 115.492353 87.782726 
L 115.837628 88.075079 
L 116.07706 87.092177 
L 118.652745 91.051533 
L 114.32294 89.163823 
L 115.252921 88.765628 
L 114.907647 88.473274 
L 115.492353 87.782726 
" clip-path="url(#p96d648d38d)"/>
    <path d="M 132.982234 87.951866 
L 134.686425 92.811259 
L 135.51476 91.956758 
L 135.769395 97.507502 
L 132.501354 93.01356 
L 133.681957 93.163527 
L 131.977766 88.304134 
L 132.982234 87.951866 
" clip-path="url(#p96d648d38d)"/>
    <path d="M 150.279854 88.01392 
L 152.414153 97.739739 
L 153.339781 96.991725 
L 152.921022 102.532505 
L 150.220658 97.676206 
L 151.374446 97.9679 
L 149.240146 88.24208 
L 150.279854 88.01392 
" clip-path="url(#p96d648d38d)"/>
    <path d="M 167.563633 88.032757 
L 169.799467 100.325089 
L 170.75149 99.610971 
L 170.133019 105.133026 
L 167.609693 100.182427 
L 168.752202 100.515574 
L 166.516367 88.223243 
L 167.563633 88.032757 
" clip-path="url(#p96d648d38d)"/>
    <path d="M 184.843244 88.030644 
L 187.06602 99.977038 
L 188.015152 99.259082 
L 187.418981 104.783589 
L 184.875689 99.843218 
L 186.019533 100.17175 
L 183.796756 88.225356 
L 184.843244 88.030644 
" clip-path="url(#p96d648d38d)"/>
    <path d="M 202.117882 88.005277 
L 204.191292 96.754928 
L 205.104333 95.9916 
L 204.777916 101.538586 
L 201.997042 96.727937 
L 203.155529 97.000373 
L 201.082118 88.250723 
L 202.117882 88.005277 
" clip-path="url(#p96d648d38d)"/>
    <path d="M 219.370827 87.922205 
L 220.832968 91.409444 
L 221.608825 90.507027 
L 222.194299 96.032678 
L 218.663866 91.741799 
L 219.851315 91.821035 
L 218.389173 88.333795 
L 219.370827 87.922205 
" clip-path="url(#p96d648d38d)"/>
    <path d="M 236.283325 87.779893 
L 236.631432 87.903218 
L 236.529975 87.08368 
L 239.641068 89.36125 
L 235.790025 89.17232 
L 236.384782 88.599432 
L 236.036675 88.476107 
L 236.283325 87.779893 
" clip-path="url(#p96d648d38d)"/>
    <path d="M 253.002324 87.825176 
L 253.921921 86.496072 
L 252.743746 86.328099 
L 257.085015 82.859817 
L 255.369799 88.145045 
L 254.797272 87.101721 
L 253.877676 88.430824 
L 253.002324 87.825176 
" clip-path="url(#p96d648d38d)"/>
    <path d="M 270.220262 87.944903 
L 272.34589 82.143304 
L 271.163317 82.276848 
L 274.493503 77.828762 
L 274.161744 83.375431 
L 273.345366 82.509499 
L 271.219738 88.311097 
L 270.220262 87.944903 
" clip-path="url(#p96d648d38d)"/>
    <path d="M 287.490031 87.975703 
L 289.960412 79.703579 
L 288.788178 79.908954 
L 291.841051 75.266157 
L 291.84799 80.822735 
L 290.98035 80.008172 
L 288.509969 88.280297 
L 287.490031 87.975703 
" clip-path="url(#p96d648d38d)"/>
    <path d="M 304.771321 87.971449 
L 307.196769 80.090486 
L 306.02286 80.286062 
L 309.114408 75.668927 
L 309.074933 81.225369 
L 308.214127 80.403588 
L 305.788679 88.284551 
L 304.771321 87.971449 
" clip-path="url(#p96d648d38d)"/>
    <path d="M 322.067353 87.926603 
L 324.009856 83.17495 
L 322.823164 83.264803 
L 326.315078 78.94252 
L 325.779049 84.473187 
L 324.995151 83.577745 
L 323.052647 88.329397 
L 322.067353 87.926603 
" clip-path="url(#p96d648d38d)"/>
    <path d="M 339.470275 87.766112 
L 339.832163 87.396386 
L 338.730824 87.042335 
L 343.458883 84.430746 
L 340.949176 89.213665 
L 340.571614 88.120163 
L 340.209725 88.489888 
L 339.470275 87.766112 
" clip-path="url(#p96d648d38d)"/>
    <path d="M 357.412353 87.782726 
L 357.757628 88.075079 
L 357.99706 87.092177 
L 360.572745 91.051533 
L 356.24294 89.163823 
L 357.172921 88.765628 
L 356.827647 88.473274 
L 357.412353 87.782726 
" clip-path="url(#p96d648d38d)"/>
    <path d="M 115.543896 70.4418 
L 116.031396 70.854527 
L 116.312988 69.698232 
L 119.343297 74.355788 
L 114.249614 72.13543 
L 115.343605 71.666926 
L 114.856104 71.2542 
L 115.543896 70.4418 
" clip-path="url(#p96d648d38d)"/>
    <path d="M 132.974094 70.650177 
L 135.173989 76.144763 
L 135.964354 75.255023 
L 136.460301 80.789428 
L 132.999792 76.44196 
L 134.185802 76.540408 
L 131.985906 71.045823 
L 132.974094 70.650177 
" clip-path="url(#p96d648d38d)"/>
    <path d="M 150.27531 70.714892 
L 152.930105 80.992562 
L 153.827617 80.211035 
L 153.61277 85.763462 
L 150.735756 81.009685 
L 151.899485 81.258779 
L 149.24469 70.981108 
L 150.27531 70.714892 
" clip-path="url(#p96d648d38d)"/>
    <path d="M 167.560118 70.735131 
L 170.330227 83.500208 
L 171.257594 82.754352 
L 170.825932 88.294141 
L 168.136885 83.431567 
L 169.289991 83.725947 
L 166.519882 70.960869 
L 167.560118 70.735131 
" clip-path="url(#p96d648d38d)"/>
    <path d="M 184.839482 70.732237 
L 187.590766 83.078497 
L 188.513967 82.327489 
L 188.113153 87.869596 
L 185.397076 83.022068 
L 186.551803 83.310024 
L 183.800518 70.963763 
L 184.839482 70.732237 
" clip-path="url(#p96d648d38d)"/>
    <path d="M 202.112181 70.703317 
L 204.683222 79.804831 
L 205.5629 79.003284 
L 205.473191 84.559141 
L 202.489815 79.871384 
L 203.65886 80.094198 
L 201.087819 70.992683 
L 202.112181 70.703317 
" clip-path="url(#p96d648d38d)"/>
    <path d="M 219.357687 70.613314 
L 221.255815 74.47682 
L 221.976503 73.529761 
L 222.890303 79.010689 
L 219.110381 74.937878 
L 220.300441 74.946192 
L 218.402313 71.082686 
L 219.357687 70.613314 
" clip-path="url(#p96d648d38d)"/>
    <path d="M 236.308036 70.430272 
L 236.725764 70.578309 
L 236.604109 69.594817 
L 240.337277 72.328364 
L 235.715891 72.101183 
L 236.429691 71.413764 
L 236.011964 71.265728 
L 236.308036 70.430272 
" clip-path="url(#p96d648d38d)"/>
    <path d="M 253.038171 70.499007 
L 254.238106 69.117406 
L 253.085455 68.82125 
L 257.780867 65.849937 
L 255.496429 70.915205 
L 255.041764 69.815391 
L 253.841829 71.196993 
L 253.038171 70.499007 
" clip-path="url(#p96d648d38d)"/>
    <path d="M 270.234269 70.63045 
L 272.744823 65.025068 
L 271.555811 65.075698 
L 275.188506 60.871043 
L 274.470195 66.381 
L 273.716284 65.460169 
L 271.205731 71.06555 
L 270.234269 70.63045 
" clip-path="url(#p96d648d38d)"/>
    <path d="M 287.499829 70.66609 
L 290.397524 62.698721 
L 289.215272 62.835072 
L 292.534884 58.37909 
L 292.216299 63.926531 
L 291.397866 63.062541 
L 288.500171 71.02991 
L 287.499829 70.66609 
" clip-path="url(#p96d648d38d)"/>
    <path d="M 304.782078 70.660022 
L 307.617257 63.150109 
L 306.433435 63.272075 
L 309.806983 58.856786 
L 309.420969 64.399944 
L 308.613102 63.526065 
L 305.777922 71.035978 
L 304.782078 70.660022 
" clip-path="url(#p96d648d38d)"/>
    <path d="M 322.086618 70.604747 
L 324.343897 66.211977 
L 323.15388 66.198852 
L 327.006556 62.194793 
L 325.994171 67.658371 
L 325.29066 66.698483 
L 323.033382 71.091253 
L 322.086618 70.604747 
" clip-path="url(#p96d648d38d)"/>
    <path d="M 339.527663 70.417061 
L 339.958854 70.104542 
L 338.903242 69.555001 
L 344.149639 67.724451 
L 340.777262 72.140634 
L 340.583527 70.96642 
L 340.152337 71.278939 
L 339.527663 70.417061 
" clip-path="url(#p96d648d38d)"/>
    <path d="M 357.463896 70.4418 
L 357.951396 70.854527 
L 358.232988 69.698232 
L 361.263297 74.355788 
L 356.169614 72.13543 
L 357.263605 71.666926 
L 356.776104 71.2542 
L 357.463896 70.4418 
" clip-path="url(#p96d648d38d)"/>
    <path d="M 115.543865 53.161774 
L 116.721687 54.158786 
L 117.003191 53.00247 
L 120.033852 57.659797 
L 114.940001 55.439824 
L 116.033957 54.971237 
L 114.856135 53.974226 
L 115.543865 53.161774 
" clip-path="url(#p96d648d38d)"/>
    <path d="M 132.96629 53.351703 
L 135.690837 59.477159 
L 136.447119 58.558274 
L 137.151223 64.070065 
L 133.52938 59.856058 
L 134.718257 59.909753 
L 131.99371 53.784297 
L 132.96629 53.351703 
" clip-path="url(#p96d648d38d)"/>
    <path d="M 150.270526 53.417581 
L 153.461302 64.247182 
L 154.331935 63.435818 
L 154.304543 68.992333 
L 151.26878 64.33833 
L 152.44025 64.548019 
L 149.249474 53.718419 
L 150.270526 53.417581 
" clip-path="url(#p96d648d38d)"/>
    <path d="M 167.556281 53.438708 
L 170.871529 66.676956 
L 171.774799 65.902091 
L 171.518876 71.452776 
L 168.677113 66.677843 
L 169.838967 66.93554 
L 166.523719 53.697292 
L 167.556281 53.438708 
" clip-path="url(#p96d648d38d)"/>
    <path d="M 184.835334 53.434985 
L 188.125557 66.182194 
L 189.023212 65.40083 
L 188.807355 70.953217 
L 185.931205 66.198918 
L 187.094889 66.448223 
L 183.804666 53.701015 
L 184.835334 53.434985 
" clip-path="url(#p96d648d38d)"/>
    <path d="M 202.106001 53.402998 
L 205.189472 62.858876 
L 206.036472 62.022871 
L 206.168489 67.577884 
L 203.000467 63.012883 
L 204.177471 63.18888 
L 201.093999 53.733002 
L 202.106001 53.402998 
" clip-path="url(#p96d648d38d)"/>
    <path d="M 219.344575 53.308323 
L 221.713798 57.546977 
L 222.383271 56.563047 
L 223.586318 61.987831 
L 219.59582 58.121111 
L 220.784647 58.066331 
L 218.415425 53.827677 
L 219.344575 53.308323 
" clip-path="url(#p96d648d38d)"/>
    <path d="M 236.332773 53.080652 
L 236.820122 53.253425 
L 236.678319 52.105955 
L 241.033485 55.295731 
L 235.641681 55.030045 
L 236.474575 54.228122 
L 235.987227 54.055348 
L 236.332773 53.080652 
" clip-path="url(#p96d648d38d)"/>
    <path d="M 253.075797 53.179904 
L 254.619637 51.731111 
L 253.503135 51.319121 
L 258.476704 48.84138 
L 255.688353 53.647698 
L 255.348043 52.507303 
L 253.804203 53.956096 
L 253.075797 53.179904 
" clip-path="url(#p96d648d38d)"/>
    <path d="M 270.250703 53.316957 
L 273.154798 47.888076 
L 271.965161 47.855287 
L 275.883484 43.915446 
L 274.780943 49.361546 
L 274.093392 48.390163 
L 271.189297 53.819043 
L 270.250703 53.316957 
" clip-path="url(#p96d648d38d)"/>
    <path d="M 287.511608 53.356491 
L 290.836716 45.67853 
L 289.648424 45.743905 
L 293.228686 41.494514 
L 292.578775 47.012957 
L 291.8135 46.101548 
L 288.488392 53.779509 
L 287.511608 53.356491 
" clip-path="url(#p96d648d38d)"/>
    <path d="M 304.795207 53.348367 
L 308.038039 46.190508 
L 306.848821 46.236035 
L 310.499527 42.047008 
L 309.757577 47.553832 
L 309.007624 46.629774 
L 305.764793 53.787633 
L 304.795207 53.348367 
" clip-path="url(#p96d648d38d)"/>
    <path d="M 322.110264 53.283396 
L 324.686833 49.211862 
L 323.502756 49.092389 
L 327.698009 45.44884 
L 326.201174 50.800016 
L 325.586306 49.781071 
L 323.009736 53.852604 
L 322.110264 53.283396 
" clip-path="url(#p96d648d38d)"/>
    <path d="M 339.598287 53.09383 
L 340.331141 52.72025 
L 339.373545 52.013623 
L 344.840384 51.019001 
L 340.823824 54.858643 
L 340.814568 53.66859 
L 340.081713 54.04217 
L 339.598287 53.09383 
" clip-path="url(#p96d648d38d)"/>
    <path d="M 357.463865 53.161774 
L 358.641687 54.158786 
L 358.923191 53.00247 
L 361.953852 57.659797 
L 356.860001 55.439824 
L 357.953957 54.971237 
L 356.776135 53.974226 
L 357.463865 53.161774 
" clip-path="url(#p96d648d38d)"/>
   </g>
   <g id="matplotlib.axis_1">
    <g id="xtick_1">
     <g id="line2d_1">
      <defs>
       <path id="m400386f095" d="M 0 0 
L 0 3.5 
" style="stroke: #000000; stroke-width: 0.8"/>
      </defs>
      <g>
       <use xlink:href="#m400386f095" x="120.651709" y="307.584" style="stroke: #000000; stroke-width: 0.8"/>
      </g>
     </g>
     <g id="text_1">
      <!-- 3 -->
      <g transform="translate(113.280615 322.182437)scale(0.1 -0.1)">
       <defs>
        <path id="DejaVuSans-2212" d="M 678 2272 
L 4684 2272 
L 4684 1741 
L 678 1741 
L 678 2272 
z
" transform="scale(0.015625)"/>
        <path id="DejaVuSans-33" d="M 2597 2516 
Q 3050 2419 3304 2112 
Q 3559 1806 3559 1356 
Q 3559 666 3084 287 
Q 2609 -91 1734 -91 
Q 1441 -91 1130 -33 
Q 819 25 488 141 
L 488 750 
Q 750 597 1062 519 
Q 1375 441 1716 441 
Q 2309 441 2620 675 
Q 2931 909 2931 1356 
Q 2931 1769 2642 2001 
Q 2353 2234 1838 2234 
L 1294 2234 
L 1294 2753 
L 1863 2753 
Q 2328 2753 2575 2939 
Q 2822 3125 2822 3475 
Q 2822 3834 2567 4026 
Q 2313 4219 1838 4219 
Q 1578 4219 1281 4162 
Q 984 4106 628 3988 
L 628 4550 
Q 988 4650 1302 4700 
Q 1616 4750 1894 4750 
Q 2613 4750 3031 4423 
Q 3450 4097 3450 3541 
Q 3450 3153 3228 2886 
Q 3006 2619 2597 2516 
z
" transform="scale(0.015625)"/>
       </defs>
       <use xlink:href="#DejaVuSans-2212"/>
       <use xlink:href="#DejaVuSans-33" x="83.789062"/>
      </g>
     </g>
    </g>
    <g id="xtick_2">
     <g id="line2d_2">
      <g>
       <use xlink:href="#m400386f095" x="159.154472" y="307.584" style="stroke: #000000; stroke-width: 0.8"/>
      </g>
     </g>
     <g id="text_2">
      <!-- 2 -->
      <g transform="translate(151.783379 322.182437)scale(0.1 -0.1)">
       <defs>
        <path id="DejaVuSans-32" d="M 1228 531 
L 3431 531 
L 3431 0 
L 469 0 
L 469 531 
Q 828 903 1448 1529 
Q 2069 2156 2228 2338 
Q 2531 2678 2651 2914 
Q 2772 3150 2772 3378 
Q 2772 3750 2511 3984 
Q 2250 4219 1831 4219 
Q 1534 4219 1204 4116 
Q 875 4013 500 3803 
L 500 4441 
Q 881 4594 1212 4672 
Q 1544 4750 1819 4750 
Q 2544 4750 2975 4387 
Q 3406 4025 3406 3419 
Q 3406 3131 3298 2873 
Q 3191 2616 2906 2266 
Q 2828 2175 2409 1742 
Q 1991 1309 1228 531 
z
" transform="scale(0.015625)"/>
       </defs>
       <use xlink:href="#DejaVuSans-2212"/>
       <use xlink:href="#DejaVuSans-32" x="83.789062"/>
      </g>
     </g>
    </g>
    <g id="xtick_3">
     <g id="line2d_3">
      <g>
       <use xlink:href="#m400386f095" x="197.657236" y="307.584" style="stroke: #000000; stroke-width: 0.8"/>
      </g>
     </g>
     <g id="text_3">
      <!-- 1 -->
      <g transform="translate(190.286142 322.182437)scale(0.1 -0.1)">
       <defs>
        <path id="DejaVuSans-31" d="M 794 531 
L 1825 531 
L 1825 4091 
L 703 3866 
L 703 4441 
L 1819 4666 
L 2450 4666 
L 2450 531 
L 3481 531 
L 3481 0 
L 794 0 
L 794 531 
z
" transform="scale(0.015625)"/>
       </defs>
       <use xlink:href="#DejaVuSans-2212"/>
       <use xlink:href="#DejaVuSans-31" x="83.789062"/>
      </g>
     </g>
    </g>
    <g id="xtick_4">
     <g id="line2d_4">
      <g>
       <use xlink:href="#m400386f095" x="236.16" y="307.584" style="stroke: #000000; stroke-width: 0.8"/>
      </g>
     </g>
     <g id="text_4">
      <!-- 0 -->
      <g transform="translate(232.97875 322.182437)scale(0.1 -0.1)">
       <defs>
        <path id="DejaVuSans-30" d="M 2034 4250 
Q 1547 4250 1301 3770 
Q 1056 3291 1056 2328 
Q 1056 1369 1301 889 
Q 1547 409 2034 409 
Q 2525 409 2770 889 
Q 3016 1369 3016 2328 
Q 3016 3291 2770 3770 
Q 2525 4250 2034 4250 
z
M 2034 4750 
Q 2819 4750 3233 4129 
Q 3647 3509 3647 2328 
Q 3647 1150 3233 529 
Q 2819 -91 2034 -91 
Q 1250 -91 836 529 
Q 422 1150 422 2328 
Q 422 3509 836 4129 
Q 1250 4750 2034 4750 
z
" transform="scale(0.015625)"/>
       </defs>
       <use xlink:href="#DejaVuSans-30"/>
      </g>
     </g>
    </g>
    <g id="xtick_5">
     <g id="line2d_5">
      <g>
       <use xlink:href="#m400386f095" x="274.662764" y="307.584" style="stroke: #000000; stroke-width: 0.8"/>
      </g>
     </g>
     <g id="text_5">
      <!-- 1 -->
      <g transform="translate(271.481514 322.182437)scale(0.1 -0.1)">
       <use xlink:href="#DejaVuSans-31"/>
      </g>
     </g>
    </g>
    <g id="xtick_6">
     <g id="line2d_6">
      <g>
       <use xlink:href="#m400386f095" x="313.165528" y="307.584" style="stroke: #000000; stroke-width: 0.8"/>
      </g>
     </g>
     <g id="text_6">
      <!-- 2 -->
      <g transform="translate(309.984278 322.182437)scale(0.1 -0.1)">
       <use xlink:href="#DejaVuSans-32"/>
      </g>
     </g>
    </g>
    <g id="xtick_7">
     <g id="line2d_7">
      <g>
       <use xlink:href="#m400386f095" x="351.668291" y="307.584" style="stroke: #000000; stroke-width: 0.8"/>
      </g>
     </g>
     <g id="text_7">
      <!-- 3 -->
      <g transform="translate(348.487041 322.182437)scale(0.1 -0.1)">
       <use xlink:href="#DejaVuSans-33"/>
      </g>
     </g>
    </g>
    <g id="text_8">
     <!-- $\theta$ (rad) -->
     <g transform="translate(210.885 339.659781)scale(0.15 -0.15)">
      <defs>
       <path id="DejaVuSans-Oblique-3b8" d="M 2913 2219 
L 925 2219 
Q 791 1284 928 888 
Q 1100 400 1566 400 
Q 2034 400 2391 891 
Q 2703 1322 2913 2219 
z
M 3009 2750 
Q 3094 3638 2984 3950 
Q 2813 4444 2353 4444 
Q 1875 4444 1525 3956 
Q 1250 3563 1034 2750 
L 3009 2750 
z
M 2444 4913 
Q 3194 4913 3494 4250 
Q 3794 3591 3566 2422 
Q 3341 1256 2781 594 
Q 2225 -72 1475 -72 
Q 722 -72 425 594 
Q 128 1256 353 2422 
Q 581 3591 1134 4250 
Q 1691 4913 2444 4913 
z
" transform="scale(0.015625)"/>
       <path id="DejaVuSans-20" transform="scale(0.015625)"/>
       <path id="DejaVuSans-28" d="M 1984 4856 
Q 1566 4138 1362 3434 
Q 1159 2731 1159 2009 
Q 1159 1288 1364 580 
Q 1569 -128 1984 -844 
L 1484 -844 
Q 1016 -109 783 600 
Q 550 1309 550 2009 
Q 550 2706 781 3412 
Q 1013 4119 1484 4856 
L 1984 4856 
z
" transform="scale(0.015625)"/>
       <path id="DejaVuSans-72" d="M 2631 2963 
Q 2534 3019 2420 3045 
Q 2306 3072 2169 3072 
Q 1681 3072 1420 2755 
Q 1159 2438 1159 1844 
L 1159 0 
L 581 0 
L 581 3500 
L 1159 3500 
L 1159 2956 
Q 1341 3275 1631 3429 
Q 1922 3584 2338 3584 
Q 2397 3584 2469 3576 
Q 2541 3569 2628 3553 
L 2631 2963 
z
" transform="scale(0.015625)"/>
       <path id="DejaVuSans-61" d="M 2194 1759 
Q 1497 1759 1228 1600 
Q 959 1441 959 1056 
Q 959 750 1161 570 
Q 1363 391 1709 391 
Q 2188 391 2477 730 
Q 2766 1069 2766 1631 
L 2766 1759 
L 2194 1759 
z
M 3341 1997 
L 3341 0 
L 2766 0 
L 2766 531 
Q 2569 213 2275 61 
Q 1981 -91 1556 -91 
Q 1019 -91 701 211 
Q 384 513 384 1019 
Q 384 1609 779 1909 
Q 1175 2209 1959 2209 
L 2766 2209 
L 2766 2266 
Q 2766 2663 2505 2880 
Q 2244 3097 1772 3097 
Q 1472 3097 1187 3025 
Q 903 2953 641 2809 
L 641 3341 
Q 956 3463 1253 3523 
Q 1550 3584 1831 3584 
Q 2591 3584 2966 3190 
Q 3341 2797 3341 1997 
z
" transform="scale(0.015625)"/>
       <path id="DejaVuSans-64" d="M 2906 2969 
L 2906 4863 
L 3481 4863 
L 3481 0 
L 2906 0 
L 2906 525 
Q 2725 213 2448 61 
Q 2172 -91 1784 -91 
Q 1150 -91 751 415 
Q 353 922 353 1747 
Q 353 2572 751 3078 
Q 1150 3584 1784 3584 
Q 2172 3584 2448 3432 
Q 2725 3281 2906 2969 
z
M 947 1747 
Q 947 1113 1208 752 
Q 1469 391 1925 391 
Q 2381 391 2643 752 
Q 2906 1113 2906 1747 
Q 2906 2381 2643 2742 
Q 2381 3103 1925 3103 
Q 1469 3103 1208 2742 
Q 947 2381 947 1747 
z
" transform="scale(0.015625)"/>
       <path id="DejaVuSans-29" d="M 513 4856 
L 1013 4856 
Q 1481 4119 1714 3412 
Q 1947 2706 1947 2009 
Q 1947 1309 1714 600 
Q 1481 -109 1013 -844 
L 513 -844 
Q 928 -128 1133 580 
Q 1338 1288 1338 2009 
Q 1338 2731 1133 3434 
Q 928 4138 513 4856 
z
" transform="scale(0.015625)"/>
      </defs>
      <use xlink:href="#DejaVuSans-Oblique-3b8" transform="translate(0 0.234375)"/>
      <use xlink:href="#DejaVuSans-20" transform="translate(61.181641 0.234375)"/>
      <use xlink:href="#DejaVuSans-28" transform="translate(92.96875 0.234375)"/>
      <use xlink:href="#DejaVuSans-72" transform="translate(131.982422 0.234375)"/>
      <use xlink:href="#DejaVuSans-61" transform="translate(173.095703 0.234375)"/>
      <use xlink:href="#DejaVuSans-64" transform="translate(234.375 0.234375)"/>
      <use xlink:href="#DejaVuSans-29" transform="translate(297.851562 0.234375)"/>
     </g>
    </g>
   </g>
   <g id="matplotlib.axis_2">
    <g id="ytick_1">
     <g id="line2d_8">
      <defs>
       <path id="me43305c8a7" d="M 0 0 
L -3.5 0 
" style="stroke: #000000; stroke-width: 0.8"/>
      </defs>
      <g>
       <use xlink:href="#me43305c8a7" x="103.104" y="290.036291" style="stroke: #000000; stroke-width: 0.8"/>
      </g>
     </g>
     <g id="text_9">
      <!-- 3 -->
      <g transform="translate(81.361813 293.83551)scale(0.1 -0.1)">
       <use xlink:href="#DejaVuSans-2212"/>
       <use xlink:href="#DejaVuSans-33" x="83.789062"/>
      </g>
     </g>
    </g>
    <g id="ytick_2">
     <g id="line2d_9">
      <g>
       <use xlink:href="#me43305c8a7" x="103.104" y="251.533528" style="stroke: #000000; stroke-width: 0.8"/>
      </g>
     </g>
     <g id="text_10">
      <!-- 2 -->
      <g transform="translate(81.361813 255.332746)scale(0.1 -0.1)">
       <use xlink:href="#DejaVuSans-2212"/>
       <use xlink:href="#DejaVuSans-32" x="83.789062"/>
      </g>
     </g>
    </g>
    <g id="ytick_3">
     <g id="line2d_10">
      <g>
       <use xlink:href="#me43305c8a7" x="103.104" y="213.030764" style="stroke: #000000; stroke-width: 0.8"/>
      </g>
     </g>
     <g id="text_11">
      <!-- 1 -->
      <g transform="translate(81.361813 216.829983)scale(0.1 -0.1)">
       <use xlink:href="#DejaVuSans-2212"/>
       <use xlink:href="#DejaVuSans-31" x="83.789062"/>
      </g>
     </g>
    </g>
    <g id="ytick_4">
     <g id="line2d_11">
      <g>
       <use xlink:href="#me43305c8a7" x="103.104" y="174.528" style="stroke: #000000; stroke-width: 0.8"/>
      </g>
     </g>
     <g id="text_12">
      <!-- 0 -->
      <g transform="translate(89.7415 178.327219)scale(0.1 -0.1)">
       <use xlink:href="#DejaVuSans-30"/>
      </g>
     </g>
    </g>
    <g id="ytick_5">
     <g id="line2d_12">
      <g>
       <use xlink:href="#me43305c8a7" x="103.104" y="136.025236" style="stroke: #000000; stroke-width: 0.8"/>
      </g>
     </g>
     <g id="text_13">
      <!-- 1 -->
      <g transform="translate(89.7415 139.824455)scale(0.1 -0.1)">
       <use xlink:href="#DejaVuSans-31"/>
      </g>
     </g>
    </g>
    <g id="ytick_6">
     <g id="line2d_13">
      <g>
       <use xlink:href="#me43305c8a7" x="103.104" y="97.522472" style="stroke: #000000; stroke-width: 0.8"/>
      </g>
     </g>
     <g id="text_14">
      <!-- 2 -->
      <g transform="translate(89.7415 101.321691)scale(0.1 -0.1)">
       <use xlink:href="#DejaVuSans-32"/>
      </g>
     </g>
    </g>
    <g id="ytick_7">
     <g id="line2d_14">
      <g>
       <use xlink:href="#me43305c8a7" x="103.104" y="59.019709" style="stroke: #000000; stroke-width: 0.8"/>
      </g>
     </g>
     <g id="text_15">
      <!-- 3 -->
      <g transform="translate(89.7415 62.818927)scale(0.1 -0.1)">
       <use xlink:href="#DejaVuSans-33"/>
      </g>
     </g>
    </g>
    <g id="text_16">
     <!-- $\dot{\theta}$ (rad/s) -->
     <g transform="translate(74.242281 206.253)rotate(-90)scale(0.15 -0.15)">
      <defs>
       <path id="DejaVuSans-307" d="M -1894 4863 
L -1319 4863 
L -1319 4134 
L -1894 4134 
L -1894 4863 
z
M -1600 3584 
L -1600 3584 
z
" transform="scale(0.015625)"/>
       <path id="DejaVuSans-2f" d="M 1625 4666 
L 2156 4666 
L 531 -594 
L 0 -594 
L 1625 4666 
z
" transform="scale(0.015625)"/>
       <path id="DejaVuSans-73" d="M 2834 3397 
L 2834 2853 
Q 2591 2978 2328 3040 
Q 2066 3103 1784 3103 
Q 1356 3103 1142 2972 
Q 928 2841 928 2578 
Q 928 2378 1081 2264 
Q 1234 2150 1697 2047 
L 1894 2003 
Q 2506 1872 2764 1633 
Q 3022 1394 3022 966 
Q 3022 478 2636 193 
Q 2250 -91 1575 -91 
Q 1294 -91 989 -36 
Q 684 19 347 128 
L 347 722 
Q 666 556 975 473 
Q 1284 391 1588 391 
Q 1994 391 2212 530 
Q 2431 669 2431 922 
Q 2431 1156 2273 1281 
Q 2116 1406 1581 1522 
L 1381 1569 
Q 847 1681 609 1914 
Q 372 2147 372 2553 
Q 372 3047 722 3315 
Q 1072 3584 1716 3584 
Q 2034 3584 2315 3537 
Q 2597 3491 2834 3397 
z
" transform="scale(0.015625)"/>
      </defs>
      <use xlink:href="#DejaVuSans-307" transform="translate(62.88916 34.015625)"/>
      <use xlink:href="#DejaVuSans-Oblique-3b8" transform="translate(0 0.75)"/>
      <use xlink:href="#DejaVuSans-20" transform="translate(61.181641 0.75)"/>
      <use xlink:href="#DejaVuSans-28" transform="translate(92.96875 0.75)"/>
      <use xlink:href="#DejaVuSans-72" transform="translate(131.982422 0.75)"/>
      <use xlink:href="#DejaVuSans-61" transform="translate(173.095703 0.75)"/>
      <use xlink:href="#DejaVuSans-64" transform="translate(234.375 0.75)"/>
      <use xlink:href="#DejaVuSans-2f" transform="translate(297.851562 0.75)"/>
      <use xlink:href="#DejaVuSans-73" transform="translate(331.542969 0.75)"/>
      <use xlink:href="#DejaVuSans-29" transform="translate(383.642578 0.75)"/>
     </g>
    </g>
   </g>
   <g id="patch_3">
    <path d="M 103.104 307.584 
L 103.104 41.472 
" style="fill: none; stroke: #000000; stroke-width: 0.8; stroke-linejoin: miter; stroke-linecap: square"/>
   </g>
   <g id="patch_4">
    <path d="M 369.216 307.584 
L 369.216 41.472 
" style="fill: none; stroke: #000000; stroke-width: 0.8; stroke-linejoin: miter; stroke-linecap: square"/>
   </g>
   <g id="patch_5">
    <path d="M 103.104 307.584 
L 369.216 307.584 
" style="fill: none; stroke: #000000; stroke-width: 0.8; stroke-linejoin: miter; stroke-linecap: square"/>
   </g>
   <g id="patch_6">
    <path d="M 103.104 41.472 
L 369.216 41.472 
" style="fill: none; stroke: #000000; stroke-width: 0.8; stroke-linejoin: miter; stroke-linecap: square"/>
   </g>
  </g>
 </g>
 <defs>
  <clipPath id="p96d648d38d">
   <rect x="103.104" y="41.472" width="266.112" height="266.112"/>
  </clipPath>
 </defs>
</svg>
