<?xml version="1.0" encoding="utf-8" standalone="no"?>
<!DOCTYPE svg PUBLIC "-//W3C//DTD SVG 1.1//EN"
  "http://www.w3.org/Graphics/SVG/1.1/DTD/svg11.dtd">
<svg xmlns:xlink="http://www.w3.org/1999/xlink" width="460.8pt" height="345.6pt" viewBox="0 0 460.8 345.6" xmlns="http://www.w3.org/2000/svg" version="1.1">
 <metadata>
  <rdf:RDF xmlns:dc="http://purl.org/dc/elements/1.1/" xmlns:cc="http://creativecommons.org/ns#" xmlns:rdf="http://www.w3.org/1999/02/22-rdf-syntax-ns#">
   <cc:Work>
    <dc:type rdf:resource="http://purl.org/dc/dcmitype/StillImage"/>
    <dc:date>2023-05-18T16:34:26.748563</dc:date>
    <dc:format>image/svg+xml</dc:format>
    <dc:creator>
     <cc:Agent>
      <dc:title>Matplotlib v3.5.3, https://matplotlib.org/</dc:title>
     </cc:Agent>
    </dc:creator>
   </cc:Work>
  </rdf:RDF>
 </metadata>
 <defs>
  <style type="text/css">*{stroke-linejoin: round; stroke-linecap: butt}</style>
 </defs>
 <g id="figure_1">
  <g id="patch_1">
   <path d="M 0 345.6 
L 460.8 345.6 
L 460.8 0 
L 0 0 
z
" style="fill: #ffffff"/>
  </g>
  <g id="axes_1">
   <g id="patch_2">
    <path d="M 103.104 307.584 
L 369.216 307.584 
L 369.216 41.472 
L 103.104 41.472 
z
" style="fill: #ffffff"/>
   </g>
   <g id="Quiver_1">
    <path d="M 115.300356 296.280003 
L 115.936073 295.797091 
L 115.835717 295.005088 
L 115.099644 294.695997 
L 114.463927 295.178909 
L 114.564283 295.970912 
L 115.300356 296.280003 
L 115.936073 295.797091 
" clip-path="url(#p1f3b998910)"/>
    <path d="M 141.874789 295.472076 
L 141.890713 295.266864 
L 141.464366 295.440227 
L 142.239243 293.435885 
L 142.695634 295.535773 
L 142.301136 295.298713 
L 142.285211 295.503924 
L 141.874789 295.472076 
" clip-path="url(#p1f3b998910)"/>
    <path d="M 168.415571 295.470242 
L 168.433329 294.925813 
L 167.326713 295.434725 
L 169.137582 290.04371 
L 170.593287 295.541275 
L 169.522187 294.961329 
L 169.504429 295.505758 
L 168.415571 295.470242 
" clip-path="url(#p1f3b998910)"/>
    <path d="M 195.041966 295.466039 
L 195.119121 292.66227 
L 193.501093 293.416382 
L 196.1148 285.501925 
L 198.289296 293.548146 
L 196.715189 292.706191 
L 196.638034 295.509961 
L 195.041966 295.466039 
" clip-path="url(#p1f3b998910)"/>
    <path d="M 221.921709 295.479519 
L 221.993628 288.709826 
L 220.388565 289.491155 
L 222.868245 281.533688 
L 225.178311 289.542039 
L 223.59021 288.726787 
L 223.518291 295.496481 
L 221.921709 295.479519 
" clip-path="url(#p1f3b998910)"/>
    <path d="M 248.802474 295.523962 
L 248.35217 285.537539 
L 246.793081 286.406988 
L 248.82604 278.323846 
L 251.578234 286.191217 
L 249.947221 285.465615 
L 250.397526 295.452038 
L 248.802474 295.523962 
" clip-path="url(#p1f3b998910)"/>
    <path d="M 275.681674 295.483939 
L 275.746518 282.737109 
L 274.145806 283.527312 
L 276.581394 275.556239 
L 278.93576 283.551679 
L 277.343169 282.745231 
L 277.278326 295.492061 
L 275.681674 295.483939 
" clip-path="url(#p1f3b998910)"/>
    <path d="M 302.562855 295.444412 
L 303.395227 280.221944 
L 301.757348 280.931913 
L 304.584667 273.091226 
L 306.540219 281.193443 
L 304.989517 280.309121 
L 304.157145 295.531588 
L 302.562855 295.444412 
" clip-path="url(#p1f3b998910)"/>
    <path d="M 329.443041 295.441139 
L 330.410967 278.979833 
L 328.770187 279.68307 
L 331.629678 271.854059 
L 333.551944 279.964238 
L 332.004886 279.073556 
L 331.036959 295.534861 
L 329.443041 295.441139 
" clip-path="url(#p1f3b998910)"/>
    <path d="M 356.324258 295.4237 
L 357.685674 278.575649 
L 356.029889 279.242791 
L 359.06012 271.478269 
L 360.804343 279.628593 
L 359.277158 278.70425 
L 357.915742 295.5523 
L 356.324258 295.4237 
" clip-path="url(#p1f3b998910)"/>
    <path d="M 115.782647 268.062232 
L 115.018675 267.830529 
L 114.436028 268.376296 
L 114.617353 269.153768 
L 115.381325 269.385471 
L 115.963972 268.839704 
L 115.782647 268.062232 
L 115.018675 267.830529 
" clip-path="url(#p1f3b998910)"/>
    <path d="M 141.707887 268.560324 
L 141.755563 268.18821 
L 140.96366 268.464971 
L 142.556765 264.886867 
L 143.19634 268.751029 
L 142.49979 268.283563 
L 142.452113 268.655676 
L 141.707887 268.560324 
" clip-path="url(#p1f3b998910)"/>
    <path d="M 168.265578 268.501679 
L 168.371899 267.807258 
L 166.876735 268.289038 
L 170.023208 261.663785 
L 171.043265 268.926962 
L 169.760742 268.019899 
L 169.654422 268.714321 
L 168.265578 268.501679 
" clip-path="url(#p1f3b998910)"/>
    <path d="M 195.047877 268.508594 
L 195.562302 264.409353 
L 193.87865 265.002664 
L 197.249076 257.379651 
L 198.631388 265.599098 
L 197.146548 264.608164 
L 196.632123 268.707406 
L 195.047877 268.508594 
" clip-path="url(#p1f3b998910)"/>
    <path d="M 221.922746 268.566446 
L 222.338986 260.580571 
L 220.702924 261.294716 
L 223.51023 253.446842 
L 225.486446 261.544043 
L 223.933493 260.66368 
L 223.517254 268.649554 
L 221.922746 268.566446 
" clip-path="url(#p1f3b998910)"/>
    <path d="M 248.801749 268.619659 
L 248.643182 257.763212 
L 247.058339 258.584781 
L 249.3365 250.567295 
L 251.847844 258.514827 
L 250.239683 257.739894 
L 250.398251 268.596341 
L 248.801749 268.619659 
" clip-path="url(#p1f3b998910)"/>
    <path d="M 275.681686 268.613918 
L 275.581015 255.032693 
L 273.990304 255.842842 
L 276.326071 247.841948 
L 278.780188 255.807336 
L 277.177643 255.020857 
L 277.278314 268.602082 
L 275.681686 268.613918 
" clip-path="url(#p1f3b998910)"/>
    <path d="M 302.562083 268.582149 
L 303.076282 252.711166 
L 301.454596 253.45738 
L 304.106863 245.555762 
L 306.2421 253.612489 
L 304.672117 252.762869 
L 304.157917 268.633851 
L 302.562083 268.582149 
" clip-path="url(#p1f3b998910)"/>
    <path d="M 329.443035 268.56123 
L 330.421505 251.887886 
L 328.780806 252.591312 
L 331.639397 244.761972 
L 333.562595 252.87193 
L 332.015435 251.981426 
L 331.036965 268.65477 
L 329.443035 268.56123 
" clip-path="url(#p1f3b998910)"/>
    <path d="M 356.325744 268.527391 
L 358.025973 251.774663 
L 356.356852 252.407701 
L 359.545708 244.706968 
L 361.122388 252.891354 
L 359.614485 251.935881 
L 357.914256 268.688609 
L 356.325744 268.527391 
" clip-path="url(#p1f3b998910)"/>
    <path d="M 115.013318 241.642672 
L 115.098646 241.455991 
L 114.639955 241.472017 
L 116.053276 239.861183 
L 115.760045 241.983983 
L 115.472009 241.626646 
L 115.386682 241.813328 
L 115.013318 241.642672 
" clip-path="url(#p1f3b998910)"/>
    <path d="M 141.577047 241.577547 
L 141.7275 241.074594 
L 140.571142 241.27664 
L 143.584532 236.698473 
L 143.588858 242.17936 
L 142.733406 241.3755 
L 142.582953 241.878453 
L 141.577047 241.577547 
" clip-path="url(#p1f3b998910)"/>
    <path d="M 168.183812 241.541259 
L 168.426075 240.53429 
L 166.686958 240.936997 
L 170.882929 233.735336 
L 171.344088 242.057441 
L 169.978452 240.907772 
L 169.736188 241.914741 
L 168.183812 241.541259 
" clip-path="url(#p1f3b998910)"/>
    <path d="M 195.059785 241.558869 
L 196.062246 236.934442 
L 194.332685 237.376394 
L 198.364641 230.08164 
L 199.013974 238.391181 
L 197.622675 237.272704 
L 196.620215 241.897131 
L 195.059785 241.558869 
" clip-path="url(#p1f3b998910)"/>
    <path d="M 221.925053 241.654516 
L 222.676661 233.523702 
L 221.013283 234.17168 
L 224.132968 226.442666 
L 225.782964 234.612587 
L 224.266555 233.670671 
L 223.514947 241.801484 
L 221.925053 241.654516 
" clip-path="url(#p1f3b998910)"/>
    <path d="M 248.802306 241.695996 
L 249.267935 230.090311 
L 247.640543 230.823996 
L 250.353667 222.943066 
L 252.426708 231.016021 
L 250.863324 230.154319 
L 250.397694 241.760004 
L 248.802306 241.695996 
" clip-path="url(#p1f3b998910)"/>
    <path d="M 275.68208 241.70222 
L 276.13604 227.651477 
L 274.514421 228.397837 
L 277.165976 220.49598 
L 279.301939 228.552515 
L 277.731879 227.703036 
L 277.27792 241.75378 
L 275.68208 241.70222 
" clip-path="url(#p1f3b998910)"/>
    <path d="M 302.562736 241.68665 
L 303.37228 226.077895 
L 301.736401 226.792459 
L 304.541694 218.943865 
L 306.519988 227.040559 
L 304.966809 226.160594 
L 304.157264 241.76935 
L 302.562736 241.68665 
" clip-path="url(#p1f3b998910)"/>
    <path d="M 329.442934 241.682987 
L 330.381802 225.058153 
L 328.742657 225.765192 
L 331.583988 217.929572 
L 333.525053 226.035272 
L 331.975934 225.148179 
L 331.037066 241.773013 
L 329.442934 241.682987 
" clip-path="url(#p1f3b998910)"/>
    <path d="M 356.324513 241.660619 
L 357.714806 225.247172 
L 356.05645 225.907897 
L 359.116726 218.155168 
L 360.829374 226.312185 
L 359.30578 225.381935 
L 357.915487 241.795381 
L 356.324513 241.660619 
" clip-path="url(#p1f3b998910)"/>
    <path d="M 114.958904 214.53345 
L 115.273454 214.292354 
L 114.476711 213.904351 
L 118.345498 212.437037 
L 115.923289 215.791649 
L 115.755646 214.921454 
L 115.441096 215.16255 
L 114.958904 214.53345 
" clip-path="url(#p1f3b998910)"/>
    <path d="M 141.52012 214.690675 
L 141.677445 214.130795 
L 140.40036 214.376024 
L 143.653253 209.249201 
L 143.75964 215.319976 
L 142.797205 214.445445 
L 142.63988 215.005325 
L 141.52012 214.690675 
" clip-path="url(#p1f3b998910)"/>
    <path d="M 168.179628 214.679597 
L 168.565801 212.890091 
L 166.836653 213.333656 
L 170.861802 206.035144 
L 171.518886 214.344076 
L 170.126545 213.226897 
L 169.740372 215.016403 
L 168.179628 214.679597 
" clip-path="url(#p1f3b998910)"/>
    <path d="M 195.053568 214.710653 
L 195.955154 209.548289 
L 194.244942 210.060027 
L 197.977713 202.607744 
L 198.963537 210.884111 
L 197.528019 209.822984 
L 196.626432 214.985347 
L 195.053568 214.710653 
" clip-path="url(#p1f3b998910)"/>
    <path d="M 221.927188 214.754247 
L 222.932784 206.250541 
L 221.253407 206.855846 
L 224.569374 199.208987 
L 226.010279 207.418365 
L 224.518408 206.438047 
L 223.512812 214.941753 
L 221.927188 214.754247 
" clip-path="url(#p1f3b998910)"/>
    <path d="M 248.802576 214.80985 
L 249.354025 203.283202 
L 247.721028 204.004326 
L 250.494797 196.144536 
L 252.505572 204.233225 
L 250.948873 203.359501 
L 250.397424 214.88615 
L 248.802576 214.80985 
" clip-path="url(#p1f3b998910)"/>
    <path d="M 275.684846 214.776789 
L 276.905047 201.151853 
L 275.243529 201.804584 
L 278.341101 194.066681 
L 280.014451 202.231851 
L 278.495354 201.294275 
L 277.275154 214.919211 
L 275.684846 214.776789 
" clip-path="url(#p1f3b998910)"/>
    <path d="M 302.564774 214.777597 
L 303.884663 199.868934 
L 302.223809 200.523355 
L 305.313512 192.782306 
L 306.995163 200.94577 
L 305.475114 200.009739 
L 304.155226 214.918403 
L 302.564774 214.777597 
" clip-path="url(#p1f3b998910)"/>
    <path d="M 329.443227 214.798067 
L 330.428314 199.079189 
L 328.784835 199.776096 
L 331.674483 191.958166 
L 333.565472 200.075694 
L 332.021859 199.179055 
L 331.036773 214.897933 
L 329.443227 214.798067 
" clip-path="url(#p1f3b998910)"/>
    <path d="M 356.323268 214.797412 
L 357.323565 199.043482 
L 355.679513 199.739036 
L 358.575593 191.923486 
L 360.459902 200.042567 
L 358.917028 199.144659 
L 357.916732 214.898588 
L 356.323268 214.797412 
" clip-path="url(#p1f3b998910)"/>
    <path d="M 114.953504 187.475111 
L 115.446393 187.228615 
L 114.460512 186.489333 
L 120.128888 185.503039 
L 115.939488 189.446667 
L 115.939385 188.214393 
L 115.446496 188.460889 
L 114.953504 187.475111 
" clip-path="url(#p1f3b998910)"/>
    <path d="M 141.523249 187.783263 
L 141.707986 187.226511 
L 140.409746 187.413788 
L 143.927374 182.400486 
L 143.750254 188.522212 
L 142.821489 187.595986 
L 142.636751 188.152737 
L 141.523249 187.783263 
" clip-path="url(#p1f3b998910)"/>
    <path d="M 168.179931 187.798199 
L 168.651683 185.630954 
L 166.921744 186.071422 
L 170.959957 178.78013 
L 171.60216 187.090225 
L 170.211822 185.970555 
L 169.740069 188.137801 
L 168.179931 187.798199 
" clip-path="url(#p1f3b998910)"/>
    <path d="M 195.054304 187.826502 
L 196.028722 182.415844 
L 194.315831 182.918545 
L 198.087899 175.486075 
L 199.030009 183.767532 
L 197.600115 182.69884 
L 196.625696 188.109498 
L 195.054304 187.826502 
" clip-path="url(#p1f3b998910)"/>
    <path d="M 221.928309 187.865211 
L 222.961916 179.904287 
L 221.275744 180.4904 
L 224.67871 172.881857 
L 226.025891 181.107135 
L 224.545298 180.109866 
L 223.511691 188.070789 
L 221.928309 187.865211 
" clip-path="url(#p1f3b998910)"/>
    <path d="M 248.802275 187.936782 
L 249.203234 177.691048 
L 247.576565 178.426336 
L 250.281925 170.542738 
L 252.362917 178.613647 
L 250.798685 177.753485 
L 250.397725 187.999218 
L 248.802275 187.936782 
" clip-path="url(#p1f3b998910)"/>
    <path d="M 275.68301 187.921666 
L 276.411038 175.39886 
L 274.770724 176.103183 
L 277.625035 168.272282 
L 279.552666 176.381187 
L 278.005019 175.491528 
L 277.27699 188.014334 
L 275.68301 187.921666 
" clip-path="url(#p1f3b998910)"/>
    <path d="M 302.565576 187.889064 
L 303.951694 173.93904 
L 302.283909 174.575591 
L 305.456546 166.868161 
L 307.050453 175.04921 
L 305.540542 174.096913 
L 304.154424 188.046936 
L 302.565576 187.889064 
" clip-path="url(#p1f3b998910)"/>
    <path d="M 329.444013 187.906809 
L 330.596085 172.920394 
L 328.942919 173.594 
L 331.942792 165.817698 
L 333.718843 173.961146 
L 332.188059 173.042776 
L 331.035987 188.029191 
L 329.444013 187.906809 
" clip-path="url(#p1f3b998910)"/>
    <path d="M 356.321772 187.954886 
L 356.581648 172.136925 
L 354.972077 172.908925 
L 357.497904 164.965985 
L 359.761447 172.98761 
L 358.178104 172.163154 
L 357.918228 187.981114 
L 356.321772 187.954886 
" clip-path="url(#p1f3b998910)"/>
    <path d="M 114.942174 160.409397 
L 115.620777 160.151572 
L 114.426523 159.052192 
L 121.986027 158.509745 
L 115.973477 163.123808 
L 116.136428 161.508777 
L 115.457826 161.766603 
L 114.942174 160.409397 
" clip-path="url(#p1f3b998910)"/>
    <path d="M 141.519461 160.69426 
L 141.913201 160.133721 
L 140.398383 159.906779 
L 146.017402 155.482608 
L 143.761617 162.269221 
L 143.034279 160.921201 
L 142.640539 161.48174 
L 141.519461 160.69426 
" clip-path="url(#p1f3b998910)"/>
    <path d="M 168.185699 160.893583 
L 168.62471 159.145135 
L 166.881691 159.530603 
L 171.148761 152.370839 
L 171.527499 160.697102 
L 170.173313 159.533968 
L 169.734301 161.282417 
L 168.185699 160.893583 
" clip-path="url(#p1f3b998910)"/>
    <path d="M 195.055118 160.942053 
L 195.910253 156.343253 
L 194.194542 156.836241 
L 198.008657 149.425261 
L 198.903835 157.711922 
L 197.480017 156.635147 
L 196.624882 161.233947 
L 195.055118 160.942053 
" clip-path="url(#p1f3b998910)"/>
    <path d="M 221.928552 160.983356 
L 222.842294 154.072471 
L 221.154754 154.654632 
L 224.575534 147.054081 
L 225.903443 155.282493 
L 224.42519 154.281758 
L 223.511448 161.192644 
L 221.928552 160.983356 
" clip-path="url(#p1f3b998910)"/>
    <path d="M 248.805289 161.01201 
L 249.656395 152.111011 
L 247.990983 152.753743 
L 251.135014 145.0346 
L 252.759251 153.209681 
L 251.245818 152.262991 
L 250.394711 161.16399 
L 248.805289 161.01201 
" clip-path="url(#p1f3b998910)"/>
    <path d="M 275.684131 161.025282 
L 276.555892 149.963032 
L 274.901437 150.633464 
L 277.916227 142.862933 
L 279.676648 151.009774 
L 278.147629 150.088469 
L 277.275869 161.150718 
L 275.684131 161.025282 
" clip-path="url(#p1f3b998910)"/>
    <path d="M 302.567151 160.994564 
L 304.103868 147.95482 
L 302.424733 148.560797 
L 305.737644 140.912613 
L 307.181829 149.121415 
L 305.689567 148.141693 
L 304.152849 161.181436 
L 302.567151 160.994564 
" clip-path="url(#p1f3b998910)"/>
    <path d="M 329.446725 160.998254 
L 331.124568 146.167644 
L 329.44827 146.781427 
L 332.725559 139.117911 
L 334.207923 147.319904 
L 332.711118 146.347136 
L 331.033275 161.177746 
L 329.446725 160.998254 
" clip-path="url(#p1f3b998910)"/>
    <path d="M 356.3218 161.073255 
L 356.616218 145.135477 
L 355.005073 145.904186 
L 357.547124 137.966423 
L 359.794272 145.992657 
L 358.212618 145.164967 
L 357.9182 161.102745 
L 356.3218 161.073255 
" clip-path="url(#p1f3b998910)"/>
    <path d="M 114.999116 133.435351 
L 115.901261 133.2008 
L 114.726845 131.856386 
L 123.055984 132.165497 
L 115.932146 136.492278 
L 116.303028 134.746097 
L 115.400884 134.980649 
L 114.999116 133.435351 
" clip-path="url(#p1f3b998910)"/>
    <path d="M 141.592531 133.624839 
L 142.175691 133.13737 
L 140.617592 132.458518 
L 147.911606 129.333307 
L 143.542408 135.957482 
L 143.15063 134.303691 
L 142.567469 134.791161 
L 141.592531 133.624839 
" clip-path="url(#p1f3b998910)"/>
    <path d="M 168.237433 133.868534 
L 168.937976 132.3774 
L 167.153375 132.421035 
L 172.715735 126.213761 
L 171.488778 134.45783 
L 170.38311 133.056331 
L 169.682567 134.547466 
L 168.237433 133.868534 
" clip-path="url(#p1f3b998910)"/>
    <path d="M 195.059057 134.042263 
L 195.837828 130.37274 
L 194.110206 130.822209 
L 198.110403 123.509992 
L 198.795862 131.81663 
L 197.399714 130.704214 
L 196.620943 134.373737 
L 195.059057 134.042263 
" clip-path="url(#p1f3b998910)"/>
    <path d="M 221.930172 134.091759 
L 222.792723 128.230961 
L 221.096826 128.788307 
L 224.628724 121.238751 
L 225.835794 129.485755 
L 224.37238 128.463444 
L 223.509828 134.324241 
L 221.930172 134.091759 
" clip-path="url(#p1f3b998910)"/>
    <path d="M 248.812548 134.076625 
L 250.136365 126.141738 
L 248.430085 126.666441 
L 252.106188 119.186042 
L 253.154799 127.454689 
L 251.711269 126.404487 
L 250.387452 134.339375 
L 248.812548 134.076625 
" clip-path="url(#p1f3b998910)"/>
    <path d="M 275.690278 134.09104 
L 277.237443 123.644454 
L 275.54104 124.200256 
L 279.079804 116.653916 
L 280.279372 124.902015 
L 278.816887 123.878373 
L 277.269722 134.32496 
L 275.690278 134.09104 
" clip-path="url(#p1f3b998910)"/>
    <path d="M 302.568818 134.101365 
L 304.249575 121.630934 
L 302.560575 122.208846 
L 306.000472 114.616929 
L 307.307669 122.848657 
L 305.831939 121.844204 
L 304.151182 134.314635 
L 302.568818 134.101365 
" clip-path="url(#p1f3b998910)"/>
    <path d="M 329.446196 134.123057 
L 330.982558 119.765615 
L 329.310006 120.389532 
L 332.540853 112.706321 
L 334.072831 120.899192 
L 332.570166 119.935501 
L 331.033804 134.292943 
L 329.446196 134.123057 
" clip-path="url(#p1f3b998910)"/>
    <path d="M 356.324496 134.14082 
L 357.644011 118.515984 
L 355.985822 119.177128 
L 359.044138 111.423625 
L 360.758849 119.580209 
L 359.23502 118.650345 
L 357.915504 134.27518 
L 356.324496 134.14082 
" clip-path="url(#p1f3b998910)"/>
    <path d="M 115.114336 106.534273 
L 116.231382 106.413715 
L 115.266327 104.911925 
L 123.460586 106.436464 
L 115.780311 109.674285 
L 116.40271 108.001168 
L 115.285664 108.121727 
L 115.114336 106.534273 
" clip-path="url(#p1f3b998910)"/>
    <path d="M 141.698858 106.626522 
L 142.92187 105.962008 
L 141.458108 104.940195 
L 149.616311 103.233204 
L 143.744962 109.149061 
L 143.684155 107.364963 
L 142.461142 108.029478 
L 141.698858 106.626522 
" clip-path="url(#p1f3b998910)"/>
    <path d="M 168.318576 106.852694 
L 169.311135 105.513242 
L 167.552981 105.204052 
L 174.230316 100.215736 
L 171.401522 108.055891 
L 170.593982 106.463855 
L 169.601424 107.803306 
L 168.318576 106.852694 
" clip-path="url(#p1f3b998910)"/>
    <path d="M 195.089399 107.056082 
L 196.163255 104.091816 
L 194.390136 104.298581 
L 199.361114 97.608329 
L 198.893739 105.930087 
L 197.664456 104.635651 
L 196.590601 107.599918 
L 195.089399 107.056082 
" clip-path="url(#p1f3b998910)"/>
    <path d="M 221.952598 107.107922 
L 223.481166 101.777865 
L 221.726284 102.105112 
L 226.229268 95.091323 
L 226.330697 103.425578 
L 225.015971 102.218021 
L 223.487402 107.548078 
L 221.952598 107.107922 
" clip-path="url(#p1f3b998910)"/>
    <path d="M 248.827042 107.12831 
L 250.900956 99.100631 
L 249.15535 99.474208 
L 253.471126 92.343698 
L 253.793098 100.672349 
L 252.446872 99.500011 
L 250.372958 107.52769 
L 248.827042 107.12831 
" clip-path="url(#p1f3b998910)"/>
    <path d="M 275.702 107.148958 
L 278.10773 96.695195 
L 276.372688 97.115112 
L 280.497105 89.872234 
L 281.04069 98.189362 
L 279.663731 97.053278 
L 277.258 107.507042 
L 275.702 107.148958 
" clip-path="url(#p1f3b998910)"/>
    <path d="M 302.573794 107.189363 
L 304.775992 94.700806 
L 303.064942 95.209738 
L 306.809935 87.763589 
L 307.782179 96.041562 
L 306.348404 94.978081 
L 304.146206 107.466637 
L 302.573794 107.189363 
" clip-path="url(#p1f3b998910)"/>
    <path d="M 329.451235 107.204753 
L 331.610166 93.387848 
L 329.909388 93.93012 
L 333.508152 86.412208 
L 334.64198 94.6696 
L 333.187696 93.634342 
L 331.028765 107.451247 
L 329.451235 107.204753 
" clip-path="url(#p1f3b998910)"/>
    <path d="M 356.33148 107.203191 
L 358.661581 92.482052 
L 356.959733 93.020953 
L 360.573381 85.510185 
L 361.69085 93.769807 
L 360.23862 92.73167 
L 357.90852 107.452809 
L 356.33148 107.203191 
" clip-path="url(#p1f3b998910)"/>
    <path d="M 115.221491 79.743968 
L 115.925523 79.765459 
L 115.264472 78.335904 
L 122.240319 80.662906 
L 115.135528 82.560096 
L 115.882541 81.173523 
L 115.178509 81.152032 
L 115.221491 79.743968 
" clip-path="url(#p1f3b998910)"/>
    <path d="M 141.769934 79.753065 
L 142.464869 79.442999 
L 141.149803 78.363194 
L 149.029352 77.347343 
L 143.010197 82.532806 
L 143.085001 80.832869 
L 142.390066 81.142935 
L 141.769934 79.753065 
" clip-path="url(#p1f3b998910)"/>
    <path d="M 168.381164 79.898191 
L 169.102598 79.13867 
L 167.395118 78.617888 
L 174.629712 74.478958 
L 170.868132 81.91674 
L 170.260269 80.238287 
L 169.538836 80.997809 
L 168.381164 79.898191 
" clip-path="url(#p1f3b998910)"/>
    <path d="M 195.110739 80.123163 
L 196.32983 77.386299 
L 194.546472 77.465885 
L 199.982626 71.14779 
L 198.922036 79.414909 
L 197.788352 78.035974 
L 196.569261 80.772837 
L 195.110739 80.123163 
" clip-path="url(#p1f3b998910)"/>
    <path d="M 221.958784 80.207395 
L 223.772912 74.467925 
L 222.009876 74.747932 
L 226.69957 67.857586 
L 226.577171 76.19156 
L 225.295344 74.949135 
L 223.481216 80.688605 
L 221.958784 80.207395 
" clip-path="url(#p1f3b998910)"/>
    <path d="M 248.833916 80.223375 
L 251.288869 71.850741 
L 249.532077 72.167575 
L 254.076573 65.180612 
L 254.128579 73.515322 
L 252.821036 72.29999 
L 250.366084 80.672625 
L 248.833916 80.223375 
" clip-path="url(#p1f3b998910)"/>
    <path d="M 275.711042 80.233422 
L 278.691286 69.55349 
L 276.938792 69.893291 
L 281.39145 62.847446 
L 281.55254 71.180761 
L 280.229202 69.982647 
L 277.248958 80.662578 
L 275.711042 80.233422 
" clip-path="url(#p1f3b998910)"/>
    <path d="M 302.583977 80.260574 
L 305.61439 67.71338 
L 303.874917 68.114551 
L 308.077247 60.916598 
L 308.531056 69.239107 
L 307.166436 68.088232 
L 304.136023 80.635426 
L 302.583977 80.260574 
" clip-path="url(#p1f3b998910)"/>
    <path d="M 329.458177 80.286465 
L 332.347405 66.302757 
L 330.622224 66.761509 
L 334.583046 59.427888 
L 335.31316 67.730721 
L 333.91105 66.625828 
L 331.021823 80.609535 
L 329.458177 80.286465 
" clip-path="url(#p1f3b998910)"/>
    <path d="M 356.337158 80.291479 
L 359.243938 65.753217 
L 357.521733 66.223016 
L 361.435472 58.864161 
L 362.218784 67.162144 
L 360.809622 66.06626 
L 357.902842 80.604521 
L 356.337158 80.291479 
" clip-path="url(#p1f3b998910)"/>
    <path d="M 115.317746 52.908346 
L 115.9774 53.026092 
L 115.553239 51.589038 
L 121.79654 54.745464 
L 114.846761 55.546962 
L 115.741908 54.3454 
L 115.082254 54.227654 
L 115.317746 52.908346 
" clip-path="url(#p1f3b998910)"/>
    <path d="M 141.859446 52.855968 
L 142.571478 52.635414 
L 141.418339 51.431905 
L 149.200318 51.362463 
L 142.741661 55.704095 
L 143.012586 54.059478 
L 142.300554 54.280032 
L 141.859446 52.855968 
" clip-path="url(#p1f3b998910)"/>
    <path d="M 168.419336 52.980614 
L 169.411104 52.067734 
L 167.742389 51.433625 
L 175.238246 47.789144 
L 170.986374 54.957943 
L 170.492432 53.242507 
L 169.500664 54.155386 
L 168.419336 52.980614 
" clip-path="url(#p1f3b998910)"/>
    <path d="M 195.140864 53.18258 
L 196.874025 50.038695 
L 195.090332 49.966991 
L 201.041942 44.131887 
L 199.285151 52.279512 
L 198.272298 50.809535 
L 196.539136 53.95342 
L 195.140864 53.18258 
" clip-path="url(#p1f3b998910)"/>
    <path d="M 221.959195 53.3261 
L 223.858765 47.351725 
L 222.095254 47.62873 
L 226.796674 40.746379 
L 226.660086 49.080132 
L 225.380376 47.835526 
L 223.480805 53.8099 
L 221.959195 53.3261 
" clip-path="url(#p1f3b998910)"/>
    <path d="M 248.831541 53.351643 
L 251.259475 44.728095 
L 249.506199 45.06384 
L 253.975152 38.028318 
L 254.116955 46.361985 
L 252.796394 45.16081 
L 250.368459 53.784357 
L 248.831541 53.351643 
" clip-path="url(#p1f3b998910)"/>
    <path d="M 275.712975 53.346609 
L 278.902804 42.295203 
L 277.147365 42.619446 
L 281.662344 35.613373 
L 281.749512 43.947789 
L 280.436853 42.737984 
L 277.247025 53.789391 
L 275.712975 53.346609 
" clip-path="url(#p1f3b998910)"/>
    <path d="M 302.593304 53.345474 
L 306.402375 40.221633 
L 304.646457 40.543277 
L 309.171807 33.543897 
L 309.246632 41.878434 
L 307.935767 40.666686 
L 304.126696 53.790526 
L 302.593304 53.345474 
" clip-path="url(#p1f3b998910)"/>
    <path d="M 329.463033 53.384527 
L 332.845274 39.061516 
L 331.107867 39.471537 
L 335.273501 32.252285 
L 335.769669 40.572377 
L 334.399209 39.428463 
L 331.016967 53.751473 
L 329.463033 53.384527 
" clip-path="url(#p1f3b998910)"/>
    <path d="M 356.340223 53.396863 
L 359.523558 38.892174 
L 357.792867 39.329677 
L 361.843571 32.045317 
L 362.47153 40.356501 
L 361.083113 39.234449 
L 357.899777 53.739137 
L 356.340223 53.396863 
" clip-path="url(#p1f3b998910)"/>
   </g>
   <g id="matplotlib.axis_1">
    <g id="xtick_1">
     <g id="line2d_1">
      <defs>
       <path id="m8713d766aa" d="M 0 0 
L 0 3.5 
" style="stroke: #000000; stroke-width: 0.8"/>
      </defs>
      <g>
       <use xlink:href="#m8713d766aa" x="115.2" y="307.584" style="stroke: #000000; stroke-width: 0.8"/>
      </g>
     </g>
     <g id="text_1">
      <!-- 0.00 -->
      <g transform="translate(104.067188 322.182437)scale(0.1 -0.1)">
       <defs>
        <path id="DejaVuSans-30" d="M 2034 4250 
Q 1547 4250 1301 3770 
Q 1056 3291 1056 2328 
Q 1056 1369 1301 889 
Q 1547 409 2034 409 
Q 2525 409 2770 889 
Q 3016 1369 3016 2328 
Q 3016 3291 2770 3770 
Q 2525 4250 2034 4250 
z
M 2034 4750 
Q 2819 4750 3233 4129 
Q 3647 3509 3647 2328 
Q 3647 1150 3233 529 
Q 2819 -91 2034 -91 
Q 1250 -91 836 529 
Q 422 1150 422 2328 
Q 422 3509 836 4129 
Q 1250 4750 2034 4750 
z
" transform="scale(0.015625)"/>
        <path id="DejaVuSans-2e" d="M 684 794 
L 1344 794 
L 1344 0 
L 684 0 
L 684 794 
z
" transform="scale(0.015625)"/>
       </defs>
       <use xlink:href="#DejaVuSans-30"/>
       <use xlink:href="#DejaVuSans-2e" x="63.623047"/>
       <use xlink:href="#DejaVuSans-30" x="95.410156"/>
       <use xlink:href="#DejaVuSans-30" x="159.033203"/>
      </g>
     </g>
    </g>
    <g id="xtick_2">
     <g id="line2d_2">
      <g>
       <use xlink:href="#m8713d766aa" x="153.702764" y="307.584" style="stroke: #000000; stroke-width: 0.8"/>
      </g>
     </g>
     <g id="text_2">
      <!-- 0.25 -->
      <g transform="translate(142.569951 322.182437)scale(0.1 -0.1)">
       <defs>
        <path id="DejaVuSans-32" d="M 1228 531 
L 3431 531 
L 3431 0 
L 469 0 
L 469 531 
Q 828 903 1448 1529 
Q 2069 2156 2228 2338 
Q 2531 2678 2651 2914 
Q 2772 3150 2772 3378 
Q 2772 3750 2511 3984 
Q 2250 4219 1831 4219 
Q 1534 4219 1204 4116 
Q 875 4013 500 3803 
L 500 4441 
Q 881 4594 1212 4672 
Q 1544 4750 1819 4750 
Q 2544 4750 2975 4387 
Q 3406 4025 3406 3419 
Q 3406 3131 3298 2873 
Q 3191 2616 2906 2266 
Q 2828 2175 2409 1742 
Q 1991 1309 1228 531 
z
" transform="scale(0.015625)"/>
        <path id="DejaVuSans-35" d="M 691 4666 
L 3169 4666 
L 3169 4134 
L 1269 4134 
L 1269 2991 
Q 1406 3038 1543 3061 
Q 1681 3084 1819 3084 
Q 2600 3084 3056 2656 
Q 3513 2228 3513 1497 
Q 3513 744 3044 326 
Q 2575 -91 1722 -91 
Q 1428 -91 1123 -41 
Q 819 9 494 109 
L 494 744 
Q 775 591 1075 516 
Q 1375 441 1709 441 
Q 2250 441 2565 725 
Q 2881 1009 2881 1497 
Q 2881 1984 2565 2268 
Q 2250 2553 1709 2553 
Q 1456 2553 1204 2497 
Q 953 2441 691 2322 
L 691 4666 
z
" transform="scale(0.015625)"/>
       </defs>
       <use xlink:href="#DejaVuSans-30"/>
       <use xlink:href="#DejaVuSans-2e" x="63.623047"/>
       <use xlink:href="#DejaVuSans-32" x="95.410156"/>
       <use xlink:href="#DejaVuSans-35" x="159.033203"/>
      </g>
     </g>
    </g>
    <g id="xtick_3">
     <g id="line2d_3">
      <g>
       <use xlink:href="#m8713d766aa" x="192.205528" y="307.584" style="stroke: #000000; stroke-width: 0.8"/>
      </g>
     </g>
     <g id="text_3">
      <!-- 0.50 -->
      <g transform="translate(181.072715 322.182437)scale(0.1 -0.1)">
       <use xlink:href="#DejaVuSans-30"/>
       <use xlink:href="#DejaVuSans-2e" x="63.623047"/>
       <use xlink:href="#DejaVuSans-35" x="95.410156"/>
       <use xlink:href="#DejaVuSans-30" x="159.033203"/>
      </g>
     </g>
    </g>
    <g id="xtick_4">
     <g id="line2d_4">
      <g>
       <use xlink:href="#m8713d766aa" x="230.708291" y="307.584" style="stroke: #000000; stroke-width: 0.8"/>
      </g>
     </g>
     <g id="text_4">
      <!-- 0.75 -->
      <g transform="translate(219.575479 322.182437)scale(0.1 -0.1)">
       <defs>
        <path id="DejaVuSans-37" d="M 525 4666 
L 3525 4666 
L 3525 4397 
L 1831 0 
L 1172 0 
L 2766 4134 
L 525 4134 
L 525 4666 
z
" transform="scale(0.015625)"/>
       </defs>
       <use xlink:href="#DejaVuSans-30"/>
       <use xlink:href="#DejaVuSans-2e" x="63.623047"/>
       <use xlink:href="#DejaVuSans-37" x="95.410156"/>
       <use xlink:href="#DejaVuSans-35" x="159.033203"/>
      </g>
     </g>
    </g>
    <g id="xtick_5">
     <g id="line2d_5">
      <g>
       <use xlink:href="#m8713d766aa" x="269.211055" y="307.584" style="stroke: #000000; stroke-width: 0.8"/>
      </g>
     </g>
     <g id="text_5">
      <!-- 1.00 -->
      <g transform="translate(258.078243 322.182437)scale(0.1 -0.1)">
       <defs>
        <path id="DejaVuSans-31" d="M 794 531 
L 1825 531 
L 1825 4091 
L 703 3866 
L 703 4441 
L 1819 4666 
L 2450 4666 
L 2450 531 
L 3481 531 
L 3481 0 
L 794 0 
L 794 531 
z
" transform="scale(0.015625)"/>
       </defs>
       <use xlink:href="#DejaVuSans-31"/>
       <use xlink:href="#DejaVuSans-2e" x="63.623047"/>
       <use xlink:href="#DejaVuSans-30" x="95.410156"/>
       <use xlink:href="#DejaVuSans-30" x="159.033203"/>
      </g>
     </g>
    </g>
    <g id="xtick_6">
     <g id="line2d_6">
      <g>
       <use xlink:href="#m8713d766aa" x="307.713819" y="307.584" style="stroke: #000000; stroke-width: 0.8"/>
      </g>
     </g>
     <g id="text_6">
      <!-- 1.25 -->
      <g transform="translate(296.581007 322.182437)scale(0.1 -0.1)">
       <use xlink:href="#DejaVuSans-31"/>
       <use xlink:href="#DejaVuSans-2e" x="63.623047"/>
       <use xlink:href="#DejaVuSans-32" x="95.410156"/>
       <use xlink:href="#DejaVuSans-35" x="159.033203"/>
      </g>
     </g>
    </g>
    <g id="xtick_7">
     <g id="line2d_7">
      <g>
       <use xlink:href="#m8713d766aa" x="346.216583" y="307.584" style="stroke: #000000; stroke-width: 0.8"/>
      </g>
     </g>
     <g id="text_7">
      <!-- 1.50 -->
      <g transform="translate(335.08377 322.182437)scale(0.1 -0.1)">
       <use xlink:href="#DejaVuSans-31"/>
       <use xlink:href="#DejaVuSans-2e" x="63.623047"/>
       <use xlink:href="#DejaVuSans-35" x="95.410156"/>
       <use xlink:href="#DejaVuSans-30" x="159.033203"/>
      </g>
     </g>
    </g>
    <g id="text_8">
     <!-- $\theta$ (rad) -->
     <g transform="translate(210.885 339.659781)scale(0.15 -0.15)">
      <defs>
       <path id="DejaVuSans-Oblique-3b8" d="M 2913 2219 
L 925 2219 
Q 791 1284 928 888 
Q 1100 400 1566 400 
Q 2034 400 2391 891 
Q 2703 1322 2913 2219 
z
M 3009 2750 
Q 3094 3638 2984 3950 
Q 2813 4444 2353 4444 
Q 1875 4444 1525 3956 
Q 1250 3563 1034 2750 
L 3009 2750 
z
M 2444 4913 
Q 3194 4913 3494 4250 
Q 3794 3591 3566 2422 
Q 3341 1256 2781 594 
Q 2225 -72 1475 -72 
Q 722 -72 425 594 
Q 128 1256 353 2422 
Q 581 3591 1134 4250 
Q 1691 4913 2444 4913 
z
" transform="scale(0.015625)"/>
       <path id="DejaVuSans-20" transform="scale(0.015625)"/>
       <path id="DejaVuSans-28" d="M 1984 4856 
Q 1566 4138 1362 3434 
Q 1159 2731 1159 2009 
Q 1159 1288 1364 580 
Q 1569 -128 1984 -844 
L 1484 -844 
Q 1016 -109 783 600 
Q 550 1309 550 2009 
Q 550 2706 781 3412 
Q 1013 4119 1484 4856 
L 1984 4856 
z
" transform="scale(0.015625)"/>
       <path id="DejaVuSans-72" d="M 2631 2963 
Q 2534 3019 2420 3045 
Q 2306 3072 2169 3072 
Q 1681 3072 1420 2755 
Q 1159 2438 1159 1844 
L 1159 0 
L 581 0 
L 581 3500 
L 1159 3500 
L 1159 2956 
Q 1341 3275 1631 3429 
Q 1922 3584 2338 3584 
Q 2397 3584 2469 3576 
Q 2541 3569 2628 3553 
L 2631 2963 
z
" transform="scale(0.015625)"/>
       <path id="DejaVuSans-61" d="M 2194 1759 
Q 1497 1759 1228 1600 
Q 959 1441 959 1056 
Q 959 750 1161 570 
Q 1363 391 1709 391 
Q 2188 391 2477 730 
Q 2766 1069 2766 1631 
L 2766 1759 
L 2194 1759 
z
M 3341 1997 
L 3341 0 
L 2766 0 
L 2766 531 
Q 2569 213 2275 61 
Q 1981 -91 1556 -91 
Q 1019 -91 701 211 
Q 384 513 384 1019 
Q 384 1609 779 1909 
Q 1175 2209 1959 2209 
L 2766 2209 
L 2766 2266 
Q 2766 2663 2505 2880 
Q 2244 3097 1772 3097 
Q 1472 3097 1187 3025 
Q 903 2953 641 2809 
L 641 3341 
Q 956 3463 1253 3523 
Q 1550 3584 1831 3584 
Q 2591 3584 2966 3190 
Q 3341 2797 3341 1997 
z
" transform="scale(0.015625)"/>
       <path id="DejaVuSans-64" d="M 2906 2969 
L 2906 4863 
L 3481 4863 
L 3481 0 
L 2906 0 
L 2906 525 
Q 2725 213 2448 61 
Q 2172 -91 1784 -91 
Q 1150 -91 751 415 
Q 353 922 353 1747 
Q 353 2572 751 3078 
Q 1150 3584 1784 3584 
Q 2172 3584 2448 3432 
Q 2725 3281 2906 2969 
z
M 947 1747 
Q 947 1113 1208 752 
Q 1469 391 1925 391 
Q 2381 391 2643 752 
Q 2906 1113 2906 1747 
Q 2906 2381 2643 2742 
Q 2381 3103 1925 3103 
Q 1469 3103 1208 2742 
Q 947 2381 947 1747 
z
" transform="scale(0.015625)"/>
       <path id="DejaVuSans-29" d="M 513 4856 
L 1013 4856 
Q 1481 4119 1714 3412 
Q 1947 2706 1947 2009 
Q 1947 1309 1714 600 
Q 1481 -109 1013 -844 
L 513 -844 
Q 928 -128 1133 580 
Q 1338 1288 1338 2009 
Q 1338 2731 1133 3434 
Q 928 4138 513 4856 
z
" transform="scale(0.015625)"/>
      </defs>
      <use xlink:href="#DejaVuSans-Oblique-3b8" transform="translate(0 0.234375)"/>
      <use xlink:href="#DejaVuSans-20" transform="translate(61.181641 0.234375)"/>
      <use xlink:href="#DejaVuSans-28" transform="translate(92.96875 0.234375)"/>
      <use xlink:href="#DejaVuSans-72" transform="translate(131.982422 0.234375)"/>
      <use xlink:href="#DejaVuSans-61" transform="translate(173.095703 0.234375)"/>
      <use xlink:href="#DejaVuSans-64" transform="translate(234.375 0.234375)"/>
      <use xlink:href="#DejaVuSans-29" transform="translate(297.851562 0.234375)"/>
     </g>
    </g>
   </g>
   <g id="matplotlib.axis_2">
    <g id="ytick_1">
     <g id="line2d_8">
      <defs>
       <path id="mfbb6b47e10" d="M 0 0 
L -3.5 0 
" style="stroke: #000000; stroke-width: 0.8"/>
      </defs>
      <g>
       <use xlink:href="#mfbb6b47e10" x="103.104" y="295.488" style="stroke: #000000; stroke-width: 0.8"/>
      </g>
     </g>
     <g id="text_9">
      <!-- 0.0 -->
      <g transform="translate(80.200875 299.287219)scale(0.1 -0.1)">
       <use xlink:href="#DejaVuSans-30"/>
       <use xlink:href="#DejaVuSans-2e" x="63.623047"/>
       <use xlink:href="#DejaVuSans-30" x="95.410156"/>
      </g>
     </g>
    </g>
    <g id="ytick_2">
     <g id="line2d_9">
      <g>
       <use xlink:href="#mfbb6b47e10" x="103.104" y="264.685789" style="stroke: #000000; stroke-width: 0.8"/>
      </g>
     </g>
     <g id="text_10">
      <!-- 0.2 -->
      <g transform="translate(80.200875 268.485008)scale(0.1 -0.1)">
       <use xlink:href="#DejaVuSans-30"/>
       <use xlink:href="#DejaVuSans-2e" x="63.623047"/>
       <use xlink:href="#DejaVuSans-32" x="95.410156"/>
      </g>
     </g>
    </g>
    <g id="ytick_3">
     <g id="line2d_10">
      <g>
       <use xlink:href="#mfbb6b47e10" x="103.104" y="233.883578" style="stroke: #000000; stroke-width: 0.8"/>
      </g>
     </g>
     <g id="text_11">
      <!-- 0.4 -->
      <g transform="translate(80.200875 237.682797)scale(0.1 -0.1)">
       <defs>
        <path id="DejaVuSans-34" d="M 2419 4116 
L 825 1625 
L 2419 1625 
L 2419 4116 
z
M 2253 4666 
L 3047 4666 
L 3047 1625 
L 3713 1625 
L 3713 1100 
L 3047 1100 
L 3047 0 
L 2419 0 
L 2419 1100 
L 313 1100 
L 313 1709 
L 2253 4666 
z
" transform="scale(0.015625)"/>
       </defs>
       <use xlink:href="#DejaVuSans-30"/>
       <use xlink:href="#DejaVuSans-2e" x="63.623047"/>
       <use xlink:href="#DejaVuSans-34" x="95.410156"/>
      </g>
     </g>
    </g>
    <g id="ytick_4">
     <g id="line2d_11">
      <g>
       <use xlink:href="#mfbb6b47e10" x="103.104" y="203.081367" style="stroke: #000000; stroke-width: 0.8"/>
      </g>
     </g>
     <g id="text_12">
      <!-- 0.6 -->
      <g transform="translate(80.200875 206.880586)scale(0.1 -0.1)">
       <defs>
        <path id="DejaVuSans-36" d="M 2113 2584 
Q 1688 2584 1439 2293 
Q 1191 2003 1191 1497 
Q 1191 994 1439 701 
Q 1688 409 2113 409 
Q 2538 409 2786 701 
Q 3034 994 3034 1497 
Q 3034 2003 2786 2293 
Q 2538 2584 2113 2584 
z
M 3366 4563 
L 3366 3988 
Q 3128 4100 2886 4159 
Q 2644 4219 2406 4219 
Q 1781 4219 1451 3797 
Q 1122 3375 1075 2522 
Q 1259 2794 1537 2939 
Q 1816 3084 2150 3084 
Q 2853 3084 3261 2657 
Q 3669 2231 3669 1497 
Q 3669 778 3244 343 
Q 2819 -91 2113 -91 
Q 1303 -91 875 529 
Q 447 1150 447 2328 
Q 447 3434 972 4092 
Q 1497 4750 2381 4750 
Q 2619 4750 2861 4703 
Q 3103 4656 3366 4563 
z
" transform="scale(0.015625)"/>
       </defs>
       <use xlink:href="#DejaVuSans-30"/>
       <use xlink:href="#DejaVuSans-2e" x="63.623047"/>
       <use xlink:href="#DejaVuSans-36" x="95.410156"/>
      </g>
     </g>
    </g>
    <g id="ytick_5">
     <g id="line2d_12">
      <g>
       <use xlink:href="#mfbb6b47e10" x="103.104" y="172.279156" style="stroke: #000000; stroke-width: 0.8"/>
      </g>
     </g>
     <g id="text_13">
      <!-- 0.8 -->
      <g transform="translate(80.200875 176.078374)scale(0.1 -0.1)">
       <defs>
        <path id="DejaVuSans-38" d="M 2034 2216 
Q 1584 2216 1326 1975 
Q 1069 1734 1069 1313 
Q 1069 891 1326 650 
Q 1584 409 2034 409 
Q 2484 409 2743 651 
Q 3003 894 3003 1313 
Q 3003 1734 2745 1975 
Q 2488 2216 2034 2216 
z
M 1403 2484 
Q 997 2584 770 2862 
Q 544 3141 544 3541 
Q 544 4100 942 4425 
Q 1341 4750 2034 4750 
Q 2731 4750 3128 4425 
Q 3525 4100 3525 3541 
Q 3525 3141 3298 2862 
Q 3072 2584 2669 2484 
Q 3125 2378 3379 2068 
Q 3634 1759 3634 1313 
Q 3634 634 3220 271 
Q 2806 -91 2034 -91 
Q 1263 -91 848 271 
Q 434 634 434 1313 
Q 434 1759 690 2068 
Q 947 2378 1403 2484 
z
M 1172 3481 
Q 1172 3119 1398 2916 
Q 1625 2713 2034 2713 
Q 2441 2713 2670 2916 
Q 2900 3119 2900 3481 
Q 2900 3844 2670 4047 
Q 2441 4250 2034 4250 
Q 1625 4250 1398 4047 
Q 1172 3844 1172 3481 
z
" transform="scale(0.015625)"/>
       </defs>
       <use xlink:href="#DejaVuSans-30"/>
       <use xlink:href="#DejaVuSans-2e" x="63.623047"/>
       <use xlink:href="#DejaVuSans-38" x="95.410156"/>
      </g>
     </g>
    </g>
    <g id="ytick_6">
     <g id="line2d_13">
      <g>
       <use xlink:href="#mfbb6b47e10" x="103.104" y="141.476945" style="stroke: #000000; stroke-width: 0.8"/>
      </g>
     </g>
     <g id="text_14">
      <!-- 1.0 -->
      <g transform="translate(80.200875 145.276163)scale(0.1 -0.1)">
       <use xlink:href="#DejaVuSans-31"/>
       <use xlink:href="#DejaVuSans-2e" x="63.623047"/>
       <use xlink:href="#DejaVuSans-30" x="95.410156"/>
      </g>
     </g>
    </g>
    <g id="ytick_7">
     <g id="line2d_14">
      <g>
       <use xlink:href="#mfbb6b47e10" x="103.104" y="110.674734" style="stroke: #000000; stroke-width: 0.8"/>
      </g>
     </g>
     <g id="text_15">
      <!-- 1.2 -->
      <g transform="translate(80.200875 114.473952)scale(0.1 -0.1)">
       <use xlink:href="#DejaVuSans-31"/>
       <use xlink:href="#DejaVuSans-2e" x="63.623047"/>
       <use xlink:href="#DejaVuSans-32" x="95.410156"/>
      </g>
     </g>
    </g>
    <g id="ytick_8">
     <g id="line2d_15">
      <g>
       <use xlink:href="#mfbb6b47e10" x="103.104" y="79.872523" style="stroke: #000000; stroke-width: 0.8"/>
      </g>
     </g>
     <g id="text_16">
      <!-- 1.4 -->
      <g transform="translate(80.200875 83.671741)scale(0.1 -0.1)">
       <use xlink:href="#DejaVuSans-31"/>
       <use xlink:href="#DejaVuSans-2e" x="63.623047"/>
       <use xlink:href="#DejaVuSans-34" x="95.410156"/>
      </g>
     </g>
    </g>
    <g id="ytick_9">
     <g id="line2d_16">
      <g>
       <use xlink:href="#mfbb6b47e10" x="103.104" y="49.070311" style="stroke: #000000; stroke-width: 0.8"/>
      </g>
     </g>
     <g id="text_17">
      <!-- 1.6 -->
      <g transform="translate(80.200875 52.86953)scale(0.1 -0.1)">
       <use xlink:href="#DejaVuSans-31"/>
       <use xlink:href="#DejaVuSans-2e" x="63.623047"/>
       <use xlink:href="#DejaVuSans-36" x="95.410156"/>
      </g>
     </g>
    </g>
    <g id="text_18">
     <!-- $\dot{\theta}$ (rad/s) -->
     <g transform="translate(73.081344 206.253)rotate(-90)scale(0.15 -0.15)">
      <defs>
       <path id="DejaVuSans-307" d="M -1894 4863 
L -1319 4863 
L -1319 4134 
L -1894 4134 
L -1894 4863 
z
M -1600 3584 
L -1600 3584 
z
" transform="scale(0.015625)"/>
       <path id="DejaVuSans-2f" d="M 1625 4666 
L 2156 4666 
L 531 -594 
L 0 -594 
L 1625 4666 
z
" transform="scale(0.015625)"/>
       <path id="DejaVuSans-73" d="M 2834 3397 
L 2834 2853 
Q 2591 2978 2328 3040 
Q 2066 3103 1784 3103 
Q 1356 3103 1142 2972 
Q 928 2841 928 2578 
Q 928 2378 1081 2264 
Q 1234 2150 1697 2047 
L 1894 2003 
Q 2506 1872 2764 1633 
Q 3022 1394 3022 966 
Q 3022 478 2636 193 
Q 2250 -91 1575 -91 
Q 1294 -91 989 -36 
Q 684 19 347 128 
L 347 722 
Q 666 556 975 473 
Q 1284 391 1588 391 
Q 1994 391 2212 530 
Q 2431 669 2431 922 
Q 2431 1156 2273 1281 
Q 2116 1406 1581 1522 
L 1381 1569 
Q 847 1681 609 1914 
Q 372 2147 372 2553 
Q 372 3047 722 3315 
Q 1072 3584 1716 3584 
Q 2034 3584 2315 3537 
Q 2597 3491 2834 3397 
z
" transform="scale(0.015625)"/>
      </defs>
      <use xlink:href="#DejaVuSans-307" transform="translate(62.88916 34.015625)"/>
      <use xlink:href="#DejaVuSans-Oblique-3b8" transform="translate(0 0.75)"/>
      <use xlink:href="#DejaVuSans-20" transform="translate(61.181641 0.75)"/>
      <use xlink:href="#DejaVuSans-28" transform="translate(92.96875 0.75)"/>
      <use xlink:href="#DejaVuSans-72" transform="translate(131.982422 0.75)"/>
      <use xlink:href="#DejaVuSans-61" transform="translate(173.095703 0.75)"/>
      <use xlink:href="#DejaVuSans-64" transform="translate(234.375 0.75)"/>
      <use xlink:href="#DejaVuSans-2f" transform="translate(297.851562 0.75)"/>
      <use xlink:href="#DejaVuSans-73" transform="translate(331.542969 0.75)"/>
      <use xlink:href="#DejaVuSans-29" transform="translate(383.642578 0.75)"/>
     </g>
    </g>
   </g>
   <g id="patch_3">
    <path d="M 103.104 307.584 
L 103.104 41.472 
" style="fill: none; stroke: #000000; stroke-width: 0.8; stroke-linejoin: miter; stroke-linecap: square"/>
   </g>
   <g id="patch_4">
    <path d="M 369.216 307.584 
L 369.216 41.472 
" style="fill: none; stroke: #000000; stroke-width: 0.8; stroke-linejoin: miter; stroke-linecap: square"/>
   </g>
   <g id="patch_5">
    <path d="M 103.104 307.584 
L 369.216 307.584 
" style="fill: none; stroke: #000000; stroke-width: 0.8; stroke-linejoin: miter; stroke-linecap: square"/>
   </g>
   <g id="patch_6">
    <path d="M 103.104 41.472 
L 369.216 41.472 
" style="fill: none; stroke: #000000; stroke-width: 0.8; stroke-linejoin: miter; stroke-linecap: square"/>
   </g>
  </g>
 </g>
 <defs>
  <clipPath id="p1f3b998910">
   <rect x="103.104" y="41.472" width="266.112" height="266.112"/>
  </clipPath>
 </defs>
</svg>
