<?xml version="1.0" encoding="utf-8" standalone="no"?>
<!DOCTYPE svg PUBLIC "-//W3C//DTD SVG 1.1//EN"
  "http://www.w3.org/Graphics/SVG/1.1/DTD/svg11.dtd">
<svg xmlns:xlink="http://www.w3.org/1999/xlink" width="460.8pt" height="345.6pt" viewBox="0 0 460.8 345.6" xmlns="http://www.w3.org/2000/svg" version="1.1">
 <metadata>
  <rdf:RDF xmlns:dc="http://purl.org/dc/elements/1.1/" xmlns:cc="http://creativecommons.org/ns#" xmlns:rdf="http://www.w3.org/1999/02/22-rdf-syntax-ns#">
   <cc:Work>
    <dc:type rdf:resource="http://purl.org/dc/dcmitype/StillImage"/>
    <dc:date>2023-06-02T11:01:09.045925</dc:date>
    <dc:format>image/svg+xml</dc:format>
    <dc:creator>
     <cc:Agent>
      <dc:title>Matplotlib v3.5.3, https://matplotlib.org/</dc:title>
     </cc:Agent>
    </dc:creator>
   </cc:Work>
  </rdf:RDF>
 </metadata>
 <defs>
  <style type="text/css">*{stroke-linejoin: round; stroke-linecap: butt}</style>
 </defs>
 <g id="figure_1">
  <g id="patch_1">
   <path d="M 0 345.6 
L 460.8 345.6 
L 460.8 0 
L 0 0 
z
" style="fill: #ffffff"/>
  </g>
  <g id="axes_1">
   <g id="patch_2">
    <path d="M 103.104 307.584 
L 369.216 307.584 
L 369.216 41.472 
L 103.104 41.472 
z
" style="fill: #ffffff"/>
   </g>
   <g id="Quiver_1">
    <path d="M 115.026499 295.977403 
L 114.537096 295.803901 
L 114.679496 296.956208 
L 110.305974 293.752987 
L 115.720504 294.019792 
L 114.884099 294.825096 
L 115.373501 294.998597 
L 115.026499 295.977403 
" clip-path="url(#p9f04bcf9a1)"/>
    <path d="M 132.015425 295.747677 
L 129.626366 291.473534 
L 128.956892 292.457464 
L 127.753846 287.03268 
L 131.744344 290.899401 
L 130.555516 290.95418 
L 132.944575 295.228323 
L 132.015425 295.747677 
" clip-path="url(#p9f04bcf9a1)"/>
    <path d="M 149.253999 295.653002 
L 146.151272 286.138074 
L 145.304273 286.974079 
L 145.172255 281.419066 
L 148.340277 285.984067 
L 147.163274 285.80807 
L 150.266001 295.322998 
L 149.253999 295.653002 
" clip-path="url(#p9f04bcf9a1)"/>
    <path d="M 166.524666 295.621015 
L 163.215529 282.80053 
L 162.317875 283.581893 
L 162.533732 278.029506 
L 165.409881 282.783806 
L 164.246198 282.5345 
L 167.555334 295.354985 
L 166.524666 295.621015 
" clip-path="url(#p9f04bcf9a1)"/>
    <path d="M 183.803719 295.617292 
L 180.469593 282.303662 
L 179.566323 283.078526 
L 179.822246 277.527841 
L 182.664009 282.302775 
L 181.502155 282.045078 
L 184.836281 295.358708 
L 183.803719 295.617292 
" clip-path="url(#p9f04bcf9a1)"/>
    <path d="M 201.089474 295.638419 
L 197.879544 284.743807 
L 197.008911 285.55517 
L 197.036302 279.998655 
L 200.072066 284.652658 
L 198.900595 284.442969 
L 202.110526 295.337581 
L 201.089474 295.638419 
" clip-path="url(#p9f04bcf9a1)"/>
    <path d="M 218.39371 295.704297 
L 215.649474 289.534576 
L 214.893192 290.453461 
L 214.189088 284.94167 
L 217.810931 289.155677 
L 216.622054 289.101982 
L 219.36629 295.271703 
L 218.39371 295.704297 
" clip-path="url(#p9f04bcf9a1)"/>
    <path d="M 235.816135 295.894226 
L 234.617939 294.879967 
L 234.336435 296.036284 
L 231.305774 291.378957 
L 236.399625 293.59893 
L 235.305669 294.067516 
L 236.503865 295.081774 
L 235.816135 295.894226 
" clip-path="url(#p9f04bcf9a1)"/>
    <path d="M 253.681713 295.96217 
L 252.927783 296.346494 
L 253.885379 297.053121 
L 248.41854 298.047743 
L 252.4351 294.208101 
L 252.444356 295.398154 
L 253.198287 295.01383 
L 253.681713 295.96217 
" clip-path="url(#p9f04bcf9a1)"/>
    <path d="M 271.169736 295.772604 
L 268.571511 299.87836 
L 269.755588 299.997832 
L 265.560334 303.641381 
L 267.05717 298.290206 
L 267.672038 299.309151 
L 270.270264 295.203396 
L 271.169736 295.772604 
" clip-path="url(#p9f04bcf9a1)"/>
    <path d="M 288.484793 295.707633 
L 285.219961 302.914052 
L 286.409179 302.868525 
L 282.758473 307.057552 
L 283.500424 301.550728 
L 284.250376 302.474786 
L 287.515207 295.268367 
L 288.484793 295.707633 
" clip-path="url(#p9f04bcf9a1)"/>
    <path d="M 305.768392 295.699509 
L 302.421245 303.428358 
L 303.609537 303.362984 
L 300.029276 307.612375 
L 300.679187 302.093932 
L 301.444462 303.005341 
L 304.791608 295.276491 
L 305.768392 295.699509 
" clip-path="url(#p9f04bcf9a1)"/>
    <path d="M 323.029297 295.739043 
L 320.103438 301.208608 
L 321.293075 301.241397 
L 317.374753 305.181238 
L 318.477293 299.735138 
L 319.164844 300.706522 
L 322.090703 295.236957 
L 323.029297 295.739043 
" clip-path="url(#p9f04bcf9a1)"/>
    <path d="M 340.204203 295.876096 
L 338.639134 297.344812 
L 339.755636 297.756801 
L 334.782067 300.234543 
L 337.570418 295.428224 
L 337.910728 296.568619 
L 339.475797 295.099904 
L 340.204203 295.876096 
" clip-path="url(#p9f04bcf9a1)"/>
    <path d="M 356.946499 295.977403 
L 356.457096 295.803901 
L 356.599496 296.956208 
L 352.225974 293.752987 
L 357.640504 294.019792 
L 356.804099 294.825096 
L 357.293501 294.998597 
L 356.946499 295.977403 
" clip-path="url(#p9f04bcf9a1)"/>
    <path d="M 115.05134 278.627488 
L 114.631851 278.478828 
L 114.754019 279.466465 
L 111.005116 276.721396 
L 115.645981 276.949535 
L 114.929172 277.639851 
L 115.34866 277.788512 
L 115.05134 278.627488 
" clip-path="url(#p9f04bcf9a1)"/>
    <path d="M 132.002313 278.442686 
L 130.087282 274.544775 
L 129.366594 275.491834 
L 128.452794 270.010906 
L 132.232716 274.083718 
L 131.042656 274.075403 
L 132.957687 277.973314 
L 132.002313 278.442686 
" clip-path="url(#p9f04bcf9a1)"/>
    <path d="M 149.247819 278.352683 
L 146.660453 269.193378 
L 145.780775 269.994925 
L 145.870484 264.439068 
L 148.85386 269.126825 
L 147.684815 268.904011 
L 150.272181 278.063317 
L 149.247819 278.352683 
" clip-path="url(#p9f04bcf9a1)"/>
    <path d="M 166.520518 278.323763 
L 163.753246 265.905758 
L 162.830046 266.656766 
L 163.230859 261.11466 
L 165.946936 265.962188 
L 164.79221 265.674232 
L 167.559482 278.092237 
L 166.520518 278.323763 
" clip-path="url(#p9f04bcf9a1)"/>
    <path d="M 183.799882 278.320869 
L 181.013815 265.482258 
L 180.086448 266.228115 
L 180.518111 260.688325 
L 183.207157 265.550899 
L 182.054052 265.25652 
L 184.840118 278.095131 
L 183.799882 278.320869 
" clip-path="url(#p9f04bcf9a1)"/>
    <path d="M 201.08469 278.341108 
L 198.413656 268.000571 
L 197.516144 268.782097 
L 197.730991 263.229671 
L 200.608005 267.983448 
L 199.444276 267.734354 
L 202.11531 278.074892 
L 201.08469 278.341108 
" clip-path="url(#p9f04bcf9a1)"/>
    <path d="M 218.385906 278.405823 
L 216.169234 272.869335 
L 215.37887 273.759075 
L 214.882922 268.22467 
L 218.343432 272.572138 
L 217.157422 272.47369 
L 219.374094 278.010177 
L 218.385906 278.405823 
" clip-path="url(#p9f04bcf9a1)"/>
    <path d="M 235.816104 278.6142 
L 235.31114 278.186688 
L 235.029548 279.342983 
L 231.999239 274.685427 
L 237.092922 276.905785 
L 235.998931 277.374289 
L 236.503896 277.8018 
L 235.816104 278.6142 
" clip-path="url(#p9f04bcf9a1)"/>
    <path d="M 253.752337 278.638939 
L 253.302981 278.964623 
L 254.358593 279.514164 
L 249.112196 281.344714 
L 252.484574 276.928532 
L 252.678308 278.102746 
L 253.127663 277.777061 
L 253.752337 278.638939 
" clip-path="url(#p9f04bcf9a1)"/>
    <path d="M 271.193382 278.451253 
L 268.917362 282.880496 
L 270.107378 282.89362 
L 266.254703 286.897679 
L 267.267087 281.434102 
L 267.970598 282.39399 
L 270.246618 277.964747 
L 271.193382 278.451253 
" clip-path="url(#p9f04bcf9a1)"/>
    <path d="M 288.497922 278.395978 
L 285.643662 285.956433 
L 286.827485 285.834467 
L 283.453937 290.249755 
L 283.839951 284.706598 
L 284.647817 285.580477 
L 287.502078 278.020022 
L 288.497922 278.395978 
" clip-path="url(#p9f04bcf9a1)"/>
    <path d="M 305.780171 278.38991 
L 302.863362 286.409834 
L 304.045614 286.273483 
L 300.726002 290.729465 
L 301.044587 285.182024 
L 301.86302 286.046015 
L 304.779829 278.02609 
L 305.780171 278.38991 
" clip-path="url(#p9f04bcf9a1)"/>
    <path d="M 323.045731 278.42555 
L 320.516343 284.072983 
L 321.705355 284.022353 
L 318.072659 288.227009 
L 318.790971 282.717051 
L 319.544882 283.637883 
L 322.074269 277.99045 
L 323.045731 278.42555 
" clip-path="url(#p9f04bcf9a1)"/>
    <path d="M 340.241829 278.556993 
L 339.023598 279.95966 
L 340.176249 280.255816 
L 335.480836 283.227129 
L 337.765274 278.161861 
L 338.21994 279.261675 
L 339.438171 277.859007 
L 340.241829 278.556993 
" clip-path="url(#p9f04bcf9a1)"/>
    <path d="M 356.97134 278.627488 
L 356.551851 278.478828 
L 356.674019 279.466465 
L 352.925116 276.721396 
L 357.565981 276.949535 
L 356.849172 277.639851 
L 357.26866 277.788512 
L 356.97134 278.627488 
" clip-path="url(#p9f04bcf9a1)"/>
    <path d="M 115.076155 261.277574 
L 114.726581 261.153729 
L 114.828466 261.976722 
L 111.70426 259.689552 
L 115.571534 259.879278 
L 114.974271 260.454581 
L 115.323845 260.578426 
L 115.076155 261.277574 
" clip-path="url(#p9f04bcf9a1)"/>
    <path d="M 131.989173 261.133795 
L 130.513063 257.613239 
L 129.737205 258.515656 
L 129.151731 252.990005 
L 132.682164 257.280884 
L 131.494716 257.201648 
L 132.970827 260.722205 
L 131.989173 261.133795 
" clip-path="url(#p9f04bcf9a1)"/>
    <path d="M 149.242118 261.050723 
L 147.155313 252.244548 
L 146.242272 253.007875 
L 146.56869 247.46089 
L 149.349563 252.271539 
L 148.191077 251.999103 
L 150.277882 260.805277 
L 149.242118 261.050723 
" clip-path="url(#p9f04bcf9a1)"/>
    <path d="M 166.516756 261.025356 
L 164.280918 249.008761 
L 163.331786 249.726717 
L 163.927957 244.202209 
L 166.47125 249.14258 
L 165.327406 248.814048 
L 167.563244 260.830644 
L 166.516756 261.025356 
" clip-path="url(#p9f04bcf9a1)"/>
    <path d="M 183.796367 261.023243 
L 181.547496 248.659237 
L 180.595474 249.373355 
L 181.213944 243.8513 
L 183.73727 248.801898 
L 182.594762 248.468751 
L 184.843633 260.832757 
L 183.796367 261.023243 
" clip-path="url(#p9f04bcf9a1)"/>
    <path d="M 201.080146 261.04208 
L 198.932523 251.255547 
L 198.006896 252.003562 
L 198.425655 246.462782 
L 201.126019 251.31908 
L 199.972231 251.027387 
L 202.119854 260.81392 
L 201.080146 261.04208 
" clip-path="url(#p9f04bcf9a1)"/>
    <path d="M 218.377766 261.104134 
L 216.65971 256.205207 
L 215.831376 257.059709 
L 215.576741 251.508965 
L 218.844781 256.002906 
L 217.664179 255.85294 
L 219.382234 260.751866 
L 218.377766 261.104134 
" clip-path="url(#p9f04bcf9a1)"/>
    <path d="M 235.866414 261.27473 
L 235.519685 260.981144 
L 235.279243 261.968189 
L 232.692702 257.992145 
L 237.040757 259.887811 
L 236.106856 260.287685 
L 236.453586 260.58127 
L 235.866414 261.27473 
" clip-path="url(#p9f04bcf9a1)"/>
    <path d="M 253.811284 261.291414 
L 253.44787 261.662697 
L 254.553851 262.018241 
L 249.805864 264.640838 
L 252.326149 259.837759 
L 252.705303 260.93587 
L 253.068716 260.564586 
L 253.811284 261.291414 
" clip-path="url(#p9f04bcf9a1)"/>
    <path d="M 271.212647 261.129397 
L 269.254317 265.919765 
L 270.441009 265.829912 
L 266.949094 270.152196 
L 267.485124 264.621529 
L 268.269022 265.516971 
L 270.227353 260.726603 
L 271.212647 261.129397 
" clip-path="url(#p9f04bcf9a1)"/>
    <path d="M 288.508679 261.084551 
L 286.067069 269.018028 
L 287.240978 268.822452 
L 284.14943 273.439586 
L 284.188905 267.883145 
L 285.049712 268.704926 
L 287.491321 260.771449 
L 288.508679 261.084551 
" clip-path="url(#p9f04bcf9a1)"/>
    <path d="M 305.789969 261.080297 
L 303.303398 269.406632 
L 304.475632 269.201257 
L 301.422759 273.844054 
L 301.41582 268.287477 
L 302.283461 269.102039 
L 304.770031 260.775703 
L 305.789969 261.080297 
" clip-path="url(#p9f04bcf9a1)"/>
    <path d="M 323.059738 261.111097 
L 320.918205 266.956106 
L 322.100778 266.822563 
L 318.770592 271.270648 
L 319.102351 265.723979 
L 319.918729 266.589912 
L 322.060262 260.744903 
L 323.059738 261.111097 
" clip-path="url(#p9f04bcf9a1)"/>
    <path d="M 340.277676 261.230824 
L 339.342716 262.582133 
L 340.520891 262.750106 
L 336.179622 266.218388 
L 337.894838 260.93316 
L 338.467365 261.976484 
L 339.402324 260.625176 
L 340.277676 261.230824 
" clip-path="url(#p9f04bcf9a1)"/>
    <path d="M 356.996155 261.277574 
L 356.646581 261.153729 
L 356.748466 261.976722 
L 353.62426 259.689552 
L 357.491534 259.879278 
L 356.894271 260.454581 
L 357.243845 260.578426 
L 356.996155 261.277574 
" clip-path="url(#p9f04bcf9a1)"/>
    <path d="M 115.10095 243.927659 
L 114.82129 243.828609 
L 114.902849 244.486978 
L 112.403406 242.657496 
L 115.497151 242.809022 
L 115.019391 243.26929 
L 115.29905 243.368341 
L 115.10095 243.927659 
" clip-path="url(#p9f04bcf9a1)"/>
    <path d="M 131.976482 243.820431 
L 130.899016 240.674106 
L 130.064411 241.522485 
L 129.850656 235.970017 
L 133.085517 240.4879 
L 131.906051 240.329244 
L 132.983518 243.475569 
L 131.976482 243.820431 
" clip-path="url(#p9f04bcf9a1)"/>
    <path d="M 149.237072 243.747041 
L 147.635317 235.28995 
L 146.688503 236.01096 
L 147.266872 230.484561 
L 149.826068 235.416712 
L 148.681172 235.091867 
L 150.282928 243.548959 
L 149.237072 243.747041 
" clip-path="url(#p9f04bcf9a1)"/>
    <path d="M 166.513484 243.725741 
L 164.798179 232.10855 
L 163.822889 232.790548 
L 164.625024 227.292168 
L 166.981983 232.3241 
L 165.851211 231.953067 
L 167.566516 243.570259 
L 166.513484 243.725741 
" clip-path="url(#p9f04bcf9a1)"/>
    <path d="M 183.793279 243.724334 
L 182.070032 231.833587 
L 181.092924 232.512977 
L 181.909746 227.01676 
L 184.253252 232.054972 
L 183.123475 231.680919 
L 184.846721 243.571666 
L 183.793279 243.724334 
" clip-path="url(#p9f04bcf9a1)"/>
    <path d="M 201.07599 243.741146 
L 199.434597 234.507199 
L 198.479724 235.217501 
L 199.120293 229.697966 
L 201.623782 234.658625 
L 200.482617 234.320907 
L 202.12401 243.554854 
L 201.07599 243.741146 
" clip-path="url(#p9f04bcf9a1)"/>
    <path d="M 218.369488 243.798467 
L 217.114236 239.53959 
L 216.24368 240.351036 
L 216.270544 234.794519 
L 219.306749 239.448233 
L 218.135259 239.238656 
L 219.390512 243.497533 
L 218.369488 243.798467 
" clip-path="url(#p9f04bcf9a1)"/>
    <path d="M 235.925107 243.925384 
L 235.647723 243.69049 
L 235.45532 244.480151 
L 233.386164 241.299068 
L 236.86468 242.815849 
L 236.11751 243.135723 
L 236.394893 243.370616 
L 235.925107 243.925384 
" clip-path="url(#p9f04bcf9a1)"/>
    <path d="M 253.868808 243.942046 
L 253.574762 244.370853 
L 254.726423 244.530137 
L 250.499543 247.936075 
L 252.153577 242.765863 
L 252.717147 243.782762 
L 253.011192 243.353954 
L 253.868808 243.942046 
" clip-path="url(#p9f04bcf9a1)"/>
    <path d="M 271.227589 243.80805 
L 269.591548 248.996653 
L 270.766776 248.809164 
L 267.643509 253.404902 
L 267.721243 247.848864 
L 268.576371 248.676553 
L 270.212411 243.48795 
L 271.227589 243.80805 
" clip-path="url(#p9f04bcf9a1)"/>
    <path d="M 288.517163 243.773716 
L 286.493563 252.098277 
L 287.653606 251.832546 
L 284.844955 256.62703 
L 284.550626 251.078249 
L 285.459237 251.846845 
L 287.482837 243.522284 
L 288.517163 243.773716 
" clip-path="url(#p9f04bcf9a1)"/>
    <path d="M 305.797822 243.770974 
L 303.744134 252.418721 
L 304.902752 252.146846 
L 302.119548 256.956147 
L 301.795819 251.409004 
L 302.708489 252.172774 
L 304.762178 243.525026 
L 305.797822 243.770974 
" clip-path="url(#p9f04bcf9a1)"/>
    <path d="M 323.071178 243.796186 
L 321.313403 249.859761 
L 322.483946 249.644954 
L 319.468551 254.31218 
L 319.416876 248.755839 
L 320.291046 249.563389 
L 322.048822 243.499814 
L 323.071178 243.796186 
" clip-path="url(#p9f04bcf9a1)"/>
    <path d="M 340.309748 243.898199 
L 339.59996 245.230823 
L 340.789654 245.261473 
L 336.878422 249.208354 
L 337.971168 243.76028 
L 338.660465 244.730425 
L 339.370252 243.397801 
L 340.309748 243.898199 
" clip-path="url(#p9f04bcf9a1)"/>
    <path d="M 357.02095 243.927659 
L 356.74129 243.828609 
L 356.822849 244.486978 
L 354.323406 242.657496 
L 357.417151 242.809022 
L 356.939391 243.26929 
L 357.21905 243.368341 
L 357.02095 243.927659 
" clip-path="url(#p9f04bcf9a1)"/>
    <path d="M 115.125727 226.577745 
L 114.915982 226.503472 
L 114.977181 226.997234 
L 113.102553 225.62527 
L 115.422819 225.738766 
L 115.064528 226.083982 
L 115.274273 226.158255 
L 115.125727 226.577745 
" clip-path="url(#p9f04bcf9a1)"/>
    <path d="M 131.964936 226.502056 
L 131.241009 223.720616 
L 130.344936 224.503793 
L 130.549569 218.950981 
L 133.435323 223.699457 
L 132.271138 223.452504 
L 132.995064 226.233944 
L 131.964936 226.502056 
" clip-path="url(#p9f04bcf9a1)"/>
    <path d="M 149.232887 226.441585 
L 148.100185 218.327708 
L 147.119545 219.001991 
L 147.96503 213.510111 
L 150.28222 218.56048 
L 149.15441 218.180538 
L 150.287113 226.294415 
L 149.232887 226.441585 
" clip-path="url(#p9f04bcf9a1)"/>
    <path d="M 166.510824 226.424877 
L 165.304778 215.20401 
L 164.303303 215.84694 
L 165.32206 210.384548 
L 167.47836 215.505678 
L 166.36313 215.090256 
L 167.569176 226.311123 
L 166.510824 226.424877 
" clip-path="url(#p9f04bcf9a1)"/>
    <path d="M 183.790738 226.424071 
L 182.580892 215.004129 
L 181.578438 215.645533 
L 182.605517 210.184698 
L 184.754011 215.309108 
L 183.639416 214.891987 
L 184.849262 226.311929 
L 183.790738 226.424071 
" clip-path="url(#p9f04bcf9a1)"/>
    <path d="M 201.072414 226.438111 
L 199.91832 217.753582 
L 198.93326 218.42139 
L 199.814905 212.935198 
L 202.098775 218.000723 
L 200.973492 217.613359 
L 202.127586 226.297889 
L 201.072414 226.438111 
" clip-path="url(#p9f04bcf9a1)"/>
    <path d="M 218.361452 226.487875 
L 217.524657 222.868107 
L 216.607435 223.626405 
L 216.964332 218.081297 
L 219.718725 222.907156 
L 218.561753 222.628358 
L 219.398548 226.248125 
L 218.361452 226.487875 
" clip-path="url(#p9f04bcf9a1)"/>
    <path d="M 235.983816 226.576038 
L 235.775778 226.399853 
L 235.631447 226.992113 
L 234.079624 224.606157 
L 236.688553 225.743887 
L 236.128147 225.983778 
L 236.336184 226.159962 
L 235.983816 226.576038 
" clip-path="url(#p9f04bcf9a1)"/>
    <path d="M 253.92314 226.591245 
L 253.685577 227.105372 
L 254.875101 227.068721 
L 251.193236 231.230387 
L 251.976262 225.729254 
L 252.719297 226.658883 
L 252.95686 226.144755 
L 253.92314 226.591245 
" clip-path="url(#p9f04bcf9a1)"/>
    <path d="M 271.238506 226.488056 
L 269.93696 232.109267 
L 271.094028 231.830872 
L 268.337948 236.655768 
L 267.98299 231.110536 
L 268.899947 231.869154 
L 270.201494 226.247944 
L 271.238506 226.488056 
" clip-path="url(#p9f04bcf9a1)"/>
    <path d="M 288.523535 226.463777 
L 286.926036 235.196034 
L 288.068883 234.864052 
L 285.540509 239.812075 
L 284.927671 234.289392 
L 285.878965 235.004481 
L 287.476465 226.272223 
L 288.523535 226.463777 
" clip-path="url(#p9f04bcf9a1)"/>
    <path d="M 305.803819 226.462212 
L 304.188099 235.445591 
L 305.329949 235.110196 
L 302.816368 240.06575 
L 302.187035 234.544922 
L 303.14046 235.257166 
L 304.756181 226.273788 
L 305.803819 226.462212 
" clip-path="url(#p9f04bcf9a1)"/>
    <path d="M 323.08002 226.481319 
L 321.706424 232.784761 
L 322.859784 232.491378 
L 320.166536 237.351627 
L 319.739661 231.811466 
L 320.666384 232.558124 
L 322.03998 226.254681 
L 323.08002 226.481319 
" clip-path="url(#p9f04bcf9a1)"/>
    <path d="M 340.336153 226.5606 
L 339.806789 227.924286 
L 340.991694 227.813333 
L 337.577238 232.197063 
L 338.014777 226.657735 
L 338.814483 227.539087 
L 339.343847 226.1754 
L 340.336153 226.5606 
" clip-path="url(#p9f04bcf9a1)"/>
    <path d="M 357.045727 226.577745 
L 356.835982 226.503472 
L 356.897181 226.997234 
L 355.022553 225.62527 
L 357.342819 225.738766 
L 356.984528 226.083982 
L 357.194273 226.158255 
L 357.045727 226.577745 
" clip-path="url(#p9f04bcf9a1)"/>
    <path d="M 115.150492 209.22783 
L 115.010662 209.178322 
L 115.051475 209.50749 
L 113.801702 208.592917 
L 115.348525 208.66851 
L 115.109678 208.898662 
L 115.249508 208.94817 
L 115.150492 209.22783 
" clip-path="url(#p9f04bcf9a1)"/>
    <path d="M 131.955489 209.178279 
L 131.536468 206.743817 
L 130.577725 207.448886 
L 131.248468 201.932936 
L 133.724792 206.907212 
L 132.585491 206.563259 
L 133.004511 208.997721 
L 131.955489 209.178279 
" clip-path="url(#p9f04bcf9a1)"/>
    <path d="M 149.229797 209.134337 
L 148.549991 201.35573 
L 147.535922 201.978607 
L 148.663164 196.537566 
L 150.71714 201.700587 
L 149.610398 201.263057 
L 150.290203 209.041663 
L 149.229797 209.134337 
" clip-path="url(#p9f04bcf9a1)"/>
    <path d="M 166.508911 209.122738 
L 165.800615 198.2939 
L 164.773175 198.894464 
L 166.019066 193.47936 
L 167.95971 198.686038 
L 166.862794 198.224424 
L 167.571089 209.053262 
L 166.508911 209.122738 
" clip-path="url(#p9f04bcf9a1)"/>
    <path d="M 183.788888 209.122391 
L 183.079662 198.169505 
L 182.051829 198.769398 
L 183.301256 193.355109 
L 185.238499 198.563053 
L 184.141885 198.100723 
L 184.851112 209.053609 
L 183.788888 209.122391 
" clip-path="url(#p9f04bcf9a1)"/>
    <path d="M 201.069664 209.132785 
L 200.382222 200.992269 
L 199.366335 201.612176 
L 200.509491 196.174456 
L 202.548353 201.343464 
L 201.442895 200.902698 
L 202.130336 209.043215 
L 201.069664 209.132785 
" clip-path="url(#p9f04bcf9a1)"/>
    <path d="M 218.354322 209.171216 
L 217.881372 206.183581 
L 216.913232 206.875692 
L 217.658106 201.369262 
L 220.067301 206.376395 
L 218.932729 206.017149 
L 219.405678 209.004784 
L 218.354322 209.171216 
" clip-path="url(#p9f04bcf9a1)"/>
    <path d="M 236.042537 209.226692 
L 235.903845 209.109229 
L 235.807611 209.504075 
L 234.773083 207.913369 
L 236.512389 208.671925 
L 236.138771 208.831845 
L 236.277463 208.949308 
L 236.042537 209.226692 
" clip-path="url(#p9f04bcf9a1)"/>
    <path d="M 253.951746 209.234212 
L 253.714599 210.064232 
L 254.884304 209.84491 
L 251.886941 214.523736 
L 251.813826 208.967635 
L 252.691107 209.771807 
L 252.928254 208.941788 
L 253.951746 209.234212 
" clip-path="url(#p9f04bcf9a1)"/>
    <path d="M 271.245862 209.170043 
L 270.29666 215.254048 
L 271.430428 214.892272 
L 269.032411 219.904768 
L 268.275254 214.400014 
L 269.244936 215.089962 
L 270.194138 209.005957 
L 271.245862 209.170043 
" clip-path="url(#p9f04bcf9a1)"/>
    <path d="M 288.527994 209.15497 
L 287.366818 218.309733 
L 288.489775 217.915679 
L 286.236095 222.994707 
L 285.321812 217.51386 
L 286.31083 218.175794 
L 287.472006 209.02103 
L 288.527994 209.15497 
" clip-path="url(#p9f04bcf9a1)"/>
    <path d="M 305.808086 209.154242 
L 304.637484 218.48634 
L 305.759897 218.090738 
L 303.513219 223.172868 
L 302.591384 217.693286 
L 303.581313 218.353856 
L 304.751914 209.021758 
L 305.808086 209.154242 
" clip-path="url(#p9f04bcf9a1)"/>
    <path d="M 323.086334 209.166964 
L 322.101556 215.730973 
L 323.233188 215.362568 
L 320.864546 220.389012 
L 320.075186 214.888783 
L 321.048889 215.573045 
L 322.033666 209.009036 
L 323.086334 209.166964 
" clip-path="url(#p9f04bcf9a1)"/>
    <path d="M 340.355532 209.220248 
L 339.981831 210.677016 
L 341.145142 210.42598 
L 338.276069 215.184553 
L 338.051952 209.632493 
L 338.950768 210.41252 
L 339.324468 208.955752 
L 340.355532 209.220248 
" clip-path="url(#p9f04bcf9a1)"/>
    <path d="M 357.070492 209.22783 
L 356.930662 209.178322 
L 356.971475 209.50749 
L 355.721702 208.592917 
L 357.268525 208.66851 
L 357.029678 208.898662 
L 357.169508 208.94817 
L 357.070492 209.22783 
" clip-path="url(#p9f04bcf9a1)"/>
    <path d="M 114.69829 191.630379 
L 114.795321 192.153684 
L 115.297031 192.331304 
L 115.70171 191.985621 
L 115.604679 191.462316 
L 115.102969 191.284696 
L 114.69829 191.630379 
L 114.795321 192.153684 
" clip-path="url(#p9f04bcf9a1)"/>
    <path d="M 131.949358 191.84901 
L 131.785803 189.732707 
L 130.765529 190.345369 
L 131.947354 184.915922 
L 133.949379 190.099309 
L 132.847086 189.650687 
L 133.010642 191.76699 
L 131.949358 191.84901 
" clip-path="url(#p9f04bcf9a1)"/>
    <path d="M 149.228058 191.825327 
L 148.985274 184.371759 
L 147.938717 184.938355 
L 149.361274 179.566955 
L 151.130368 184.834393 
L 150.049158 184.337105 
L 150.291942 191.790673 
L 149.228058 191.825327 
" clip-path="url(#p9f04bcf9a1)"/>
    <path d="M 166.507896 191.819317 
L 166.285794 181.376865 
L 165.232904 181.931603 
L 166.716041 176.576615 
L 168.425526 181.863699 
L 167.350001 181.35423 
L 167.572104 191.796683 
L 166.507896 191.819317 
" clip-path="url(#p9f04bcf9a1)"/>
    <path d="M 183.787895 191.819249 
L 183.566103 181.328177 
L 182.513142 181.882781 
L 183.996965 176.527982 
L 185.705773 181.815286 
L 184.630313 181.305679 
L 184.852105 191.796751 
L 183.787895 191.819249 
" clip-path="url(#p9f04bcf9a1)"/>
    <path d="M 201.068047 191.824996 
L 200.825068 184.220283 
L 199.77816 184.786229 
L 201.204053 179.415714 
L 202.969875 184.68425 
L 201.888974 184.18629 
L 202.131953 191.791004 
L 201.068047 191.824996 
" clip-path="url(#p9f04bcf9a1)"/>
    <path d="M 218.349222 191.847208 
L 218.173959 189.474587 
L 217.151611 190.083781 
L 218.351865 184.658379 
L 220.336278 189.848533 
L 219.235515 189.396171 
L 219.410778 191.768792 
L 218.349222 191.847208 
" clip-path="url(#p9f04bcf9a1)"/>
    <path d="M 235.75387 191.464022 
L 235.659041 191.987729 
L 236.065171 192.331708 
L 236.56613 192.151978 
L 236.660959 191.628271 
L 236.254829 191.284292 
L 235.75387 191.464022 
L 235.659041 191.987729 
" clip-path="url(#p9f04bcf9a1)"/>
    <path d="M 253.966862 191.883358 
L 253.785739 193.149682 
L 254.91482 192.773535 
L 252.580659 197.816083 
L 251.753648 192.32139 
L 252.732014 192.998967 
L 252.913138 191.732642 
L 253.966862 191.883358 
" clip-path="url(#p9f04bcf9a1)"/>
    <path d="M 271.250196 191.854416 
L 270.67484 198.426523 
L 271.781648 197.989159 
L 269.726899 203.151872 
L 268.600472 197.710662 
L 269.614448 198.33369 
L 270.189804 191.761584 
L 271.250196 191.854416 
" clip-path="url(#p9f04bcf9a1)"/>
    <path d="M 288.530759 191.847466 
L 287.817663 201.437553 
L 288.918646 200.985726 
L 286.931711 206.174916 
L 285.734094 200.748931 
L 286.756145 201.358621 
L 287.469241 191.768534 
L 288.530759 191.847466 
" clip-path="url(#p9f04bcf9a1)"/>
    <path d="M 305.810775 191.847246 
L 305.094094 201.539779 
L 306.19489 201.087497 
L 304.210102 206.277508 
L 303.01024 200.852019 
L 304.032544 201.461286 
L 304.749225 191.768754 
L 305.810775 191.847246 
" clip-path="url(#p9f04bcf9a1)"/>
    <path d="M 323.090273 191.853531 
L 322.502633 198.697435 
L 323.608709 198.258224 
L 321.562581 203.42436 
L 320.427072 197.985038 
L 321.442087 198.606373 
L 322.029727 191.762469 
L 323.090273 191.853531 
" clip-path="url(#p9f04bcf9a1)"/>
    <path d="M 340.367372 191.879701 
L 340.147593 193.496212 
L 341.274039 193.112241 
L 338.974914 198.17086 
L 338.109806 192.682036 
L 339.092849 193.35281 
L 339.312628 191.736299 
L 340.367372 191.879701 
" clip-path="url(#p9f04bcf9a1)"/>
    <path d="M 356.61829 191.630379 
L 356.715321 192.153684 
L 357.217031 192.331304 
L 357.62171 191.985621 
L 357.524679 191.462316 
L 357.022969 191.284696 
L 356.61829 191.630379 
L 356.715321 192.153684 
" clip-path="url(#p9f04bcf9a1)"/>
    <path d="M 115.2 173.995776 
L 114.73908 174.261888 
L 114.73908 174.794112 
L 115.2 175.060224 
L 115.66092 174.794112 
L 115.66092 174.261888 
L 115.2 173.995776 
L 114.73908 174.261888 
" clip-path="url(#p9f04bcf9a1)"/>
    <path d="M 131.947943 174.514656 
L 131.994077 172.675144 
L 130.91662 173.180514 
L 132.646227 167.899978 
L 134.10896 173.260576 
L 133.058191 172.701832 
L 133.012057 174.541344 
L 131.947943 174.514656 
" clip-path="url(#p9f04bcf9a1)"/>
    <path d="M 149.227943 174.514649 
L 149.407142 167.373462 
L 148.329677 167.878816 
L 150.059359 162.598304 
L 151.522016 167.958923 
L 150.471255 167.400164 
L 150.292057 174.541351 
L 149.227943 174.514649 
" clip-path="url(#p9f04bcf9a1)"/>
    <path d="M 166.507944 174.514638 
L 166.76067 164.451466 
L 165.683196 164.956799 
L 167.412985 159.676322 
L 168.875533 165.036971 
L 167.824783 164.478191 
L 167.572056 174.541362 
L 166.507944 174.514638 
" clip-path="url(#p9f04bcf9a1)"/>
    <path d="M 183.787944 174.514626 
L 184.04022 164.47844 
L 182.962734 164.983748 
L 184.692643 159.703311 
L 186.15507 165.063992 
L 185.104332 164.505188 
L 184.852056 174.541374 
L 183.787944 174.514626 
" clip-path="url(#p9f04bcf9a1)"/>
    <path d="M 201.067944 174.514615 
L 201.24607 167.434063 
L 200.168573 167.939349 
L 201.898589 162.658947 
L 203.360907 168.019658 
L 202.310181 167.460833 
L 202.132056 174.541385 
L 201.067944 174.514615 
" clip-path="url(#p9f04bcf9a1)"/>
    <path d="M 218.347945 174.514608 
L 218.393023 172.723716 
L 217.31552 173.228987 
L 219.04561 167.948609 
L 220.507853 173.309341 
L 219.457134 172.750501 
L 219.412055 174.541392 
L 218.347945 174.514608 
" clip-path="url(#p9f04bcf9a1)"/>
    <path d="M 236.692224 174.528 
L 236.426112 174.06708 
L 235.893888 174.06708 
L 235.627776 174.528 
L 235.893888 174.98892 
L 236.426112 174.98892 
L 236.692224 174.528 
L 236.426112 174.06708 
" clip-path="url(#p9f04bcf9a1)"/>
    <path d="M 253.972055 174.541392 
L 253.926977 176.332284 
L 255.00448 175.827013 
L 253.27439 181.107391 
L 251.812147 175.746659 
L 252.862866 176.305499 
L 252.907945 174.514608 
L 253.972055 174.541392 
" clip-path="url(#p9f04bcf9a1)"/>
    <path d="M 271.252056 174.541385 
L 271.07393 181.621937 
L 272.151427 181.116651 
L 270.421411 186.397053 
L 268.959093 181.036342 
L 270.009819 181.595167 
L 270.187944 174.514615 
L 271.252056 174.541385 
" clip-path="url(#p9f04bcf9a1)"/>
    <path d="M 288.532056 174.541374 
L 288.27978 184.57756 
L 289.357266 184.072252 
L 287.627357 189.352689 
L 286.16493 183.992008 
L 287.215668 184.550812 
L 287.467944 174.514626 
L 288.532056 174.541374 
" clip-path="url(#p9f04bcf9a1)"/>
    <path d="M 305.812056 174.541362 
L 305.55933 184.604534 
L 306.636804 184.099201 
L 304.907015 189.379678 
L 303.444467 184.019029 
L 304.495217 184.577809 
L 304.747944 174.514638 
L 305.812056 174.541362 
" clip-path="url(#p9f04bcf9a1)"/>
    <path d="M 323.092057 174.541351 
L 322.912858 181.682538 
L 323.990323 181.177184 
L 322.260641 186.457696 
L 320.797984 181.097077 
L 321.848745 181.655836 
L 322.027943 174.514649 
L 323.092057 174.541351 
" clip-path="url(#p9f04bcf9a1)"/>
    <path d="M 340.372057 174.541344 
L 340.325923 176.380856 
L 341.40338 175.875486 
L 339.673773 181.156022 
L 338.21104 175.795424 
L 339.261809 176.354168 
L 339.307943 174.514656 
L 340.372057 174.541344 
" clip-path="url(#p9f04bcf9a1)"/>
    <path d="M 357.12 175.060224 
L 357.58092 174.794112 
L 357.58092 174.261888 
L 357.12 173.995776 
L 356.65908 174.261888 
L 356.65908 174.794112 
L 357.12 175.060224 
L 357.58092 174.794112 
" clip-path="url(#p9f04bcf9a1)"/>
    <path d="M 115.70171 157.425621 
L 115.604679 156.902316 
L 115.102969 156.724696 
L 114.69829 157.070379 
L 114.795321 157.593684 
L 115.297031 157.771304 
L 115.70171 157.425621 
L 115.604679 156.902316 
" clip-path="url(#p9f04bcf9a1)"/>
    <path d="M 131.952628 157.176299 
L 132.172407 155.559788 
L 131.045961 155.943759 
L 133.345086 150.88514 
L 134.210194 156.373964 
L 133.227151 155.70319 
L 133.007372 157.319701 
L 131.952628 157.176299 
" clip-path="url(#p9f04bcf9a1)"/>
    <path d="M 149.229727 157.202469 
L 149.817367 150.358565 
L 148.711291 150.797776 
L 150.757419 145.63164 
L 151.892928 151.070962 
L 150.877913 150.449627 
L 150.290273 157.293531 
L 149.229727 157.202469 
" clip-path="url(#p9f04bcf9a1)"/>
    <path d="M 166.509225 157.208754 
L 167.225906 147.516221 
L 166.12511 147.968503 
L 168.109898 142.778492 
L 169.30976 148.203981 
L 168.287456 147.594714 
L 167.570775 157.287246 
L 166.509225 157.208754 
" clip-path="url(#p9f04bcf9a1)"/>
    <path d="M 183.789241 157.208534 
L 184.502337 147.618447 
L 183.401354 148.070274 
L 185.388289 142.881084 
L 186.585906 148.307069 
L 185.563855 147.697379 
L 184.850759 157.287466 
L 183.789241 157.208534 
" clip-path="url(#p9f04bcf9a1)"/>
    <path d="M 201.069804 157.201584 
L 201.64516 150.629477 
L 200.538352 151.066841 
L 202.593101 145.904128 
L 203.719528 151.345338 
L 202.705552 150.72231 
L 202.130196 157.294416 
L 201.069804 157.201584 
" clip-path="url(#p9f04bcf9a1)"/>
    <path d="M 218.353138 157.172642 
L 218.534261 155.906318 
L 217.40518 156.282465 
L 219.739341 151.239917 
L 220.566352 156.73461 
L 219.587986 156.057033 
L 219.406862 157.323358 
L 218.353138 157.172642 
" clip-path="url(#p9f04bcf9a1)"/>
    <path d="M 236.56613 157.591978 
L 236.660959 157.068271 
L 236.254829 156.724292 
L 235.75387 156.904022 
L 235.659041 157.427729 
L 236.065171 157.771708 
L 236.56613 157.591978 
L 236.660959 157.068271 
" clip-path="url(#p9f04bcf9a1)"/>
    <path d="M 253.970778 157.208792 
L 254.146041 159.581413 
L 255.168389 158.972219 
L 253.968135 164.397621 
L 251.983722 159.207467 
L 253.084485 159.659829 
L 252.909222 157.287208 
L 253.970778 157.208792 
" clip-path="url(#p9f04bcf9a1)"/>
    <path d="M 271.251953 157.231004 
L 271.494932 164.835717 
L 272.54184 164.269771 
L 271.115947 169.640286 
L 269.350125 164.37175 
L 270.431026 164.86971 
L 270.188047 157.264996 
L 271.251953 157.231004 
" clip-path="url(#p9f04bcf9a1)"/>
    <path d="M 288.532105 157.236751 
L 288.753897 167.727823 
L 289.806858 167.173219 
L 288.323035 172.528018 
L 286.614227 167.240714 
L 287.689687 167.750321 
L 287.467895 157.259249 
L 288.532105 157.236751 
" clip-path="url(#p9f04bcf9a1)"/>
    <path d="M 305.812104 157.236683 
L 306.034206 167.679135 
L 307.087096 167.124397 
L 305.603959 172.479385 
L 303.894474 167.192301 
L 304.969999 167.70177 
L 304.747896 157.259317 
L 305.812104 157.236683 
" clip-path="url(#p9f04bcf9a1)"/>
    <path d="M 323.091942 157.230673 
L 323.334726 164.684241 
L 324.381283 164.117645 
L 322.958726 169.489045 
L 321.189632 164.221607 
L 322.270842 164.718895 
L 322.028058 157.265327 
L 323.091942 157.230673 
" clip-path="url(#p9f04bcf9a1)"/>
    <path d="M 340.370642 157.20699 
L 340.534197 159.323293 
L 341.554471 158.710631 
L 340.372646 164.140078 
L 338.370621 158.956691 
L 339.472914 159.405313 
L 339.309358 157.28901 
L 340.370642 157.20699 
" clip-path="url(#p9f04bcf9a1)"/>
    <path d="M 357.62171 157.425621 
L 357.524679 156.902316 
L 357.022969 156.724696 
L 356.61829 157.070379 
L 356.715321 157.593684 
L 357.217031 157.771304 
L 357.62171 157.425621 
L 357.524679 156.902316 
" clip-path="url(#p9f04bcf9a1)"/>
    <path d="M 115.249508 139.82817 
L 115.389338 139.877678 
L 115.348525 139.54851 
L 116.598298 140.463083 
L 115.051475 140.38749 
L 115.290322 140.157338 
L 115.150492 140.10783 
L 115.249508 139.82817 
" clip-path="url(#p9f04bcf9a1)"/>
    <path d="M 131.964468 139.835752 
L 132.338169 138.378984 
L 131.174858 138.63002 
L 134.043931 133.871447 
L 134.268048 139.423507 
L 133.369232 138.64348 
L 132.995532 140.100248 
L 131.964468 139.835752 
" clip-path="url(#p9f04bcf9a1)"/>
    <path d="M 149.233666 139.889036 
L 150.218444 133.325027 
L 149.086812 133.693432 
L 151.455454 128.666988 
L 152.244814 134.167217 
L 151.271111 133.482955 
L 150.286334 140.046964 
L 149.233666 139.889036 
" clip-path="url(#p9f04bcf9a1)"/>
    <path d="M 166.511914 139.901758 
L 167.682516 130.56966 
L 166.560103 130.965262 
L 168.806781 125.883132 
L 169.728616 131.362714 
L 168.738687 130.702144 
L 167.568086 140.034242 
L 166.511914 139.901758 
" clip-path="url(#p9f04bcf9a1)"/>
    <path d="M 183.792006 139.90103 
L 184.953182 130.746267 
L 183.830225 131.140321 
L 186.083905 126.061293 
L 186.998188 131.54214 
L 186.00917 130.880206 
L 184.847994 140.03497 
L 183.792006 139.90103 
" clip-path="url(#p9f04bcf9a1)"/>
    <path d="M 201.074138 139.885957 
L 202.02334 133.801952 
L 200.889572 134.163728 
L 203.287589 129.151232 
L 204.044746 134.655986 
L 203.075064 133.966038 
L 202.125862 140.050043 
L 201.074138 139.885957 
" clip-path="url(#p9f04bcf9a1)"/>
    <path d="M 218.368254 139.821788 
L 218.605401 138.991768 
L 217.435696 139.21109 
L 220.433059 134.532264 
L 220.506174 140.088365 
L 219.628893 139.284193 
L 219.391746 140.114212 
L 218.368254 139.821788 
" clip-path="url(#p9f04bcf9a1)"/>
    <path d="M 236.277463 139.829308 
L 236.416155 139.946771 
L 236.512389 139.551925 
L 237.546917 141.142631 
L 235.807611 140.384075 
L 236.181229 140.224155 
L 236.042537 140.106692 
L 236.277463 139.829308 
" clip-path="url(#p9f04bcf9a1)"/>
    <path d="M 253.965678 139.884784 
L 254.438628 142.872419 
L 255.406768 142.180308 
L 254.661894 147.686738 
L 252.252699 142.679605 
L 253.387271 143.038851 
L 252.914322 140.051216 
L 253.965678 139.884784 
" clip-path="url(#p9f04bcf9a1)"/>
    <path d="M 271.250336 139.923215 
L 271.937778 148.063731 
L 272.953665 147.443824 
L 271.810509 152.881544 
L 269.771647 147.712536 
L 270.877105 148.153302 
L 270.189664 140.012785 
L 271.250336 139.923215 
" clip-path="url(#p9f04bcf9a1)"/>
    <path d="M 288.531112 139.933609 
L 289.240338 150.886495 
L 290.268171 150.286602 
L 289.018744 155.700891 
L 287.081501 150.492947 
L 288.178115 150.955277 
L 287.468888 140.002391 
L 288.531112 139.933609 
" clip-path="url(#p9f04bcf9a1)"/>
    <path d="M 305.811089 139.933262 
L 306.519385 150.7621 
L 307.546825 150.161536 
L 306.300934 155.57664 
L 304.36029 150.369962 
L 305.457206 150.831576 
L 304.748911 140.002738 
L 305.811089 139.933262 
" clip-path="url(#p9f04bcf9a1)"/>
    <path d="M 323.090203 139.921663 
L 323.770009 147.70027 
L 324.784078 147.077393 
L 323.656836 152.518434 
L 321.60286 147.355413 
L 322.709602 147.792943 
L 322.029797 140.014337 
L 323.090203 139.921663 
" clip-path="url(#p9f04bcf9a1)"/>
    <path d="M 340.364511 139.877721 
L 340.783532 142.312183 
L 341.742275 141.607114 
L 341.071532 147.123064 
L 338.595208 142.148788 
L 339.734509 142.492741 
L 339.315489 140.058279 
L 340.364511 139.877721 
" clip-path="url(#p9f04bcf9a1)"/>
    <path d="M 357.169508 139.82817 
L 357.309338 139.877678 
L 357.268525 139.54851 
L 358.518298 140.463083 
L 356.971475 140.38749 
L 357.210322 140.157338 
L 357.070492 140.10783 
L 357.169508 139.82817 
" clip-path="url(#p9f04bcf9a1)"/>
    <path d="M 115.274273 122.478255 
L 115.484018 122.552528 
L 115.422819 122.058766 
L 117.297447 123.43073 
L 114.977181 123.317234 
L 115.335472 122.972018 
L 115.125727 122.897745 
L 115.274273 122.478255 
" clip-path="url(#p9f04bcf9a1)"/>
    <path d="M 131.983847 122.4954 
L 132.513211 121.131714 
L 131.328306 121.242667 
L 134.742762 116.858937 
L 134.305223 122.398265 
L 133.505517 121.516913 
L 132.976153 122.8806 
L 131.983847 122.4954 
" clip-path="url(#p9f04bcf9a1)"/>
    <path d="M 149.23998 122.574681 
L 150.613576 116.271239 
L 149.460216 116.564622 
L 152.153464 111.704373 
L 152.580339 117.244534 
L 151.653616 116.497876 
L 150.28002 122.801319 
L 149.23998 122.574681 
" clip-path="url(#p9f04bcf9a1)"/>
    <path d="M 166.516181 122.593788 
L 168.131901 113.610409 
L 166.990051 113.945804 
L 169.503632 108.99025 
L 170.132965 114.511078 
L 169.17954 113.798834 
L 167.563819 122.782212 
L 166.516181 122.593788 
" clip-path="url(#p9f04bcf9a1)"/>
    <path d="M 183.796465 122.592223 
L 185.393964 113.859966 
L 184.251117 114.191948 
L 186.779491 109.243925 
L 187.392329 114.766608 
L 186.441035 114.051519 
L 184.843535 122.783777 
L 183.796465 122.592223 
" clip-path="url(#p9f04bcf9a1)"/>
    <path d="M 201.081494 122.567944 
L 202.38304 116.946733 
L 201.225972 117.225128 
L 203.982052 112.400232 
L 204.33701 117.945464 
L 203.420053 117.186846 
L 202.118506 122.808056 
L 201.081494 122.567944 
" clip-path="url(#p9f04bcf9a1)"/>
    <path d="M 218.39686 122.464755 
L 218.634423 121.950628 
L 217.444899 121.987279 
L 221.126764 117.825613 
L 220.343738 123.326746 
L 219.600703 122.397117 
L 219.36314 122.911245 
L 218.39686 122.464755 
" clip-path="url(#p9f04bcf9a1)"/>
    <path d="M 236.336184 122.479962 
L 236.544222 122.656147 
L 236.688553 122.063887 
L 238.240376 124.449843 
L 235.631447 123.312113 
L 236.191853 123.072222 
L 235.983816 122.896038 
L 236.336184 122.479962 
" clip-path="url(#p9f04bcf9a1)"/>
    <path d="M 253.958548 122.568125 
L 254.795343 126.187893 
L 255.712565 125.429595 
L 255.355668 130.974703 
L 252.601275 126.148844 
L 253.758247 126.427642 
L 252.921452 122.807875 
L 253.958548 122.568125 
" clip-path="url(#p9f04bcf9a1)"/>
    <path d="M 271.247586 122.617889 
L 272.40168 131.302418 
L 273.38674 130.63461 
L 272.505095 136.120802 
L 270.221225 131.055277 
L 271.346508 131.442641 
L 270.192414 122.758111 
L 271.247586 122.617889 
" clip-path="url(#p9f04bcf9a1)"/>
    <path d="M 288.529262 122.631929 
L 289.739108 134.051871 
L 290.741562 133.410467 
L 289.714483 138.871302 
L 287.565989 133.746892 
L 288.680584 134.164013 
L 287.470738 122.744071 
L 288.529262 122.631929 
" clip-path="url(#p9f04bcf9a1)"/>
    <path d="M 305.809176 122.631123 
L 307.015222 133.85199 
L 308.016697 133.20906 
L 306.99794 138.671452 
L 304.84164 133.550322 
L 305.95687 133.965744 
L 304.750824 122.744877 
L 305.809176 122.631123 
" clip-path="url(#p9f04bcf9a1)"/>
    <path d="M 323.087113 122.614415 
L 324.219815 130.728292 
L 325.200455 130.054009 
L 324.35497 135.545889 
L 322.03778 130.49552 
L 323.16559 130.875462 
L 322.032887 122.761585 
L 323.087113 122.614415 
" clip-path="url(#p9f04bcf9a1)"/>
    <path d="M 340.355064 122.553944 
L 341.078991 125.335384 
L 341.975064 124.552207 
L 341.770431 130.105019 
L 338.884677 125.356543 
L 340.048862 125.603496 
L 339.324936 122.822056 
L 340.355064 122.553944 
" clip-path="url(#p9f04bcf9a1)"/>
    <path d="M 357.194273 122.478255 
L 357.404018 122.552528 
L 357.342819 122.058766 
L 359.217447 123.43073 
L 356.897181 123.317234 
L 357.255472 122.972018 
L 357.045727 122.897745 
L 357.194273 122.478255 
" clip-path="url(#p9f04bcf9a1)"/>
    <path d="M 115.29905 105.128341 
L 115.57871 105.227391 
L 115.497151 104.569022 
L 117.996594 106.398504 
L 114.902849 106.246978 
L 115.380609 105.78671 
L 115.10095 105.687659 
L 115.29905 105.128341 
" clip-path="url(#p9f04bcf9a1)"/>
    <path d="M 132.010252 105.157801 
L 132.72004 103.825177 
L 131.530346 103.794527 
L 135.441578 99.847646 
L 134.348832 105.29572 
L 133.659535 104.325575 
L 132.949748 105.658199 
L 132.010252 105.157801 
" clip-path="url(#p9f04bcf9a1)"/>
    <path d="M 149.248822 105.259814 
L 151.006597 99.196239 
L 149.836054 99.411046 
L 152.851449 94.74382 
L 152.903124 100.300161 
L 152.028954 99.492611 
L 150.271178 105.556186 
L 149.248822 105.259814 
" clip-path="url(#p9f04bcf9a1)"/>
    <path d="M 166.522178 105.285026 
L 168.575866 96.637279 
L 167.417248 96.909154 
L 170.200452 92.099853 
L 170.524181 97.646996 
L 169.611511 96.883226 
L 167.557822 105.530974 
L 166.522178 105.285026 
" clip-path="url(#p9f04bcf9a1)"/>
    <path d="M 183.802837 105.282284 
L 185.826437 96.957723 
L 184.666394 97.223454 
L 187.475045 92.42897 
L 187.769374 97.977751 
L 186.860763 97.209155 
L 184.837163 105.533716 
L 183.802837 105.282284 
" clip-path="url(#p9f04bcf9a1)"/>
    <path d="M 201.092411 105.24795 
L 202.728452 100.059347 
L 201.553224 100.246836 
L 204.676491 95.651098 
L 204.598757 101.207136 
L 203.743629 100.379447 
L 202.107589 105.56805 
L 201.092411 105.24795 
" clip-path="url(#p9f04bcf9a1)"/>
    <path d="M 218.451192 105.113954 
L 218.745238 104.685147 
L 217.593577 104.525863 
L 221.820457 101.119925 
L 220.166423 106.290137 
L 219.602853 105.273238 
L 219.308808 105.702046 
L 218.451192 105.113954 
" clip-path="url(#p9f04bcf9a1)"/>
    <path d="M 236.394893 105.130616 
L 236.672277 105.36551 
L 236.86468 104.575849 
L 238.933836 107.756932 
L 235.45532 106.240151 
L 236.20249 105.920277 
L 235.925107 105.685384 
L 236.394893 105.130616 
" clip-path="url(#p9f04bcf9a1)"/>
    <path d="M 253.950512 105.257533 
L 255.205764 109.51641 
L 256.07632 108.704964 
L 256.049456 114.261481 
L 253.013251 109.607767 
L 254.184741 109.817344 
L 252.929488 105.558467 
L 253.950512 105.257533 
" clip-path="url(#p9f04bcf9a1)"/>
    <path d="M 271.24401 105.314854 
L 272.885403 114.548801 
L 273.840276 113.838499 
L 273.199707 119.358034 
L 270.696218 114.397375 
L 271.837383 114.735093 
L 270.19599 105.501146 
L 271.24401 105.314854 
" clip-path="url(#p9f04bcf9a1)"/>
    <path d="M 288.526721 105.331666 
L 290.249968 117.222413 
L 291.227076 116.543023 
L 290.410254 122.03924 
L 288.066748 117.001028 
L 289.196525 117.375081 
L 287.473279 105.484334 
L 288.526721 105.331666 
" clip-path="url(#p9f04bcf9a1)"/>
    <path d="M 305.806516 105.330259 
L 307.521821 116.94745 
L 308.497111 116.265452 
L 307.694976 121.763832 
L 305.338017 116.7319 
L 306.468789 117.102933 
L 304.753484 105.485741 
L 305.806516 105.330259 
" clip-path="url(#p9f04bcf9a1)"/>
    <path d="M 323.082928 105.308959 
L 324.684683 113.76605 
L 325.631497 113.04504 
L 325.053128 118.571439 
L 322.493932 113.639288 
L 323.638828 113.964133 
L 322.037072 105.507041 
L 323.082928 105.308959 
" clip-path="url(#p9f04bcf9a1)"/>
    <path d="M 340.343518 105.235569 
L 341.420984 108.381894 
L 342.255589 107.533515 
L 342.469344 113.085983 
L 339.234483 108.5681 
L 340.413949 108.726756 
L 339.336482 105.580431 
L 340.343518 105.235569 
" clip-path="url(#p9f04bcf9a1)"/>
    <path d="M 357.21905 105.128341 
L 357.49871 105.227391 
L 357.417151 104.569022 
L 359.916594 106.398504 
L 356.822849 106.246978 
L 357.300609 105.78671 
L 357.02095 105.687659 
L 357.21905 105.128341 
" clip-path="url(#p9f04bcf9a1)"/>
    <path d="M 115.323845 87.778426 
L 115.673419 87.902271 
L 115.571534 87.079278 
L 118.69574 89.366448 
L 114.828466 89.176722 
L 115.425729 88.601419 
L 115.076155 88.477574 
L 115.323845 87.778426 
" clip-path="url(#p9f04bcf9a1)"/>
    <path d="M 132.042324 87.825176 
L 132.977284 86.473867 
L 131.799109 86.305894 
L 136.140378 82.837612 
L 134.425162 88.12284 
L 133.852635 87.079516 
L 132.917676 88.430824 
L 132.042324 87.825176 
" clip-path="url(#p9f04bcf9a1)"/>
    <path d="M 149.260262 87.944903 
L 151.401795 82.099894 
L 150.219222 82.233437 
L 153.549408 77.785352 
L 153.217649 83.332021 
L 152.401271 82.466088 
L 150.259738 88.311097 
L 149.260262 87.944903 
" clip-path="url(#p9f04bcf9a1)"/>
    <path d="M 166.530031 87.975703 
L 169.016602 79.649368 
L 167.844368 79.854743 
L 170.897241 75.211946 
L 170.90418 80.768523 
L 170.036539 79.953961 
L 167.549969 88.280297 
L 166.530031 87.975703 
" clip-path="url(#p9f04bcf9a1)"/>
    <path d="M 183.811321 87.971449 
L 186.252931 80.037972 
L 185.079022 80.233548 
L 188.17057 75.616414 
L 188.131095 81.172855 
L 187.270288 80.351074 
L 184.828679 88.284551 
L 183.811321 87.971449 
" clip-path="url(#p9f04bcf9a1)"/>
    <path d="M 201.107353 87.926603 
L 203.065683 83.136235 
L 201.878991 83.226088 
L 205.370906 78.903804 
L 204.834876 84.434471 
L 204.050978 83.539029 
L 202.092647 88.329397 
L 201.107353 87.926603 
" clip-path="url(#p9f04bcf9a1)"/>
    <path d="M 218.508716 87.764586 
L 218.87213 87.393303 
L 217.766149 87.037759 
L 222.514136 84.415162 
L 219.993851 89.218241 
L 219.614697 88.12013 
L 219.251284 88.491414 
L 218.508716 87.764586 
" clip-path="url(#p9f04bcf9a1)"/>
    <path d="M 236.453586 87.78127 
L 236.800315 88.074856 
L 237.040757 87.087811 
L 239.627298 91.063855 
L 235.279243 89.168189 
L 236.213144 88.768315 
L 235.866414 88.47473 
L 236.453586 87.78127 
" clip-path="url(#p9f04bcf9a1)"/>
    <path d="M 253.942234 87.951866 
L 255.66029 92.850793 
L 256.488624 91.996291 
L 256.743259 97.547035 
L 253.475219 93.053094 
L 254.655821 93.20306 
L 252.937766 88.304134 
L 253.942234 87.951866 
" clip-path="url(#p9f04bcf9a1)"/>
    <path d="M 271.239854 88.01392 
L 273.387477 97.800453 
L 274.313104 97.052438 
L 273.894345 102.593218 
L 271.193981 97.73692 
L 272.347769 98.028613 
L 270.200146 88.24208 
L 271.239854 88.01392 
" clip-path="url(#p9f04bcf9a1)"/>
    <path d="M 288.523633 88.032757 
L 290.772504 100.396763 
L 291.724526 99.682645 
L 291.106056 105.2047 
L 288.58273 100.254102 
L 289.725238 100.587249 
L 287.476367 88.223243 
L 288.523633 88.032757 
" clip-path="url(#p9f04bcf9a1)"/>
    <path d="M 305.803244 88.030644 
L 308.039082 100.047239 
L 308.988214 99.329283 
L 308.392043 104.853791 
L 305.84875 99.91342 
L 306.992594 100.241952 
L 304.756756 88.225356 
L 305.803244 88.030644 
" clip-path="url(#p9f04bcf9a1)"/>
    <path d="M 323.077882 88.005277 
L 325.164687 96.811452 
L 326.077728 96.048125 
L 325.75131 101.59511 
L 322.970437 96.784461 
L 324.128923 97.056897 
L 322.042118 88.250723 
L 323.077882 88.005277 
" clip-path="url(#p9f04bcf9a1)"/>
    <path d="M 340.330827 87.922205 
L 341.806937 91.442761 
L 342.582795 90.540344 
L 343.168269 96.065995 
L 339.637836 91.775116 
L 340.825284 91.854352 
L 339.349173 88.333795 
L 340.330827 87.922205 
" clip-path="url(#p9f04bcf9a1)"/>
    <path d="M 357.243845 87.778426 
L 357.593419 87.902271 
L 357.491534 87.079278 
L 360.61574 89.366448 
L 356.748466 89.176722 
L 357.345729 88.601419 
L 356.996155 88.477574 
L 357.243845 87.778426 
" clip-path="url(#p9f04bcf9a1)"/>
    <path d="M 115.34866 70.428512 
L 115.768149 70.577172 
L 115.645981 69.589535 
L 119.394884 72.334604 
L 114.754019 72.106465 
L 115.470828 71.416149 
L 115.05134 71.267488 
L 115.34866 70.428512 
" clip-path="url(#p9f04bcf9a1)"/>
    <path d="M 132.078171 70.499007 
L 133.296402 69.09634 
L 132.143751 68.800184 
L 136.839164 65.828871 
L 134.554726 70.894139 
L 134.10006 69.794325 
L 132.881829 71.196993 
L 132.078171 70.499007 
" clip-path="url(#p9f04bcf9a1)"/>
    <path d="M 149.274269 70.63045 
L 151.803657 64.983017 
L 150.614645 65.033647 
L 154.247341 60.828991 
L 153.529029 66.338949 
L 152.775118 65.418117 
L 150.245731 71.06555 
L 149.274269 70.63045 
" clip-path="url(#p9f04bcf9a1)"/>
    <path d="M 166.539829 70.66609 
L 169.456638 62.646166 
L 168.274386 62.782517 
L 171.593998 58.326535 
L 171.275413 63.873976 
L 170.45698 63.009985 
L 167.540171 71.02991 
L 166.539829 70.66609 
" clip-path="url(#p9f04bcf9a1)"/>
    <path d="M 183.822078 70.660022 
L 186.676338 63.099567 
L 185.492515 63.221533 
L 188.866063 58.806245 
L 188.480049 64.349402 
L 187.672183 63.475523 
L 184.817922 71.035978 
L 183.822078 70.660022 
" clip-path="url(#p9f04bcf9a1)"/>
    <path d="M 201.126618 70.604747 
L 203.402638 66.175504 
L 202.212622 66.16238 
L 206.065297 62.158321 
L 205.052913 67.621898 
L 204.349402 66.66201 
L 202.073382 71.091253 
L 201.126618 70.604747 
" clip-path="url(#p9f04bcf9a1)"/>
    <path d="M 218.567663 70.417061 
L 219.017019 70.091377 
L 217.961407 69.541836 
L 223.207804 67.711286 
L 219.835426 72.127468 
L 219.641692 70.953254 
L 219.192337 71.278939 
L 218.567663 70.417061 
" clip-path="url(#p9f04bcf9a1)"/>
    <path d="M 236.503896 70.4418 
L 237.00886 70.869312 
L 237.290452 69.713017 
L 240.320761 74.370573 
L 235.227078 72.150215 
L 236.321069 71.681711 
L 235.816104 71.2542 
L 236.503896 70.4418 
" clip-path="url(#p9f04bcf9a1)"/>
    <path d="M 253.934094 70.650177 
L 256.150766 76.186665 
L 256.94113 75.296925 
L 257.437078 80.83133 
L 253.976568 76.483862 
L 255.162578 76.58231 
L 252.945906 71.045823 
L 253.934094 70.650177 
" clip-path="url(#p9f04bcf9a1)"/>
    <path d="M 271.23531 70.714892 
L 273.906344 81.055429 
L 274.803856 80.273903 
L 274.589009 85.826329 
L 271.711995 81.072552 
L 272.875724 81.321646 
L 270.20469 70.981108 
L 271.23531 70.714892 
" clip-path="url(#p9f04bcf9a1)"/>
    <path d="M 288.520118 70.735131 
L 291.306185 83.573742 
L 292.233552 82.827885 
L 291.801889 88.367675 
L 289.112843 83.505101 
L 290.265948 83.79948 
L 287.479882 70.960869 
L 288.520118 70.735131 
" clip-path="url(#p9f04bcf9a1)"/>
    <path d="M 305.799482 70.732237 
L 308.566754 83.150242 
L 309.489954 82.399234 
L 309.089141 87.94134 
L 306.373064 83.093812 
L 307.52779 83.381768 
L 304.760518 70.963763 
L 305.799482 70.732237 
" clip-path="url(#p9f04bcf9a1)"/>
    <path d="M 323.072181 70.703317 
L 325.659547 79.862622 
L 326.539225 79.061075 
L 326.449516 84.616932 
L 323.46614 79.929175 
L 324.635185 80.151989 
L 322.047819 70.992683 
L 323.072181 70.703317 
" clip-path="url(#p9f04bcf9a1)"/>
    <path d="M 340.317687 70.613314 
L 342.232718 74.511225 
L 342.953406 73.564166 
L 343.867206 79.045094 
L 340.087284 74.972282 
L 341.277344 74.980597 
L 339.362313 71.082686 
L 340.317687 70.613314 
" clip-path="url(#p9f04bcf9a1)"/>
    <path d="M 357.26866 70.428512 
L 357.688149 70.577172 
L 357.565981 69.589535 
L 361.314884 72.334604 
L 356.674019 72.106465 
L 357.390828 71.416149 
L 356.97134 71.267488 
L 357.26866 70.428512 
" clip-path="url(#p9f04bcf9a1)"/>
    <path d="M 115.373501 53.078597 
L 115.862904 53.252099 
L 115.720504 52.099792 
L 120.094026 55.303013 
L 114.679496 55.036208 
L 115.515901 54.230904 
L 115.026499 54.057403 
L 115.373501 53.078597 
" clip-path="url(#p9f04bcf9a1)"/>
    <path d="M 132.115797 53.179904 
L 133.680866 51.711188 
L 132.564364 51.299199 
L 137.537933 48.821457 
L 134.749582 53.627776 
L 134.409272 52.487381 
L 132.844203 53.956096 
L 132.115797 53.179904 
" clip-path="url(#p9f04bcf9a1)"/>
    <path d="M 149.290703 53.316957 
L 152.216562 47.847392 
L 151.026925 47.814603 
L 154.945247 43.874762 
L 153.842707 49.320862 
L 153.155156 48.349478 
L 150.229297 53.819043 
L 149.290703 53.316957 
" clip-path="url(#p9f04bcf9a1)"/>
    <path d="M 166.551608 53.356491 
L 169.898755 45.627642 
L 168.710463 45.693016 
L 172.290724 41.443625 
L 171.640813 46.962068 
L 170.875538 46.050659 
L 167.528392 53.779509 
L 166.551608 53.356491 
" clip-path="url(#p9f04bcf9a1)"/>
    <path d="M 183.835207 53.348367 
L 187.100039 46.141948 
L 185.910821 46.187475 
L 189.561527 41.998448 
L 188.819576 47.505272 
L 188.069624 46.581214 
L 184.804793 53.787633 
L 183.835207 53.348367 
" clip-path="url(#p9f04bcf9a1)"/>
    <path d="M 201.150264 53.283396 
L 203.748489 49.17764 
L 202.564412 49.058168 
L 206.759666 45.414619 
L 205.26283 50.765794 
L 204.647962 49.746849 
L 202.049736 53.852604 
L 201.150264 53.283396 
" clip-path="url(#p9f04bcf9a1)"/>
    <path d="M 218.638287 53.09383 
L 219.392217 52.709506 
L 218.434621 52.002879 
L 223.90146 51.008257 
L 219.8849 54.847899 
L 219.875644 53.657846 
L 219.121713 54.04217 
L 218.638287 53.09383 
" clip-path="url(#p9f04bcf9a1)"/>
    <path d="M 236.503865 53.161774 
L 237.702061 54.176033 
L 237.983565 53.019716 
L 241.014226 57.677043 
L 235.920375 55.45707 
L 237.014331 54.988484 
L 235.816135 53.974226 
L 236.503865 53.161774 
" clip-path="url(#p9f04bcf9a1)"/>
    <path d="M 253.92629 53.351703 
L 256.670526 59.521424 
L 257.426808 58.602539 
L 258.130912 64.11433 
L 254.509069 59.900323 
L 255.697946 59.954018 
L 252.95371 53.784297 
L 253.92629 53.351703 
" clip-path="url(#p9f04bcf9a1)"/>
    <path d="M 271.230526 53.417581 
L 274.440456 64.312193 
L 275.311089 63.50083 
L 275.283698 69.057345 
L 272.247934 64.403342 
L 273.419405 64.613031 
L 270.209474 53.718419 
L 271.230526 53.417581 
" clip-path="url(#p9f04bcf9a1)"/>
    <path d="M 288.516281 53.438708 
L 291.850407 66.752338 
L 292.753677 65.977474 
L 292.497754 71.528159 
L 289.655991 66.753225 
L 290.817845 67.010922 
L 287.483719 53.697292 
L 288.516281 53.438708 
" clip-path="url(#p9f04bcf9a1)"/>
    <path d="M 305.795334 53.434985 
L 309.104471 66.25547 
L 310.002125 65.474107 
L 309.786268 71.026494 
L 306.910119 66.272194 
L 308.073802 66.5215 
L 304.764666 53.701015 
L 305.795334 53.434985 
" clip-path="url(#p9f04bcf9a1)"/>
    <path d="M 323.066001 53.402998 
L 326.168728 62.917926 
L 327.015727 62.081921 
L 327.147745 67.636934 
L 323.979723 63.071933 
L 325.156726 63.24793 
L 322.053999 53.733002 
L 323.066001 53.402998 
" clip-path="url(#p9f04bcf9a1)"/>
    <path d="M 340.304575 53.308323 
L 342.693634 57.582466 
L 343.363108 56.598536 
L 344.566154 62.02332 
L 340.575656 58.156599 
L 341.764484 58.10182 
L 339.375425 53.827677 
L 340.304575 53.308323 
" clip-path="url(#p9f04bcf9a1)"/>
    <path d="M 357.293501 53.078597 
L 357.782904 53.252099 
L 357.640504 52.099792 
L 362.014026 55.303013 
L 356.599496 55.036208 
L 357.435901 54.230904 
L 356.946499 54.057403 
L 357.293501 53.078597 
" clip-path="url(#p9f04bcf9a1)"/>
   </g>
   <g id="matplotlib.axis_1">
    <g id="xtick_1">
     <g id="line2d_1">
      <defs>
       <path id="m9f8eec1a9a" d="M 0 0 
L 0 3.5 
" style="stroke: #000000; stroke-width: 0.8"/>
      </defs>
      <g>
       <use xlink:href="#m9f8eec1a9a" x="120.651709" y="307.584" style="stroke: #000000; stroke-width: 0.8"/>
      </g>
     </g>
     <g id="text_1">
      <!-- 3 -->
      <g transform="translate(113.280615 322.182437)scale(0.1 -0.1)">
       <defs>
        <path id="DejaVuSans-2212" d="M 678 2272 
L 4684 2272 
L 4684 1741 
L 678 1741 
L 678 2272 
z
" transform="scale(0.015625)"/>
        <path id="DejaVuSans-33" d="M 2597 2516 
Q 3050 2419 3304 2112 
Q 3559 1806 3559 1356 
Q 3559 666 3084 287 
Q 2609 -91 1734 -91 
Q 1441 -91 1130 -33 
Q 819 25 488 141 
L 488 750 
Q 750 597 1062 519 
Q 1375 441 1716 441 
Q 2309 441 2620 675 
Q 2931 909 2931 1356 
Q 2931 1769 2642 2001 
Q 2353 2234 1838 2234 
L 1294 2234 
L 1294 2753 
L 1863 2753 
Q 2328 2753 2575 2939 
Q 2822 3125 2822 3475 
Q 2822 3834 2567 4026 
Q 2313 4219 1838 4219 
Q 1578 4219 1281 4162 
Q 984 4106 628 3988 
L 628 4550 
Q 988 4650 1302 4700 
Q 1616 4750 1894 4750 
Q 2613 4750 3031 4423 
Q 3450 4097 3450 3541 
Q 3450 3153 3228 2886 
Q 3006 2619 2597 2516 
z
" transform="scale(0.015625)"/>
       </defs>
       <use xlink:href="#DejaVuSans-2212"/>
       <use xlink:href="#DejaVuSans-33" x="83.789062"/>
      </g>
     </g>
    </g>
    <g id="xtick_2">
     <g id="line2d_2">
      <g>
       <use xlink:href="#m9f8eec1a9a" x="159.154472" y="307.584" style="stroke: #000000; stroke-width: 0.8"/>
      </g>
     </g>
     <g id="text_2">
      <!-- 2 -->
      <g transform="translate(151.783379 322.182437)scale(0.1 -0.1)">
       <defs>
        <path id="DejaVuSans-32" d="M 1228 531 
L 3431 531 
L 3431 0 
L 469 0 
L 469 531 
Q 828 903 1448 1529 
Q 2069 2156 2228 2338 
Q 2531 2678 2651 2914 
Q 2772 3150 2772 3378 
Q 2772 3750 2511 3984 
Q 2250 4219 1831 4219 
Q 1534 4219 1204 4116 
Q 875 4013 500 3803 
L 500 4441 
Q 881 4594 1212 4672 
Q 1544 4750 1819 4750 
Q 2544 4750 2975 4387 
Q 3406 4025 3406 3419 
Q 3406 3131 3298 2873 
Q 3191 2616 2906 2266 
Q 2828 2175 2409 1742 
Q 1991 1309 1228 531 
z
" transform="scale(0.015625)"/>
       </defs>
       <use xlink:href="#DejaVuSans-2212"/>
       <use xlink:href="#DejaVuSans-32" x="83.789062"/>
      </g>
     </g>
    </g>
    <g id="xtick_3">
     <g id="line2d_3">
      <g>
       <use xlink:href="#m9f8eec1a9a" x="197.657236" y="307.584" style="stroke: #000000; stroke-width: 0.8"/>
      </g>
     </g>
     <g id="text_3">
      <!-- 1 -->
      <g transform="translate(190.286142 322.182437)scale(0.1 -0.1)">
       <defs>
        <path id="DejaVuSans-31" d="M 794 531 
L 1825 531 
L 1825 4091 
L 703 3866 
L 703 4441 
L 1819 4666 
L 2450 4666 
L 2450 531 
L 3481 531 
L 3481 0 
L 794 0 
L 794 531 
z
" transform="scale(0.015625)"/>
       </defs>
       <use xlink:href="#DejaVuSans-2212"/>
       <use xlink:href="#DejaVuSans-31" x="83.789062"/>
      </g>
     </g>
    </g>
    <g id="xtick_4">
     <g id="line2d_4">
      <g>
       <use xlink:href="#m9f8eec1a9a" x="236.16" y="307.584" style="stroke: #000000; stroke-width: 0.8"/>
      </g>
     </g>
     <g id="text_4">
      <!-- 0 -->
      <g transform="translate(232.97875 322.182437)scale(0.1 -0.1)">
       <defs>
        <path id="DejaVuSans-30" d="M 2034 4250 
Q 1547 4250 1301 3770 
Q 1056 3291 1056 2328 
Q 1056 1369 1301 889 
Q 1547 409 2034 409 
Q 2525 409 2770 889 
Q 3016 1369 3016 2328 
Q 3016 3291 2770 3770 
Q 2525 4250 2034 4250 
z
M 2034 4750 
Q 2819 4750 3233 4129 
Q 3647 3509 3647 2328 
Q 3647 1150 3233 529 
Q 2819 -91 2034 -91 
Q 1250 -91 836 529 
Q 422 1150 422 2328 
Q 422 3509 836 4129 
Q 1250 4750 2034 4750 
z
" transform="scale(0.015625)"/>
       </defs>
       <use xlink:href="#DejaVuSans-30"/>
      </g>
     </g>
    </g>
    <g id="xtick_5">
     <g id="line2d_5">
      <g>
       <use xlink:href="#m9f8eec1a9a" x="274.662764" y="307.584" style="stroke: #000000; stroke-width: 0.8"/>
      </g>
     </g>
     <g id="text_5">
      <!-- 1 -->
      <g transform="translate(271.481514 322.182437)scale(0.1 -0.1)">
       <use xlink:href="#DejaVuSans-31"/>
      </g>
     </g>
    </g>
    <g id="xtick_6">
     <g id="line2d_6">
      <g>
       <use xlink:href="#m9f8eec1a9a" x="313.165528" y="307.584" style="stroke: #000000; stroke-width: 0.8"/>
      </g>
     </g>
     <g id="text_6">
      <!-- 2 -->
      <g transform="translate(309.984278 322.182437)scale(0.1 -0.1)">
       <use xlink:href="#DejaVuSans-32"/>
      </g>
     </g>
    </g>
    <g id="xtick_7">
     <g id="line2d_7">
      <g>
       <use xlink:href="#m9f8eec1a9a" x="351.668291" y="307.584" style="stroke: #000000; stroke-width: 0.8"/>
      </g>
     </g>
     <g id="text_7">
      <!-- 3 -->
      <g transform="translate(348.487041 322.182437)scale(0.1 -0.1)">
       <use xlink:href="#DejaVuSans-33"/>
      </g>
     </g>
    </g>
    <g id="text_8">
     <!-- $\theta$ (rad) -->
     <g transform="translate(210.885 339.659781)scale(0.15 -0.15)">
      <defs>
       <path id="DejaVuSans-Oblique-3b8" d="M 2913 2219 
L 925 2219 
Q 791 1284 928 888 
Q 1100 400 1566 400 
Q 2034 400 2391 891 
Q 2703 1322 2913 2219 
z
M 3009 2750 
Q 3094 3638 2984 3950 
Q 2813 4444 2353 4444 
Q 1875 4444 1525 3956 
Q 1250 3563 1034 2750 
L 3009 2750 
z
M 2444 4913 
Q 3194 4913 3494 4250 
Q 3794 3591 3566 2422 
Q 3341 1256 2781 594 
Q 2225 -72 1475 -72 
Q 722 -72 425 594 
Q 128 1256 353 2422 
Q 581 3591 1134 4250 
Q 1691 4913 2444 4913 
z
" transform="scale(0.015625)"/>
       <path id="DejaVuSans-20" transform="scale(0.015625)"/>
       <path id="DejaVuSans-28" d="M 1984 4856 
Q 1566 4138 1362 3434 
Q 1159 2731 1159 2009 
Q 1159 1288 1364 580 
Q 1569 -128 1984 -844 
L 1484 -844 
Q 1016 -109 783 600 
Q 550 1309 550 2009 
Q 550 2706 781 3412 
Q 1013 4119 1484 4856 
L 1984 4856 
z
" transform="scale(0.015625)"/>
       <path id="DejaVuSans-72" d="M 2631 2963 
Q 2534 3019 2420 3045 
Q 2306 3072 2169 3072 
Q 1681 3072 1420 2755 
Q 1159 2438 1159 1844 
L 1159 0 
L 581 0 
L 581 3500 
L 1159 3500 
L 1159 2956 
Q 1341 3275 1631 3429 
Q 1922 3584 2338 3584 
Q 2397 3584 2469 3576 
Q 2541 3569 2628 3553 
L 2631 2963 
z
" transform="scale(0.015625)"/>
       <path id="DejaVuSans-61" d="M 2194 1759 
Q 1497 1759 1228 1600 
Q 959 1441 959 1056 
Q 959 750 1161 570 
Q 1363 391 1709 391 
Q 2188 391 2477 730 
Q 2766 1069 2766 1631 
L 2766 1759 
L 2194 1759 
z
M 3341 1997 
L 3341 0 
L 2766 0 
L 2766 531 
Q 2569 213 2275 61 
Q 1981 -91 1556 -91 
Q 1019 -91 701 211 
Q 384 513 384 1019 
Q 384 1609 779 1909 
Q 1175 2209 1959 2209 
L 2766 2209 
L 2766 2266 
Q 2766 2663 2505 2880 
Q 2244 3097 1772 3097 
Q 1472 3097 1187 3025 
Q 903 2953 641 2809 
L 641 3341 
Q 956 3463 1253 3523 
Q 1550 3584 1831 3584 
Q 2591 3584 2966 3190 
Q 3341 2797 3341 1997 
z
" transform="scale(0.015625)"/>
       <path id="DejaVuSans-64" d="M 2906 2969 
L 2906 4863 
L 3481 4863 
L 3481 0 
L 2906 0 
L 2906 525 
Q 2725 213 2448 61 
Q 2172 -91 1784 -91 
Q 1150 -91 751 415 
Q 353 922 353 1747 
Q 353 2572 751 3078 
Q 1150 3584 1784 3584 
Q 2172 3584 2448 3432 
Q 2725 3281 2906 2969 
z
M 947 1747 
Q 947 1113 1208 752 
Q 1469 391 1925 391 
Q 2381 391 2643 752 
Q 2906 1113 2906 1747 
Q 2906 2381 2643 2742 
Q 2381 3103 1925 3103 
Q 1469 3103 1208 2742 
Q 947 2381 947 1747 
z
" transform="scale(0.015625)"/>
       <path id="DejaVuSans-29" d="M 513 4856 
L 1013 4856 
Q 1481 4119 1714 3412 
Q 1947 2706 1947 2009 
Q 1947 1309 1714 600 
Q 1481 -109 1013 -844 
L 513 -844 
Q 928 -128 1133 580 
Q 1338 1288 1338 2009 
Q 1338 2731 1133 3434 
Q 928 4138 513 4856 
z
" transform="scale(0.015625)"/>
      </defs>
      <use xlink:href="#DejaVuSans-Oblique-3b8" transform="translate(0 0.234375)"/>
      <use xlink:href="#DejaVuSans-20" transform="translate(61.181641 0.234375)"/>
      <use xlink:href="#DejaVuSans-28" transform="translate(92.96875 0.234375)"/>
      <use xlink:href="#DejaVuSans-72" transform="translate(131.982422 0.234375)"/>
      <use xlink:href="#DejaVuSans-61" transform="translate(173.095703 0.234375)"/>
      <use xlink:href="#DejaVuSans-64" transform="translate(234.375 0.234375)"/>
      <use xlink:href="#DejaVuSans-29" transform="translate(297.851562 0.234375)"/>
     </g>
    </g>
   </g>
   <g id="matplotlib.axis_2">
    <g id="ytick_1">
     <g id="line2d_8">
      <defs>
       <path id="m7d57e05ec1" d="M 0 0 
L -3.5 0 
" style="stroke: #000000; stroke-width: 0.8"/>
      </defs>
      <g>
       <use xlink:href="#m7d57e05ec1" x="103.104" y="290.036291" style="stroke: #000000; stroke-width: 0.8"/>
      </g>
     </g>
     <g id="text_9">
      <!-- 3 -->
      <g transform="translate(81.361813 293.83551)scale(0.1 -0.1)">
       <use xlink:href="#DejaVuSans-2212"/>
       <use xlink:href="#DejaVuSans-33" x="83.789062"/>
      </g>
     </g>
    </g>
    <g id="ytick_2">
     <g id="line2d_9">
      <g>
       <use xlink:href="#m7d57e05ec1" x="103.104" y="251.533528" style="stroke: #000000; stroke-width: 0.8"/>
      </g>
     </g>
     <g id="text_10">
      <!-- 2 -->
      <g transform="translate(81.361813 255.332746)scale(0.1 -0.1)">
       <use xlink:href="#DejaVuSans-2212"/>
       <use xlink:href="#DejaVuSans-32" x="83.789062"/>
      </g>
     </g>
    </g>
    <g id="ytick_3">
     <g id="line2d_10">
      <g>
       <use xlink:href="#m7d57e05ec1" x="103.104" y="213.030764" style="stroke: #000000; stroke-width: 0.8"/>
      </g>
     </g>
     <g id="text_11">
      <!-- 1 -->
      <g transform="translate(81.361813 216.829983)scale(0.1 -0.1)">
       <use xlink:href="#DejaVuSans-2212"/>
       <use xlink:href="#DejaVuSans-31" x="83.789062"/>
      </g>
     </g>
    </g>
    <g id="ytick_4">
     <g id="line2d_11">
      <g>
       <use xlink:href="#m7d57e05ec1" x="103.104" y="174.528" style="stroke: #000000; stroke-width: 0.8"/>
      </g>
     </g>
     <g id="text_12">
      <!-- 0 -->
      <g transform="translate(89.7415 178.327219)scale(0.1 -0.1)">
       <use xlink:href="#DejaVuSans-30"/>
      </g>
     </g>
    </g>
    <g id="ytick_5">
     <g id="line2d_12">
      <g>
       <use xlink:href="#m7d57e05ec1" x="103.104" y="136.025236" style="stroke: #000000; stroke-width: 0.8"/>
      </g>
     </g>
     <g id="text_13">
      <!-- 1 -->
      <g transform="translate(89.7415 139.824455)scale(0.1 -0.1)">
       <use xlink:href="#DejaVuSans-31"/>
      </g>
     </g>
    </g>
    <g id="ytick_6">
     <g id="line2d_13">
      <g>
       <use xlink:href="#m7d57e05ec1" x="103.104" y="97.522472" style="stroke: #000000; stroke-width: 0.8"/>
      </g>
     </g>
     <g id="text_14">
      <!-- 2 -->
      <g transform="translate(89.7415 101.321691)scale(0.1 -0.1)">
       <use xlink:href="#DejaVuSans-32"/>
      </g>
     </g>
    </g>
    <g id="ytick_7">
     <g id="line2d_14">
      <g>
       <use xlink:href="#m7d57e05ec1" x="103.104" y="59.019709" style="stroke: #000000; stroke-width: 0.8"/>
      </g>
     </g>
     <g id="text_15">
      <!-- 3 -->
      <g transform="translate(89.7415 62.818927)scale(0.1 -0.1)">
       <use xlink:href="#DejaVuSans-33"/>
      </g>
     </g>
    </g>
    <g id="text_16">
     <!-- $\dot{\theta}$ (rad/s) -->
     <g transform="translate(74.242281 206.253)rotate(-90)scale(0.15 -0.15)">
      <defs>
       <path id="DejaVuSans-307" d="M -1894 4863 
L -1319 4863 
L -1319 4134 
L -1894 4134 
L -1894 4863 
z
M -1600 3584 
L -1600 3584 
z
" transform="scale(0.015625)"/>
       <path id="DejaVuSans-2f" d="M 1625 4666 
L 2156 4666 
L 531 -594 
L 0 -594 
L 1625 4666 
z
" transform="scale(0.015625)"/>
       <path id="DejaVuSans-73" d="M 2834 3397 
L 2834 2853 
Q 2591 2978 2328 3040 
Q 2066 3103 1784 3103 
Q 1356 3103 1142 2972 
Q 928 2841 928 2578 
Q 928 2378 1081 2264 
Q 1234 2150 1697 2047 
L 1894 2003 
Q 2506 1872 2764 1633 
Q 3022 1394 3022 966 
Q 3022 478 2636 193 
Q 2250 -91 1575 -91 
Q 1294 -91 989 -36 
Q 684 19 347 128 
L 347 722 
Q 666 556 975 473 
Q 1284 391 1588 391 
Q 1994 391 2212 530 
Q 2431 669 2431 922 
Q 2431 1156 2273 1281 
Q 2116 1406 1581 1522 
L 1381 1569 
Q 847 1681 609 1914 
Q 372 2147 372 2553 
Q 372 3047 722 3315 
Q 1072 3584 1716 3584 
Q 2034 3584 2315 3537 
Q 2597 3491 2834 3397 
z
" transform="scale(0.015625)"/>
      </defs>
      <use xlink:href="#DejaVuSans-307" transform="translate(62.88916 34.015625)"/>
      <use xlink:href="#DejaVuSans-Oblique-3b8" transform="translate(0 0.75)"/>
      <use xlink:href="#DejaVuSans-20" transform="translate(61.181641 0.75)"/>
      <use xlink:href="#DejaVuSans-28" transform="translate(92.96875 0.75)"/>
      <use xlink:href="#DejaVuSans-72" transform="translate(131.982422 0.75)"/>
      <use xlink:href="#DejaVuSans-61" transform="translate(173.095703 0.75)"/>
      <use xlink:href="#DejaVuSans-64" transform="translate(234.375 0.75)"/>
      <use xlink:href="#DejaVuSans-2f" transform="translate(297.851562 0.75)"/>
      <use xlink:href="#DejaVuSans-73" transform="translate(331.542969 0.75)"/>
      <use xlink:href="#DejaVuSans-29" transform="translate(383.642578 0.75)"/>
     </g>
    </g>
   </g>
   <g id="patch_3">
    <path d="M 103.104 307.584 
L 103.104 41.472 
" style="fill: none; stroke: #000000; stroke-width: 0.8; stroke-linejoin: miter; stroke-linecap: square"/>
   </g>
   <g id="patch_4">
    <path d="M 369.216 307.584 
L 369.216 41.472 
" style="fill: none; stroke: #000000; stroke-width: 0.8; stroke-linejoin: miter; stroke-linecap: square"/>
   </g>
   <g id="patch_5">
    <path d="M 103.104 307.584 
L 369.216 307.584 
" style="fill: none; stroke: #000000; stroke-width: 0.8; stroke-linejoin: miter; stroke-linecap: square"/>
   </g>
   <g id="patch_6">
    <path d="M 103.104 41.472 
L 369.216 41.472 
" style="fill: none; stroke: #000000; stroke-width: 0.8; stroke-linejoin: miter; stroke-linecap: square"/>
   </g>
  </g>
 </g>
 <defs>
  <clipPath id="p9f04bcf9a1">
   <rect x="103.104" y="41.472" width="266.112" height="266.112"/>
  </clipPath>
 </defs>
</svg>
